<?xml version="1.0" standalone="no"?>
<!DOCTYPE svg PUBLIC "-//W3C//DTD SVG 1.1//EN" "http://www.w3.org/Graphics/SVG/1.1/DTD/svg11.dtd" >
<svg xmlns="http://www.w3.org/2000/svg" xmlns:xlink="http://www.w3.org/1999/xlink" version="1.1">
<metadata>
Created by FontForge 20161003 at Tue Dec 12 14:44:34 2017
 By www-data
Copyright (c) 1989, 2002 Adobe Systems Incorporated.  All Rights Reserved. (c) 1981, 2002 Heidelberger Druckmaschinen AG. All rights reserved.
</metadata>
<defs>
<font id="CochinLTStdItalic" horiz-adv-x="444" >
  <font-face 
    font-family="CochinLTStdItalic"
    font-weight="400"
    font-style="italic"
    font-stretch="normal"
    units-per-em="1000"
    panose-1="2 3 6 3 5 5 10 9 3 3"
    ascent="712"
    descent="-288"
    x-height="376"
    cap-height="654"
    bbox="-191 -234 1032 886"
    underline-thickness="50"
    underline-position="-150"
    slope="-20"
    unicode-range="U+0020-FB02"
  />
<missing-glyph horiz-adv-x="637" 
d="M137 0v700h500v-700h-500zM387 395l170 255h-340zM417 350l170 -255v510zM217 50h340l-170 255zM187 605v-510l170 255z" />
    <glyph glyph-name="fi" unicode="fi" horiz-adv-x="519" 
d="M365 352h-177q-122 -457 -234 -537q-41 -29 -66 -29q-50 0 -50 44q0 13 12.5 24.5t26.5 11.5q16 0 24 -6.5t9 -14.5t5 -14.5t12 -6.5q12 0 23.5 8.5t21 24.5t17 32t15 39t11.5 38.5t9.5 36t6.5 25.5q14 49 40 157.5t43 166.5h-86l4 24h90q18 64 43 118t62.5 106t92.5 82
t121 30q42 0 75 -19t33 -57q0 -22 -14 -33.5t-36 -11.5q-18 0 -30 13.5t-12 31.5t7 26q-24 28 -74 28q-30 0 -56 -18t-43.5 -43t-34 -64.5t-25 -67.5t-19.5 -69t-15 -52h249q-7 -22 -34 -92t-47.5 -129t-20.5 -78q0 -37 41 -37q20 0 46 17.5t43 35.5l18 18q5 0 5 -6
q0 -2 -9 -14t-25.5 -27.5t-36 -31t-43.5 -26t-45 -10.5q-74 0 -74 61q0 5 16 50t42 118.5t43 126.5z" />
    <glyph glyph-name="fl" unicode="fl" horiz-adv-x="519" 
d="M101 352h-87l5 24h90q11 57 37.5 114t65 108t93.5 82.5t116 31.5q10 0 29.5 -2.5t28.5 -2.5q14 0 40 5.5t33 6.5q0 -1 -34 -99.5t-74 -214.5t-73.5 -217.5t-33.5 -111.5q0 -30 43 -30q28 0 54 15t41 30l15 15q7 0 7 -6q0 -7 -28 -32t-70 -48.5t-71 -23.5q-33 0 -50 18.5
t-17 42.5q0 8 31 102t82 247t81 246q-44 38 -86 38q-34 0 -62 -22.5t-48.5 -64.5t-32.5 -76.5t-26.5 -86t-18.5 -64.5h97l-8 -24h-98q-5 -17 -22 -74.5t-23 -78.5t-22.5 -70.5t-26.5 -73.5t-27.5 -64.5t-32.5 -65.5t-36 -54t-43 -51q-32 -34 -70 -34q-18 0 -32.5 11.5
t-14.5 29.5q0 16 10 27.5t25 11.5q19 0 28 -8.5t14 -29.5q6 -2 10 -2q20 0 37.5 19.5t31.5 56t23 66t19.5 72.5t12.5 52q8 30 30.5 121t37.5 139z" />
    <glyph glyph-name=".notdef" horiz-adv-x="637" 
d="M137 0v700h500v-700h-500zM387 395l170 255h-340zM417 350l170 -255v510zM217 50h340l-170 255zM187 605v-510l170 255z" />
    <glyph glyph-name=".null" horiz-adv-x="0" 
 />
    <glyph glyph-name="nonmarkingreturn" horiz-adv-x="333" 
 />
    <glyph glyph-name="space" unicode=" " horiz-adv-x="222" 
 />
    <glyph glyph-name="exclam" unicode="!" horiz-adv-x="333" 
d="M140 153h-10q4 73 33 160t59.5 176t36.5 161h86q-4 -51 -24 -104.5t-47 -99.5t-54.5 -91.5t-50 -98.5t-29.5 -103zM121 124q21 0 34 -14t13 -38q0 -30 -17 -51t-44 -21q-21 0 -34 14t-13 38q0 30 17 51t44 21z" />
    <glyph glyph-name="quotedbl" unicode="&#x22;" horiz-adv-x="333" 
d="M323 589l-16 -204q0 -1 -0.5 -6t-1 -8.5t-2 -8t-4.5 -6.5t-7 -2t-7 2t-4.5 6.5t-2 8t-1 8.5t-0.5 6l-16 204q-6 81 31 81t31 -81zM196 589l-16 -204q0 -1 -0.5 -6t-1 -8.5t-2 -8t-4.5 -6.5t-7 -2t-7 2t-4.5 6.5t-2 8t-1 8.5t-0.5 6l-16 204q-6 81 31 81t31 -81z" />
    <glyph glyph-name="numbersign" unicode="#" 
d="M440 252l-6 -41h-103l-30 -211h-46l29 211h-131l-29 -211h-47l30 211h-102l6 41h102l20 146h-102l6 41h102l29 211h47l-30 -211h131l30 211h46l-30 -211h104l-6 -41h-103l-21 -146h104zM310 398h-131l-20 -146h131z" />
    <glyph glyph-name="dollar" unicode="$" 
d="M88 -91l31 93q-16 4 -57 17t-62 19l40 187h10q0 -36 1.5 -57.5t8 -54.5t23.5 -55t44 -33l98 289q-26 33 -40.5 53.5t-30 56.5t-15.5 67q0 73 60.5 116t137.5 43l31 92h28l-31 -94q66 -19 93 -36q-20 -57 -36 -139h-10q0 27 -0.5 36.5t-3.5 33t-8 35.5t-16 26t-27 22
l-85 -252q24 -32 34 -46t27.5 -44t25 -57t7.5 -55q0 -70 -57.5 -123t-127.5 -53q-8 0 -19.5 0.5t-15.5 0.5l-29 -88h-29zM245 291l-93 -275q9 -5 33 -5q51 0 83 45.5t32 98.5q0 58 -55 136zM252 396l79 235q-53 0 -89.5 -30.5t-36.5 -82.5t47 -122z" />
    <glyph glyph-name="percent" unicode="%" horiz-adv-x="833" 
d="M313 630q-46 0 -86 -53.5t-59.5 -115.5t-19.5 -105q0 -74 47 -74q46 0 86 53t59.5 115.5t19.5 104.5q0 75 -47 75zM653 650h41l-478 -660h-42zM676 358q-46 0 -86 -53.5t-59.5 -115.5t-19.5 -105q0 -74 47 -74q46 0 86 53t59.5 115.5t19.5 104.5q0 75 -47 75zM341 650
q81 0 81 -88q0 -60 -34.5 -129.5t-95.5 -120t-125 -50.5q-81 0 -81 88q0 60 34.5 129.5t95.5 120t125 50.5zM704 378q81 0 81 -88q0 -60 -34.5 -129.5t-95.5 -120t-125 -50.5q-81 0 -81 88q0 60 34.5 129.5t95.5 120t125 50.5z" />
    <glyph glyph-name="ampersand" unicode="&#x26;" horiz-adv-x="870" 
d="M499 250h-10q1 53 42 106t99 78q10 4 46.5 17t56.5 23t47 27.5t40 42t13 54.5t-19 48t-50 18q-33 0 -33 -27t21 -57q-55 0 -55 33q0 37 35 57t75 20q42 0 66 -25t24 -67q0 -44 -28 -73t-71.5 -45.5t-89 -29.5t-88.5 -33.5t-62 -49.5l2 -2q38 23 87 23q54 0 89.5 -32
t35.5 -82q0 -59 -47.5 -115t-117.5 -93.5t-146.5 -60.5t-136.5 -23q-40 0 -80 7t-80 23.5t-65 48t-25 75.5q0 65 47 128.5t107.5 99.5t105.5 36q25 0 42.5 -14.5t17.5 -41.5q0 -15 -10.5 -30t-34.5 -29.5t-41 -24t-54 -23.5t-47.5 -17.5t-45.5 -15.5q-11 -34 -11 -59
q0 -38 22 -65.5t57 -41.5t69.5 -20t69.5 -6q52 0 107.5 14.5t106.5 41.5t83.5 73.5t32.5 103.5q0 49 -28 76t-76 27q-40 0 -64 -28.5t-31 -69.5zM310 333q0 11 -5.5 22t-16.5 11q-42 0 -80 -53t-42 -93q41 7 92.5 42.5t51.5 70.5z" />
    <glyph glyph-name="quotesingle" unicode="'" horiz-adv-x="222" 
d="M212 589l-16 -204q0 -1 -0.5 -6t-1 -8.5t-2 -8t-4.5 -6.5t-7 -2t-7 2t-4.5 6.5t-2 8t-1 8.5t-0.5 6l-16 204q-6 81 31 81t31 -81z" />
    <glyph glyph-name="parenleft" unicode="(" 
d="M564 686l-1 -12q-93 -25 -166.5 -93t-116 -158t-64 -186.5t-21.5 -191.5q0 -67 23.5 -131.5t69.5 -105.5l-7 -10q-162 146 -162 347q0 179 134.5 341.5t310.5 199.5z" />
    <glyph glyph-name="parenright" unicode=")" 
d="M-130 -202l1 12q93 25 166.5 93t116 158t64 186.5t21.5 191.5q0 67 -23.5 131.5t-69.5 105.5l7 10q162 -146 162 -347q0 -179 -134.5 -341.5t-310.5 -199.5z" />
    <glyph glyph-name="asterisk" unicode="*" horiz-adv-x="500" 
d="M269 452l6 -8q-30 -72 -54 -87q-8 -5 -17 -5q-10 0 -20.5 10t-10.5 21t6.5 20t18.5 16.5t22.5 12t26.5 11t22 9.5zM275 533l-6 -7q-68 26 -84 48q-8 11 -8 23q0 10 10.5 20.5t21.5 10.5q10 0 18.5 -6t16.5 -20t12 -21.5t12 -27.5zM319 548h-8q-26 66 -26 90q0 14 9.5 23
t24.5 9q30 0 30 -32t-30 -90zM308 430h8q26 -66 26 -90q0 -14 -9.5 -23t-24.5 -9q-30 0 -30 32t30 90zM256 495v-10q-11 -3 -28.5 -9.5t-33 -11t-29.5 -4.5t-23.5 8.5t-9.5 22.5q0 12 8 21.5t20 9.5q32 0 96 -27zM373 483v10q11 3 28.5 9.5t33 11t29.5 4.5t23.5 -8.5
t9.5 -22.5q0 -12 -8 -21.5t-20 -9.5q-32 0 -96 27zM353 444l6 7q68 -26 84 -48q8 -12 8 -23q0 -10 -10.5 -20.5t-21.5 -10.5q-10 0 -18.5 6t-16.5 20t-12 21.5t-12 27.5zM360 526l-6 8q30 72 54 87q8 5 17 5q11 0 21 -10t10 -21t-6.5 -20t-18.5 -16.5t-22.5 -12t-26.5 -11
t-22 -9.5z" />
    <glyph glyph-name="plus" unicode="+" horiz-adv-x="500" 
d="M206 213v163h50v-163h162v-50h-162v-163h-50v163h-162v50h162z" />
    <glyph glyph-name="comma" unicode="," horiz-adv-x="222" 
d="M-79 -148l-7 9q42 29 76 76t34 91q0 29 -32 59q27 37 70 37q18 0 31 -12t13 -29q0 -115 -185 -231z" />
    <glyph glyph-name="hyphen" unicode="-" horiz-adv-x="333" 
d="M275 225l-28 -68q-18 -3 -37 -3q-18 0 -54 4.5t-54 4.5q-42 0 -77 -17q2 8 10.5 30t12.5 35q1 3 16 6t27 3q15 0 45 -3.5t46 -3.5q29 0 43.5 2t26 5t23.5 5z" />
    <glyph glyph-name="period" unicode="." horiz-adv-x="222" 
d="M59 124q21 0 34 -14t13 -38q0 -30 -17 -51t-44 -21q-21 0 -34 14t-13 38q0 30 17 51t44 21z" />
    <glyph glyph-name="slash" unicode="/" horiz-adv-x="278" 
d="M11 -20h-51l333 690h51z" />
    <glyph glyph-name="zero" unicode="0" 
d="M10 98q0 128 55 262t140 221t165 87q44 0 67.5 -30t23.5 -82q0 -128 -55 -263t-140 -223t-165 -88q-43 0 -67 32t-24 84zM90 107q0 -91 53 -91q51 0 97.5 63.5t76 152t47 175t17.5 140.5q0 87 -53 87q-51 0 -97.5 -63t-76 -150.5t-47 -173.5t-17.5 -140z" />
    <glyph glyph-name="one" unicode="1" 
d="M-1 -4v14l18 3t16 2.5t13 2.5t12 3t10 3.5t9.5 4.5t7 5.5t6.5 7.5t5 9t5 11q42 108 88 235t73 209t27 90q0 18 -42 18q-9 0 -27.5 -2.5t-27.5 -2.5v14q101 12 197 45l7 -7q-18 -27 -118 -314.5t-100 -302.5q0 -7 7 -13t18.5 -9t22.5 -5t24.5 -4t18.5 -3v-14q-64 4 -144 4
q-70 0 -126 -4z" />
    <glyph glyph-name="two" unicode="2" 
d="M-2 65h244q25 0 42 10t27 23t32 48l8 -7q-43 -82 -58 -139h-281q-64 0 -79 -4h-2l-4 16v2q40 45 105 102t120.5 103.5t108.5 97.5t83.5 104t30.5 103q0 61 -17.5 92.5t-62.5 31.5q-28 0 -50 -22.5t-31 -47.5t-16.5 -53.5t-8.5 -29.5l-74 21q2 67 58 109.5t124 42.5
q70 0 110 -41t40 -110q0 -51 -24 -98t-61.5 -82.5t-88 -72.5t-98 -65.5t-97 -65t-80.5 -68.5z" />
    <glyph glyph-name="three" unicode="3" 
d="M-80 -18l-2 18q60 7 120 25.5t118.5 49.5t95.5 82.5t37 113.5q0 45 -24.5 74.5t-68.5 29.5q-18 0 -55 -22v10l278 219l-2 2h-187q-12 0 -23.5 -2.5t-21 -7.5t-16 -9t-14 -11.5l-10.5 -10.5t-9 -11l-6 -8l-14 2l76 124h295l7 -26l-241 -193q57 -6 87 -50t30 -105
q0 -57 -31 -105.5t-79 -80t-110 -55.5t-119 -36t-111 -17z" />
    <glyph glyph-name="four" unicode="4" 
d="M266 0h-73l78 221h-286v10q126 140 290 297t202 157q5 0 9.5 -3.5t4.5 -8.5q0 -18 -22 -84q-40 0 -77 -14.5t-58 -30t-58 -47.5t-55 -46q-16 -12 -75 -72.5t-89 -99.5h234l77 228l79 30q-77 -213 -181 -537z" />
    <glyph glyph-name="five" unicode="5" 
d="M-45 -18v17q50 3 98.5 14.5t95.5 34t82 53.5t56.5 76.5t21.5 99.5t-28 84.5t-81 30.5q-50 0 -92 -39l-11 8q17 37 33.5 78t37.5 98t30 79q-10 14 -13 34h108q8 -21 32 -38q23 -14 48 -14q36 0 57.5 13.5t50.5 46.5l13 -13q-70 -93 -171 -93q-30 0 -62 13.5t-49 35.5
l-64 -159q30 11 71 11q76 0 123 -44t47 -115q0 -60 -28.5 -112t-73.5 -86.5t-103 -60t-116 -38t-113 -15.5z" />
    <glyph glyph-name="six" unicode="6" 
d="M507 668v-18q-110 -7 -199 -84.5t-130 -186.5q18 10 45 17q25 5 47 5q57 0 86.5 -39.5t29.5 -97.5q0 -54 -28 -119t-79.5 -114t-107.5 -49q-67 0 -100 55.5t-33 127.5q0 117 61 230t170.5 189.5t237.5 83.5zM102 92q0 -85 51 -85q40 0 77.5 55t57.5 119t20 103
q0 42 -19 67.5t-60 25.5q-40 0 -54 -14.5t-30 -60.5q-43 -125 -43 -210z" />
    <glyph glyph-name="seven" unicode="7" 
d="M156 0h-82q15 55 43.5 114.5t74.5 127.5t78.5 112.5t93.5 122.5t82 105h-224q-11 0 -19.5 -1.5t-15 -3t-12 -8t-9 -10.5t-9 -16.5t-8.5 -19.5t-10 -26.5t-12 -31.5h-14l51 185h334l3 -18q-93 -110 -197 -295t-148 -337z" />
    <glyph glyph-name="eight" unicode="8" 
d="M400 559q0 39 -21.5 64t-60.5 25q-43 0 -66 -35t-23 -80q0 -67 58 -152q50 25 81.5 74t31.5 104zM464 536q0 -102 -171 -165q22 -40 33.5 -64.5t23 -62.5t11.5 -71q0 -79 -54.5 -135t-133.5 -56q-62 0 -109.5 43t-47.5 105q0 22 6.5 43.5t13.5 36.5t26 34l27.5 27.5
t36 26.5t33.5 21.5t37 21.5q12 7 17 10q-52 84 -52 147q0 80 47.5 125t127.5 45q58 0 93 -37.5t35 -94.5zM289 155q0 14 -1.5 28t-7 29.5t-8.5 25t-12 27.5l-12 24t-14.5 27t-13.5 24q-57 -38 -93.5 -97.5t-36.5 -124.5q0 -40 21.5 -78t58.5 -38q59 0 89 45.5t30 107.5z" />
    <glyph glyph-name="nine" unicode="9" 
d="M-45 -18l-10 20q116 20 211.5 92.5t142.5 178.5q-48 -22 -83 -22q-63 0 -94.5 35.5t-31.5 98.5q0 58 28.5 122.5t82.5 112.5t117 48q58 0 88 -51.5t30 -117.5q0 -206 -136.5 -346t-344.5 -171zM168 368q0 -42 19 -67.5t60 -25.5q40 0 54 14.5t30 60.5q43 125 43 210
q0 84 -51 84q-40 0 -77.5 -55t-57.5 -118.5t-20 -102.5z" />
    <glyph glyph-name="colon" unicode=":" horiz-adv-x="222" 
d="M59 124q21 0 34 -14t13 -38q0 -30 -17 -51t-44 -21q-21 0 -34 14t-13 38q0 30 17 51t44 21zM143 384q21 0 34 -14t13 -38q0 -30 -17 -51t-44 -21q-21 0 -34 14t-13 38q0 30 17 51t44 21z" />
    <glyph glyph-name="semicolon" unicode=";" horiz-adv-x="222" 
d="M-79 -148l-7 9q42 29 76 76t34 91q0 29 -32 59q27 37 70 37q18 0 31 -12t13 -29q0 -115 -185 -231zM143 384q21 0 34 -14t13 -38q0 -30 -17 -51t-44 -21q-21 0 -34 14t-13 38q0 30 17 51t44 21z" />
    <glyph glyph-name="less" unicode="&#x3c;" horiz-adv-x="500" 
d="M414 47v-49l-366 159v50l366 171v-50l-320 -146z" />
    <glyph glyph-name="equal" unicode="=" horiz-adv-x="500" 
d="M418 284v-50h-374v50h374zM418 143v-50h-374v50h374z" />
    <glyph glyph-name="greater" unicode="&#x3e;" horiz-adv-x="500" 
d="M48 -2v49l320 135l-320 146v50l366 -171v-50z" />
    <glyph glyph-name="question" unicode="?" horiz-adv-x="389" 
d="M144 161h-10q5 57 36.5 122.5t66.5 113.5t63.5 103t28.5 94q0 22 -10.5 40t-32.5 18q-10 0 -19 -3t-17 -9.5t-13.5 -12t-12 -17t-10 -17.5t-10 -19l-8.5 -17q-12 1 -30.5 19t-18.5 30q0 21 46.5 42.5t76.5 21.5q52 0 87.5 -33.5t35.5 -85.5q0 -42 -21 -81t-53 -72.5
t-66 -67t-65 -78t-44 -91.5zM119 124q21 0 34 -14t13 -38q0 -30 -17 -51t-44 -21q-21 0 -34 14t-13 38q0 30 17 51t44 21z" />
    <glyph glyph-name="at" unicode="@" horiz-adv-x="800" 
d="M346 262q0 -43 18.5 -63.5t48.5 -20.5q35 0 72 59.5t46 158.5q0 63 -43 63q-44 0 -93 -56t-49 -141zM547 449l11 40h67l-65 -258q-1 -8 -3 -22t8 -27t32 -13q61 0 98.5 66t37.5 140q0 44 -20 90.5t-56 87t-93.5 66t-124.5 25.5q-125 0 -206 -91.5t-81 -253.5
q0 -113 82.5 -199t213.5 -86q60 0 102.5 12t95.5 36l14 -26q-130 -56 -211 -56q-75 0 -139 21.5t-106.5 56t-72.5 78.5t-43.5 88t-13.5 86q0 158 106.5 259t258.5 101q139 0 233.5 -84.5t94.5 -209.5q0 -54 -20.5 -107.5t-64.5 -92.5t-101 -39q-43 0 -66.5 27t-22.5 44h-2
q-12 -19 -44.5 -42.5t-70.5 -27.5q-13 -1 -26.5 3t-31 15t-28.5 38t-11 68q0 28 12.5 66.5t35.5 78t63 67t87 27.5q21 0 36.5 -9t20.5 -17t14 -26z" />
    <glyph glyph-name="A" unicode="A" horiz-adv-x="593" 
d="M199 308h192v265q-96 -111 -192 -265zM391 280h-207q-24 -33 -70 -118.5t-46 -109.5q0 -12 9 -20t18 -11t25.5 -6.5t20.5 -4.5v-14q-41 4 -122 4q-62 0 -113 -4v14q51 11 77 36t82 107q239 371 389 517l23 -6v-599q0 -14 7.5 -23.5t15 -13.5t24 -10t22.5 -8v-14
q-39 4 -117 4q-96 0 -144 -4v14q65 15 85.5 31t20.5 53v186z" />
    <glyph glyph-name="B" unicode="B" horiz-adv-x="593" 
d="M162 636l2 14q35 0 105 2t114 2q76 0 125 -35t49 -106q0 -63 -41.5 -94.5t-120.5 -49.5v-3q144 -13 144 -143q0 -56 -27.5 -101t-71 -71.5t-91 -40.5t-92.5 -14q-39 0 -90 2t-70 2q-90 0 -135 -4l2 14q54 11 70.5 21.5t29.5 47.5q40 107 109 303.5t69 215.5q0 31 -80 38z
M251 356l-103 -308q35 -32 98 -32q83 0 141 62t58 151q0 71 -49.5 98.5t-144.5 28.5zM347 628l-91 -252q53 0 89 6.5t67 24.5t46 55t15 94q0 34 -24.5 56t-68.5 22q-20 0 -33 -6z" />
    <glyph glyph-name="C" unicode="C" horiz-adv-x="630" 
d="M593 448h-10q-10 196 -139 196q-65 0 -122.5 -45t-94 -112t-58 -140.5t-21.5 -133.5q0 -82 37.5 -133.5t116.5 -51.5q137 0 261 189l13 -9q-47 -89 -135.5 -158.5t-179.5 -69.5q-93 0 -150 60.5t-57 154.5q0 118 61 227.5t167 178.5t226 69q64 0 126 -30
q-19 -75 -41 -192z" />
    <glyph glyph-name="D" unicode="D" horiz-adv-x="667" 
d="M165 0h-222l2 14q90 4 110 55q28 69 102 278.5t74 248.5q0 7 -4.5 13t-13 10t-17 7t-20.5 5.5t-20.5 4t-19 3t-13.5 1.5v10l71 2q14 0 104 4t131 4q225 0 225 -213q0 -100 -42.5 -192.5t-119 -158.5t-169.5 -86q-46 -10 -158 -10zM560 448q0 192 -146 192q-37 0 -75 -8
q-135 -388 -200 -597q33 -15 87 -15q80 0 145.5 39t105.5 101.5t61.5 137t21.5 150.5z" />
    <glyph glyph-name="E" unicode="E" horiz-adv-x="593" 
d="M-48 -4v11q5 2 19.5 6t20 5.5t16.5 6t16.5 8.5t12 10t10.5 14q26 51 106.5 286.5t80.5 252.5q0 15 -30.5 25.5t-57.5 14.5v14h454q0 -10 -1 -28t-1.5 -33t-0.5 -28q0 -1 3 -91h-12q-32 35 -56 150q-47 6 -189 6l-100 -268q45 0 69 0.5t48 6.5t34 10t26 21.5t23.5 29.5
t27.5 45h21q-60 -140 -101 -279h-19q7 65 7 110q0 32 -20 32h-123l-98 -295q17 -1 74.5 -7.5t108 -11t79.5 -4.5q91 118 152 168l8 -10q-14 -26 -26 -53t-28 -70t-21 -55q-37 3 -170 3q-78 1 -233 1q-73 0 -130 -4z" />
    <glyph glyph-name="F" unicode="F" horiz-adv-x="556" 
d="M336 628l-86 -260q77 0 111 6t56.5 24t53.5 63l8 -10q-60 -135 -91 -251h-11q-1 9 1 29.5t2 33.5q0 59 -22 73t-115 14q-6 -21 -29 -89t-41.5 -127t-18.5 -75q0 -20 50.5 -33t89.5 -16v-14q-87 4 -194 4q-81 0 -145 -4l2 14q67 16 80 25q14 11 23 38q8 23 56 159
t80.5 234t32.5 115q0 10 -9.5 19t-26.5 15t-30.5 9.5t-32 7t-21.5 4.5l2 14h486q-3 -28 -3 -85q0 -74 3 -110h-12q-6 14 -21 38.5t-24.5 53t-16.5 77.5z" />
    <glyph glyph-name="G" unicode="G" horiz-adv-x="685" 
d="M696 624l-59 -164h-12q-3 91 -33.5 138.5t-115.5 47.5q-70 0 -134 -46t-106.5 -115t-68 -146.5t-25.5 -142.5q0 -87 37.5 -139.5t120.5 -52.5q114 0 140 81q46 146 46 154q0 11 -18 19t-41.5 13.5t-28.5 8.5v12q117 -5 141 -5q56 0 128 5v-12q-46 -7 -67 -21.5t-38 -55
t-42 -138.5q24 -6 38 -5v-10q-12 -4 -48.5 -18t-55 -20t-49 -15t-57 -13t-52.5 -4q-109 0 -178.5 61t-69.5 168q0 93 38.5 179.5t101 147.5t142.5 97.5t162 36.5q101 0 204 -46z" />
    <glyph glyph-name="H" unicode="H" horiz-adv-x="722" 
d="M211 10v-14q-57 4 -130 4q-74 0 -134 -4v16q58 10 73.5 19.5t30.5 44.5q21 49 100 275t79 249q0 18 -16.5 25t-55.5 14q-3 1 -5 1v14q90 -4 135 -4q47 0 143 4v-14q-50 -7 -74 -22.5t-42 -58.5q-47 -116 -79 -215h284q3 12 43 124t40 128q0 10 -5 17.5t-16.5 12t-18 6.5
t-23 5t-17.5 3v14q96 -4 144 -4q26 0 73.5 2t62.5 2v-14q-49 -7 -89 -34q-19 -13 -110 -272.5t-91 -278.5q0 -20 34 -32.5t57 -12.5v-14q-59 4 -131 4q-86 0 -154 -4v14q58 7 76 23t42 80l73 203h-284q-4 -17 -46 -135.5t-42 -133.5q0 -16 26.5 -26t46.5 -11z" />
    <glyph glyph-name="I" unicode="I" horiz-adv-x="370" 
d="M-43 -4v14q61 15 77.5 25.5t27.5 42.5q4 13 53.5 147.5t87.5 246.5t38 131q0 18 -27.5 27t-53.5 10v14q94 -4 141 -4q52 0 136 4l-3 -14q-54 -5 -72 -18.5t-39 -64.5q-27 -65 -102.5 -281t-75.5 -235q0 -7 7 -12.5t18.5 -8.5t21.5 -5t22 -3.5t15 -1.5v-14q-63 4 -141 4
q-72 0 -131 -4z" />
    <glyph glyph-name="J" unicode="J" horiz-adv-x="500" 
d="M269 640v14q64 -4 143 -4q95 0 171 4v-14q-19 -2 -34 -5.5t-25.5 -6.5t-19.5 -11.5t-14 -13t-11 -18t-8.5 -19.5t-9 -25t-9.5 -28q-19 -55 -59.5 -178t-61.5 -179q-23 -63 -93.5 -119.5t-136.5 -56.5q-50 0 -85.5 28.5t-35.5 78.5q0 30 18 54.5t47 24.5q52 0 52 -49
q0 -21 -20 -36t-43 -15q1 -66 70 -66q16 0 31 6t28.5 19.5t25 26.5t22.5 35t19 37t17.5 40.5t14 38t12 36t9.5 28.5q30 86 67.5 206t37.5 129q0 21 -43.5 29.5t-75.5 8.5z" />
    <glyph glyph-name="K" unicode="K" horiz-adv-x="685" 
d="M-50 -4v17l18 4.5l24 6t22 7t20 10t11 12.5q32 71 111 300t79 244q0 8 -7.5 14.5t-21 11.5t-25 8t-25.5 6t-15 3v14q108 -4 164 -4q25 0 70.5 2t59.5 2v-14q-23 -3 -34 -5t-30.5 -8t-31 -17t-15.5 -27l-95 -259l2 -2q36 23 86 59t111.5 82.5t103.5 87t42 58.5q0 7 -7 12
t-18.5 8t-22.5 5t-22.5 3.5t-15.5 2.5v14q90 -4 135 -4q46 0 136 4v-14q-56 -21 -113 -56t-135 -93.5t-107 -77.5q13 -45 59.5 -174t63.5 -167q7 -16 20.5 -27t25 -15t33 -10t31.5 -10v-14q-65 4 -146 4q-78 0 -139 -4v14q4 2 21 7t28 9t21.5 11.5t10.5 15.5q0 29 -99 312
l-114 -76q-76 -211 -76 -239q0 -10 47.5 -24t70.5 -16v-14q-75 4 -169 4q-79 0 -143 -4z" />
    <glyph glyph-name="L" unicode="L" horiz-adv-x="574" 
d="M-55 -4v14q53 12 77 29.5t42 62.5q21 53 93.5 265.5t72.5 225.5q0 14 -11 22.5t-36.5 16t-27.5 8.5v14q17 0 73 -2t87 -2q61 0 183 4v-14q-155 -14 -173 -58q-27 -64 -107 -295t-80 -250q0 -13 82 -13q115 0 169 11q65 116 177 234l12 -9q-25 -36 -44 -85.5t-27 -83.5
t-20 -95q-17 3 -74 3q-54 1 -342 1q-70 0 -126 -4z" />
    <glyph glyph-name="M" unicode="M" horiz-adv-x="852" 
d="M-78 -4l3 20q74 77 256 318t182 256q0 11 -9 19.5t-24.5 13.5t-29 8t-30.5 5.5t-20 3.5v14q86 -4 130 -4q20 0 56 2t48 2q-27 -87 -63.5 -261.5t-58.5 -252.5l2 -2q341 416 375 485q2 3 10 31q11 0 45 -2t53 -2q30 0 88 4v-14q-55 -13 -77.5 -25.5t-30.5 -32.5
q-28 -71 -104.5 -289.5t-76.5 -241.5q0 -14 33.5 -25t61.5 -16v-14q-50 4 -151 4q-73 0 -132 -4l3 14q10 3 27 7.5t24 7t17 8t16 13t11 18.5q17 37 86.5 239.5t100.5 275.5l-2 3q-55 -75 -262.5 -338.5t-214.5 -263.5q-8 0 -8 12q0 10 24 115.5t54.5 243.5t41.5 211l-2 2
q-334 -464 -334 -506q0 -16 19.5 -26t49.5 -15.5t32 -6.5v-14q-84 4 -127 4q-62 0 -92 -4z" />
    <glyph glyph-name="N" unicode="N" horiz-adv-x="704" 
d="M-80 -4v14q49 8 81.5 22t47.5 48q19 42 96 263.5t77 232.5q0 25 -38.5 43.5t-66.5 20.5l3 14q11 0 47 -2t55 -2q16 0 46 2t46 2q54 -154 191 -513h2l106 324q32 100 32 113q0 9 -4 17t-12.5 14t-16 10t-20 8t-20 5.5l-20 4t-15.5 3.5v14q15 0 61.5 -2t72.5 -2
q23 0 65.5 2t55.5 2v-14q-47 -10 -71 -27.5t-42 -58.5q-28 -62 -94.5 -255.5t-100.5 -308.5h-18q-126 360 -218 578q-32 -92 -94 -285t-62 -215q0 -10 6.5 -18.5t21 -15t22.5 -10t27.5 -9t20.5 -5.5v-14q-59 4 -134 4q-76 0 -136 -4z" />
    <glyph glyph-name="O" unicode="O" horiz-adv-x="648" 
d="M467 670q83 0 125 -52.5t42 -140.5q0 -103 -57 -218t-156.5 -197t-206.5 -82q-83 0 -125 52.5t-42 140.5q0 103 57 218t156.5 197t206.5 82zM540 501q0 143 -116 143q-51 0 -97.5 -39t-79.5 -97.5t-57.5 -126.5t-36.5 -127.5t-12 -98.5q0 -143 113 -143q63 0 120 58
t91.5 140t54.5 161t20 130z" />
    <glyph glyph-name="P" unicode="P" horiz-adv-x="556" 
d="M296 10v-14q-32 4 -201 4q-80 0 -143 -4v14q32 5 52.5 11.5t32.5 18t16 18.5t12 24q21 46 93.5 263.5t72.5 242.5q0 10 -13 19.5t-27 14.5t-33.5 11t-23.5 7v14q64 -4 143 -4q17 0 53 2t53 2q78 0 137.5 -38t59.5 -108q0 -230 -359 -230q-3 -13 -35 -108t-32 -108
q0 -17 32.5 -29.5t59.5 -16.5t50 -6zM226 294q113 2 188.5 56t75.5 158q0 120 -130 120q-1 0 -22 -3q-22 -63 -61 -180t-51 -151z" />
    <glyph glyph-name="Q" unicode="Q" horiz-adv-x="648" 
d="M-29 -64l-2 12q72 28 136 28q55 0 175 -34t173 -34q93 0 175 71l9 -10q-132 -121 -286 -121q-49 0 -152.5 51t-157.5 51q-30 0 -70 -14zM467 670q83 0 125 -52.5t42 -140.5q0 -103 -57 -218t-156.5 -197t-206.5 -82q-83 0 -125 52.5t-42 140.5q0 103 57 218t156.5 197
t206.5 82zM540 501q0 143 -116 143q-51 0 -97.5 -39t-79.5 -97.5t-57.5 -126.5t-36.5 -127.5t-12 -98.5q0 -143 113 -143q63 0 120 58t91.5 140t54.5 161t20 130z" />
    <glyph glyph-name="R" unicode="R" horiz-adv-x="611" 
d="M597 10l-1 -10q-14 0 -41 -2t-40 -2q-73 0 -100 29t-34 104q-9 97 -19 123q-21 53 -93 61q-17 2 -38 2q-4 -15 -44 -132t-40 -136q0 -6 6.5 -11.5t18 -9.5t20 -7t21.5 -6t14 -3v-14q-44 4 -133 4q-93 0 -139 -4l2 14l37.5 7.5t25.5 9.5t17.5 10.5t12.5 17.5t11 22.5
t12 34.5q4 11 24.5 70.5t42 121t44.5 128t37.5 112.5t14.5 53q0 13 -14 21.5t-40 15t-27 6.5v14q74 -4 110 -4q19 0 59 2t59 2q38 0 70 -6t63 -19.5t49 -41.5t18 -68q0 -88 -71.5 -136t-167.5 -57v-2q35 -10 58.5 -26t36 -30t21 -45t10.5 -49l7 -63q6 -60 31 -79.5t89 -21.5
zM341 630l-104 -297q59 0 87 7q69 17 116 66.5t47 122.5q0 50 -31.5 77t-80.5 27q-21 0 -34 -3z" />
    <glyph glyph-name="S" unicode="S" horiz-adv-x="556" 
d="M8 33l46 210h12q0 -53 7 -92t26 -73t55.5 -52t91.5 -18q56 0 99 37t43 93q0 40 -16.5 74t-41.5 56.5t-54.5 47t-54.5 45t-41.5 50t-16.5 63.5q0 63 40 109t96.5 66.5t117.5 20.5q70 0 142 -38q-23 -66 -39 -170h-12q-12 180 -147 180q-51 0 -82.5 -35t-31.5 -86
q0 -34 16.5 -63t41.5 -49t54.5 -44t54.5 -46t41.5 -55.5t16.5 -72.5q0 -58 -39 -107.5t-95.5 -76.5t-112.5 -27q-14 0 -29 1.5t-26.5 3t-29 6t-26 6.5t-28.5 8.5t-25 8.5t-27.5 10t-25.5 9z" />
    <glyph glyph-name="T" unicode="T" horiz-adv-x="630" 
d="M388 624h-147q-47 -63 -136 -129l-10 7q12 23 24.5 48.5t28 56t23.5 47.5q89 -4 269 -4q174 0 261 4q-13 -130 -15 -176h-14q-35 61 -55 146h-136q-7 -21 -56 -162t-93 -269t-44 -133q0 -19 49.5 -32t90.5 -18v-14q-40 4 -203 4q-92 0 -165 -4v14q92 18 119 34
q17 10 95.5 238.5t113.5 341.5z" />
    <glyph glyph-name="U" unicode="U" horiz-adv-x="704" 
d="M132 643v11q64 -4 143 -4q51 0 151 4v-14q-87 -4 -111 -65q-33 -75 -92 -244t-59 -214q0 -54 38 -83.5t93 -29.5q39 0 76.5 14t87.5 59q33 30 114 258.5t81 255.5q0 12 -13 21t-27 13t-35 8.5t-26 6.5v14q90 -4 135 -4q37 0 111 4v-14q-61 -10 -79 -40q-11 -19 -37.5 -83
t-70 -168.5t-84.5 -192.5q-36 -79 -96 -127.5t-163 -48.5q-76 0 -132.5 46t-56.5 120q0 44 72.5 238t72.5 212q0 33 -93 47z" />
    <glyph glyph-name="V" unicode="V" horiz-adv-x="593" 
d="M248 547v-451l2 -2q82 105 161.5 225t122.5 194.5t43 85.5q0 12 -35.5 24t-76.5 17v14q14 0 56.5 -2t65.5 -2q18 0 51.5 2t44.5 2v-14q-29 -29 -222 -299.5t-272 -360.5l-25 6v606q0 6 -1.5 10.5t-5 8.5t-6 7t-9 6t-9.5 4.5t-11 3.5t-10.5 3t-11.5 3t-10 2v14
q67 -4 151 -4q21 0 60.5 2t52.5 2v-14q-52 -7 -79 -25.5t-27 -67.5z" />
    <glyph glyph-name="W" unicode="W" horiz-adv-x="926" 
d="M438 -11v260q-19 -22 -56 -67t-60 -72t-56 -64t-63 -66l-22 7q3 86 3 287q0 50 -0.5 158t-0.5 168q0 26 -79 40v14q78 -4 116 -4q24 0 68.5 2t58.5 2v-14q-33 -8 -57 -25.5t-24 -41.5q-2 -338 -2 -492l1 -2l173 206v314q0 15 -18 26t-36 15v14q78 -4 234 -4q111 0 167 4
v-14q-29 -25 -57 -54t-58.5 -65.5t-50 -60t-54 -68t-47.5 -60.5v-249h3q6 7 56 66.5t102 122.5t108.5 135t92.5 126.5t36 73.5q0 13 -31 22t-61 11v14q51 -4 115 -4q31 0 93 4v-14q-110 -120 -300.5 -343t-276.5 -317zM518 462v-96h3q21 32 65.5 89t70.5 95.5t26 57.5
q0 26 -60 26q-65 0 -85 -32.5t-20 -139.5z" />
    <glyph glyph-name="X" unicode="X" horiz-adv-x="648" 
d="M-80 -4v14q44 12 87.5 39t69.5 49.5t79 72.5l155 145l-80 281q-5 18 -45.5 30t-67.5 13v14q88 -4 133 -4q99 0 177 4v-14q-5 -1 -20 -3t-26.5 -4.5t-24.5 -7t-20 -12.5t-7 -19q0 -17 20.5 -109t29.5 -119q38 35 128 128t90 109q0 12 -36 22.5t-71 14.5v14q13 0 55 -2
t65 -2q41 0 123 4v-14q-51 -37 -107.5 -84.5t-132.5 -114.5t-109 -95q7 -24 19.5 -71t20.5 -76.5t20.5 -69.5t24.5 -73q4 -11 14.5 -18.5t20 -10.5t31.5 -8.5t33 -8.5v-14q-47 4 -141 4q-95 0 -143 -4v14q9 3 24.5 7t25 6.5t19.5 7t15 10.5t5 15t-12 59t-27 107.5t-18 73.5
l-45 -45t-73.5 -74t-64.5 -71.5t-30 -47.5t10 -19.5t21 -12t30.5 -9t26.5 -7.5v-14q-46 4 -139 4q-74 0 -133 -4z" />
    <glyph glyph-name="Y" unicode="Y" horiz-adv-x="630" 
d="M53 -4v14q84 12 108.5 25.5t41.5 59.5l81 223q-6 16 -25.5 82.5t-39.5 124t-35 79.5q-8 12 -44 23t-57 13v14q65 -4 146 -4q51 0 151 4v-14q-91 -9 -91 -40q0 -13 12.5 -59.5t33.5 -118.5t24 -84q224 236 224 259q0 8 -9.5 15t-24 11.5t-28.5 7.5t-27.5 5.5t-16.5 3.5v14
q16 0 64.5 -2t75.5 -2q21 0 58.5 2t49.5 2v-14q-65 -48 -181 -148t-177 -176q-9 -29 -31 -92t-36 -108.5t-14 -63.5q0 -22 123 -40q12 -1 17 -2v-14q-16 4 -197 4q-98 0 -176 -4z" />
    <glyph glyph-name="Z" unicode="Z" horiz-adv-x="630" 
d="M-22 -4l-5 23l600 609q-242 -2 -291 -4q-55 -83 -149 -162l-11 8q51 89 89 184q101 -4 229 -4q174 0 261 4v-14q-70 -75 -293 -295.5t-320 -320.5q220 2 329 12q52 58 89.5 89t101.5 68l8 -10q-74 -88 -123 -187q-45 4 -243 4q-226 0 -272 -4z" />
    <glyph glyph-name="bracketleft" unicode="[" 
d="M295 670h264l-9 -30h-182l-271 -794h182l-12 -30h-264z" />
    <glyph glyph-name="backslash" unicode="\" horiz-adv-x="278" 
d="M-60 670h50l348 -690h-50z" />
    <glyph glyph-name="bracketright" unicode="]" 
d="M137 -184h-264l9 30h182l271 794h-182l12 30h264z" />
    <glyph glyph-name="asciicircum" unicode="^" horiz-adv-x="500" 
d="M119 285h-55l184 365h46l184 -365h-55l-152 301z" />
    <glyph glyph-name="underscore" unicode="_" horiz-adv-x="500" 
d="M500 -125h-500v50h500v-50z" />
    <glyph glyph-name="grave" unicode="`" horiz-adv-x="259" 
d="M249 433h-31l-129 106q-20 16 -20 30t9.5 25t23.5 11q25 0 40 -22z" />
    <glyph glyph-name="a" unicode="a" horiz-adv-x="463" 
d="M57 78q0 -18 13 -30t31 -12q41 0 82 44t62 90q49 109 49 122q0 22 -25 40t-47 18q-17 0 -27.5 -4.5t-15 -9.5t-17.5 -23q-105 -144 -105 -235zM331 382h66q-20 -39 -68 -174.5t-48 -149.5t13 -21t28 -7q23 0 55 27t35 27q6 0 6 -4q0 -6 -22 -27.5t-62 -43t-77 -21.5
q-21 0 -39.5 11.5t-18.5 31.5q0 11 9.5 32.5t22.5 46.5t16 33l-2 2q-34 -54 -94.5 -105.5t-111.5 -51.5q-31 0 -45.5 24t-14.5 57q0 52 34 111.5t81.5 104t96.5 74t79 29.5q17 0 29.5 -11t17.5 -27q9 17 14 32z" />
    <glyph glyph-name="b" unicode="b" horiz-adv-x="426" 
d="M229 712h74q-19 -48 -55.5 -146.5t-64.5 -171.5t-52 -125l2 -2q34 45 83 83t93 38q31 0 50 -19t19 -50q0 -66 -49.5 -144.5t-123.5 -132.5t-140 -54q-36 0 -58 26t-22 43q0 3 9 24.5t24.5 59.5t27.5 73q4 11 30.5 83t70.5 190t82 225zM68 63q0 -17 20 -30t38 -13
q39 0 80 55.5t64.5 120t23.5 102.5q0 19 -10 34.5t-27 15.5q-43 0 -89 -56.5t-73 -123t-27 -105.5z" />
    <glyph glyph-name="c" unicode="c" horiz-adv-x="333" 
d="M66 107q0 -38 20 -58.5t57 -20.5q22 0 48.5 17.5t44 35.5t19.5 18q8 0 8 -7q0 -9 -28.5 -34t-72.5 -47.5t-79 -22.5q-46 0 -73.5 31.5t-27.5 77.5q0 57 41.5 125.5t105 117t121.5 48.5q26 0 42.5 -18.5t16.5 -44.5q0 -25 -11 -42.5t-35 -17.5q-36 0 -36 34q0 13 15 26
q-9 31 -49 31q-33 0 -64 -50.5t-47 -108t-16 -90.5z" />
    <glyph glyph-name="d" unicode="d" horiz-adv-x="407" 
d="M-10 86q0 69 38.5 131.5t90.5 100t100 59t73 21.5q8 0 8 -6q0 -3 -32 -15q-77 -28 -138.5 -113.5t-61.5 -167.5q0 -76 47 -76t91 66t72 156t45 172.5t17 124.5q0 68 -27 113.5t-91 45.5q-38 0 -71 -16t-49.5 -36t-29 -36t-15.5 -16q-6 0 -6 6q0 4 7.5 15.5t23 28t36 32
t51 26t62.5 10.5q89 0 134 -61.5t45 -154.5q0 -86 -33.5 -179.5t-83 -164.5t-109 -117.5t-110.5 -46.5q-41 0 -62.5 27.5t-21.5 70.5z" />
    <glyph glyph-name="e" unicode="e" horiz-adv-x="333" 
d="M223 325q0 23 -32 23q-34 0 -65.5 -48.5t-44.5 -92.5q42 6 92 43t50 75zM55 110q0 -78 71 -78q17 0 31.5 3.5t29.5 12.5t22 14.5t23 19.5t19 17l5 5l5 5t3 2q7 0 7 -4q0 -9 -29 -36.5t-80 -55t-96 -27.5q-42 0 -66.5 23t-24.5 64q0 62 46 136.5t111 125.5t117 51
q48 0 48 -48q0 -31 -24.5 -58.5t-63 -46t-71.5 -30t-64 -18.5q-19 -35 -19 -77z" />
    <glyph glyph-name="f" unicode="f" horiz-adv-x="278" 
d="M102 352h-85l3 24h89q11 49 47 125t90.5 143.5t100.5 67.5q20 0 29 -17t9 -39q0 -21 -25 -61.5t-45 -60.5l-6 1q1 9 5.5 28.5t6.5 34.5t2 28q0 38 -23 38q-31 0 -55 -61t-40 -139t-21 -88h95l-5 -24h-96q-69 -246 -124 -365q-93 -201 -187 -201q-20 0 -32.5 10t-12.5 28
q0 15 10 26.5t25 11.5q13 0 21.5 -7t12 -15t8 -15t9.5 -7q10 0 18.5 4.5t14 9.5t11.5 16.5t8.5 17t8 19.5t6.5 17q18 46 41 125.5t50 185.5t36 139z" />
    <glyph glyph-name="g" unicode="g" horiz-adv-x="426" 
d="M332 372l70 25q-18 -45 -54.5 -155t-71.5 -196.5t-71 -138.5q-45 -63 -108 -102t-134 -39q-32 0 -57.5 16.5t-25.5 47.5q0 20 11.5 34.5t30.5 14.5q51 0 51 -48q0 -1 -3 -34q6 -11 34 -11q36 0 69.5 26t59.5 71.5t44.5 86.5t38.5 92.5t27 67.5l-2 2q-23 -50 -79 -97
t-106 -47q-32 0 -49 20.5t-17 53.5q0 68 49.5 146t118 129t122.5 51q9 0 18 -3t18.5 -7t15.5 -6zM68 85q0 -53 45 -53q38 0 72.5 38.5t55.5 83.5q14 31 35 85t21 68q0 19 -24.5 30t-50.5 11q-49 0 -101.5 -101.5t-52.5 -161.5z" />
    <glyph glyph-name="h" unicode="h" horiz-adv-x="463" 
d="M-9 0l251 712h77q-33 -88 -98 -261t-89 -238l2 -2q112 177 210 177q35 0 55 -25t20 -61q0 -45 -33.5 -116.5t-89.5 -130.5t-109 -59q-40 0 -40 36q0 15 14 34t40 39t45.5 33t47.5 30l29 18q18 46 18 107q0 45 -39 45q-53 0 -106.5 -62t-87 -135.5t-49.5 -140.5h-68z
M317 166q-29 -13 -65.5 -49.5t-36.5 -62.5q0 -8 6.5 -15t14.5 -7q10 0 20.5 10t20 28t16 33t14.5 36.5t10 26.5z" />
    <glyph glyph-name="i" unicode="i" horiz-adv-x="259" 
d="M121 388h77q-5 -19 -59 -152t-54 -169q0 -14 13 -23.5t28 -9.5q23 0 47.5 17.5t41.5 35.5t20 18q5 0 5 -6q0 -8 -25.5 -34t-66 -51.5t-72.5 -25.5q-27 0 -51 16t-24 42q0 8 14.5 48t46.5 127t59 167zM238 664q46 0 46 -43q0 -22 -14.5 -38.5t-33.5 -16.5q-46 0 -46 43
q0 22 14.5 38.5t33.5 16.5z" />
    <glyph glyph-name="j" unicode="j" horiz-adv-x="241" 
d="M122 380h75q-7 -21 -34.5 -113t-44.5 -142.5t-46.5 -121.5t-58.5 -114q-81 -122 -151 -122q-23 0 -38 10.5t-15 29.5q0 17 10 29t27 12q19 0 27.5 -10t13.5 -19.5t16 -9.5q14 0 33 24.5t29 45.5q33 67 157 501zM248 664q46 0 46 -43q0 -22 -14.5 -38.5t-33.5 -16.5
q-46 0 -46 43q0 22 14.5 38.5t33.5 16.5z" />
    <glyph glyph-name="k" unicode="k" horiz-adv-x="481" 
d="M50 0h-68l249 712h75q-153 -411 -180 -476l2 -2q5 4 44 41.5t60 55.5t56 37.5t62 19.5q40 0 55.5 -15t15.5 -47q0 -10 -2 -34l-60 -11q-6 42 -16 52q-10 11 -33 11q-15 0 -33 -8t-29.5 -16t-32 -23.5t-25.5 -19.5q2 -5 10 -28t13 -36t14.5 -37.5t17.5 -40t19.5 -37
t23 -35t25 -26.5t28.5 -19t31 -6q13 0 25 3.5t19.5 7.5t8.5 4q4 0 4 -6q0 -9 -38 -21t-67 -12t-53 12.5t-39.5 27.5t-31.5 46t-23 48.5t-20 56.5t-17 50l-18 -14q-9 -28 -35 -101.5t-37 -113.5z" />
    <glyph glyph-name="l" unicode="l" horiz-adv-x="259" 
d="M222 712h75q-8 -25 -66.5 -188.5t-105 -301.5t-46.5 -158q0 -28 48 -28q21 0 46 13.5t41 26.5l16 14q5 0 5 -5t-27.5 -28.5t-69 -46t-69.5 -22.5q-26 0 -47 16.5t-21 42.5q0 9 32.5 103t89.5 260.5t99 301.5z" />
    <glyph glyph-name="m" unicode="m" horiz-adv-x="722" 
d="M-14 0l123 376h74l-65 -175l2 -2q58 91 84 120q63 69 139 69q24 0 39 -16t15 -41q0 -13 -11 -45t-26.5 -69.5t-18.5 -47.5l2 -2q7 12 27.5 47t31 52t32.5 44.5t41 41.5t46.5 25t57.5 11q24 0 42 -16.5t18 -40.5q0 -25 -48 -137t-48 -124q0 -20 9 -27t29 -7q17 0 38.5 16
t37.5 32.5t18 16.5q7 0 7 -6q0 -4 -22 -27.5t-60 -47.5t-71 -24q-24 0 -44.5 15.5t-20.5 38.5q0 14 48.5 128t48.5 137q0 14 -10 23.5t-24 9.5q-38 0 -78 -40.5t-72 -101.5t-54 -112.5t-35 -93.5h-70q5 23 53 150t48 160q0 38 -39 38q-34 0 -74 -44t-71.5 -105t-54 -115
t-29.5 -84h-65z" />
    <glyph glyph-name="n" unicode="n" horiz-adv-x="481" 
d="M110 376h76l-70 -190l2 -2q17 32 38 63t50 65t63 55t66 21q29 0 51 -14.5t22 -42.5q0 -25 -48.5 -136t-48.5 -131q0 -14 10 -22t23 -8q22 0 48 17.5t28 17.5q6 0 6 -6q0 -5 -21 -21t-54.5 -31t-59.5 -15q-27 0 -45.5 11.5t-18.5 35.5t48.5 133t48.5 134q0 34 -36 34
q-42 0 -93 -64t-87 -140t-55 -140h-67q33 109 124 376z" />
    <glyph glyph-name="o" unicode="o" horiz-adv-x="389" 
d="M346 296q0 -66 -42.5 -138.5t-108.5 -121t-128 -48.5q-48 0 -67 23.5t-19 68.5q0 64 48.5 137.5t114.5 122t116 48.5q48 0 67 -23.5t19 -68.5zM212 356q-42 0 -79.5 -59t-55.5 -124t-18 -104q0 -57 56 -57q42 0 79.5 59t55.5 124t18 104q0 57 -56 57z" />
    <glyph glyph-name="p" unicode="p" horiz-adv-x="426" 
d="M300 293q0 53 -55 53q-31 0 -62.5 -37t-52.5 -85.5t-34 -89.5t-13 -54q0 -26 19.5 -45t45.5 -19q40 0 77.5 57t56 120.5t18.5 99.5zM115 370h70q-26 -64 -39 -94l2 -2q22 35 38 55.5t45.5 39.5t62.5 19q41 0 62.5 -28t21.5 -70q0 -64 -45.5 -136t-108.5 -119t-113 -47
q-15 0 -57 14l-82 -236h-71q19 52 96 272.5t118 331.5z" />
    <glyph glyph-name="q" unicode="q" horiz-adv-x="426" 
d="M178 -234h-73q90 241 132 343l-2 2q-29 -42 -83 -82.5t-97 -40.5q-65 0 -65 73q0 68 49.5 145t124 129.5t142.5 52.5q45 0 84 -32q-25 -71 -100 -274t-112 -316zM68 82q0 -52 47 -52q52 0 117 97q11 17 21.5 42.5t27 74t25.5 73.5q-8 17 -26 30t-37 13q-39 0 -81.5 -55
t-68 -120.5t-25.5 -102.5z" />
    <glyph glyph-name="r" unicode="r" horiz-adv-x="352" 
d="M-14 0l123 376h74l-55 -145l2 -2q1 2 10 17.5t12 20.5t12.5 20.5t14.5 22l15 19.5t17 19.5t18 15.5t20 13t20 7.5t22 3.5q28 0 45.5 -17t17.5 -45q0 -25 -12 -45.5t-36 -20.5q-17 0 -27.5 10.5t-10.5 26.5q0 13 12 33q-10 10 -36 10q-29 0 -61 -41t-59 -106.5
t-42.5 -108.5t-27.5 -84h-68z" />
    <glyph glyph-name="s" unicode="s" horiz-adv-x="352" 
d="M14 174q18 0 37 -19q60 56 110.5 110.5t82.5 92.5t39 45q12 12 14 12q7 0 7 -9q0 -2 -5 -13t-12 -27t-10 -26q-4 -12 -5.5 -29t-2.5 -45.5t-2 -46.5q-6 -83 -82 -157t-138 -74q-43 0 -67.5 24t-24.5 68q0 35 14 64.5t45 29.5zM197 280l-143 -137q2 -6 2 -12
q0 -31 -43 -47q0 -68 65 -68q44 0 72 33.5t35 83.5q4 27 7 78t5 69z" />
    <glyph glyph-name="t" unicode="t" horiz-adv-x="296" 
d="M306 376l-6 -24h-129q-6 -22 -29.5 -90.5t-42 -126t-18.5 -72.5q0 -35 33 -35q21 0 43.5 12.5t36.5 25.5l14 12q6 0 6 -6q0 -12 -55 -48t-93 -36q-28 0 -46.5 15t-18.5 42l156 473l77 19l-55 -161h127z" />
    <glyph glyph-name="u" unicode="u" horiz-adv-x="481" 
d="M117 376h74q-6 -15 -37.5 -92t-52 -134.5t-20.5 -77.5q0 -36 37 -36q29 0 67 34.5t67 80.5q15 25 30 55.5t24 53t23 60t22 56.5h74q-2 -6 -18.5 -47t-30.5 -77t-30 -79t-25.5 -74.5t-9.5 -43.5q0 -27 36 -27q18 0 41.5 15.5t39.5 30.5l16 16q5 0 5 -5q0 -4 -20.5 -26.5
t-61 -46.5t-79.5 -24q-20 0 -39 12t-19 31q0 7 11 37.5t25 66.5t16 41l-2 2q-25 -59 -97 -124.5t-128 -65.5q-26 0 -42 12.5t-16 37.5q0 24 21 82t53.5 137.5t45.5 118.5z" />
    <glyph glyph-name="v" unicode="v" horiz-adv-x="370" 
d="M38 207q0 70 43 125.5t69 55.5q7 0 7 -7q0 -3 -8.5 -11t-18 -18t-18 -36t-8.5 -62t11 -100.5t13 -84.5q4 3 31 26t34 30t26 28t25.5 34.5t13.5 35t7 43.5q0 16 -7 45.5t-7 44.5q0 13 10.5 23.5t23.5 10.5q30 0 42 -19t12 -61q0 -15 -7 -33.5t-17.5 -35.5t-25 -35.5
t-29 -33.5t-30 -30.5t-26.5 -24.5t-20.5 -17.5t-10.5 -9.5q-27 -24 -49 -45t-33 -32.5t-19 -19.5t-11 -10.5t-4 -2.5q-7 0 -7 12q0 4 1 12.5t1 11.5q0 48 -7 107t-7 84z" />
    <glyph glyph-name="w" unicode="w" horiz-adv-x="556" 
d="M131 67l93 91q-2 14 -2 55q0 50 25.5 94t51 64.5t35.5 20.5q7 0 7 -5q0 -3 -8.5 -11t-19 -18t-19 -36t-8.5 -62q0 -32 9.5 -95t10.5 -94q43 33 69.5 57.5t50 64t23.5 79.5q0 17 -8.5 44t-8.5 36q0 17 11.5 28.5t25.5 11.5q19 0 36.5 -19.5t17.5 -56.5q0 -35 -39 -87
t-68 -79t-96 -85q-8 -8 -12 -11q-15 -13 -31 -32t-25 -30.5t-14 -11.5t-5 8q0 9 1.5 29t1.5 26q-1 22 -8 98q-55 -46 -96.5 -87t-55.5 -57.5t-17 -16.5q-5 0 -5 8q0 9 1.5 29t1.5 26q0 29 -6.5 85.5t-6.5 84.5q0 31 10.5 60.5t25 49.5t30.5 35t28 22.5t16 7.5q7 0 7 -7
q0 -5 -8.5 -11.5t-18 -15t-18 -34.5t-8.5 -64q0 -44 23 -189z" />
    <glyph glyph-name="x" unicode="x" horiz-adv-x="519" 
d="M-41 74q0 25 15.5 48t39.5 23q18 0 30 -11t12 -30q0 -21 -24 -32q-1 -5 -1 -14q0 -34 41 -34q38 0 78 45t66 93q-12 83 -25.5 122t-28 47.5t-43.5 8.5q-24 0 -41.5 -14t-26.5 -27.5t-12 -13.5q-4 0 -4 7q0 17 46.5 56.5t91.5 39.5q42 0 58 -22.5t30 -109.5h2q21 50 60 91
t84 41q31 0 48.5 -17t17.5 -49q0 -23 -10.5 -40.5t-31.5 -17.5q-17 0 -27.5 10t-10.5 27q0 15 16 42q-20 9 -34 9q-39 0 -71 -45t-38 -69q17 -125 37 -163.5t53 -38.5q22 0 43 13.5t33.5 26.5t14.5 13q7 0 7 -6q0 -5 -21 -27.5t-55.5 -45t-61.5 -22.5q-33 0 -47.5 8.5
t-25.5 40.5t-23 108q-33 -55 -85.5 -106t-99.5 -51q-35 0 -55.5 25t-20.5 61z" />
    <glyph glyph-name="y" unicode="y" 
d="M359 376h72q-25 -54 -58 -149t-66.5 -174.5t-76.5 -141.5q-34 -48 -92 -86.5t-111 -38.5q-32 0 -59 16t-27 46q0 21 13.5 31.5t34.5 10.5q19 0 30 -11t14 -24t12.5 -24t26.5 -11q20 0 37 8.5t27.5 17t23.5 29.5t17.5 30.5t15.5 34.5q3 7 5 11q11 26 33 78.5t33 78.5l-2 2
q-80 -110 -118 -110q-30 0 -41.5 14t-11.5 53q0 37 2.5 96t2.5 88q0 58 -7.5 72.5t-37.5 14.5q-21 0 -42 -21t-24 -21t-3 3q0 13 44 51t80 38q33 0 46.5 -13t13.5 -43q0 -6 -2 -34t-4.5 -73t-2.5 -92q0 -46 6 -59.5t28 -13.5q25 0 54 43t48 92t40 109.5t26 71.5z" />
    <glyph glyph-name="z" unicode="z" horiz-adv-x="407" 
d="M277 44q22 0 48 16.5t43.5 33.5t18.5 17q4 0 4 -6q0 -5 -25 -31t-66.5 -52t-74.5 -26q-41 0 -90 39q-2 2 -8.5 7.5t-9 7.5t-8 6t-8.5 6t-8 5t-8 4t-7.5 2t-8.5 1q-17 0 -26.5 -12t-12.5 -27t-12.5 -27t-25.5 -12q-43 0 -43 18q0 8 12 18.5t37 26.5t26 17q50 36 113.5 92
t105 95.5t44.5 40.5l-2 2q-14 -3 -30 -3q-20 0 -50 7q-36 6 -54 6q-28 0 -54 -14t-41 -31.5t-26 -31.5t-13 -14q-4 0 -4 6q0 7 29.5 41.5t74 69t75.5 34.5q27 0 65 -14q36 -15 51 -15q13 0 34.5 20.5t29.5 20.5q17 0 17 -19q0 -14 -52 -49q-38 -25 -72.5 -54.5t-89.5 -83
t-66 -63.5q29 -4 81 -39.5t87 -35.5z" />
    <glyph glyph-name="braceleft" unicode="{" 
d="M479 686l-4 -12q-39 -11 -64.5 -41.5t-43.5 -84.5l-59 -173q-21 -60 -47 -89.5t-81 -42.5v-2q53 -14 53 -57q0 -30 -16 -75l-59 -173q-16 -46 -16 -66q0 -47 38 -60l-4 -12q-55 0 -81.5 16t-26.5 63q0 23 14 65l63 183q14 39 14 62q0 39 -46 55q47 14 70 39.5t41 77.5
l63 183q30 87 73.5 115.5t118.5 28.5z" />
    <glyph glyph-name="bar" unicode="|" horiz-adv-x="222" 
d="M86 0v712h50v-712h-50z" />
    <glyph glyph-name="braceright" unicode="}" 
d="M-47 -202l4 12q39 11 64.5 41.5t43.5 84.5l59 173q21 60 47 89.5t81 42.5v2q-53 14 -53 57q0 30 16 75l59 173q16 46 16 66q0 47 -38 60l4 12q55 0 81.5 -16t26.5 -63q0 -23 -14 -65l-63 -183q-14 -39 -14 -62q0 -39 46 -55q-47 -14 -70 -39.5t-41 -77.5l-63 -183
q-30 -87 -73.5 -115.5t-118.5 -28.5z" />
    <glyph glyph-name="asciitilde" unicode="~" horiz-adv-x="500" 
d="M426 251l36 -36q-20 -27 -33 -42t-38 -29.5t-54 -14.5q-41 0 -102 33q-62 35 -115 35q-51 0 -84 -72l-36 36q45 86 125 86q39 0 111 -32q7 -3 21.5 -9.5t23 -10t20 -8t20.5 -6.5t17 -2q19 0 36.5 12t27 24.5t24.5 35.5z" />
    <glyph glyph-name="uni00A0" unicode="&#xa0;" horiz-adv-x="222" 
 />
    <glyph glyph-name="exclamdown" unicode="&#xa1;" horiz-adv-x="333" 
d="M193 283h10q-4 -73 -33 -160t-59.5 -176t-36.5 -161h-86q4 51 24 104.5t47 99.5t54.5 91.5t50 98.5t29.5 103zM212 312q-21 0 -34 14t-13 38q0 30 17 51t44 21q21 0 34 -14t13 -38q0 -30 -17 -51t-44 -21z" />
    <glyph glyph-name="cent" unicode="&#xa2;" 
d="M91 -85l29 85q-47 1 -74 39t-27 86q0 92 69.5 165t163.5 93l32 93l29 -7l-29 -81q39 -2 69.5 -21.5t30.5 -57.5q0 -21 -11 -38.5t-32 -17.5q-39 0 -39 33q0 20 19 30q-9 37 -48 40l-111 -320q9 -4 31 -4q43 0 78 20t54 40t23 20q7 0 7 -7q0 -10 -30 -36t-77 -49.5
t-84 -23.5q-11 0 -16 1l-31 -90zM136 44l108 316q-50 0 -86 -42t-49.5 -91.5t-13.5 -95.5q0 -68 41 -87z" />
    <glyph glyph-name="sterling" unicode="&#xa3;" 
d="M30 58h223q15 0 29 4t22.5 8t22 16t17.5 16.5t18.5 22t17.5 20.5l8 -6q-43 -68 -78 -143q-54 3 -110 3q-37 1 -110 1q-85 0 -145 -5h-2l-2 20v2q88 45 134 119.5t62 181.5h-77l7 24h75q7 49 16 88t27.5 85.5t43 78t64.5 53t90 21.5t79.5 -25t29.5 -75q0 -26 -14.5 -47.5
t-33.5 -21.5t-32 10t-13 29q0 16 11.5 26t27.5 12q3 76 -64 76q-18 0 -34 -7t-29 -23t-24 -31.5t-20.5 -41.5t-15.5 -43t-13 -48t-10 -43.5t-8 -41t-6 -31.5h129l-7 -24h-127q-15 -79 -63 -145.5t-118 -111.5z" />
    <glyph glyph-name="currency" unicode="&#xa4;" 
d="M31 151l45 47q-45 55 -45 127q0 80 46 127l-46 47l32 32l46 -45q54 45 128 45t128 -45l46 45l32 -32l-45 -44q45 -52 45 -130q0 -74 -44 -128l44 -46l-32 -32l-43 48q-55 -48 -131 -48t-131 48l-43 -48zM237 481q-63 0 -107.5 -47t-44.5 -109t45 -109t107 -47
q63 0 107.5 47t44.5 109t-45 109t-107 47z" />
    <glyph glyph-name="yen" unicode="&#xa5;" 
d="M43 -4v14q3 1 15 3l15 2.5t12.5 2.5t12.5 3.5t10 4t10 5t8 6t7.5 7.5t5 9.5t4.5 11.5l45 155h-131l6 24h131l18 69l-4 23h-134l6 24h124q-3 14 -12.5 62t-15.5 74t-16 58.5t-19 49.5q-7 12 -33.5 23t-41.5 13v14q48 -4 109 -4q38 0 112 4v-14q-4 -1 -18.5 -4t-24 -5.5
t-17.5 -11.5t-8 -23q0 -11 9.5 -58.5t24 -113.5t18.5 -86q167 235 167 259q0 9 -11.5 17.5t-23.5 12.5t-29 9l-16 4v14q13 0 49 -2t56 -2q16 0 44 2t36 2v-14q-99 -92 -233 -280h120l-6 -24h-131l-17 -23l-17 -69h154l-6 -24h-154l-32 -131q-4 -20 -4 -30q0 -18 19.5 -28
t50.5 -15t35 -6v-14q-96 4 -147 4q-46 0 -132 -4z" />
    <glyph glyph-name="brokenbar" unicode="&#xa6;" horiz-adv-x="222" 
d="M86 0v275h50v-275h-50zM86 437v275h50v-275h-50z" />
    <glyph glyph-name="section" unicode="&#xa7;" horiz-adv-x="500" 
d="M382 650q-44 0 -74 -25.5t-30 -68.5q0 -31 25 -71.5t55 -74t55 -78t25 -83.5q0 -68 -35 -108t-101 -40q-29 0 -44 8v-2q47 -58 47 -111q0 -75 -46.5 -115.5t-122.5 -40.5q-53 0 -92 28.5t-39 79.5q0 25 14.5 41.5t39.5 16.5q46 0 46 -46q0 -18 -11.5 -31t-22.5 -20
t-11 -12q0 -21 27 -29t53 -8q40 0 72.5 28t32.5 68q0 30 -25 71.5t-55 76.5t-55 83t-25 90q0 62 31 101t90 39q27 0 59 -10l2 2q-49 60 -49 117q0 72 43 108t116 36q50 0 89.5 -23t39.5 -70q0 -28 -16 -45t-43 -17q-19 0 -30 12.5t-11 31.5q0 21 18.5 38.5t18.5 21.5
q0 17 -20 24t-41 7zM229 393q-34 0 -57 -23t-23 -49q0 -47 50 -121.5t95 -74.5q34 0 57 23t23 49q0 47 -50 121.5t-95 74.5z" />
    <glyph glyph-name="dieresis" unicode="&#xa8;" horiz-adv-x="259" 
d="M117 547q19 0 34 -14.5t15 -36.5q0 -19 -14.5 -33t-34.5 -14q-19 0 -34 14.5t-15 36.5q0 19 14.5 33t34.5 14zM294 547q19 0 34 -14.5t15 -36.5q0 -19 -14.5 -33t-34.5 -14q-19 0 -34 14.5t-15 36.5q0 19 14.5 33t34.5 14z" />
    <glyph glyph-name="copyright" unicode="&#xa9;" horiz-adv-x="800" 
d="M400 -20q-141 0 -239 100.5t-98 243.5q0 144 98 245t239 101t239 -101t98 -245t-98 -244t-239 -100zM400 22q116 0 199.5 90.5t83.5 211.5q0 123 -83 213.5t-200 90.5q-116 0 -199.5 -91t-83.5 -213q0 -121 84 -211.5t199 -90.5zM551 241h16l-15 -69q-1 -12 -27 -20
q-54 -17 -105 -17q-93 0 -151 49.5t-58 149.5q0 32 13 64.5t37.5 62t68 47.5t97.5 18q49 0 103 -18q22 -7 22 -21v-70h-18q-4 37 -30 63t-80 26q-68 0 -104 -46t-37 -123q-1 -82 36 -132t111 -50q85 0 121 86z" />
    <glyph glyph-name="ordfeminine" unicode="&#xaa;" horiz-adv-x="278" 
d="M120 485q0 -10 7.5 -16.5t19.5 -6.5q25 0 50.5 25t37.5 51q31 57 31 69q0 13 -15.5 23t-29.5 10q-15 0 -21 -4t-16 -16q-64 -82 -64 -135zM300 664h44q-13 -25 -45.5 -108.5t-32.5 -92.5q0 -16 27 -16q16 0 37.5 16t24.5 16q4 0 4 -2q0 -4 -15 -17t-42 -26.5t-52 -13.5
q-15 0 -27.5 7t-12.5 20q0 7 6.5 20t15.5 29t11 20l-2 1q-23 -33 -63.5 -65t-75.5 -32q-21 0 -31.5 15t-10.5 35q0 63 76 130.5t123 67.5q25 0 30 -25h2q2 7 9 21z" />
    <glyph glyph-name="guillemotleft" unicode="&#xab;" 
d="M390 338l12 -10l-132 -135q13 -49 53 -141l-15 -14q-18 30 -45 70.5t-40 62t-13 30.5t19.5 24.5t72 51t88.5 61.5zM252 338l12 -10l-132 -135q13 -49 53 -141l-15 -14q-18 30 -45 70.5t-40 62t-13 30.5t19.5 24.5t72 51t88.5 61.5z" />
    <glyph glyph-name="logicalnot" unicode="&#xac;" horiz-adv-x="500" 
d="M368 83v151h-324v50h374v-201h-50z" />
    <glyph glyph-name="uni00AD" unicode="&#xad;" horiz-adv-x="333" 
d="M275 225l-28 -68q-18 -3 -37 -3q-18 0 -54 4.5t-54 4.5q-42 0 -77 -17q2 8 10.5 30t12.5 35q1 3 16 6t27 3q15 0 45 -3.5t46 -3.5q29 0 43.5 2t26 5t23.5 5z" />
    <glyph glyph-name="registered" unicode="&#xae;" horiz-adv-x="800" 
d="M239 498v17h177q48 0 82 -23.5t34 -68.5q0 -37 -22.5 -64.5t-58.5 -40.5l58 -79q42 -58 76 -85v-8h-64q-15 0 -28.5 17t-42.5 65.5t-50 79.5h-48v-97q0 -34 5.5 -39.5t43.5 -9.5v-16h-162v16q37 4 43 10t6 39v239q0 34 -6 39.5t-43 8.5zM352 495v-167h43q69 0 69 90
q0 77 -71 77h-41zM400 -20q-141 0 -239 100.5t-98 243.5q0 144 98 245t239 101t239 -101t98 -245t-98 -244t-239 -100zM400 22q116 0 199.5 90.5t83.5 211.5q0 123 -83 213.5t-200 90.5q-116 0 -199.5 -91t-83.5 -213q0 -121 84 -211.5t199 -90.5z" />
    <glyph glyph-name="macron" unicode="&#xaf;" horiz-adv-x="259" 
d="M344 521l-12 -48h-268l10 48h270z" />
    <glyph glyph-name="degree" unicode="&#xb0;" horiz-adv-x="400" 
d="M274 426q39 0 66 29.5t27 69.5t-27 69.5t-66 29.5t-66 -29.5t-27 -69.5t27 -69.5t66 -29.5zM274 382q-60 0 -101.5 41.5t-41.5 101.5t41.5 101.5t101.5 41.5t101.5 -41.5t41.5 -101.5t-41.5 -101.5t-101.5 -41.5z" />
    <glyph glyph-name="plusminus" unicode="&#xb1;" horiz-adv-x="500" 
d="M206 261v115h50v-115h162v-50h-162v-116h-50v116h-162v50h162zM44 0v50h374v-50h-374z" />
    <glyph glyph-name="twosuperior" unicode="&#xb2;" horiz-adv-x="266" 
d="M240 267h-195q-29 0 -41 -2h-2l-3 9v2q33 35 114 96t129 111.5t48 97.5q0 36 -11.5 54.5t-40.5 18.5q-17 0 -30.5 -13.5t-19 -28t-10.5 -31.5l-5 -17l-52 13q1 40 38 65.5t84 25.5q48 0 75.5 -24.5t27.5 -66.5q0 -45 -34.5 -85.5t-77.5 -65.5t-98.5 -58.5t-81.5 -58.5
h153q21 0 32.5 9t29.5 37l9 -5q-26 -46 -38 -83z" />
    <glyph glyph-name="threesuperior" unicode="&#xb3;" horiz-adv-x="266" 
d="M131 583l49 74h196l4 -16l-156 -115q37 -4 57 -30.5t20 -62.5q0 -42 -30.5 -76.5t-79 -54.5t-95.5 -31t-93 -15l-1 12q38 4 77 15t76 29.5t60.5 49t23.5 68.5q0 27 -16 44.5t-44 17.5q-12 0 -36 -13v6l179 128v2h-113q-35 0 -65 -34z" />
    <glyph glyph-name="acute" unicode="&#xb4;" horiz-adv-x="259" 
d="M175 433h-35l149 158q12 12 27 12q14 0 25 -11t11 -25q0 -5 -2.5 -10.5t-5.5 -9.5t-10.5 -9.5t-12 -8.5l-15 -10t-15.5 -10z" />
    <glyph glyph-name="mu" unicode="&#xb5;" horiz-adv-x="481" 
d="M351 376h74q-2 -6 -18.5 -47t-30.5 -77t-30 -79t-25.5 -74.5t-9.5 -43.5q0 -27 36 -27q18 0 41.5 15.5t39.5 30.5l16 16q5 0 5 -5q0 -4 -20.5 -26.5t-61 -46.5t-79.5 -24q-20 0 -39 12t-19 31q0 7 11 37.5t25 66.5t16 41l-2 2q-25 -59 -99 -124.5t-136 -65.5
q-9 -20 -15.5 -45t-11.5 -57.5t-8 -45.5q-6 -26 -14.5 -42.5t-19 -22.5t-17.5 -7.5t-16 -1.5q-17 0 -25.5 12.5t-8.5 27.5q0 25 38.5 112t47.5 117q15 48 61.5 174t60.5 167h74q-6 -15 -37.5 -92t-52 -134.5t-20.5 -77.5q0 -36 37 -36q29 0 67 34.5t67 80.5q15 25 30 55.5
t24 53t23 60t22 56.5z" />
    <glyph glyph-name="paragraph" unicode="&#xb6;" horiz-adv-x="600" 
d="M666 650l-7 -22q-60 -4 -77 -14t-29 -46l-266 -780h-50l284 832h-59l-284 -832h-50l154 452q-150 0 -150 123q0 130 83 208.5t211 78.5h240z" />
    <glyph glyph-name="periodcentered" unicode="&#xb7;" horiz-adv-x="222" 
d="M89 244q22 0 39 -17t17 -39q0 -23 -17 -39.5t-39 -16.5t-39 17t-17 39q0 23 17 39.5t39 16.5z" />
    <glyph glyph-name="cedilla" unicode="&#xb8;" horiz-adv-x="259" 
d="M-67 -105l-10 8l62 97h35l-43 -67q3 0 9.5 1t11.5 1.5t9 0.5q31 0 54 -17.5t23 -47.5q0 -46 -35 -67.5t-85 -21.5q-54 0 -91 21l16 27q43 -16 60 -16q65 0 65 45q0 19 -14 32t-33 13q-4 0 -34 -9z" />
    <glyph glyph-name="onesuperior" unicode="&#xb9;" horiz-adv-x="266" 
d="M35 265v10q47 8 55 15q7 5 12 16l110 282q12 31 12 32q0 10 -27 10q-6 0 -18 -1.5t-18 -1.5v13q69 9 134 28l4 -4q-5 -12 -16.5 -37.5t-16.5 -38.5l-100 -262q-8 -19 -8 -31q0 -4 4.5 -7.5t12 -5.5t14.5 -3t16 -2t12 -2v-10q-33 2 -96 2q-54 0 -86 -2z" />
    <glyph glyph-name="ordmasculine" unicode="&#xba;" horiz-adv-x="233" 
d="M327 611q0 -64 -61.5 -127.5t-125.5 -63.5q-33 0 -45.5 14.5t-12.5 42.5q0 60 67 125.5t120 65.5q33 0 45.5 -14.5t12.5 -42.5zM140 477q0 -33 35 -33q37 0 65.5 63t28.5 102q0 33 -35 33q-37 0 -65.5 -62.5t-28.5 -102.5z" />
    <glyph glyph-name="guillemotright" unicode="&#xbb;" 
d="M12 38l-12 10l132 135q-13 49 -53 141l15 14q18 -30 45 -70.5t40 -62t13 -30.5t-19.5 -24.5t-72 -51t-88.5 -61.5zM150 38l-12 10l132 135q-13 49 -53 141l15 14q18 -30 45 -70.5t40 -62t13 -30.5t-19.5 -24.5t-72 -51t-88.5 -61.5z" />
    <glyph glyph-name="onequarter" unicode="&#xbc;" horiz-adv-x="666" 
d="M374 167h148l50 137l60 18l-118 -322h-56l51 133h-186v3q79 82 187 178.5t133 96.5q13 0 13 -7q0 -3 -3 -13.5t-6.5 -22.5t-4.5 -15q-26 0 -50.5 -8.5t-37.5 -17.5t-37.5 -28.5t-35.5 -27.5t-49 -44t-58 -60zM595 668l-456 -686h-45l456 686h45zM35 265v10q47 8 55 15
q7 5 12 16l110 282q12 31 12 32q0 10 -27 10q-6 0 -18 -1.5t-18 -1.5v13q69 9 134 28l4 -4q-5 -12 -16.5 -37.5t-16.5 -38.5l-100 -262q-8 -19 -8 -31q0 -4 4.5 -7.5t12 -5.5t14.5 -3t16 -2t12 -2v-10q-33 2 -96 2q-54 0 -86 -2z" />
    <glyph glyph-name="onehalf" unicode="&#xbd;" horiz-adv-x="666" 
d="M580 668l-456 -686h-45l456 686h45zM540 0h-195q-29 0 -41 -2h-2l-3 9v2q33 35 114 96t129 111.5t48 97.5q0 36 -11.5 54.5t-40.5 18.5q-17 0 -30.5 -13.5t-19 -28t-10.5 -31.5l-5 -17l-52 13q1 40 38 65.5t84 25.5q48 0 75.5 -24.5t27.5 -66.5q0 -45 -34.5 -85.5
t-77.5 -65.5t-98.5 -58.5t-81.5 -58.5h153q21 0 32.5 9t29.5 37l9 -5q-26 -46 -38 -83zM35 265v10q47 8 55 15q7 5 12 16l110 282q12 31 12 32q0 10 -27 10q-6 0 -18 -1.5t-18 -1.5v13q69 9 134 28l4 -4q-5 -12 -16.5 -37.5t-16.5 -38.5l-100 -262q-8 -19 -8 -31
q0 -4 4.5 -7.5t12 -5.5t14.5 -3t16 -2t12 -2v-10q-33 2 -96 2q-54 0 -86 -2z" />
    <glyph glyph-name="threequarters" unicode="&#xbe;" horiz-adv-x="666" 
d="M131 583l49 74h196l4 -16l-156 -115q37 -4 57 -30.5t20 -62.5q0 -42 -30.5 -76.5t-79 -54.5t-95.5 -31t-93 -15l-1 12q38 4 77 15t76 29.5t60.5 49t23.5 68.5q0 27 -16 44.5t-44 17.5q-12 0 -36 -13v6l179 128v2h-113q-35 0 -65 -34zM374 167h148l50 137l60 18l-118 -322
h-56l51 133h-186v3q79 82 187 178.5t133 96.5q13 0 13 -7q0 -3 -3 -13.5t-6.5 -22.5t-4.5 -15q-26 0 -50.5 -8.5t-37.5 -17.5t-37.5 -28.5t-35.5 -27.5t-49 -44t-58 -60zM595 668l-456 -686h-45l456 686h45z" />
    <glyph glyph-name="questiondown" unicode="&#xbf;" horiz-adv-x="389" 
d="M245 275h10q-5 -57 -36.5 -122.5t-66.5 -113.5t-63.5 -103t-28.5 -94q0 -22 10.5 -40t32.5 -18q10 0 19 3t17 9.5t13.5 12t12 17t10 17.5t10 19l8.5 17q12 -1 30.5 -19t18.5 -30q0 -21 -46.5 -42.5t-76.5 -21.5q-52 0 -87.5 33.5t-35.5 85.5q0 42 21 81t53 72.5t66 67
t65 78t44 91.5zM270 312q-21 0 -34 14t-13 38q0 30 17 51t44 21q21 0 34 -14t13 -38q0 -30 -17 -51t-44 -21z" />
    <glyph glyph-name="Agrave" unicode="&#xc0;" horiz-adv-x="593" 
d="M199 308h192v265q-96 -111 -192 -265zM391 280h-207q-24 -33 -70 -118.5t-46 -109.5q0 -12 9 -20t18 -11t25.5 -6.5t20.5 -4.5v-14q-41 4 -122 4q-62 0 -113 -4v14q51 11 77 36t82 107q239 371 389 517l23 -6v-599q0 -14 7.5 -23.5t15 -13.5t24 -10t22.5 -8v-14
q-39 4 -117 4q-96 0 -144 -4v14q65 15 85.5 31t20.5 53v186zM532 687h-31l-129 106q-20 16 -20 30t9.5 25t23.5 11q25 0 40 -22z" />
    <glyph glyph-name="Aacute" unicode="&#xc1;" horiz-adv-x="593" 
d="M199 308h192v265q-96 -111 -192 -265zM391 280h-207q-24 -33 -70 -118.5t-46 -109.5q0 -12 9 -20t18 -11t25.5 -6.5t20.5 -4.5v-14q-41 4 -122 4q-62 0 -113 -4v14q51 11 77 36t82 107q239 371 389 517l23 -6v-599q0 -14 7.5 -23.5t15 -13.5t24 -10t22.5 -8v-14
q-39 4 -117 4q-96 0 -144 -4v14q65 15 85.5 31t20.5 53v186zM458 687h-35l149 158q12 12 27 12q14 0 25 -11t11 -25q0 -5 -2.5 -10.5t-5.5 -9.5t-10.5 -9.5t-12 -8.5l-15 -10t-15.5 -10z" />
    <glyph glyph-name="Acircumflex" unicode="&#xc2;" horiz-adv-x="593" 
d="M199 308h192v265q-96 -111 -192 -265zM391 280h-207q-24 -33 -70 -118.5t-46 -109.5q0 -12 9 -20t18 -11t25.5 -6.5t20.5 -4.5v-14q-41 4 -122 4q-62 0 -113 -4v14q51 11 77 36t82 107q239 371 389 517l23 -6v-599q0 -14 7.5 -23.5t15 -13.5t24 -10t22.5 -8v-14
q-39 4 -117 4q-96 0 -144 -4v14q65 15 85.5 31t20.5 53v186zM602 687h-37l-73 104l-127 -104h-39l148 170h49z" />
    <glyph glyph-name="Atilde" unicode="&#xc3;" horiz-adv-x="593" 
d="M199 308h192v265q-96 -111 -192 -265zM391 280h-207q-24 -33 -70 -118.5t-46 -109.5q0 -12 9 -20t18 -11t25.5 -6.5t20.5 -4.5v-14q-41 4 -122 4q-62 0 -113 -4v14q51 11 77 36t82 107q239 371 389 517l23 -6v-599q0 -14 7.5 -23.5t15 -13.5t24 -10t22.5 -8v-14
q-39 4 -117 4q-96 0 -144 -4v14q65 15 85.5 31t20.5 53v186zM617 818h26q-15 -104 -77 -104q-18 0 -77 23q-58 22 -72 22q-28 0 -43 -47h-27q18 106 83 106q25 0 75 -22t71 -22q19 0 27 11t14 33z" />
    <glyph glyph-name="Adieresis" unicode="&#xc4;" horiz-adv-x="593" 
d="M199 308h192v265q-96 -111 -192 -265zM391 280h-207q-24 -33 -70 -118.5t-46 -109.5q0 -12 9 -20t18 -11t25.5 -6.5t20.5 -4.5v-14q-41 4 -122 4q-62 0 -113 -4v14q51 11 77 36t82 107q239 371 389 517l23 -6v-599q0 -14 7.5 -23.5t15 -13.5t24 -10t22.5 -8v-14
q-39 4 -117 4q-96 0 -144 -4v14q65 15 85.5 31t20.5 53v186zM400 801q19 0 34 -14.5t15 -36.5q0 -19 -14.5 -33t-34.5 -14q-19 0 -34 14.5t-15 36.5q0 19 14.5 33t34.5 14zM577 801q19 0 34 -14.5t15 -36.5q0 -19 -14.5 -33t-34.5 -14q-19 0 -34 14.5t-15 36.5q0 19 14.5 33
t34.5 14z" />
    <glyph glyph-name="Aring" unicode="&#xc5;" horiz-adv-x="593" 
d="M199 308h192v265q-96 -111 -192 -265zM391 280h-207q-24 -33 -70 -118.5t-46 -109.5q0 -12 9 -20t18 -11t25.5 -6.5t20.5 -4.5v-14q-41 4 -122 4q-62 0 -113 -4v14q51 11 77 36t82 107q239 371 389 517l23 -6v-599q0 -14 7.5 -23.5t15 -13.5t24 -10t22.5 -8v-14
q-39 4 -117 4q-96 0 -144 -4v14q65 15 85.5 31t20.5 53v186zM489 886q41 0 70 -29.5t29 -70.5t-29 -70t-70 -29t-70 29.5t-29 70.5t29 70t70 29zM489 852q-27 0 -46 -18.5t-19 -46.5q0 -27 19 -46.5t46 -19.5t46 18.5t19 46.5q0 27 -19 46.5t-46 19.5z" />
    <glyph glyph-name="AE" unicode="&#xc6;" horiz-adv-x="889" 
d="M242 307h193l97 279l-2 2q-162 -143 -288 -281zM532 332l-98 -295q17 -1 74.5 -7.5t108 -11t79.5 -4.5q91 118 152 168l8 -10q-14 -26 -26 -53t-28 -70t-21 -55q-51 4 -403 4q-59 3 -130 -2v14q53 10 73 23.5t32 46.5l75 205h-205q-29 -24 -94 -117.5t-65 -118.5
q0 -10 8.5 -17t22.5 -11t26.5 -5.5t28 -3t19.5 -2.5v-14q-51 4 -115 4q-67 0 -90 -4v17q27 60 231.5 275.5t312.5 303.5q13 9 13 21q0 9 -10 13.5t-36 9.5t-31 6v12q50 -4 190 -4q175 0 262 4q0 -15 -1.5 -46t-1.5 -47q0 -15 1.5 -45t1.5 -44h-12q-37 52 -58 151
q-22 2 -191 7l-96 -274q44 0 68.5 0.5t49 6.5t34 9.5t26.5 21.5t24.5 29.5t29.5 45.5h17q-60 -140 -101 -279h-18q0 8 2 25t3 38.5t1 46.5q0 32 -20 32h-123z" />
    <glyph glyph-name="Ccedilla" unicode="&#xc7;" horiz-adv-x="630" 
d="M593 448h-10q-10 196 -139 196q-65 0 -122.5 -45t-94 -112t-58 -140.5t-21.5 -133.5q0 -82 37.5 -133.5t116.5 -51.5q137 0 261 189l13 -9q-47 -89 -135.5 -158.5t-179.5 -69.5q-3 0 -8.5 0.5t-8.5 0.5l-31 -48l30 3q31 0 54 -17.5t23 -47.5q0 -46 -35 -67.5t-85 -21.5
q-54 0 -91 21l16 27q43 -16 60 -16q65 0 65 45q0 19 -14 32t-33 13q-4 0 -34 -9l-10 8l52 82q-72 16 -114.5 72.5t-42.5 137.5q0 118 61 227.5t167 178.5t226 69q64 0 126 -30q-19 -75 -41 -192z" />
    <glyph glyph-name="Egrave" unicode="&#xc8;" horiz-adv-x="593" 
d="M-48 -4v11q5 2 19.5 6t20 5.5t16.5 6t16.5 8.5t12 10t10.5 14q26 51 106.5 286.5t80.5 252.5q0 15 -30.5 25.5t-57.5 14.5v14h454q0 -10 -1 -28t-1.5 -33t-0.5 -28q0 -1 3 -91h-12q-32 35 -56 150q-47 6 -189 6l-100 -268q45 0 69 0.5t48 6.5t34 10t26 21.5t23.5 29.5
t27.5 45h21q-60 -140 -101 -279h-19q7 65 7 110q0 32 -20 32h-123l-98 -295q17 -1 74.5 -7.5t108 -11t79.5 -4.5q91 118 152 168l8 -10q-14 -26 -26 -53t-28 -70t-21 -55q-37 3 -170 3q-78 1 -233 1q-73 0 -130 -4zM488 687h-31l-129 106q-20 16 -20 30t9.5 25t23.5 11
q25 0 40 -22z" />
    <glyph glyph-name="Eacute" unicode="&#xc9;" horiz-adv-x="593" 
d="M-48 -4v11q5 2 19.5 6t20 5.5t16.5 6t16.5 8.5t12 10t10.5 14q26 51 106.5 286.5t80.5 252.5q0 15 -30.5 25.5t-57.5 14.5v14h454q0 -10 -1 -28t-1.5 -33t-0.5 -28q0 -1 3 -91h-12q-32 35 -56 150q-47 6 -189 6l-100 -268q45 0 69 0.5t48 6.5t34 10t26 21.5t23.5 29.5
t27.5 45h21q-60 -140 -101 -279h-19q7 65 7 110q0 32 -20 32h-123l-98 -295q17 -1 74.5 -7.5t108 -11t79.5 -4.5q91 118 152 168l8 -10q-14 -26 -26 -53t-28 -70t-21 -55q-37 3 -170 3q-78 1 -233 1q-73 0 -130 -4zM414 687h-35l149 158q12 12 27 12q14 0 25 -11t11 -25
q0 -5 -2.5 -10.5t-5.5 -9.5t-10.5 -9.5t-12 -8.5l-15 -10t-15.5 -10z" />
    <glyph glyph-name="Ecircumflex" unicode="&#xca;" horiz-adv-x="593" 
d="M-48 -4v11q5 2 19.5 6t20 5.5t16.5 6t16.5 8.5t12 10t10.5 14q26 51 106.5 286.5t80.5 252.5q0 15 -30.5 25.5t-57.5 14.5v14h454q0 -10 -1 -28t-1.5 -33t-0.5 -28q0 -1 3 -91h-12q-32 35 -56 150q-47 6 -189 6l-100 -268q45 0 69 0.5t48 6.5t34 10t26 21.5t23.5 29.5
t27.5 45h21q-60 -140 -101 -279h-19q7 65 7 110q0 32 -20 32h-123l-98 -295q17 -1 74.5 -7.5t108 -11t79.5 -4.5q91 118 152 168l8 -10q-14 -26 -26 -53t-28 -70t-21 -55q-37 3 -170 3q-78 1 -233 1q-73 0 -130 -4zM558 687h-37l-73 104l-127 -104h-39l148 170h49z" />
    <glyph glyph-name="Edieresis" unicode="&#xcb;" horiz-adv-x="593" 
d="M-48 -4v11q5 2 19.5 6t20 5.5t16.5 6t16.5 8.5t12 10t10.5 14q26 51 106.5 286.5t80.5 252.5q0 15 -30.5 25.5t-57.5 14.5v14h454q0 -10 -1 -28t-1.5 -33t-0.5 -28q0 -1 3 -91h-12q-32 35 -56 150q-47 6 -189 6l-100 -268q45 0 69 0.5t48 6.5t34 10t26 21.5t23.5 29.5
t27.5 45h21q-60 -140 -101 -279h-19q7 65 7 110q0 32 -20 32h-123l-98 -295q17 -1 74.5 -7.5t108 -11t79.5 -4.5q91 118 152 168l8 -10q-14 -26 -26 -53t-28 -70t-21 -55q-37 3 -170 3q-78 1 -233 1q-73 0 -130 -4zM356 801q19 0 34 -14.5t15 -36.5q0 -19 -14.5 -33
t-34.5 -14q-19 0 -34 14.5t-15 36.5q0 19 14.5 33t34.5 14zM533 801q19 0 34 -14.5t15 -36.5q0 -19 -14.5 -33t-34.5 -14q-19 0 -34 14.5t-15 36.5q0 19 14.5 33t34.5 14z" />
    <glyph glyph-name="Igrave" unicode="&#xcc;" horiz-adv-x="370" 
d="M-43 -4v14q61 15 77.5 25.5t27.5 42.5q4 13 53.5 147.5t87.5 246.5t38 131q0 18 -27.5 27t-53.5 10v14q94 -4 141 -4q52 0 136 4l-3 -14q-54 -5 -72 -18.5t-39 -64.5q-27 -65 -102.5 -281t-75.5 -235q0 -7 7 -12.5t18.5 -8.5t21.5 -5t22 -3.5t15 -1.5v-14q-63 4 -141 4
q-72 0 -131 -4zM377 687h-31l-129 106q-20 16 -20 30t9.5 25t23.5 11q25 0 40 -22z" />
    <glyph glyph-name="Iacute" unicode="&#xcd;" horiz-adv-x="370" 
d="M-43 -4v14q61 15 77.5 25.5t27.5 42.5q4 13 53.5 147.5t87.5 246.5t38 131q0 18 -27.5 27t-53.5 10v14q94 -4 141 -4q52 0 136 4l-3 -14q-54 -5 -72 -18.5t-39 -64.5q-27 -65 -102.5 -281t-75.5 -235q0 -7 7 -12.5t18.5 -8.5t21.5 -5t22 -3.5t15 -1.5v-14q-63 4 -141 4
q-72 0 -131 -4zM303 687h-35l149 158q12 12 27 12q14 0 25 -11t11 -25q0 -5 -2.5 -10.5t-5.5 -9.5t-10.5 -9.5t-12 -8.5l-15 -10t-15.5 -10z" />
    <glyph glyph-name="Icircumflex" unicode="&#xce;" horiz-adv-x="370" 
d="M-43 -4v14q61 15 77.5 25.5t27.5 42.5q4 13 53.5 147.5t87.5 246.5t38 131q0 18 -27.5 27t-53.5 10v14q94 -4 141 -4q52 0 136 4l-3 -14q-54 -5 -72 -18.5t-39 -64.5q-27 -65 -102.5 -281t-75.5 -235q0 -7 7 -12.5t18.5 -8.5t21.5 -5t22 -3.5t15 -1.5v-14q-63 4 -141 4
q-72 0 -131 -4zM447 687h-37l-73 104l-127 -104h-39l148 170h49z" />
    <glyph glyph-name="Idieresis" unicode="&#xcf;" horiz-adv-x="370" 
d="M-43 -4v14q61 15 77.5 25.5t27.5 42.5q4 13 53.5 147.5t87.5 246.5t38 131q0 18 -27.5 27t-53.5 10v14q94 -4 141 -4q52 0 136 4l-3 -14q-54 -5 -72 -18.5t-39 -64.5q-27 -65 -102.5 -281t-75.5 -235q0 -7 7 -12.5t18.5 -8.5t21.5 -5t22 -3.5t15 -1.5v-14q-63 4 -141 4
q-72 0 -131 -4zM245 801q19 0 34 -14.5t15 -36.5q0 -19 -14.5 -33t-34.5 -14q-19 0 -34 14.5t-15 36.5q0 19 14.5 33t34.5 14zM422 801q19 0 34 -14.5t15 -36.5q0 -19 -14.5 -33t-34.5 -14q-19 0 -34 14.5t-15 36.5q0 19 14.5 33t34.5 14z" />
    <glyph glyph-name="Eth" unicode="&#xd0;" horiz-adv-x="667" 
d="M165 0h-222l2 14q90 4 110 55q66 175 91 247h-104v28h113q76 217 76 252q0 7 -4.5 13t-13 10t-17 7t-20.5 5.5t-20.5 4t-19 3t-13.5 1.5v10l71 2q14 0 104 4t131 4q225 0 225 -213q0 -100 -42.5 -192.5t-119 -158.5t-169.5 -86q-46 -10 -158 -10zM376 316h-146
q-58 -174 -91 -281q33 -15 87 -15q80 0 145.5 39t105.5 101.5t61.5 137t21.5 150.5q0 192 -146 192q-37 0 -75 -8q-58 -164 -99 -288h136v-28z" />
    <glyph glyph-name="Ntilde" unicode="&#xd1;" horiz-adv-x="704" 
d="M-80 -4v14q49 8 81.5 22t47.5 48q19 42 96 263.5t77 232.5q0 25 -38.5 43.5t-66.5 20.5l3 14q11 0 47 -2t55 -2q16 0 46 2t46 2q54 -154 191 -513h2l106 324q32 100 32 113q0 9 -4 17t-12.5 14t-16 10t-20 8t-20 5.5l-20 4t-15.5 3.5v14q15 0 61.5 -2t72.5 -2
q23 0 65.5 2t55.5 2v-14q-47 -10 -71 -27.5t-42 -58.5q-28 -62 -94.5 -255.5t-100.5 -308.5h-18q-126 360 -218 578q-32 -92 -94 -285t-62 -215q0 -10 6.5 -18.5t21 -15t22.5 -10t27.5 -9t20.5 -5.5v-14q-59 4 -134 4q-76 0 -136 -4zM632 818h26q-15 -104 -77 -104
q-18 0 -77 23q-58 22 -72 22q-28 0 -43 -47h-27q18 106 83 106q25 0 75 -22t71 -22q19 0 27 11t14 33z" />
    <glyph glyph-name="Ograve" unicode="&#xd2;" horiz-adv-x="648" 
d="M467 670q83 0 125 -52.5t42 -140.5q0 -103 -57 -218t-156.5 -197t-206.5 -82q-83 0 -125 52.5t-42 140.5q0 103 57 218t156.5 197t206.5 82zM540 501q0 143 -116 143q-51 0 -97.5 -39t-79.5 -97.5t-57.5 -126.5t-36.5 -127.5t-12 -98.5q0 -143 113 -143q63 0 120 58
t91.5 140t54.5 161t20 130zM531 687h-31l-129 106q-20 16 -20 30t9.5 25t23.5 11q25 0 40 -22z" />
    <glyph glyph-name="Oacute" unicode="&#xd3;" horiz-adv-x="648" 
d="M467 670q83 0 125 -52.5t42 -140.5q0 -103 -57 -218t-156.5 -197t-206.5 -82q-83 0 -125 52.5t-42 140.5q0 103 57 218t156.5 197t206.5 82zM540 501q0 143 -116 143q-51 0 -97.5 -39t-79.5 -97.5t-57.5 -126.5t-36.5 -127.5t-12 -98.5q0 -143 113 -143q63 0 120 58
t91.5 140t54.5 161t20 130zM457 687h-35l149 158q12 12 27 12q14 0 25 -11t11 -25q0 -5 -2.5 -10.5t-5.5 -9.5t-10.5 -9.5t-12 -8.5l-15 -10t-15.5 -10z" />
    <glyph glyph-name="Ocircumflex" unicode="&#xd4;" horiz-adv-x="648" 
d="M467 670q83 0 125 -52.5t42 -140.5q0 -103 -57 -218t-156.5 -197t-206.5 -82q-83 0 -125 52.5t-42 140.5q0 103 57 218t156.5 197t206.5 82zM540 501q0 143 -116 143q-51 0 -97.5 -39t-79.5 -97.5t-57.5 -126.5t-36.5 -127.5t-12 -98.5q0 -143 113 -143q63 0 120 58
t91.5 140t54.5 161t20 130zM601 687h-37l-73 104l-127 -104h-39l148 170h49z" />
    <glyph glyph-name="Otilde" unicode="&#xd5;" horiz-adv-x="648" 
d="M467 670q83 0 125 -52.5t42 -140.5q0 -103 -57 -218t-156.5 -197t-206.5 -82q-83 0 -125 52.5t-42 140.5q0 103 57 218t156.5 197t206.5 82zM540 501q0 143 -116 143q-51 0 -97.5 -39t-79.5 -97.5t-57.5 -126.5t-36.5 -127.5t-12 -98.5q0 -143 113 -143q63 0 120 58
t91.5 140t54.5 161t20 130zM616 818h26q-15 -104 -77 -104q-18 0 -77 23q-58 22 -72 22q-28 0 -43 -47h-27q18 106 83 106q25 0 75 -22t71 -22q19 0 27 11t14 33z" />
    <glyph glyph-name="Odieresis" unicode="&#xd6;" horiz-adv-x="648" 
d="M467 670q83 0 125 -52.5t42 -140.5q0 -103 -57 -218t-156.5 -197t-206.5 -82q-83 0 -125 52.5t-42 140.5q0 103 57 218t156.5 197t206.5 82zM540 501q0 143 -116 143q-51 0 -97.5 -39t-79.5 -97.5t-57.5 -126.5t-36.5 -127.5t-12 -98.5q0 -143 113 -143q63 0 120 58
t91.5 140t54.5 161t20 130zM399 801q19 0 34 -14.5t15 -36.5q0 -19 -14.5 -33t-34.5 -14q-19 0 -34 14.5t-15 36.5q0 19 14.5 33t34.5 14zM576 801q19 0 34 -14.5t15 -36.5q0 -19 -14.5 -33t-34.5 -14q-19 0 -34 14.5t-15 36.5q0 19 14.5 33t34.5 14z" />
    <glyph glyph-name="multiply" unicode="&#xd7;" horiz-adv-x="500" 
d="M381 0l-151 153l-151 -153l-35 36l150 152l-150 152l35 36l151 -153l151 153l35 -36l-150 -152l150 -152z" />
    <glyph glyph-name="Oslash" unicode="&#xd8;" horiz-adv-x="648" 
d="M537 539l-380 -469q25 -58 97 -58q63 0 120 58t91.5 140t54.5 161t20 130q0 20 -3 38zM146 105l382 471q-24 68 -104 68q-51 0 -97.5 -39t-79.5 -97.5t-57.5 -126.5t-36.5 -127.5t-12 -98.5q0 -30 5 -50zM110 12l-79 -97h-40l97 119q-41 50 -41 139q0 103 57 218
t156.5 197t206.5 82q65 0 108 -35l65 80h39l-83 -103q38 -51 38 -135q0 -103 -57 -218t-156.5 -197t-206.5 -82q-62 0 -104 32z" />
    <glyph glyph-name="Ugrave" unicode="&#xd9;" horiz-adv-x="704" 
d="M132 643v11q64 -4 143 -4q51 0 151 4v-14q-87 -4 -111 -65q-33 -75 -92 -244t-59 -214q0 -54 38 -83.5t93 -29.5q39 0 76.5 14t87.5 59q33 30 114 258.5t81 255.5q0 12 -13 21t-27 13t-35 8.5t-26 6.5v14q90 -4 135 -4q37 0 111 4v-14q-61 -10 -79 -40q-11 -19 -37.5 -83
t-70 -168.5t-84.5 -192.5q-36 -79 -96 -127.5t-163 -48.5q-76 0 -132.5 46t-56.5 120q0 44 72.5 238t72.5 212q0 33 -93 47zM559 687h-31l-129 106q-20 16 -20 30t9.5 25t23.5 11q25 0 40 -22z" />
    <glyph glyph-name="Uacute" unicode="&#xda;" horiz-adv-x="704" 
d="M132 643v11q64 -4 143 -4q51 0 151 4v-14q-87 -4 -111 -65q-33 -75 -92 -244t-59 -214q0 -54 38 -83.5t93 -29.5q39 0 76.5 14t87.5 59q33 30 114 258.5t81 255.5q0 12 -13 21t-27 13t-35 8.5t-26 6.5v14q90 -4 135 -4q37 0 111 4v-14q-61 -10 -79 -40q-11 -19 -37.5 -83
t-70 -168.5t-84.5 -192.5q-36 -79 -96 -127.5t-163 -48.5q-76 0 -132.5 46t-56.5 120q0 44 72.5 238t72.5 212q0 33 -93 47zM485 687h-35l149 158q12 12 27 12q14 0 25 -11t11 -25q0 -5 -2.5 -10.5t-5.5 -9.5t-10.5 -9.5t-12 -8.5l-15 -10t-15.5 -10z" />
    <glyph glyph-name="Ucircumflex" unicode="&#xdb;" horiz-adv-x="704" 
d="M132 643v11q64 -4 143 -4q51 0 151 4v-14q-87 -4 -111 -65q-33 -75 -92 -244t-59 -214q0 -54 38 -83.5t93 -29.5q39 0 76.5 14t87.5 59q33 30 114 258.5t81 255.5q0 12 -13 21t-27 13t-35 8.5t-26 6.5v14q90 -4 135 -4q37 0 111 4v-14q-61 -10 -79 -40q-11 -19 -37.5 -83
t-70 -168.5t-84.5 -192.5q-36 -79 -96 -127.5t-163 -48.5q-76 0 -132.5 46t-56.5 120q0 44 72.5 238t72.5 212q0 33 -93 47zM629 687h-37l-73 104l-127 -104h-39l148 170h49z" />
    <glyph glyph-name="Udieresis" unicode="&#xdc;" horiz-adv-x="704" 
d="M132 643v11q64 -4 143 -4q51 0 151 4v-14q-87 -4 -111 -65q-33 -75 -92 -244t-59 -214q0 -54 38 -83.5t93 -29.5q39 0 76.5 14t87.5 59q33 30 114 258.5t81 255.5q0 12 -13 21t-27 13t-35 8.5t-26 6.5v14q90 -4 135 -4q37 0 111 4v-14q-61 -10 -79 -40q-11 -19 -37.5 -83
t-70 -168.5t-84.5 -192.5q-36 -79 -96 -127.5t-163 -48.5q-76 0 -132.5 46t-56.5 120q0 44 72.5 238t72.5 212q0 33 -93 47zM427 801q19 0 34 -14.5t15 -36.5q0 -19 -14.5 -33t-34.5 -14q-19 0 -34 14.5t-15 36.5q0 19 14.5 33t34.5 14zM604 801q19 0 34 -14.5t15 -36.5
q0 -19 -14.5 -33t-34.5 -14q-19 0 -34 14.5t-15 36.5q0 19 14.5 33t34.5 14z" />
    <glyph glyph-name="Yacute" unicode="&#xdd;" horiz-adv-x="630" 
d="M53 -4v14q84 12 108.5 25.5t41.5 59.5l81 223q-6 16 -25.5 82.5t-39.5 124t-35 79.5q-8 12 -44 23t-57 13v14q65 -4 146 -4q51 0 151 4v-14q-91 -9 -91 -40q0 -13 12.5 -59.5t33.5 -118.5t24 -84q224 236 224 259q0 8 -9.5 15t-24 11.5t-28.5 7.5t-27.5 5.5t-16.5 3.5v14
q16 0 64.5 -2t75.5 -2q21 0 58.5 2t49.5 2v-14q-65 -48 -181 -148t-177 -176q-9 -29 -31 -92t-36 -108.5t-14 -63.5q0 -22 123 -40q12 -1 17 -2v-14q-16 4 -197 4q-98 0 -176 -4zM433 687h-35l149 158q12 12 27 12q14 0 25 -11t11 -25q0 -5 -2.5 -10.5t-5.5 -9.5t-10.5 -9.5
t-12 -8.5l-15 -10t-15.5 -10z" />
    <glyph glyph-name="Thorn" unicode="&#xde;" horiz-adv-x="556" 
d="M229 10v-14q-63 4 -141 4q-72 0 -131 -4v14q61 15 77.5 25.5t27.5 42.5q4 13 53.5 147.5t87.5 246.5t38 131q0 18 -27.5 27t-53.5 10v14q94 -4 141 -4q51 0 137 4l-4 -14q-50 -1 -74.5 -23t-45.5 -84q8 1 24 1q78 0 137.5 -38t59.5 -108q0 -55 -20.5 -96t-53 -65.5
t-80.5 -40t-95 -21t-104 -6.5q-5 -13 -21 -61.5t-16 -56.5q0 -12 15.5 -18t41.5 -9zM445 388q0 120 -130 120q-7 0 -11 -1q-64 -164 -117 -332q111 2 184.5 56.5t73.5 156.5z" />
    <glyph glyph-name="germandbls" unicode="&#xdf;" horiz-adv-x="537" 
d="M119 352h-87l7 24h89q23 75 72.5 150t123 130.5t145.5 55.5q39 0 65.5 -29t26.5 -68q0 -35 -15.5 -61t-38 -42t-45 -31t-38 -37t-15.5 -51q0 -39 22 -113t22 -108q0 -63 -55 -123.5t-118 -60.5q-41 0 -66 26t-25 67q0 29 14 47t42 18q13 0 23.5 -11t10.5 -30
q0 -10 -8 -21t-18 -13q3 -29 17.5 -41t44.5 -12q74 0 74 91q0 38 -24 108q-24 72 -24 107q0 38 15 66.5t36.5 47.5l43 38t36.5 47.5t15 66.5q0 90 -80 90q-40 0 -76 -36t-62 -95t-44.5 -112t-34 -110t-18.5 -65q-5 -14 -21.5 -62.5t-29.5 -84.5t-34 -89t-42.5 -91
t-46.5 -74.5t-53.5 -55.5t-57.5 -19q-19 0 -32 10t-13 28q0 15 10 25.5t25 10.5q14 0 22 -6t10.5 -14t7.5 -14t13 -6q49 0 85 134q10 36 45.5 178.5t58.5 219.5z" />
    <glyph glyph-name="agrave" unicode="&#xe0;" horiz-adv-x="463" 
d="M57 78q0 -18 13 -30t31 -12q41 0 82 44t62 90q49 109 49 122q0 22 -25 40t-47 18q-17 0 -27.5 -4.5t-15 -9.5t-17.5 -23q-105 -144 -105 -235zM331 382h66q-20 -39 -68 -174.5t-48 -149.5t13 -21t28 -7q23 0 55 27t35 27q6 0 6 -4q0 -6 -22 -27.5t-62 -43t-77 -21.5
q-21 0 -39.5 11.5t-18.5 31.5q0 11 9.5 32.5t22.5 46.5t16 33l-2 2q-34 -54 -94.5 -105.5t-111.5 -51.5q-31 0 -45.5 24t-14.5 57q0 52 34 111.5t81.5 104t96.5 74t79 29.5q17 0 29.5 -11t17.5 -27q9 17 14 32zM351 433h-31l-129 106q-20 16 -20 30t9.5 25t23.5 11
q25 0 40 -22z" />
    <glyph glyph-name="aacute" unicode="&#xe1;" horiz-adv-x="463" 
d="M57 78q0 -18 13 -30t31 -12q41 0 82 44t62 90q49 109 49 122q0 22 -25 40t-47 18q-17 0 -27.5 -4.5t-15 -9.5t-17.5 -23q-105 -144 -105 -235zM331 382h66q-20 -39 -68 -174.5t-48 -149.5t13 -21t28 -7q23 0 55 27t35 27q6 0 6 -4q0 -6 -22 -27.5t-62 -43t-77 -21.5
q-21 0 -39.5 11.5t-18.5 31.5q0 11 9.5 32.5t22.5 46.5t16 33l-2 2q-34 -54 -94.5 -105.5t-111.5 -51.5q-31 0 -45.5 24t-14.5 57q0 52 34 111.5t81.5 104t96.5 74t79 29.5q17 0 29.5 -11t17.5 -27q9 17 14 32zM277 433h-35l149 158q12 12 27 12q14 0 25 -11t11 -25
q0 -5 -2.5 -10.5t-5.5 -9.5t-10.5 -9.5t-12 -8.5l-15 -10t-15.5 -10z" />
    <glyph glyph-name="acircumflex" unicode="&#xe2;" horiz-adv-x="463" 
d="M57 78q0 -18 13 -30t31 -12q41 0 82 44t62 90q49 109 49 122q0 22 -25 40t-47 18q-17 0 -27.5 -4.5t-15 -9.5t-17.5 -23q-105 -144 -105 -235zM331 382h66q-20 -39 -68 -174.5t-48 -149.5t13 -21t28 -7q23 0 55 27t35 27q6 0 6 -4q0 -6 -22 -27.5t-62 -43t-77 -21.5
q-21 0 -39.5 11.5t-18.5 31.5q0 11 9.5 32.5t22.5 46.5t16 33l-2 2q-34 -54 -94.5 -105.5t-111.5 -51.5q-31 0 -45.5 24t-14.5 57q0 52 34 111.5t81.5 104t96.5 74t79 29.5q17 0 29.5 -11t17.5 -27q9 17 14 32zM421 433h-37l-73 104l-127 -104h-39l148 170h49z" />
    <glyph glyph-name="atilde" unicode="&#xe3;" horiz-adv-x="463" 
d="M57 78q0 -18 13 -30t31 -12q41 0 82 44t62 90q49 109 49 122q0 22 -25 40t-47 18q-17 0 -27.5 -4.5t-15 -9.5t-17.5 -23q-105 -144 -105 -235zM331 382h66q-20 -39 -68 -174.5t-48 -149.5t13 -21t28 -7q23 0 55 27t35 27q6 0 6 -4q0 -6 -22 -27.5t-62 -43t-77 -21.5
q-21 0 -39.5 11.5t-18.5 31.5q0 11 9.5 32.5t22.5 46.5t16 33l-2 2q-34 -54 -94.5 -105.5t-111.5 -51.5q-31 0 -45.5 24t-14.5 57q0 52 34 111.5t81.5 104t96.5 74t79 29.5q17 0 29.5 -11t17.5 -27q9 17 14 32zM436 564h26q-15 -104 -77 -104q-18 0 -77 23q-58 22 -72 22
q-28 0 -43 -47h-27q18 106 83 106q25 0 75 -22t71 -22q19 0 27 11t14 33z" />
    <glyph glyph-name="adieresis" unicode="&#xe4;" horiz-adv-x="463" 
d="M57 78q0 -18 13 -30t31 -12q41 0 82 44t62 90q49 109 49 122q0 22 -25 40t-47 18q-17 0 -27.5 -4.5t-15 -9.5t-17.5 -23q-105 -144 -105 -235zM331 382h66q-20 -39 -68 -174.5t-48 -149.5t13 -21t28 -7q23 0 55 27t35 27q6 0 6 -4q0 -6 -22 -27.5t-62 -43t-77 -21.5
q-21 0 -39.5 11.5t-18.5 31.5q0 11 9.5 32.5t22.5 46.5t16 33l-2 2q-34 -54 -94.5 -105.5t-111.5 -51.5q-31 0 -45.5 24t-14.5 57q0 52 34 111.5t81.5 104t96.5 74t79 29.5q17 0 29.5 -11t17.5 -27q9 17 14 32zM219 547q19 0 34 -14.5t15 -36.5q0 -19 -14.5 -33t-34.5 -14
q-19 0 -34 14.5t-15 36.5q0 19 14.5 33t34.5 14zM396 547q19 0 34 -14.5t15 -36.5q0 -19 -14.5 -33t-34.5 -14q-19 0 -34 14.5t-15 36.5q0 19 14.5 33t34.5 14z" />
    <glyph glyph-name="aring" unicode="&#xe5;" horiz-adv-x="463" 
d="M57 78q0 -18 13 -30t31 -12q41 0 82 44t62 90q49 109 49 122q0 22 -25 40t-47 18q-17 0 -27.5 -4.5t-15 -9.5t-17.5 -23q-105 -144 -105 -235zM331 382h66q-20 -39 -68 -174.5t-48 -149.5t13 -21t28 -7q23 0 55 27t35 27q6 0 6 -4q0 -6 -22 -27.5t-62 -43t-77 -21.5
q-21 0 -39.5 11.5t-18.5 31.5q0 11 9.5 32.5t22.5 46.5t16 33l-2 2q-34 -54 -94.5 -105.5t-111.5 -51.5q-31 0 -45.5 24t-14.5 57q0 52 34 111.5t81.5 104t96.5 74t79 29.5q17 0 29.5 -11t17.5 -27q9 17 14 32zM308 632q41 0 70 -29.5t29 -70.5t-29 -70t-70 -29t-70 29.5
t-29 70.5t29 70t70 29zM308 598q-27 0 -46 -18.5t-19 -46.5q0 -27 19 -46.5t46 -19.5t46 18.5t19 46.5q0 27 -19 46.5t-46 19.5z" />
    <glyph glyph-name="ae" unicode="&#xe6;" horiz-adv-x="574" 
d="M324 381h71l-20 -47l2 -2q3 3 12 10t12.5 10t11.5 9t13 9t13 7t15 6t15 3.5t17 1.5q21 0 34.5 -14.5t13.5 -34.5q0 -30 -21.5 -57t-62.5 -48.5t-64 -31t-63 -23.5q-11 -22 -11 -65q0 -37 15 -55.5t51 -18.5q29 0 58.5 16t47 35t31.5 35t16 16q7 0 7 -6q0 -12 -31.5 -46.5
t-84 -68t-96.5 -33.5q-45 0 -68.5 24.5t-23.5 69.5q0 31 7 45l-2 2q-22 -44 -85 -92.5t-107 -48.5q-30 0 -46.5 20.5t-16.5 52.5q0 57 36 119t84.5 106t95.5 73t72 29q16 0 25.5 -7.5t12 -13t5.5 -16.5h2zM110 38q24 0 52.5 22.5t47.5 48.5q18 25 38.5 69.5t31.5 76.5t11 37
q0 16 -17 34t-50 18q-9 0 -17 -2.5t-13 -4.5t-11.5 -9.5t-9 -10t-9.5 -13.5t-9 -14q-93 -133 -93 -207q0 -21 13.5 -33t34.5 -12zM456 317q0 11 -8 19.5t-19 8.5q-27 0 -50 -28t-34 -57t-17 -59q40 12 84 47t44 69z" />
    <glyph glyph-name="ccedilla" unicode="&#xe7;" horiz-adv-x="333" 
d="M66 107q0 -38 20 -58.5t57 -20.5q22 0 48.5 17.5t44 35.5t19.5 18q8 0 8 -7q0 -9 -27.5 -33.5t-71 -47t-78.5 -23.5l-35 -55q3 0 9.5 1t11.5 1.5t9 0.5q31 0 54 -17.5t23 -47.5q0 -46 -35 -67.5t-85 -21.5q-54 0 -91 21l16 27q43 -16 60 -16q65 0 65 45q0 19 -14 32
t-33 13q-4 0 -34 -9l-10 8l57 89q-33 10 -52.5 38.5t-19.5 66.5q0 57 41.5 125.5t105 117t121.5 48.5q26 0 42.5 -18.5t16.5 -44.5q0 -25 -11 -42.5t-35 -17.5q-36 0 -36 34q0 13 15 26q-9 31 -49 31q-33 0 -64 -50.5t-47 -108t-16 -90.5z" />
    <glyph glyph-name="egrave" unicode="&#xe8;" horiz-adv-x="333" 
d="M223 325q0 23 -32 23q-34 0 -65.5 -48.5t-44.5 -92.5q42 6 92 43t50 75zM55 110q0 -78 71 -78q17 0 31.5 3.5t29.5 12.5t22 14.5t23 19.5t19 17l5 5l5 5t3 2q7 0 7 -4q0 -9 -29 -36.5t-80 -55t-96 -27.5q-42 0 -66.5 23t-24.5 64q0 62 46 136.5t111 125.5t117 51
q48 0 48 -48q0 -31 -24.5 -58.5t-63 -46t-71.5 -30t-64 -18.5q-19 -35 -19 -77zM309 433h-31l-129 106q-20 16 -20 30t9.5 25t23.5 11q25 0 40 -22z" />
    <glyph glyph-name="eacute" unicode="&#xe9;" horiz-adv-x="333" 
d="M223 325q0 23 -32 23q-34 0 -65.5 -48.5t-44.5 -92.5q42 6 92 43t50 75zM55 110q0 -78 71 -78q17 0 31.5 3.5t29.5 12.5t22 14.5t23 19.5t19 17l5 5l5 5t3 2q7 0 7 -4q0 -9 -29 -36.5t-80 -55t-96 -27.5q-42 0 -66.5 23t-24.5 64q0 62 46 136.5t111 125.5t117 51
q48 0 48 -48q0 -31 -24.5 -58.5t-63 -46t-71.5 -30t-64 -18.5q-19 -35 -19 -77zM235 433h-35l149 158q12 12 27 12q14 0 25 -11t11 -25q0 -5 -2.5 -10.5t-5.5 -9.5t-10.5 -9.5t-12 -8.5l-15 -10t-15.5 -10z" />
    <glyph glyph-name="ecircumflex" unicode="&#xea;" horiz-adv-x="333" 
d="M223 325q0 23 -32 23q-34 0 -65.5 -48.5t-44.5 -92.5q42 6 92 43t50 75zM55 110q0 -78 71 -78q17 0 31.5 3.5t29.5 12.5t22 14.5t23 19.5t19 17l5 5l5 5t3 2q7 0 7 -4q0 -9 -29 -36.5t-80 -55t-96 -27.5q-42 0 -66.5 23t-24.5 64q0 62 46 136.5t111 125.5t117 51
q48 0 48 -48q0 -31 -24.5 -58.5t-63 -46t-71.5 -30t-64 -18.5q-19 -35 -19 -77zM379 433h-37l-73 104l-127 -104h-39l148 170h49z" />
    <glyph glyph-name="edieresis" unicode="&#xeb;" horiz-adv-x="333" 
d="M223 325q0 23 -32 23q-34 0 -65.5 -48.5t-44.5 -92.5q42 6 92 43t50 75zM55 110q0 -78 71 -78q17 0 31.5 3.5t29.5 12.5t22 14.5t23 19.5t19 17l5 5l5 5t3 2q7 0 7 -4q0 -9 -29 -36.5t-80 -55t-96 -27.5q-42 0 -66.5 23t-24.5 64q0 62 46 136.5t111 125.5t117 51
q48 0 48 -48q0 -31 -24.5 -58.5t-63 -46t-71.5 -30t-64 -18.5q-19 -35 -19 -77zM177 547q19 0 34 -14.5t15 -36.5q0 -19 -14.5 -33t-34.5 -14q-19 0 -34 14.5t-15 36.5q0 19 14.5 33t34.5 14zM354 547q19 0 34 -14.5t15 -36.5q0 -19 -14.5 -33t-34.5 -14q-19 0 -34 14.5
t-15 36.5q0 19 14.5 33t34.5 14z" />
    <glyph glyph-name="igrave" unicode="&#xec;" horiz-adv-x="259" 
d="M121 388h77q-5 -19 -59 -152t-54 -169q0 -14 13 -23.5t28 -9.5q23 0 47.5 17.5t41.5 35.5t20 18q5 0 5 -6q0 -8 -25.5 -34t-66 -51.5t-72.5 -25.5q-27 0 -51 16t-24 42q0 8 14.5 48t46.5 127t59 167zM237 433h-31l-129 106q-20 16 -20 30t9.5 25t23.5 11q25 0 40 -22z
" />
    <glyph glyph-name="iacute" unicode="&#xed;" horiz-adv-x="259" 
d="M121 388h77q-5 -19 -59 -152t-54 -169q0 -14 13 -23.5t28 -9.5q23 0 47.5 17.5t41.5 35.5t20 18q5 0 5 -6q0 -8 -25.5 -34t-66 -51.5t-72.5 -25.5q-27 0 -51 16t-24 42q0 8 14.5 48t46.5 127t59 167zM163 433h-35l149 158q12 12 27 12q14 0 25 -11t11 -25
q0 -5 -2.5 -10.5t-5.5 -9.5t-10.5 -9.5t-12 -8.5l-15 -10t-15.5 -10z" />
    <glyph glyph-name="icircumflex" unicode="&#xee;" horiz-adv-x="259" 
d="M121 388h77q-5 -19 -59 -152t-54 -169q0 -14 13 -23.5t28 -9.5q23 0 47.5 17.5t41.5 35.5t20 18q5 0 5 -6q0 -8 -25.5 -34t-66 -51.5t-72.5 -25.5q-27 0 -51 16t-24 42q0 8 14.5 48t46.5 127t59 167zM307 433h-37l-73 104l-127 -104h-39l148 170h49z" />
    <glyph glyph-name="idieresis" unicode="&#xef;" horiz-adv-x="259" 
d="M121 388h77q-5 -19 -59 -152t-54 -169q0 -14 13 -23.5t28 -9.5q23 0 47.5 17.5t41.5 35.5t20 18q5 0 5 -6q0 -8 -25.5 -34t-66 -51.5t-72.5 -25.5q-27 0 -51 16t-24 42q0 8 14.5 48t46.5 127t59 167zM105 547q19 0 34 -14.5t15 -36.5q0 -19 -14.5 -33t-34.5 -14
q-19 0 -34 14.5t-15 36.5q0 19 14.5 33t34.5 14zM282 547q19 0 34 -14.5t15 -36.5q0 -19 -14.5 -33t-34.5 -14q-19 0 -34 14.5t-15 36.5q0 19 14.5 33t34.5 14z" />
    <glyph glyph-name="eth" unicode="&#xf0;" horiz-adv-x="407" 
d="M520 609l-119 -39q9 -35 9 -74q0 -86 -33.5 -179.5t-83 -164.5t-109 -117.5t-110.5 -46.5q-41 0 -62.5 27.5t-21.5 70.5q0 69 38.5 131.5t90.5 100t100 59t73 21.5q8 0 8 -6q0 -3 -32 -15q-77 -28 -138.5 -113.5t-61.5 -167.5q0 -76 47 -76q57 0 111.5 100t84 222
t29.5 208l-117 -39l-13 30l127 42q-17 115 -115 115q-38 0 -71 -16t-49.5 -36t-29 -36t-15.5 -16q-6 0 -6 6q0 4 7.5 15.5t23 28t36 32t51 26t62.5 10.5q118 0 161 -111l115 38z" />
    <glyph glyph-name="ntilde" unicode="&#xf1;" horiz-adv-x="481" 
d="M110 376h76l-70 -190l2 -2q17 32 38 63t50 65t63 55t66 21q29 0 51 -14.5t22 -42.5q0 -25 -48.5 -136t-48.5 -131q0 -14 10 -22t23 -8q22 0 48 17.5t28 17.5q6 0 6 -6q0 -5 -21 -21t-54.5 -31t-59.5 -15q-27 0 -45.5 11.5t-18.5 35.5t48.5 133t48.5 134q0 34 -36 34
q-42 0 -93 -64t-87 -140t-55 -140h-67q33 109 124 376zM433 564h26q-15 -104 -77 -104q-18 0 -77 23q-58 22 -72 22q-28 0 -43 -47h-27q18 106 83 106q25 0 75 -22t71 -22q19 0 27 11t14 33z" />
    <glyph glyph-name="ograve" unicode="&#xf2;" horiz-adv-x="389" 
d="M346 296q0 -66 -42.5 -138.5t-108.5 -121t-128 -48.5q-48 0 -67 23.5t-19 68.5q0 64 48.5 137.5t114.5 122t116 48.5q48 0 67 -23.5t19 -68.5zM212 356q-42 0 -79.5 -59t-55.5 -124t-18 -104q0 -57 56 -57q42 0 79.5 59t55.5 124t18 104q0 57 -56 57zM326 433h-31
l-129 106q-20 16 -20 30t9.5 25t23.5 11q25 0 40 -22z" />
    <glyph glyph-name="oacute" unicode="&#xf3;" horiz-adv-x="389" 
d="M346 296q0 -66 -42.5 -138.5t-108.5 -121t-128 -48.5q-48 0 -67 23.5t-19 68.5q0 64 48.5 137.5t114.5 122t116 48.5q48 0 67 -23.5t19 -68.5zM212 356q-42 0 -79.5 -59t-55.5 -124t-18 -104q0 -57 56 -57q42 0 79.5 59t55.5 124t18 104q0 57 -56 57zM252 433h-35
l149 158q12 12 27 12q14 0 25 -11t11 -25q0 -5 -2.5 -10.5t-5.5 -9.5t-10.5 -9.5t-12 -8.5l-15 -10t-15.5 -10z" />
    <glyph glyph-name="ocircumflex" unicode="&#xf4;" horiz-adv-x="389" 
d="M346 296q0 -66 -42.5 -138.5t-108.5 -121t-128 -48.5q-48 0 -67 23.5t-19 68.5q0 64 48.5 137.5t114.5 122t116 48.5q48 0 67 -23.5t19 -68.5zM212 356q-42 0 -79.5 -59t-55.5 -124t-18 -104q0 -57 56 -57q42 0 79.5 59t55.5 124t18 104q0 57 -56 57zM396 433h-37
l-73 104l-127 -104h-39l148 170h49z" />
    <glyph glyph-name="otilde" unicode="&#xf5;" horiz-adv-x="389" 
d="M346 296q0 -66 -42.5 -138.5t-108.5 -121t-128 -48.5q-48 0 -67 23.5t-19 68.5q0 64 48.5 137.5t114.5 122t116 48.5q48 0 67 -23.5t19 -68.5zM212 356q-42 0 -79.5 -59t-55.5 -124t-18 -104q0 -57 56 -57q42 0 79.5 59t55.5 124t18 104q0 57 -56 57zM411 564h26
q-15 -104 -77 -104q-18 0 -77 23q-58 22 -72 22q-28 0 -43 -47h-27q18 106 83 106q25 0 75 -22t71 -22q19 0 27 11t14 33z" />
    <glyph glyph-name="odieresis" unicode="&#xf6;" horiz-adv-x="389" 
d="M346 296q0 -66 -42.5 -138.5t-108.5 -121t-128 -48.5q-48 0 -67 23.5t-19 68.5q0 64 48.5 137.5t114.5 122t116 48.5q48 0 67 -23.5t19 -68.5zM212 356q-42 0 -79.5 -59t-55.5 -124t-18 -104q0 -57 56 -57q42 0 79.5 59t55.5 124t18 104q0 57 -56 57zM194 547
q19 0 34 -14.5t15 -36.5q0 -19 -14.5 -33t-34.5 -14q-19 0 -34 14.5t-15 36.5q0 19 14.5 33t34.5 14zM371 547q19 0 34 -14.5t15 -36.5q0 -19 -14.5 -33t-34.5 -14q-19 0 -34 14.5t-15 36.5q0 19 14.5 33t34.5 14z" />
    <glyph glyph-name="divide" unicode="&#xf7;" horiz-adv-x="500" 
d="M418 213v-50h-374v50h374zM183 341q0 19 14.5 33t33.5 14q18 0 32.5 -14t14.5 -33t-14.5 -33.5t-32.5 -14.5q-19 0 -33.5 14.5t-14.5 33.5zM183 36q0 19 14.5 33t33.5 14q18 0 32.5 -14t14.5 -33t-14.5 -33.5t-32.5 -14.5q-19 0 -33.5 14.5t-14.5 33.5z" />
    <glyph glyph-name="oslash" unicode="&#xf8;" horiz-adv-x="389" 
d="M62 85l200 244q-13 27 -50 27q-30 0 -58.5 -31t-47.5 -75.5t-31 -88t-15 -74.5zM266 297l-204 -250q9 -35 53 -35q42 0 79 58.5t55 122.5t19 102zM-46 -85h-33l79 97q-19 22 -19 68q0 64 48.5 137.5t114.5 122t116 48.5q25 0 44 -7l58 70h33l-70 -85q21 -22 21 -70
q0 -66 -42.5 -138.5t-108.5 -121t-128 -48.5q-29 0 -46 9z" />
    <glyph glyph-name="ugrave" unicode="&#xf9;" horiz-adv-x="481" 
d="M117 376h74q-6 -15 -37.5 -92t-52 -134.5t-20.5 -77.5q0 -36 37 -36q29 0 67 34.5t67 80.5q15 25 30 55.5t24 53t23 60t22 56.5h74q-2 -6 -18.5 -47t-30.5 -77t-30 -79t-25.5 -74.5t-9.5 -43.5q0 -27 36 -27q18 0 41.5 15.5t39.5 30.5l16 16q5 0 5 -5q0 -4 -20.5 -26.5
t-61 -46.5t-79.5 -24q-20 0 -39 12t-19 31q0 7 11 37.5t25 66.5t16 41l-2 2q-25 -59 -97 -124.5t-128 -65.5q-26 0 -42 12.5t-16 37.5q0 24 21 82t53.5 137.5t45.5 118.5zM360 433h-31l-129 106q-20 16 -20 30t9.5 25t23.5 11q25 0 40 -22z" />
    <glyph glyph-name="uacute" unicode="&#xfa;" horiz-adv-x="481" 
d="M117 376h74q-6 -15 -37.5 -92t-52 -134.5t-20.5 -77.5q0 -36 37 -36q29 0 67 34.5t67 80.5q15 25 30 55.5t24 53t23 60t22 56.5h74q-2 -6 -18.5 -47t-30.5 -77t-30 -79t-25.5 -74.5t-9.5 -43.5q0 -27 36 -27q18 0 41.5 15.5t39.5 30.5l16 16q5 0 5 -5q0 -4 -20.5 -26.5
t-61 -46.5t-79.5 -24q-20 0 -39 12t-19 31q0 7 11 37.5t25 66.5t16 41l-2 2q-25 -59 -97 -124.5t-128 -65.5q-26 0 -42 12.5t-16 37.5q0 24 21 82t53.5 137.5t45.5 118.5zM286 433h-35l149 158q12 12 27 12q14 0 25 -11t11 -25q0 -5 -2.5 -10.5t-5.5 -9.5t-10.5 -9.5
t-12 -8.5l-15 -10t-15.5 -10z" />
    <glyph glyph-name="ucircumflex" unicode="&#xfb;" horiz-adv-x="481" 
d="M117 376h74q-6 -15 -37.5 -92t-52 -134.5t-20.5 -77.5q0 -36 37 -36q29 0 67 34.5t67 80.5q15 25 30 55.5t24 53t23 60t22 56.5h74q-2 -6 -18.5 -47t-30.5 -77t-30 -79t-25.5 -74.5t-9.5 -43.5q0 -27 36 -27q18 0 41.5 15.5t39.5 30.5l16 16q5 0 5 -5q0 -4 -20.5 -26.5
t-61 -46.5t-79.5 -24q-20 0 -39 12t-19 31q0 7 11 37.5t25 66.5t16 41l-2 2q-25 -59 -97 -124.5t-128 -65.5q-26 0 -42 12.5t-16 37.5q0 24 21 82t53.5 137.5t45.5 118.5zM430 433h-37l-73 104l-127 -104h-39l148 170h49z" />
    <glyph glyph-name="udieresis" unicode="&#xfc;" horiz-adv-x="481" 
d="M117 376h74q-6 -15 -37.5 -92t-52 -134.5t-20.5 -77.5q0 -36 37 -36q29 0 67 34.5t67 80.5q15 25 30 55.5t24 53t23 60t22 56.5h74q-2 -6 -18.5 -47t-30.5 -77t-30 -79t-25.5 -74.5t-9.5 -43.5q0 -27 36 -27q18 0 41.5 15.5t39.5 30.5l16 16q5 0 5 -5q0 -4 -20.5 -26.5
t-61 -46.5t-79.5 -24q-20 0 -39 12t-19 31q0 7 11 37.5t25 66.5t16 41l-2 2q-25 -59 -97 -124.5t-128 -65.5q-26 0 -42 12.5t-16 37.5q0 24 21 82t53.5 137.5t45.5 118.5zM228 547q19 0 34 -14.5t15 -36.5q0 -19 -14.5 -33t-34.5 -14q-19 0 -34 14.5t-15 36.5q0 19 14.5 33
t34.5 14zM405 547q19 0 34 -14.5t15 -36.5q0 -19 -14.5 -33t-34.5 -14q-19 0 -34 14.5t-15 36.5q0 19 14.5 33t34.5 14z" />
    <glyph glyph-name="yacute" unicode="&#xfd;" 
d="M359 376h72q-25 -54 -58 -149t-66.5 -174.5t-76.5 -141.5q-34 -48 -92 -86.5t-111 -38.5q-32 0 -59 16t-27 46q0 21 13.5 31.5t34.5 10.5q19 0 30 -11t14 -24t12.5 -24t26.5 -11q20 0 37 8.5t27.5 17t23.5 29.5t17.5 30.5t15.5 34.5q3 7 5 11q11 26 33 78.5t33 78.5l-2 2
q-80 -110 -118 -110q-30 0 -41.5 14t-11.5 53q0 37 2.5 96t2.5 88q0 58 -7.5 72.5t-37.5 14.5q-21 0 -42 -21t-24 -21t-3 3q0 13 44 51t80 38q33 0 46.5 -13t13.5 -43q0 -6 -2 -34t-4.5 -73t-2.5 -92q0 -46 6 -59.5t28 -13.5q25 0 54 43t48 92t40 109.5t26 71.5zM256 433
h-35l149 158q12 12 27 12q14 0 25 -11t11 -25q0 -5 -2.5 -10.5t-5.5 -9.5t-10.5 -9.5t-12 -8.5l-15 -10t-15.5 -10z" />
    <glyph glyph-name="thorn" unicode="&#xfe;" horiz-adv-x="426" 
d="M300 293q0 53 -55 53q-31 0 -62.5 -37t-52.5 -85.5t-34 -89.5t-13 -54q0 -26 19.5 -45t45.5 -19q40 0 77.5 57t56 120.5t18.5 99.5zM224 712h74l-152 -436l2 -2q22 35 38 55.5t45.5 39.5t62.5 19q41 0 62.5 -28t21.5 -70q0 -64 -45.5 -136t-108.5 -119t-113 -47
q-15 0 -57 14l-82 -236h-71q49 132 323 946z" />
    <glyph glyph-name="ydieresis" unicode="&#xff;" 
d="M359 376h72q-25 -54 -58 -149t-66.5 -174.5t-76.5 -141.5q-34 -48 -92 -86.5t-111 -38.5q-32 0 -59 16t-27 46q0 21 13.5 31.5t34.5 10.5q19 0 30 -11t14 -24t12.5 -24t26.5 -11q20 0 37 8.5t27.5 17t23.5 29.5t17.5 30.5t15.5 34.5q3 7 5 11q11 26 33 78.5t33 78.5l-2 2
q-80 -110 -118 -110q-30 0 -41.5 14t-11.5 53q0 37 2.5 96t2.5 88q0 58 -7.5 72.5t-37.5 14.5q-21 0 -42 -21t-24 -21t-3 3q0 13 44 51t80 38q33 0 46.5 -13t13.5 -43q0 -6 -2 -34t-4.5 -73t-2.5 -92q0 -46 6 -59.5t28 -13.5q25 0 54 43t48 92t40 109.5t26 71.5zM198 547
q19 0 34 -14.5t15 -36.5q0 -19 -14.5 -33t-34.5 -14q-19 0 -34 14.5t-15 36.5q0 19 14.5 33t34.5 14zM375 547q19 0 34 -14.5t15 -36.5q0 -19 -14.5 -33t-34.5 -14q-19 0 -34 14.5t-15 36.5q0 19 14.5 33t34.5 14z" />
    <glyph glyph-name="dotlessi" unicode="&#x131;" horiz-adv-x="259" 
d="M121 388h77q-5 -19 -59 -152t-54 -169q0 -14 13 -23.5t28 -9.5q23 0 47.5 17.5t41.5 35.5t20 18q5 0 5 -6q0 -8 -25.5 -34t-66 -51.5t-72.5 -25.5q-27 0 -51 16t-24 42q0 8 14.5 48t46.5 127t59 167z" />
    <glyph glyph-name="Lslash" unicode="&#x141;" horiz-adv-x="574" 
d="M566 269l12 -9q-25 -36 -44 -85.5t-27 -83.5t-20 -95q-17 3 -74 3q-54 1 -342 1q-70 0 -126 -4v14q53 12 77 29.5t42 62.5q16 39 72 203l-95 -22l12 31l93 22q84 241 84 257q0 14 -11 22.5t-36.5 16t-27.5 8.5v14q17 0 73 -2t87 -2q61 0 183 4v-14q-155 -14 -173 -58
q-26 -62 -82 -224l133 30l-12 -30l-132 -30q-94 -269 -94 -291q0 -13 82 -13q115 0 169 11q65 116 177 234z" />
    <glyph glyph-name="lslash" unicode="&#x142;" horiz-adv-x="259" 
d="M276 414l-8 -34l-93 -14q-96 -275 -96 -302q0 -28 48 -28q21 0 46 13.5t41 26.5l16 14q5 0 5 -5t-27.5 -28.5t-69 -46t-69.5 -22.5q-26 0 -47 16.5t-21 42.5q0 9 103 309l-83 -14l8 34l86 13q62 178 107 323h75q-2 -6 -110 -312z" />
    <glyph glyph-name="OE" unicode="&#x152;" horiz-adv-x="963" 
d="M148 200q0 -94 39.5 -146t119.5 -52q55 0 77 20t46 78q25 60 96 264t71 225q0 28 -41.5 40.5t-75.5 12.5q-59 0 -113 -30.5t-93 -79t-68 -107.5t-43.5 -117.5t-14.5 -107.5zM965 471h-12q-27 42 -36.5 67.5t-22.5 81.5l-189 6q-40 -101 -96 -268q43 0 67 0.5t48 6.5
t33.5 10t27 21.5t25.5 29.5t31 45h13q-58 -137 -102 -279h-13q0 11 2.5 43.5t2.5 48.5q0 30 -6 40t-22 10h-114q-42 -111 -102 -295q17 -1 74.5 -7.5t108 -11t79.5 -4.5q91 118 152 168l8 -10q-14 -26 -26 -53t-28 -70t-21 -55q-37 3 -164 3q-71 1 -189 1q-38 0 -112 -10
t-111 -10q-100 0 -157.5 58t-57.5 159q0 113 61.5 222t162 177t206.5 68q69 0 103 -8q24 -6 119 -6q171 0 257 4q-3 -87 -3 -90q0 -14 0.5 -29.5t1.5 -34.5t1 -29z" />
    <glyph glyph-name="oe" unicode="&#x153;" horiz-adv-x="574" 
d="M229 65q-25 -31 -70.5 -56t-82.5 -25q-41 0 -60.5 27t-19.5 69q0 64 43.5 135.5t112 120t132.5 48.5q31 0 47 -24t16 -57q27 30 63 55.5t66 25.5q47 0 47 -46q0 -31 -21.5 -59t-57 -49t-65.5 -34t-62 -23q-12 -27 -12 -71q0 -66 67 -66q23 0 47 10.5t41.5 25.5t31.5 30.5
t22.5 26t9.5 10.5q6 0 6 -7q0 -13 -30.5 -47.5t-82.5 -67.5t-98 -33q-71 0 -90 81zM74 85q0 -69 43 -69q42 0 79 54t55 116t18 103q0 32 -10 47.5t-41 15.5q-36 0 -71 -54.5t-54 -116.5t-19 -96zM449 316q0 8 -8 15t-16 7q-38 0 -66 -47.5t-37 -94.5q40 8 83.5 43t43.5 77z
" />
    <glyph glyph-name="Scaron" unicode="&#x160;" horiz-adv-x="556" 
d="M8 33l46 210h12q0 -53 7 -92t26 -73t55.5 -52t91.5 -18q56 0 99 37t43 93q0 40 -16.5 74t-41.5 56.5t-54.5 47t-54.5 45t-41.5 50t-16.5 63.5q0 63 40 109t96.5 66.5t117.5 20.5q70 0 142 -38q-23 -66 -39 -170h-12q-12 180 -147 180q-51 0 -82.5 -35t-31.5 -86
q0 -34 16.5 -63t41.5 -49t54.5 -44t54.5 -46t41.5 -55.5t16.5 -72.5q0 -58 -39 -107.5t-95.5 -76.5t-112.5 -27q-14 0 -29 1.5t-26.5 3t-29 6t-26 6.5t-28.5 8.5t-25 8.5t-27.5 10t-25.5 9zM427 687h-46l-87 169h37l81 -105l133 105h36z" />
    <glyph glyph-name="scaron" unicode="&#x161;" horiz-adv-x="352" 
d="M14 174q18 0 37 -19q60 56 110.5 110.5t82.5 92.5t39 45q12 12 14 12q7 0 7 -9q0 -2 -5 -13t-12 -27t-10 -26q-4 -12 -5.5 -29t-2.5 -45.5t-2 -46.5q-6 -83 -82 -157t-138 -74q-43 0 -67.5 24t-24.5 68q0 35 14 64.5t45 29.5zM197 280l-143 -137q2 -6 2 -12
q0 -31 -43 -47q0 -68 65 -68q44 0 72 33.5t35 83.5q4 27 7 78t5 69zM259 433h-46l-87 169h37l81 -105l133 105h36z" />
    <glyph glyph-name="Ydieresis" unicode="&#x178;" horiz-adv-x="630" 
d="M53 -4v14q84 12 108.5 25.5t41.5 59.5l81 223q-6 16 -25.5 82.5t-39.5 124t-35 79.5q-8 12 -44 23t-57 13v14q65 -4 146 -4q51 0 151 4v-14q-91 -9 -91 -40q0 -13 12.5 -59.5t33.5 -118.5t24 -84q224 236 224 259q0 8 -9.5 15t-24 11.5t-28.5 7.5t-27.5 5.5t-16.5 3.5v14
q16 0 64.5 -2t75.5 -2q21 0 58.5 2t49.5 2v-14q-65 -48 -181 -148t-177 -176q-9 -29 -31 -92t-36 -108.5t-14 -63.5q0 -22 123 -40q12 -1 17 -2v-14q-16 4 -197 4q-98 0 -176 -4zM375 801q19 0 34 -14.5t15 -36.5q0 -19 -14.5 -33t-34.5 -14q-19 0 -34 14.5t-15 36.5
q0 19 14.5 33t34.5 14zM552 801q19 0 34 -14.5t15 -36.5q0 -19 -14.5 -33t-34.5 -14q-19 0 -34 14.5t-15 36.5q0 19 14.5 33t34.5 14z" />
    <glyph glyph-name="Zcaron" unicode="&#x17d;" horiz-adv-x="630" 
d="M-22 -4l-5 23l600 609q-242 -2 -291 -4q-55 -83 -149 -162l-11 8q51 89 89 184q101 -4 229 -4q174 0 261 4v-14q-70 -75 -293 -295.5t-320 -320.5q220 2 329 12q52 58 89.5 89t101.5 68l8 -10q-74 -88 -123 -187q-45 4 -243 4q-226 0 -272 -4zM470 687h-46l-87 169h37
l81 -105l133 105h36z" />
    <glyph glyph-name="zcaron" unicode="&#x17e;" horiz-adv-x="407" 
d="M277 44q22 0 48 16.5t43.5 33.5t18.5 17q4 0 4 -6q0 -5 -25 -31t-66.5 -52t-74.5 -26q-41 0 -90 39q-2 2 -8.5 7.5t-9 7.5t-8 6t-8.5 6t-8 5t-8 4t-7.5 2t-8.5 1q-17 0 -26.5 -12t-12.5 -27t-12.5 -27t-25.5 -12q-43 0 -43 18q0 8 12 18.5t37 26.5t26 17q50 36 113.5 92
t105 95.5t44.5 40.5l-2 2q-14 -3 -30 -3q-20 0 -50 7q-36 6 -54 6q-28 0 -54 -14t-41 -31.5t-26 -31.5t-13 -14q-4 0 -4 6q0 7 29.5 41.5t74 69t75.5 34.5q27 0 65 -14q36 -15 51 -15q13 0 34.5 20.5t29.5 20.5q17 0 17 -19q0 -14 -52 -49q-38 -25 -72.5 -54.5t-89.5 -83
t-66 -63.5q29 -4 81 -39.5t87 -35.5zM274 433h-46l-87 169h37l81 -105l133 105h36z" />
    <glyph glyph-name="florin" unicode="&#x192;" 
d="M402 371l-11 -30h-117q-7 -23 -41.5 -159.5t-68.5 -228t-74 -132.5q-41 -46 -98 -46q-39 0 -62.5 19t-23.5 57q0 23 10.5 38.5t32.5 15.5q29 0 29 -31q0 -9 -3 -24.5t-3 -19.5q0 -13 7.5 -22t20.5 -9q51 0 74 80q52 175 126 462h-102l10 30h100q7 20 18.5 63t20.5 76
t26 73t36.5 66.5t49.5 44.5t67 18q33 0 53 -17.5t20 -49.5q0 -38 -5.5 -48t-29.5 -10q-35 0 -35 13q0 11 3 33t3 34q0 21 -25 21q-26 0 -49.5 -44.5t-36.5 -96.5t-26 -109t-17 -67h121z" />
    <glyph glyph-name="circumflex" unicode="&#x2c6;" horiz-adv-x="259" 
d="M319 433h-37l-73 104l-127 -104h-39l148 170h49z" />
    <glyph glyph-name="caron" unicode="&#x2c7;" horiz-adv-x="259" 
d="M212 433h-46l-87 169h37l81 -105l133 105h36z" />
    <glyph glyph-name="uni02C9" unicode="&#x2c9;" horiz-adv-x="259" 
d="M344 521l-12 -48h-268l10 48h270z" />
    <glyph glyph-name="breve" unicode="&#x2d8;" horiz-adv-x="259" 
d="M82 591h28q0 -46 24.5 -72t70.5 -26q39 0 69.5 29t44.5 69h29q-17 -65 -54 -109.5t-96 -44.5t-87 45.5t-29 108.5z" />
    <glyph glyph-name="dotaccent" unicode="&#x2d9;" horiz-adv-x="259" 
d="M206 547q19 0 34 -14.5t15 -36.5q0 -19 -14.5 -33t-34.5 -14q-19 0 -34 14.5t-15 36.5q0 19 14.5 33t34.5 14z" />
    <glyph glyph-name="ring" unicode="&#x2da;" horiz-adv-x="259" 
d="M206 632q41 0 70 -29.5t29 -70.5t-29 -70t-70 -29t-70 29.5t-29 70.5t29 70t70 29zM206 598q-27 0 -46 -18.5t-19 -46.5q0 -27 19 -46.5t46 -19.5t46 18.5t19 46.5q0 27 -19 46.5t-46 19.5z" />
    <glyph glyph-name="ogonek" unicode="&#x2db;" horiz-adv-x="259" 
d="M111 19v-9q-176 -56 -176 -139q0 -17 14.5 -27.5t32.5 -10.5q37 0 112 43l14 -28q-79 -44 -116 -53q-23 -6 -46 -6q-30 0 -55.5 19.5t-25.5 48.5q0 21 6 39t21.5 32.5t27 25t37.5 20.5t38 15.5t43 13t37 9t36 7.5z" />
    <glyph glyph-name="tilde" unicode="&#x2dc;" horiz-adv-x="259" 
d="M334 564h26q-15 -104 -77 -104q-18 0 -77 23q-58 22 -72 22q-28 0 -43 -47h-27q18 106 83 106q25 0 75 -22t71 -22q19 0 27 11t14 33z" />
    <glyph glyph-name="hungarumlaut" unicode="&#x2dd;" horiz-adv-x="259" 
d="M212 433h-27l166 163q17 15 32 15q34 0 34 -36q0 -18 -33 -38zM79 433h-36l147 164q14 14 30 14q15 0 25.5 -9.5t10.5 -25.5q0 -17 -31 -38z" />
    <glyph glyph-name="uni03A9" unicode="&#x3a9;" horiz-adv-x="581" 
d="M495 130l-66 -130h-191v15q9 11 44 56t54.5 71.5t48.5 69t50 81.5t34 77q26 71 33 125t-3 85.5t-30.5 47t-50.5 15.5q-67 0 -132 -66t-118 -211q-22 -60 -29 -132t-5.5 -110t7.5 -109l-12 -15h-189l30 130l23 1q-4 -43 4 -56t32 -13h83q-86 147 -27 310q49 135 146.5 217
t198.5 82q103 0 138.5 -78t-11.5 -215q-24 -65 -74 -131t-90.5 -103.5t-93.5 -81.5h87q26 0 41.5 12t44.5 57z" />
    <glyph glyph-name="uni03BC" unicode="&#x3bc;" horiz-adv-x="481" 
d="M351 376h74q-2 -6 -18.5 -47t-30.5 -77t-30 -79t-25.5 -74.5t-9.5 -43.5q0 -27 36 -27q18 0 41.5 15.5t39.5 30.5l16 16q5 0 5 -5q0 -4 -20.5 -26.5t-61 -46.5t-79.5 -24q-20 0 -39 12t-19 31q0 7 11 37.5t25 66.5t16 41l-2 2q-25 -59 -99 -124.5t-136 -65.5
q-9 -20 -15.5 -45t-11.5 -57.5t-8 -45.5q-6 -26 -14.5 -42.5t-19 -22.5t-17.5 -7.5t-16 -1.5q-17 0 -25.5 12.5t-8.5 27.5q0 25 38.5 112t47.5 117q15 48 61.5 174t60.5 167h74q-6 -15 -37.5 -92t-52 -134.5t-20.5 -77.5q0 -36 37 -36q29 0 67 34.5t67 80.5q15 25 30 55.5
t24 53t23 60t22 56.5z" />
    <glyph glyph-name="pi" unicode="&#x3c0;" horiz-adv-x="472" 
d="M482 443l19 -8q-25 -44 -58 -79q-16 -4 -60 -4q-24 -56 -85 -223q-31 -87 6 -87q21 0 52 27l5 -18q-55 -63 -111 -63q-36 0 -45 25t14 98q36 99 98 243q-90 2 -124 2l-7 -18q-36 -100 -77 -179t-63.5 -110t-37.5 -44q-33 -14 -59 -17l1 16q65 60 119.5 159t88.5 194
q-39 1 -63 -8t-60 -32l-5 21q1 1 11 9.5t14 11.5t14.5 11.5t17.5 12t18.5 10.5t21.5 10t23 7t26.5 5.5t27.5 1.5q9 0 88 -2t129 -2q21 0 32.5 5.5t28.5 24.5z" />
    <glyph glyph-name="endash" unicode="&#x2013;" horiz-adv-x="500" 
d="M489 163h-500l16 50h500z" />
    <glyph glyph-name="emdash" unicode="&#x2014;" horiz-adv-x="1000" 
d="M776 163h-559q-29 0 -45 -11t-31 -38h-13q28 75 35 103q40 -4 61 -4h559q29 0 45 11t31 38h13q-28 -75 -35 -103q-40 4 -61 4z" />
    <glyph glyph-name="quoteleft" unicode="&#x2018;" horiz-adv-x="222" 
d="M296 706l8 -10q-104 -63 -104 -127q0 -15 12 -27.5t28 -14.5v-3q-42 -40 -75 -40q-18 0 -30.5 13t-12.5 31q0 100 174 178z" />
    <glyph glyph-name="quoteright" unicode="&#x2019;" horiz-adv-x="222" 
d="M113 474l-8 10q104 63 104 127q0 15 -12 27.5t-28 14.5v3q42 40 75 40q18 0 30.5 -13t12.5 -31q0 -100 -174 -178z" />
    <glyph glyph-name="quotesinglbase" unicode="&#x201a;" horiz-adv-x="222" 
d="M-88 -118l-8 10q104 63 104 127q0 15 -12 27.5t-28 14.5v3q42 40 75 40q18 0 30.5 -13t12.5 -31q0 -100 -174 -178z" />
    <glyph glyph-name="quotedblleft" unicode="&#x201c;" horiz-adv-x="389" 
d="M463 706l8 -10q-104 -63 -104 -127q0 -15 12 -27.5t28 -14.5v-3q-42 -40 -75 -40q-18 0 -30.5 13t-12.5 31q0 100 174 178zM296 706l8 -10q-104 -63 -104 -127q0 -15 12 -27.5t28 -14.5v-3q-42 -40 -75 -40q-18 0 -30.5 13t-12.5 31q0 100 174 178z" />
    <glyph glyph-name="quotedblright" unicode="&#x201d;" horiz-adv-x="389" 
d="M113 474l-8 10q104 63 104 127q0 15 -12 27.5t-28 14.5v3q42 40 75 40q18 0 30.5 -13t12.5 -31q0 -100 -174 -178zM280 474l-8 10q104 63 104 127q0 15 -12 27.5t-28 14.5v3q42 40 75 40q18 0 30.5 -13t12.5 -31q0 -100 -174 -178z" />
    <glyph glyph-name="quotedblbase" unicode="&#x201e;" horiz-adv-x="389" 
d="M-88 -118l-8 10q104 63 104 127q0 15 -12 27.5t-28 14.5v3q42 40 75 40q18 0 30.5 -13t12.5 -31q0 -100 -174 -178zM79 -118l-8 10q104 63 104 127q0 15 -12 27.5t-28 14.5v3q42 40 75 40q18 0 30.5 -13t12.5 -31q0 -100 -174 -178z" />
    <glyph glyph-name="dagger" unicode="&#x2020;" horiz-adv-x="500" 
d="M113 -159h-23q8 26 32.5 95t38.5 113t26.5 104t10.5 104q26 29 38.5 45t31.5 51t30 75q-41 0 -77.5 -15t-53.5 -15q-18 0 -31 9.5t-13 27.5q0 45 43 45q18 0 63 -14t77 -14q24 72 24 122q0 96 54 96q38 0 38 -44q0 -17 -16 -38t-40 -56.5t-38 -79.5q32 0 77 14t63 14
q43 0 43 -45q0 -18 -13 -27.5t-31 -9.5q-15 0 -55.5 15t-91.5 15q-24 -55 -24 -118q0 -24 5 -52q-18 -25 -33 -48t-29.5 -53t-23 -47t-24.5 -58t-22 -57t-27 -74t-29 -80z" />
    <glyph glyph-name="daggerdbl" unicode="&#x2021;" horiz-adv-x="500" 
d="M513 435q0 -18 -13 -27.5t-31 -9.5q-15 0 -55.5 15t-91.5 15q-24 -55 -24 -118q0 -24 5 -52q-26 -29 -38.5 -45t-31.5 -51t-30 -75q41 0 77.5 15t53.5 15q18 0 31 -9.5t13 -27.5q0 -45 -43 -45q-18 0 -63 14t-77 14q-24 -72 -24 -122q0 -96 -54 -96q-38 0 -38 44
q0 17 16 38t40 56.5t38 79.5q-32 0 -77 -14t-63 -14q-43 0 -43 45q0 18 13 27.5t31 9.5q15 0 55.5 -15t91.5 -15q25 57 25 118q0 18 -6 52q26 29 38.5 45t31.5 51t30 75q-41 0 -77.5 -15t-53.5 -15q-18 0 -31 9.5t-13 27.5q0 45 43 45q18 0 63 -14t77 -14q24 72 24 122
q0 96 54 96q38 0 38 -44q0 -17 -16 -38t-40 -56.5t-38 -79.5q32 0 77 14t63 14q43 0 43 -45z" />
    <glyph glyph-name="bullet" unicode="&#x2022;" horiz-adv-x="500" 
d="M251 487q67 0 114.5 -47.5t47.5 -114.5q0 -68 -47.5 -115.5t-114.5 -47.5q-68 0 -115.5 47.5t-47.5 115.5t47.5 115t115.5 47z" />
    <glyph glyph-name="ellipsis" unicode="&#x2026;" horiz-adv-x="1000" 
d="M126 125q21 0 34 -14t13 -38q0 -30 -17 -51t-44 -21q-21 0 -34 14t-13 38q0 30 17 51t44 21zM459 124q21 0 34 -14t13 -38q0 -30 -17 -51t-44 -21q-21 0 -34 14t-13 38q0 30 17 51t44 21zM792 124q21 0 34 -14t13 -38q0 -30 -17 -51t-44 -21q-21 0 -34 14t-13 38
q0 30 17 51t44 21z" />
    <glyph glyph-name="perthousand" unicode="&#x2030;" horiz-adv-x="1000" 
d="M260 630q-46 0 -86 -53.5t-59.5 -115.5t-19.5 -105q0 -74 47 -74q46 0 86 53t59.5 115.5t19.5 104.5q0 75 -47 75zM288 650q81 0 81 -88q0 -60 -34.5 -129.5t-95.5 -120t-125 -50.5q-81 0 -81 88q0 60 34.5 129.5t95.5 120t125 50.5zM554 650h40l-461 -660h-40zM572 377
q81 0 81 -88q0 -60 -34.5 -129.5t-95.5 -120t-125 -50.5q-81 0 -81 88q0 60 34.5 129.5t95.5 120t125 50.5zM544 357q-46 0 -86 -53.5t-59.5 -115.5t-19.5 -105q0 -74 47 -74q46 0 86 53t59.5 115.5t19.5 104.5q0 75 -47 75zM905 377q81 0 81 -88q0 -60 -34.5 -129.5
t-95.5 -120t-125 -50.5q-81 0 -81 88q0 60 34.5 129.5t95.5 120t125 50.5zM877 357q-46 0 -86 -53.5t-59.5 -115.5t-19.5 -105q0 -74 47 -74q46 0 86 53t59.5 115.5t19.5 104.5q0 75 -47 75z" />
    <glyph glyph-name="guilsinglleft" unicode="&#x2039;" horiz-adv-x="278" 
d="M215 338l12 -10l-132 -135q13 -49 53 -141l-15 -14q-18 30 -45 70.5t-40 62t-13 30.5t19.5 24.5t72 51t88.5 61.5z" />
    <glyph glyph-name="guilsinglright" unicode="&#x203a;" horiz-adv-x="278" 
d="M6 38l-12 10l132 135q-13 49 -53 141l15 14q18 -30 45 -70.5t40 -62t13 -30.5t-19.5 -24.5t-72 -51t-88.5 -61.5z" />
    <glyph glyph-name="fraction" unicode="&#x2044;" horiz-adv-x="167" 
d="M334 666l-456 -686h-45l456 686h45z" />
    <glyph glyph-name="Euro" unicode="&#x20ac;" 
d="M455 460h-12q-4 182 -93 182q-62 0 -111.5 -73.5t-80.5 -180.5h204l-10 -24h-201q-11 -45 -18 -92h182l-10 -24h-175q-2 -32 -2 -43q0 -29 4 -57t14 -57t31.5 -47t51.5 -18q27 0 50.5 10.5t46 33t35.5 39t34 46.5l12 -7q-89 -166 -212 -166q-71 0 -109 63t-38 142
q0 29 3 61h-51l10 24h45q8 49 22 92h-58l10 24h57q44 120 125 200t179 80q54 0 104 -26q-13 -49 -39 -182z" />
    <glyph glyph-name="afii61289" unicode="&#x2113;" horiz-adv-x="348" 
d="M245 98l13 -15q-84 -99 -175 -99q-60 0 -73 37q-8 18 -3.5 48.5t25.5 87.5l31 85l-62 -39l-3 22l77 51l44 122q43 118 69.5 167.5t66.5 83.5q49 47 91 47q36 0 44 -35.5t-12 -88.5q-53 -143 -225 -280l-35 -98q-22 -61 -26.5 -96.5t6 -49t35.5 -13.5q51 0 112 63z
M212 453l-43 -118q53 47 98.5 112t66.5 125q35 96 -3 96q-23 0 -49 -47t-70 -168z" />
    <glyph glyph-name="trademark" unicode="&#x2122;" horiz-adv-x="990" 
d="M241 630v-308q0 -39 5.5 -45.5t44.5 -10.5v-20h-164v20q38 4 44 11t6 45v308h-52q-51 0 -68 -68h-18v88h340v-88h-18q-17 68 -68 68h-52zM672 243l-152 311h-2v-224q0 -33 10.5 -46.5t41.5 -17.5v-20h-130v20q32 4 42 17t10 47v250q-8 22 -27.5 36t-40.5 14v20h115
l157 -315l164 315h98v-20q-31 -1 -43.5 -15t-12.5 -42v-251q0 -39 5.5 -45.5t43.5 -10.5v-20h-163v20q39 4 44.5 10.5t5.5 45.5v235h-2l-155 -314h-9z" />
    <glyph glyph-name="Omega" unicode="&#x2126;" horiz-adv-x="581" 
d="M495 130l-66 -130h-191v15q9 11 44 56t54.5 71.5t48.5 69t50 81.5t34 77q26 71 33 125t-3 85.5t-30.5 47t-50.5 15.5q-67 0 -132 -66t-118 -211q-22 -60 -29 -132t-5.5 -110t7.5 -109l-12 -15h-189l30 130l23 1q-4 -43 4 -56t32 -13h83q-86 147 -27 310q49 135 146.5 217
t198.5 82q103 0 138.5 -78t-11.5 -215q-24 -65 -74 -131t-90.5 -103.5t-93.5 -81.5h87q26 0 41.5 12t44.5 57z" />
    <glyph glyph-name="estimated" unicode="&#x212e;" horiz-adv-x="962" 
d="M930 315h-616q-5 0 -5 -4v-187q0 -11 8 -21q98 -101 233 -101q147 0 245 113h55q-52 -61 -131 -96.5t-170 -35.5q-157 0 -268.5 100t-111.5 241q0 142 111.5 242t268.5 100q158 0 269.5 -100t111.5 -242v-9zM790 339v188q0 13 -9 22q-99 97 -231 97q-134 0 -232 -100
q-9 -9 -9 -23v-184q0 -6 5 -6h472q4 0 4 6z" />
    <glyph glyph-name="partialdiff" unicode="&#x2202;" horiz-adv-x="439" 
d="M258 397h1q30 0 53 -15t32 -45q32 69 46 103q32 79 32 148q0 37 -20 63.5t-58 26.5q-57 0 -127 -47q-7 -1 -10.5 8.5t-2.5 23t8 23.5q63 37 127 37q111 0 122 -135q9 -90 -39 -222q-53 -144 -125 -237q-111 -145 -223 -145q-67 0 -89 48.5t9 137.5q31 88 105 156
q34 31 77.5 51t81.5 20zM262 361h-1q-52 0 -107 -55q-65 -73 -104 -181q-18 -45 -9.5 -79.5t43.5 -34.5q54 0 131 102q53 71 107 184q0 23 -15.5 43.5t-44.5 20.5z" />
    <glyph glyph-name="Delta" unicode="&#x2206;" horiz-adv-x="522" 
d="M387 0h-463l8 23l445 638l35 10l-16 -648zM311 43l16 496l-341 -496h325z" />
    <glyph glyph-name="product" unicode="&#x220f;" horiz-adv-x="701" 
d="M678 660v-24q-53 -4 -64.5 -14.5t-11.5 -53.5v-553q0 -46 12 -58.5t62 -16.5v-24h-215v24q47 4 57 15t10 59v587q0 19 -5.5 24t-25.5 5h-160q-19 0 -24 -4.5t-5 -22.5v-589q0 -47 8.5 -58.5t53.5 -15.5v-24h-210v24q50 4 62 16t12 58v554q0 42 -12 53t-65 15v24h521z" />
    <glyph glyph-name="summation" unicode="&#x2211;" horiz-adv-x="590" 
d="M572 80l-37 -166h-375v21l189 329l-186 375v21h374q0 -8 1.5 -30.5t4 -55.5t3.5 -57l-24 -4q-10 55 -26 86q-9 19 -26 25.5t-63 6.5h-151l158 -312l-190 -337h206q55 0 74 16t43 88z" />
    <glyph glyph-name="minus" unicode="&#x2212;" horiz-adv-x="500" 
d="M44 163v50h374v-50h-374z" />
    <glyph glyph-name="uni2215" unicode="&#x2215;" horiz-adv-x="167" 
d="M334 666l-456 -686h-45l456 686h45z" />
    <glyph glyph-name="uni2219" unicode="&#x2219;" horiz-adv-x="222" 
d="M89 244q22 0 39 -17t17 -39q0 -23 -17 -39.5t-39 -16.5t-39 17t-17 39q0 23 17 39.5t39 16.5z" />
    <glyph glyph-name="radical" unicode="&#x221a;" horiz-adv-x="603" 
d="M588 844l-141 -989l-18 -8l-181 518l-74 -33l-9 29l134 60l136 -408h2l117 839z" />
    <glyph glyph-name="infinity" unicode="&#x221e;" horiz-adv-x="697" 
d="M656 275v-1q0 -62 -39.5 -101t-92.5 -39q-39 0 -74.5 22.5t-78.5 75.5q-40 -48 -75.5 -73t-81.5 -25q-54 0 -92 39t-38 98q0 61 38 100t97 39q77 0 155 -98q50 56 74 73q38 25 81 25q56 -1 91.5 -38t35.5 -97zM220 182h1q24 0 49 16t36.5 28t38.5 43q-26 33 -39 47.5
t-38.5 30.5t-52.5 16q-38 0 -59.5 -26.5t-21.5 -66.5q1 -37 25 -62.5t61 -25.5zM524 363h-1q-15 0 -30 -5.5t-30 -18.5t-22.5 -20t-24 -26t-17.5 -20q43 -51 69 -71t58 -20q36 0 58 27.5t22 61.5q0 42 -23 67t-59 25z" />
    <glyph glyph-name="integral" unicode="&#x222b;" horiz-adv-x="464" 
d="M278 10l-18 395q-18 391 137 391q19 0 35.5 -11t17.5 -31q0 -19 -12 -29.5t-28 -10.5t-26.5 20.5t-19.5 20.5q-44 0 -37 -153l16 -360q20 -422 -137 -422q-23 0 -38 12.5t-15 30.5q-1 19 12.5 31t32.5 12q14 0 25 -22t20 -22q19 0 28.5 39.5t6.5 108.5z" />
    <glyph glyph-name="approxequal" unicode="&#x2248;" horiz-adv-x="485" 
d="M420 401l33 -27q-17 -38 -45 -62t-63 -24t-91 34q-43 29 -72 29q-41 0 -76 -63l-33 26q18 39 48 62.5t67 23.5q33 0 88 -33q49 -30 71 -30q39 0 73 64zM420 253l33 -27q-40 -86 -108 -86q-35 0 -91 34q-47 30 -71 30q-18 0 -33 -10.5t-23.5 -21.5t-20.5 -32l-33 26
q18 39 48 62.5t66 23.5q10 0 20 -2t16.5 -4t16 -6.5t13.5 -6.5t13 -7.5t10 -6.5q49 -30 71 -30t38 15.5t35 48.5z" />
    <glyph glyph-name="notequal" unicode="&#x2260;" horiz-adv-x="512" 
d="M389 456l-34 -78h116v-51h-135l-51 -118h186v-51h-204l-41 -94l-39 16l34 78h-114v51h133l50 118h-183v51h202l40 94z" />
    <glyph glyph-name="lessequal" unicode="&#x2264;" horiz-adv-x="538" 
d="M495 102l-357 195v53l357 194v-61l-307 -158v-2l307 -160v-61zM498 15h-364v52h364v-52z" />
    <glyph glyph-name="greaterequal" unicode="&#x2265;" horiz-adv-x="538" 
d="M139 544l358 -194v-53l-358 -195v61l307 159v2l-307 159v61zM498 15h-363v52h363v-52z" />
    <glyph glyph-name="lozenge" unicode="&#x25ca;" horiz-adv-x="608" 
d="M565 321l-162 -380h-62l-160 380l162 383h61zM509 321l-134 327h-3l-136 -326l136 -327h3z" />
    </font>
</defs>
</svg>
