<?xml version="1.0" standalone="no"?>
<!DOCTYPE svg PUBLIC "-//W3C//DTD SVG 1.1//EN" "http://www.w3.org/Graphics/SVG/1.1/DTD/svg11.dtd" >
<svg xmlns="http://www.w3.org/2000/svg" xmlns:xlink="http://www.w3.org/1999/xlink" version="1.1">
<metadata>
Created by FontForge 20161003 at Tue May  9 14:38:47 2017
 By www-data
Copyright (c) 1985, 1987, 1989, 1990, 1992, 1997, 1998, 1999, 2002 Adobe Systems Incorporated.  All Rights Reserved. (c) 1981, 1999, 2002 Heidelberger Druckmaschinen AG. All rights reserved.
</metadata>
<defs>
<font id="PalatinoLTStdItalic" horiz-adv-x="500" >
  <font-face 
    font-family="PalatinoLTStdItalic"
    font-weight="400"
    font-style="italic"
    font-stretch="normal"
    units-per-em="1000"
    panose-1="2 4 5 2 5 5 5 10 3 4"
    ascent="726"
    descent="-274"
    x-height="482"
    cap-height="692"
    bbox="-170 -276 1010 918"
    underline-thickness="50"
    underline-position="-150"
    slope="-10"
    unicode-range="U+0020-FB02"
  />
<missing-glyph horiz-adv-x="569" 
d="M69 0v700h500v-700h-500zM319 395l170 255h-340zM349 350l170 -255v510zM149 50h340l-170 255zM119 605v-510l170 255z" />
    <glyph glyph-name="f_i" unicode="fi" horiz-adv-x="528" 
d="M466 712q12 0 24 -11.5t12 -26.5q0 -30 -15 -50t-39 -20q-40 0 -40 43q0 23 17.5 44t40.5 21zM445 406l-60 -292q-6 -30 -6 -40q0 -20 13 -20q21 0 47 21l34 26l9 -20q-49 -40 -103 -73q-28 -17 -47 -17q-35 0 -35 46q0 25 12 69l53 249q8 29 8 38q0 22 -19 22
q-7 0 -27 -9l-52 -23h-90q-2 -7 -27 -125t-42 -192t-29 -114q-36 -116 -101 -175q-59 -53 -110 -53q-23 0 -35 8q4 8 13 40t10 40l14 4q21 -29 48 -29h1q15 0 25.5 3t29 24.5t32.5 62.5q20 57 55.5 253.5t42.5 252.5h-81l5 22q33 11 86 37l15 79q10 52 20 71q9 20 25 38
q12 13 57.5 51.5t59.5 44.5q17 7 35 7q19 0 44 -9q-10 -29 -21 -89l-12 -3q-6 19 -20.5 30t-29.5 11q-32 0 -56 -47q-12 -24 -23 -77l-21 -112l89 -5h5q27 0 94 29q47 21 55 21q15 0 15 -35q0 -23 -5 -41z" />
    <glyph glyph-name="f_l" unicode="fl" horiz-adv-x="545" 
d="M213 549l-21 -112q56 0 75 2q7 1 32 7l4 -7q-10 -23 -17 -56h-104q-2 -7 -27 -125t-42 -192t-29 -114q-36 -116 -101 -175q-59 -53 -110 -53q-23 0 -35 8q4 8 13 40t10 40l14 4q21 -29 48 -29h1q15 0 25.5 3t29 24.5t32.5 62.5q20 57 55.5 253.5t42.5 252.5h-81l5 22
q33 11 86 37l15 79q10 52 20 71q9 20 25 38q11 12 59.5 49t69.5 47q17 7 39 7q15 0 36 -8l-7 -28q26 0 54 6q36 7 74 30l16 -8l-123 -575q-10 -48 -10 -73q0 -21 16 -21q14 0 40 18l48 34l9 -21q-96 -71 -108 -78q-29 -18 -56 -18q-29 0 -29 40q0 19 13 76l84 399
q22 95 22 136q0 16 -6 22t-33 8l-16 1l-6 -41h-10q-11 37 -56 37t-64 -43q-14 -33 -22 -77z" />
    <glyph glyph-name=".notdef" horiz-adv-x="569" 
d="M69 0v700h500v-700h-500zM319 395l170 255h-340zM349 350l170 -255v510zM149 50h340l-170 255zM119 605v-510l170 255z" />
    <glyph glyph-name=".null" horiz-adv-x="0" 
 />
    <glyph glyph-name="nonmarkingreturn" horiz-adv-x="333" 
 />
    <glyph glyph-name="space" unicode=" " horiz-adv-x="250" 
 />
    <glyph glyph-name="exclam" unicode="!" horiz-adv-x="333" 
d="M136 109q20 0 32.5 -14t12.5 -34q0 -26 -16.5 -47.5t-43.5 -21.5q-45 0 -45 48q0 26 17 47.5t43 21.5zM196 707l85 26l11 -9q-28 -104 -37 -145l-86 -371l-30 -17l-6 3l21 154q22 168 42 359z" />
    <glyph glyph-name="quotedbl" unicode="&#x22;" 
d="M170 508h-30l62 187q13 38 44 38q19 0 30.5 -11t11.5 -27q0 -22 -9 -34zM337 508h-30l62 187q13 38 44 38q19 0 30.5 -11t11.5 -27q0 -22 -9 -34z" />
    <glyph glyph-name="numbersign" unicode="#" 
d="M470 283v-56h-109l-31 -227h-58l31 227h-134l-33 -227h-58l33 227h-107v56h116l21 140h-110v56h118l31 213h58l-31 -213h133l30 213h58l-30 -213h97v-56h-105l-20 -140h100zM332 423h-133l-21 -140h134z" />
    <glyph glyph-name="dollar" unicode="$" 
d="M289 733h37l-10 -60q83 0 134 -34l2 -10q-16 -57 -25 -115h-24v72q-14 17 -42.5 28.5t-52.5 13.5l-41 -257q80 -11 123.5 -43.5t43.5 -105.5q0 -88 -72.5 -157t-156.5 -76l-14 -102h-41l20 101q-121 14 -155 42q12 49 22 145h26v-90q32 -38 115 -53l44 273
q-71 14 -110.5 45.5t-39.5 97.5q0 87 59.5 145t148.5 78zM255 301l-43 -269q62 0 105 48.5t43 110.5q0 50 -25 74t-80 36zM234 377l40 251h-3q-58 0 -95 -45t-37 -104q0 -79 95 -102z" />
    <glyph glyph-name="percent" unicode="%" horiz-adv-x="889" 
d="M254 699q46 0 89 -33.5t43 -102.5q0 -76 -48.5 -130t-123.5 -54q-61 0 -100.5 41.5t-39.5 102.5q0 71 55 123.5t125 52.5zM254 676q-38 0 -64.5 -32t-36 -70t-9.5 -75q0 -51 20.5 -74t49.5 -23q37 0 62.5 35.5t34.5 75t9 74.5q0 89 -66 89zM677 320q46 0 89 -33.5
t43 -102.5q0 -76 -48.5 -130t-123.5 -54q-61 0 -100.5 41.5t-39.5 102.5q0 71 55 123.5t125 52.5zM677 297q-38 0 -64.5 -32t-36 -70t-9.5 -75q0 -51 20.5 -74t49.5 -23q37 0 62.5 35.5t34.5 75t9 74.5q0 89 -66 89zM247 -7h-41l424 717h44z" />
    <glyph glyph-name="ampersand" unicode="&#x26;" horiz-adv-x="778" 
d="M512 659l-24 -111h-23v62q-46 32 -87 32q-53 0 -91 -33.5t-38 -86.5q0 -51 36.5 -77.5t89.5 -26.5q2 0 6.5 0.5t7.5 0.5q-2 -4 -10 -21t-10 -27v-2h-36q-84 0 -143.5 -46t-59.5 -129q0 -82 61.5 -123.5t147.5 -41.5q82 0 153.5 49.5t71.5 120.5q0 39 -24.5 64t-64.5 25
q-22 0 -36.5 -5.5t-23 -22t-10.5 -23t-8 -32.5l-23 2l8 99q5 6 11.5 11t11.5 8.5t12.5 7.5t12 6t13.5 4.5t12 3.5t13.5 3t12.5 2.5t13.5 2.5t12.5 2l111 18q113 19 113 78q0 21 -7.5 32t-30.5 23l21 16q52 -21 52 -81q0 -53 -35.5 -83.5t-90.5 -38.5l-77 -11v-2q6 0 9 -1
q62 -19 62 -84q0 -69 -63.5 -127.5t-140.5 -88.5q-64 -25 -136 -25q-66 0 -119 17t-90.5 62t-37.5 112q0 47 16.5 83t48.5 61t65 41.5t79 31.5q-79 34 -79 103q0 60 59 115.5t122 75.5q25 8 59 8q57 0 97 -25q-2 -4 -2 -8z" />
    <glyph glyph-name="quotesingle" unicode="'" horiz-adv-x="333" 
d="M170 508h-30l62 187q13 38 44 38q19 0 30.5 -11t11.5 -27q0 -22 -9 -34z" />
    <glyph glyph-name="parenleft" unicode="(" horiz-adv-x="333" 
d="M308 733l23 -21q-110 -119 -157.5 -236.5t-47.5 -273.5q0 -137 48 -240l26 -55l-22 -13q-66 105 -95 185.5t-29 187.5q0 130 67.5 242.5t186.5 223.5z" />
    <glyph glyph-name="parenright" unicode=")" horiz-adv-x="333" 
d="M25 -106l-23 21q110 119 157.5 236.5t47.5 273.5q0 137 -48 240l-26 55l22 13q66 -105 95 -185.5t29 -187.5q0 -130 -67.5 -242.5t-186.5 -223.5z" />
    <glyph glyph-name="asterisk" unicode="*" horiz-adv-x="389" 
d="M76 608l33 57l10 -1l104 -104l22 141l10 5l62 -18l1 -8l-71 -131l140 25l7 -5l6 -58l-6 -6l-145 19l65 -120l-4 -8l-58 -28l-7 4l-22 142l-107 -98l-12 1l-26 57l4 7l127 56l-128 62z" />
    <glyph glyph-name="plus" unicode="+" horiz-adv-x="606" 
d="M275 280v224h56v-224h224v-56h-224v-224h-56v224h-224v56h224z" />
    <glyph glyph-name="comma" unicode="," horiz-adv-x="250" 
d="M95 62l8 32l91 29l9 -13q-47 -112 -153 -240l-35 -13l-7 10q56 69 87 195z" />
    <glyph glyph-name="hyphen" unicode="-" horiz-adv-x="333" 
d="M19 223l19 58h266l-18 -58h-267z" />
    <glyph glyph-name="period" unicode="." horiz-adv-x="250" 
d="M113 112q20 0 32.5 -14t12.5 -34q0 -26 -16.5 -47.5t-43.5 -21.5q-45 0 -45 48q0 26 17 47.5t43 21.5z" />
    <glyph glyph-name="slash" unicode="/" horiz-adv-x="296" 
d="M392 733l-372 -852h-60l372 852h60z" />
    <glyph glyph-name="zero" unicode="0" 
d="M306 699q89 0 131.5 -67t42.5 -162q0 -165 -57 -301q-76 -180 -214 -180q-50 0 -85.5 21t-53.5 58t-26 77.5t-8 88.5q0 157 58 291q75 174 212 174zM217 18q95 0 148 198q39 148 39 278q0 27 -1.5 47t-7.5 46t-16.5 42.5t-31 28.5t-48.5 12q-31 0 -57 -20t-42.5 -48
t-30 -68t-20 -69t-13.5 -63q-1 -7 -2 -11q-22 -112 -22 -213q0 -160 105 -160z" />
    <glyph glyph-name="one" unicode="1" 
d="M350 573l-74 -437q-8 -46 -8 -59q0 -27 11.5 -37t47.5 -12l71 -4l-5 -27q-85 3 -169 3t-170 -3l5 27l85 10q24 3 33 17.5t15 50.5l86 527q-4 -2 -43.5 -17t-59.5 -25l-84 -41l-7 5l11 59q122 30 164 48l100 41l15 -11q-23 -111 -24 -115z" />
    <glyph glyph-name="two" unicode="2" 
d="M108 63h203q53 0 115 11l6 -8l-17 -69q-102 3 -201 3q-100 0 -202 -3v18q160 170 239 271q41 52 71 115.5t30 116.5q0 54 -29.5 85t-83.5 31q-78 0 -141 -108l-22 9l60 120q56 44 131 44q78 0 124 -43t46 -120q0 -106 -89 -204l-241 -262z" />
    <glyph glyph-name="three" unicode="3" 
d="M22 33l28 145l24 -5q-4 -28 -4 -44q0 -54 36 -80t91 -26q73 0 118.5 64t45.5 139q0 136 -140 136q-27 0 -73 -16l-6 12l18 43q30 -2 46 -2q63 0 108.5 42.5t45.5 105.5q0 40 -27.5 65.5t-68.5 25.5q-39 0 -61 -12.5t-51 -45.5l-21 -24l-19 13l58 99q65 31 114 31
q64 0 109.5 -33.5t45.5 -95.5t-39.5 -103t-103.5 -73v-2q73 -15 112 -51t39 -106q0 -105 -83 -175.5t-190 -70.5q-92 0 -152 44z" />
    <glyph glyph-name="four" unicode="4" 
d="M15 223l337 461l69 15l8 -5l-83 -446h128l4 -5l-16 -55q-6 0 -16.5 1t-19.5 1.5t-17 0.5h-73l-9 -53q-9 -51 -9 -86q0 -14 36 -18l87 -10l-5 -27q-84 3 -165 3q-82 0 -166 -3l5 27l86 10q24 2 35 13t17 43l20 102h-253v31zM339 613l-260 -360l2 -5h197l65 363z" />
    <glyph glyph-name="five" unicode="5" 
d="M115 329l-21 9l64 350l8 5q117 -7 162 -7q51 0 157 4l6 -9l-35 -58q-83 -5 -150 -5q-53 0 -118 5l-50 -237l2 -2q23 24 60.5 37t73.5 13q78 0 124.5 -45t46.5 -124q0 -63 -38 -137q-32 -62 -96.5 -100.5t-135.5 -38.5q-101 0 -161 52q14 44 29 139l23 -5q-3 -18 -3 -33
q0 -55 33 -86t94 -31q80 0 124.5 69t44.5 154q0 65 -31.5 103t-95.5 38q-61 0 -117 -60z" />
    <glyph glyph-name="six" unicode="6" 
d="M264 362q-68 0 -103.5 -59t-35.5 -132q0 -56 28.5 -96t80.5 -40q47 0 79.5 34t45.5 77.5t13 89.5q0 56 -26.5 91t-81.5 35zM469 694l-16 -59l-8 -1q-33 19 -61 19q-106 0 -175 -122q-47 -83 -75 -214l2 -2q79 102 173 102q69 0 104 -41t35 -111q0 -74 -35 -140
q-29 -55 -88.5 -95.5t-118.5 -40.5q-43 0 -75 18t-49 49t-25 66.5t-8 77.5q0 99 35 195t98 173q54 65 109 98t129 33q30 0 49 -5z" />
    <glyph glyph-name="seven" unicode="7" 
d="M154 164l278 449h-242q-16 0 -99 -5l-6 4l16 80q15 -1 42 -2.5t49.5 -2.5t42.5 -1h160q35 0 107 2v-35l-126 -203q-123 -197 -236 -453l-39 3q-7 0 -22 -1.5t-21 -1.5l-5 8q62 96 101 159z" />
    <glyph glyph-name="eight" unicode="8" 
d="M333 699q60 0 98 -31t38 -91q0 -35 -11.5 -64.5t-36.5 -55t-45 -40.5t-56 -39q59 -32 85 -63t26 -90q0 -92 -74 -164t-166 -72q-69 0 -112 37t-43 105q0 73 52.5 130.5t128.5 90.5q-100 52 -100 139q0 77 69.5 142.5t146.5 65.5zM273 321l-29 17q-57 -25 -94.5 -76.5
t-37.5 -107.5q0 -123 112 -123q60 0 95.5 49.5t35.5 111.5q0 51 -18 76.5t-64 52.5zM257 413l34 -19q44 25 77 69t33 90q0 47 -25.5 75.5t-71.5 28.5q-55 0 -87 -41t-32 -97q0 -59 72 -106z" />
    <glyph glyph-name="nine" unicode="9" 
d="M32 111l21 8q39 -82 114 -82q98 0 157 125q33 71 61 209l-2 2q-74 -97 -159 -97q-74 0 -113.5 45.5t-39.5 122.5q0 98 71 176.5t169 78.5q84 0 120.5 -60t36.5 -151q0 -220 -113 -370q-42 -56 -98 -92.5t-113 -36.5q-45 0 -81 19q-25 89 -31 103zM282 654
q-65 0 -100 -56.5t-35 -126.5q0 -64 27.5 -102.5t87.5 -38.5q55 0 92.5 50.5t37.5 127.5q0 60 -27 103t-83 43z" />
    <glyph glyph-name="colon" unicode=":" horiz-adv-x="250" 
d="M104 112q20 0 32.5 -14t12.5 -34q0 -26 -16.5 -47.5t-43.5 -21.5q-45 0 -45 48q0 26 17 47.5t43 21.5zM162 458q20 0 32.5 -14t12.5 -34q0 -26 -16.5 -47.5t-43.5 -21.5q-45 0 -45 48q0 26 17 47.5t43 21.5z" />
    <glyph glyph-name="semicolon" unicode=";" horiz-adv-x="250" 
d="M78 59l8 32l91 29l9 -13q-47 -112 -153 -240l-35 -13l-7 10q56 69 87 195zM174 456q20 0 32.5 -14t12.5 -34q0 -26 -16.5 -47.5t-43.5 -21.5q-45 0 -45 48q0 26 17 47.5t43 21.5z" />
    <glyph glyph-name="less" unicode="&#x3c;" horiz-adv-x="606" 
d="M554 54v-60l-501 234v54l501 234v-60l-432 -203z" />
    <glyph glyph-name="equal" unicode="=" horiz-adv-x="606" 
d="M555 378v-56h-504v56h504zM555 182v-56h-504v56h504z" />
    <glyph glyph-name="greater" unicode="&#x3e;" horiz-adv-x="606" 
d="M53 -6v60l432 199l-432 203v60l501 -234v-54z" />
    <glyph glyph-name="question" unicode="?" 
d="M137 565l-22 6q1 4 15 37l25 61q57 37 112 37q68 0 114 -34.5t46 -99.5q0 -75 -74 -145l-104 -100q-50 -47 -50 -77q0 -24 27 -51l-25 -6q-38 22 -38 63q0 50 55 111l70 79q57 65 57 115q0 37 -27 61.5t-64 24.5q-38 0 -57.5 -10.5t-39.5 -41.5zM174 109q20 0 32.5 -14
t12.5 -34q0 -26 -16.5 -47.5t-43.5 -21.5q-45 0 -45 48q0 26 17 47.5t43 21.5z" />
    <glyph glyph-name="at" unicode="@" horiz-adv-x="747" 
d="M666 176h47q-44 -88 -130.5 -141t-184.5 -53q-154 0 -262.5 100.5t-108.5 254.5q0 155 104 262t260 107q130 0 228.5 -81.5t98.5 -207.5q0 -120 -73 -196q-32 -33 -76 -58t-81 -25q-35 0 -54 25.5t-20 60.5h-2q-31 -41 -56 -60.5t-63 -19.5q-59 0 -96 44t-37 103
q0 82 59 149q29 34 71 56t84 22q74 0 88 -81h2l19 72h75l-77 -282q-4 -18 -4 -26q0 -15 9 -25.5t24 -10.5t41 16t55 45t50 80t21 110q0 104 -86.5 174.5t-193.5 70.5q-139 0 -232 -89.5t-93 -227.5q0 -140 95 -228.5t236 -88.5q80 0 149 40t114 109zM304 168q43 0 77.5 48
t49.5 103t15 97q0 30 -14.5 54t-42.5 24q-43 0 -79.5 -42t-55 -93.5t-18.5 -92.5q0 -40 16.5 -69t51.5 -29z" />
    <glyph glyph-name="A" unicode="A" horiz-adv-x="722" 
d="M462 705h46l87 -625q3 -25 11 -38q5 -9 45 -14l26 -3v-28q-14 0 -38.5 1t-45 1.5t-38.5 0.5t-38 -0.5t-45 -1.5t-39 -1v28l44 3q43 3 43 27q0 6 -2 19t-2 15l-25 188h-246l-102 -175q-26 -46 -26 -55q0 -7 9.5 -12.5t21.5 -6.5l52 -3v-28l-108 3q-16 0 -34.5 -0.5
t-41 -1.5t-35.5 -1v30l20 5q14 4 22.5 7.5t27 22t38.5 50.5zM447 598l-177 -285h216l-37 285h-2z" />
    <glyph glyph-name="B" unicode="B" horiz-adv-x="611" 
d="M97 664l3 28q17 0 47.5 -1t55.5 -1.5t47 -0.5t47 0.5t55.5 1.5t47.5 1h4q21 0 41 -3t41 -12t37 -23.5t26 -38.5t10 -56q0 -68 -54 -120.5t-124 -72.5v-2q78 -9 120 -38t42 -100q0 -86 -69 -149.5t-158 -79.5q-18 -3 -38 -3q-4 0 -67 3q-93 3 -94 3q-17 0 -49.5 -1.5
t-41.5 -1.5l5 26q2 0 8.5 1.5t9 2t8 2t8 2.5t7 2.5t6.5 3.5t5 4.5t4 6t2 7.5l87 504q6 36 9 74v3q0 25 -35 26zM217 340l-51 -299q98 -7 113 -7q80 0 128 50.5t48 125.5q0 130 -153 130h-85zM272 650l-49 -274h52q86 0 142 41.5t56 128.5q0 109 -122 109h-16q-9 0 -30.5 -2
t-32.5 -3z" />
    <glyph glyph-name="C" unicode="C" horiz-adv-x="667" 
d="M597 519v84q-70 50 -184 50q-95 0 -160 -51t-92.5 -127.5t-27.5 -171.5q0 -122 60 -195t180 -73q65 0 114 17.5t113 57.5l10 -7l-10 -36q-116 -85 -257 -85q-143 0 -220.5 78t-77.5 221q0 233 177 353q106 72 233 72q94 0 196 -41q-20 -64 -27 -146h-27z" />
    <glyph glyph-name="D" unicode="D" horiz-adv-x="778" 
d="M86 55l87 504q6 36 9 74v3q0 25 -35 26l-53 2l3 28q120 -3 123 -3l204 3h13q148 0 226 -60t78 -204q0 -117 -60 -216.5t-163 -161.5q-50 -30 -95 -41.5t-106 -11.5h-10q-21 0 -58.5 1t-68.5 1.5t-59 0.5l-93 -3l5 26q2 1 9 2.5t10 2t9 2.5t9 4t7 5t6 7t3 9zM268 650
l-96 -557q-4 -24 -4 -37q95 -15 165 -15q151 0 233.5 110t82.5 267q0 128 -68 182.5t-201 54.5q-21 0 -59 -2.5t-53 -2.5z" />
    <glyph glyph-name="E" unicode="E" horiz-adv-x="611" 
d="M221 334l-43 -253q-2 -12 -2 -35q77 -7 127 -7q67 0 133 6q29 2 40 13.5t20 42.5l16 60h27q-18 -94 -21 -125q-3 -29 -4 -36q-99 -3 -100 -3q-40 0 -121 1.5t-121 1.5q-7 0 -142 -3l5 26q2 0 9 1.5t9 2t8.5 2t8.5 2.5t7 2.5t7 3.5t5 4.5t4 6t2 7.5l87 504q6 36 9 74v3
q0 25 -35 26l-54 2l3 28q22 0 70 -2q11 0 36 -0.5t39 -0.5q19 0 247 3q43 0 73 -3q-16 -57 -21 -152h-24l-8 89q-2 24 -127 24q-20 0 -57.5 -2t-52.5 -2q-5 -10 -9 -32l-42 -238h37q112 0 219 6l4 -7l-19 -45q-88 4 -132 4h-117z" />
    <glyph glyph-name="F" unicode="F" horiz-adv-x="556" 
d="M260 614l-46 -271h37q113 0 219 6l4 -7l-19 -45q-88 4 -132 4h-117l-34 -208q-4 -22 -4 -36t7.5 -21t28.5 -8l64 -3l-3 -28q-9 0 -60.5 1.5t-77.5 1.5q-13 0 -127 -3l4 28l36 3q25 1 33 9q12 12 25 88l75 434q6 36 9 74v3q0 25 -35 26l-56 2l3 28q24 0 68 -2
q11 0 33 -0.5t32 -0.5q19 0 247 3q42 0 74 -3q-16 -57 -21 -152h-24l-8 89q-2 24 -127 24q-23 0 -99 -4q-5 -10 -9 -32z" />
    <glyph glyph-name="G" unicode="G" horiz-adv-x="722" 
d="M528 60l18 93q7 35 7 61q0 19 -14 22q-19 5 -70 8l-34 2l5 28q56 -5 129 -5t125 5l-2 -28l-32 -6q-23 -5 -27 -21l-23 -135q-1 -4 -1 -12q0 -1 3 -28l-4 -7q-18 -2 -56 -15q-120 -40 -192 -40q-147 0 -228.5 73.5t-81.5 218.5q0 228 179 358q103 74 240 74q98 0 206 -41
q-20 -64 -27 -146h-27v84q-70 50 -197 50q-132 0 -209 -98.5t-77 -265.5q0 -125 64 -193.5t188 -68.5q82 0 138 33z" />
    <glyph glyph-name="H" unicode="H" horiz-adv-x="778" 
d="M221 385h370l30 174q6 36 9 74v3q0 25 -35 26l-48 2l3 28q20 0 68 -1.5t72 -1.5q29 0 110 3l-3 -28l-36 -3q-28 -2 -37 -10.5t-14 -37.5l-92 -520q-4 -22 -4 -36t7 -21t29 -8l58 -3l-3 -28q-129 3 -132 3q-26 0 -77 -1.5t-64 -1.5l4 28l50 3q25 1 33 9q10 10 25 88
l40 215q-183 3 -184 3t-184 -3l-42 -247q-4 -22 -4 -36t7 -21t29 -8l49 -3l-3 -28q-102 3 -123 3q-3 0 -132 -3l4 28l41 3q25 1 33 9q12 12 25 88l74 434q6 36 9 74v3q0 25 -35 26l-47 2l3 28q21 0 69 -1.5t72 -1.5q21 0 114 3l-3 -28l-42 -3q-28 -2 -37 -10.5t-14 -37.5z
" />
    <glyph glyph-name="I" unicode="I" horiz-adv-x="333" 
d="M104 125l72 434q7 47 9 74v3q0 25 -35 26l-47 2l3 28q21 0 69 -1.5t72 -1.5q35 0 107 3l-3 -28l-35 -3q-28 -2 -37.5 -11t-13.5 -37l-87 -520q-4 -22 -4 -36t7 -21t29 -8l52 -3l-3 -28q-111 3 -126 3t-126 -3l3 28l36 3q25 1 33 9q13 13 25 88z" />
    <glyph glyph-name="J" unicode="J" horiz-adv-x="333" 
d="M262 613l-85 -559q-7 -49 -17 -84q-22 -77 -64 -126.5t-94 -49.5q-19 0 -34 10l-3 26q9 -4 36 -4q28 0 51 38t34 115l87 580q7 47 9 74v3q0 25 -35 26l-47 2l3 28q21 0 69 -1.5t72 -1.5q21 0 114 3l-3 -28l-42 -3q-28 -2 -37.5 -11t-13.5 -37z" />
    <glyph glyph-name="K" unicode="K" horiz-adv-x="667" 
d="M278 613l-45 -260q90 71 149 131l128 130q38 38 38 49v29q63 -3 67 -3q10 0 21.5 0.5t25 1.5t21.5 1v-27h-21q-27 0 -54 -25l-292 -273l246 -302q31 -38 64 -38h20v-30q-8 0 -21.5 1t-25 1.5t-21.5 0.5l-69 -3q-77 105 -98 131l-180 212l-41 -247q-4 -22 -4 -36t7 -21
t29 -8l49 -3l-3 -28q-102 3 -123 3q-3 0 -132 -3l4 28l41 3q25 1 33 9q12 12 25 88l73 434q6 36 9 74v3q0 25 -35 26l-47 2l3 28q21 0 69 -1.5t72 -1.5q21 0 114 3l-3 -28l-42 -3q-28 -2 -37 -10.5t-14 -37.5z" />
    <glyph glyph-name="L" unicode="L" horiz-adv-x="556" 
d="M256 613l-92 -532q-2 -12 -2 -35q77 -7 127 -7q118 0 155 9q18 4 31 55l17 62h31q-13 -62 -20 -121q-3 -25 -3 -44q-99 -3 -100 -3q-40 0 -120.5 1.5t-121.5 1.5q-7 0 -142 -3l5 26q2 0 9 1.5t9 2t8.5 2t8.5 2.5t7 2.5t7 3.5t5 4.5t4 6t2 7.5l86 504q6 36 9 74v3
q0 25 -35 26l-47 2l3 28q21 0 69 -1.5t72 -1.5q21 0 114 3l-3 -28l-42 -3q-28 -2 -37 -10.5t-14 -37.5z" />
    <glyph glyph-name="M" unicode="M" horiz-adv-x="944" 
d="M853 631l-41 -531q-1 -18 -1 -41q0 -26 54 -31l37 -3l-3 -28q-15 0 -42 1t-48.5 1.5t-41.5 0.5t-42.5 -0.5t-49.5 -1.5t-43 -1l3 28l31 3q23 2 32.5 3.5t21.5 10.5t13 25l37 514l-2 2l-50 -83q-131 -217 -296 -518h-23l-148 574h-2l-123 -460q-7 -24 -7 -43q0 -21 49 -25
l38 -3l-3 -28q-108 3 -110 3q-16 0 -35 -0.5t-41.5 -1.5t-35.5 -1l3 26q40 4 57.5 18t28.5 52l145 509q3 10 3 19q0 13 -6 21.5t-19.5 12.5t-21 5t-23.5 2l-26 2l3 28q9 0 26.5 -1t31.5 -1.5t26 -0.5t26 0.5t31 1.5t26 1l150 -578l246 422q34 58 85 156q9 0 26.5 -1
t31.5 -1.5t26 -0.5t26 0.5t31 1.5t26 1l-3 -28l-38 -2q-43 -2 -46 -31z" />
    <glyph glyph-name="N" unicode="N" horiz-adv-x="778" 
d="M237 692l343 -586h2l80 486q5 35 5 46q0 23 -36 24l-47 2l5 28q84 -3 107 -3q21 0 108 3l-5 -28l-37 -2q-27 -2 -32 -11q-14 -25 -28 -109l-94 -553h-50l-336 575h-2l-80 -462q-3 -16 -3 -30q0 -17 4 -26q6 -15 45 -18l42 -3l-5 -28q-12 0 -34.5 1t-41 1.5t-34.5 0.5
l-111 -3l5 28l31 3q27 3 35 14q11 14 19 60l88 474q5 30 5 34t-13 18.5t-21 19.5q-20 12 -46 14l-35 2l5 28q9 0 25.5 -1t30 -1.5t25.5 -0.5t25.5 0.5t30 1.5t25.5 1z" />
    <glyph glyph-name="O" unicode="O" horiz-adv-x="778" 
d="M330 -18q-146 0 -211.5 76.5t-65.5 224.5q0 177 117 300t292 123q134 0 210 -72.5t76 -204.5q0 -120 -52 -221.5t-148.5 -163.5t-217.5 -62zM428 664q-76 0 -133.5 -35.5t-90 -94t-48 -124.5t-15.5 -138q0 -117 53.5 -182.5t168.5 -65.5q76 0 134.5 33.5t93 90t52 123.5
t17.5 140q0 253 -232 253z" />
    <glyph glyph-name="P" unicode="P" horiz-adv-x="611" 
d="M112 125l74 434q6 36 9 74v3q0 25 -35 26l-55 2l3 28q162 -3 166 -3q20 0 43 0.5t51.5 1.5t43.5 1h8q174 0 174 -152q0 -100 -71 -176t-169 -76q-37 0 -85 23l-2 31q49 -19 78 -19q70 0 115.5 59.5t45.5 132.5q0 76 -38 108.5t-115 32.5q-23 0 -69 -8q-2 -8 -8 -31.5
t-8 -36.5l-82 -487q-4 -22 -4 -36t7 -21t29 -8l65 -3l-3 -28q-10 0 -61.5 1.5t-77.5 1.5q-3 0 -132 -3l4 28l41 3q25 1 33 9q12 12 25 88z" />
    <glyph glyph-name="Q" unicode="Q" horiz-adv-x="778" 
d="M151 -172l-24 13q-1 6 -1 17q0 52 33 89.5t87 37.5q38 0 71 -14l236 -96q37 -15 62 -15q62 0 68 79h25q-3 -59 -31 -99.5t-84 -40.5q-38 0 -61 7.5t-63 29.5l-145 76q-54 29 -96 29q-77 0 -77 -104v-9zM330 -18q-144 0 -210.5 75.5t-66.5 225.5q0 177 117 300t292 123
q134 0 210 -72.5t76 -204.5q0 -120 -52 -221.5t-148.5 -163.5t-217.5 -62zM428 664q-76 0 -133.5 -35.5t-90 -94t-48 -124.5t-15.5 -138q0 -117 53.5 -182.5t168.5 -65.5q76 0 134.5 33.5t93 90t52 123.5t17.5 140q0 253 -232 253z" />
    <glyph glyph-name="R" unicode="R" horiz-adv-x="667" 
d="M112 125l75 434q6 36 9 74v3q0 25 -35 26l-56 2l3 28q150 -3 151 -3q22 0 47 0.5t55.5 1.5t47.5 1h8q73 0 120 -31.5t47 -101.5q0 -79 -64 -137t-145 -68l184 -275q20 -30 35 -41t45 -14v-27q-7 0 -20.5 1t-24.5 1.5t-21 0.5l-66 -3q-5 8 -25 42.5t-32 52.5l-183 275
l3 11h44q77 0 129.5 46.5t52.5 117.5q0 57 -34 85.5t-93 28.5q-47 0 -82 -8q-2 -8 -8 -31.5t-8 -36.5l-85 -487q-4 -22 -4 -36t7 -21t29 -8l49 -3l-3 -28q-102 3 -123 3q-3 0 -132 -3l4 28l41 3q25 1 33 9q12 12 25 88z" />
    <glyph glyph-name="S" unicode="S" horiz-adv-x="556" 
d="M451 537v76q-37 45 -113 45q-66 0 -112 -41.5t-46 -106.5q0 -51 23 -80t73 -39l65 -14q68 -15 106 -46.5t38 -95.5q0 -109 -89.5 -181t-201.5 -72q-36 0 -79.5 10.5t-72.5 27.5q16 73 24 152h30v-99q56 -43 140 -43q74 0 122 45t48 118q0 83 -81 103l-95 23
q-66 16 -94 53t-28 105q0 96 83.5 162.5t181.5 66.5q74 0 133 -34q-19 -60 -25 -135h-30z" />
    <glyph glyph-name="T" unicode="T" horiz-adv-x="611" 
d="M390 646l-94 -553q-4 -22 -4 -36t7 -21t29 -8l59 -3l-3 -28q-132 3 -133 3q-26 0 -77 -1.5t-65 -1.5l4 28l51 3q25 1 33 9q13 13 25 88l86 521h-112q-71 0 -81 -13q-11 -15 -18 -45l-15 -60h-29l18 164q32 0 90 -1t105 -1.5t89 -0.5q4 0 280 3l-27 -164h-28l4 64v8
q0 25 -5 33q-7 13 -116 13h-73z" />
    <glyph glyph-name="U" unicode="U" horiz-adv-x="778" 
d="M708 613l-83 -499q-8 -48 -8 -64q0 -18 32 -21l60 -4l-5 -28q-4 0 -38 1.5t-51 1.5q-10 0 -85 -3l-5 5q17 71 26 122l-2 2q-45 -58 -121.5 -101t-145.5 -43q-84 0 -134.5 40.5t-50.5 122.5q0 21 6 61l64 375q7 40 7 57q0 14 -7.5 18.5t-26.5 5.5l-52 2l3 28q11 0 29.5 -1
t33.5 -1.5t28 -0.5t27.5 0.5t32.5 1.5t28 1l-88 -477q-7 -35 -7 -61q0 -58 40.5 -86.5t100.5 -28.5q67 0 132 40t108 98l63 382q7 47 9 74v3q0 25 -35 26l-48 2l3 28q20 0 68 -1.5t72 -1.5q29 0 110 3l-3 -28l-36 -3q-28 -2 -37.5 -11t-13.5 -37z" />
    <glyph glyph-name="V" unicode="V" horiz-adv-x="722" 
d="M312 100l289 488q16 25 16 41q0 27 -57 33l-26 2v28q15 0 42 -1t48.5 -1.5t41.5 -0.5q13 0 27.5 0.5t32.5 1.5t28 1v-28l-18 -2q-21 -2 -33.5 -13t-28.5 -38l-378 -619h-49l-88 622q-4 29 -16 37t-43 11l-25 2v28q123 -3 124 -3t124 3v-28l-42 -2q-23 -2 -33 -8.5
t-10 -21.5q0 -1 0.5 -3.5t0.5 -4.5l70 -524h3z" />
    <glyph glyph-name="W" unicode="W" horiz-adv-x="944" 
d="M303 692v-28l-37 -2q-45 -2 -45 -42v-4l31 -480h2l222 452q32 66 52 112h18l157 -569h2l146 459q9 29 9 50q0 20 -41 22l-39 2l5 28q11 0 31 -1t36 -1.5t31 -0.5q1 0 97 3v-28l-20 -2q-34 -3 -43 -31l-171 -507q-18 -51 -38 -132h-51q-18 86 -39 162l-112 392l-224 -444
q-29 -57 -50 -110h-50q-1 75 -8 166l-32 430q-3 42 -12.5 56t-40.5 18l-18 2v28q13 0 37 -1t43 -1.5t36 -0.5t36.5 0.5t43 1.5t36.5 1z" />
    <glyph glyph-name="X" unicode="X" horiz-adv-x="722" 
d="M488 80l-119 226l-182 -231q-10 -12 -10 -25q0 -16 55 -22l32 -3v-28q-60 3 -119 3q-56 0 -125 -3v28l28 3q38 5 62 33l238 282l-146 270q-14 26 -29.5 36t-51.5 13l-26 2v28q15 0 42 -1t49.5 -1.5t42.5 -0.5t41.5 0.5t48.5 1.5t42 1v-28l-37 -2q-43 -2 -43 -20
q0 -10 14 -38l104 -199l161 196q23 27 23 42q0 17 -45 19l-33 2v28q114 -3 115 -3q17 0 36 0.5t42 1.5t36 1v-28l-28 -2q-20 -1 -32 -10t-33 -32l-221 -252l171 -307q10 -18 24 -25t44 -9l25 -2v-28q-68 3 -133 3q-67 0 -135 -3v28l38 3q6 0 14.5 0.5t13.5 1t10 1.5t7.5 3
t2.5 6q0 12 -14 40z" />
    <glyph glyph-name="Y" unicode="Y" horiz-adv-x="667" 
d="M127 702l4 3h3q26 0 48 -12t38.5 -35t26.5 -41.5t22 -46.5q18 -44 44 -135.5t32 -121.5h2q39 102 127 223q47 64 94.5 105.5t106.5 55.5l-6 -71q-30 -4 -58 -19t-53 -40.5t-41 -45t-39 -51.5q-42 -58 -76 -122.5t-40 -101.5l-24 -153q-4 -22 -4 -36t7 -21t29 -8l49 -3
l-3 -28q-102 3 -123 3q-26 0 -77.5 -1.5t-61.5 -1.5l4 28l48 3q25 1 33 9q12 12 25 88l21 126v5q0 33 -36.5 146.5t-59.5 156.5q-41 76 -92 76q-13 0 -42 -12l-3 24q53 37 75 55z" />
    <glyph glyph-name="Z" unicode="Z" horiz-adv-x="667" 
d="M20 -3v22l502 633h-180q-116 0 -180 -13q-22 -74 -27 -106h-26q11 99 11 159q354 -3 355 -3l162 3v-20l-504 -633h281q67 0 127 13q22 60 39 112h26q-20 -106 -23 -167q-165 3 -329 3q-117 0 -234 -3z" />
    <glyph glyph-name="bracketleft" unicode="[" horiz-adv-x="333" 
d="M326 733v-28l-88 -7q-7 0 -12 -6t-6 -10t-3 -15q-22 -112 -57 -338q-8 -57 -25 -169t-25 -169q-4 -26 -4 -36q0 -17 28 -20l79 -7l-5 -28q-14 0 -44.5 1.5t-45.5 1.5q-14 0 -30.5 -0.5t-36.5 -1.5t-31 -1l-2 5q11 48 25.5 134t16.5 99q26 140 64 412q14 105 22 179l8 4
q58 -2 86 -2q30 0 86 2z" />
    <glyph glyph-name="backslash" unicode="\" horiz-adv-x="606" 
d="M453 0l-372 733h60l372 -733h-60z" />
    <glyph glyph-name="bracketright" unicode="]" horiz-adv-x="333" 
d="M7 -100v28l88 7q7 0 12 6t6 10t3 15q22 112 57 338q8 56 24.5 168.5t25.5 169.5q4 26 4 36q0 17 -28 20l-79 7l5 28q14 0 44.5 -1.5t45.5 -1.5q14 0 30.5 0.5t36.5 1.5t31 1l2 -5q-11 -48 -25.5 -134t-16.5 -99q-26 -140 -64 -412q-14 -105 -22 -179l-8 -4q-58 2 -86 2
q-30 0 -86 -2z" />
    <glyph glyph-name="asciicircum" unicode="^" horiz-adv-x="606" 
d="M112 283h-61l219 406h66l218 -406h-61l-190 344z" />
    <glyph glyph-name="underscore" unicode="_" 
d="M0 -75h500v-50h-500v50z" />
    <glyph glyph-name="grave" unicode="`" horiz-adv-x="333" 
d="M157 669l153 -151h-34l-162 101q-28 17 -28 39q0 11 12 20t27 9q12 0 32 -18z" />
    <glyph glyph-name="a" unicode="a" horiz-adv-x="444" 
d="M235 433q-44 0 -64.5 -21.5t-40.5 -73.5q-54 -143 -54 -232q0 -26 4 -36.5t15 -10.5q24 0 61 36t70 81q65 86 93 238q-54 19 -84 19zM402 472l-92 -379q-1 -3 -1 -11q0 -23 15 -23q7 0 13.5 2t15.5 8t13.5 10t16.5 14t16 13l7 -21q-111 -94 -144 -94q-26 0 -26 33
q0 26 6 53l27 120l-3 1q-38 -56 -80 -102.5t-70 -67.5q-54 -39 -78 -39q-19 0 -26.5 28.5t-7.5 55.5q0 77 40 195.5t82 148.5q56 40 85 52.5t67 12.5q32 0 81 -19l33 18z" />
    <glyph glyph-name="b" unicode="b" horiz-adv-x="463" 
d="M322 424q-22 0 -56 -18.5t-59 -44.5q-56 -60 -83 -170q-13 -52 -13 -91q0 -64 73 -64q87 0 136 125q41 104 41 186q0 77 -39 77zM234 722l-85 -392l2 -2q64 87 123 120.5t103 33.5q24 0 35 -14q21 -27 21 -101q0 -89 -45.5 -184t-116.5 -144q-73 -50 -130 -50
q-38 0 -71.5 20t-33.5 52q0 6 1 10l101 551q2 10 2 25q0 23 -34 23h-48l4 21q40 3 81 12q38 9 79 30z" />
    <glyph glyph-name="c" unicode="c" horiz-adv-x="407" 
d="M342 330v60q0 17 -25 31q-21 12 -53 12q-34 0 -58 -11q-37 -17 -62 -66.5t-34 -99.5t-9 -97q0 -119 89 -119q42 0 141 65l15 10l8 -20l-50 -41q-78 -65 -156 -65q-123 0 -123 147q0 83 30 162t78 110q51 33 71 44.5t43.5 20.5t46.5 9q63 0 95 -24q-12 -33 -24 -128h-23z
" />
    <glyph glyph-name="d" unicode="d" 
d="M243 433q-38 0 -59 -15q-38 -27 -66.5 -130t-28.5 -184q0 -14 1 -22t7.5 -15.5t18.5 -7.5t39 16.5t53 40.5q48 45 82.5 108.5t46.5 126.5l12 59q-41 23 -106 23zM483 722l-125 -587q-9 -45 -9 -54q0 -22 15 -22q12 0 38 17l44 31l10 -19l-81 -60q-49 -37 -72 -37
q-29 0 -29 33q0 36 16 102l20 80l-4 1q-61 -97 -128 -157.5t-117 -60.5q-44 0 -44 106q0 27 4.5 63.5t16.5 86t39.5 96.5t65.5 76q64 47 85 56q23 9 50 9q43 0 81 -14l28 154q2 10 2 25q0 23 -34 23h-48l4 21q40 3 81 12q38 9 79 30z" />
    <glyph glyph-name="e" unicode="e" horiz-adv-x="389" 
d="M181 234l-82 -20q-8 -41 -8 -84q0 -42 20 -68t60 -26q51 0 133 58l24 17l8 -19q-124 -103 -199 -103q-122 0 -122 128q0 61 31 163q25 83 75 121q106 81 166 81q37 0 62 -19.5t25 -56.5q0 -93 -124 -147q-40 -17 -69 -25zM113 274l-9 -37q60 13 109 35q35 16 61 48.5
t26 67.5q0 52 -51 52q-20 0 -46 -12q-59 -27 -90 -154z" />
    <glyph glyph-name="f" unicode="f" horiz-adv-x="278" 
d="M286 383h-104q-2 -7 -27 -125t-42 -192t-29 -114q-36 -116 -101 -175q-59 -53 -110 -53q-23 0 -35 8q4 8 13 40t10 40l14 4q21 -29 48 -29h1q15 0 25.5 3t29 24.5t32.5 62.5q20 57 55.5 253.5t42.5 252.5h-81l5 22q33 11 86 37l15 79q10 52 20 71q9 20 25 38
q11 12 59.5 49t69.5 47q17 7 35 7q46 0 70 -13q-19 -51 -28 -82l-10 -4q-9 16 -29.5 27.5t-41.5 11.5q-44 0 -68 -47q-12 -24 -23 -77l-21 -112q56 0 75 2q7 1 32 7l4 -7q-10 -23 -17 -56z" />
    <glyph glyph-name="g" unicode="g" 
d="M145 -276q-31 0 -60 5.5t-58 17.5t-46.5 36t-17.5 57q0 121 197 179q-21 16 -21 33q0 20 27 47l39 36l-2 2q-7 -1 -22 -1q-57 0 -91.5 30t-34.5 90q0 113 85 174q73 52 134 52q33 0 69 -13t50 -45h18q51 0 84 9l3 -6l-9 -45q-32 -4 -50 -4q-12 0 -34 2q4 -26 4 -35
q0 -45 -20 -84t-48.5 -62t-55 -36.5t-45.5 -16.5q-2 -2 -7 -9t-9 -12t-7.5 -12t-3.5 -12q0 -29 47 -66l60 -49q64 -52 64 -107q0 -38 -27.5 -71t-65.5 -50q-75 -34 -146 -34zM253 -58l-77 59q-63 -16 -106 -52.5t-43 -94.5q0 -51 43.5 -76.5t98.5 -25.5q50 0 99.5 24.5
t49.5 69.5q0 46 -65 96zM248 448q-52 0 -87 -44t-35 -112q0 -124 95 -124q57 0 86.5 53.5t29.5 116.5q0 55 -20.5 82.5t-68.5 27.5z" />
    <glyph glyph-name="h" unicode="h" 
d="M236 722l-96 -447l4 -2q62 78 87 101q50 47 101.5 77.5t78.5 30.5q32 0 32 -35q0 -27 -11 -75l-64 -256q-7 -26 -7 -40q0 -20 13 -20q15 0 61 30l26 17l10 -18q-71 -53 -109 -75q-32 -19 -50 -19q-31 0 -31 40q0 28 13 76l51 196q15 59 15 90q0 21 -22 21
q-31 0 -93.5 -58.5t-96.5 -119.5q-40 -72 -62 -229l-69 -16l-7 11q40 119 88 386l42 234q2 10 2 25q0 23 -34 23h-48l4 21q40 3 81 12q38 9 79 30z" />
    <glyph glyph-name="i" unicode="i" horiz-adv-x="278" 
d="M215 420l-77 -304q-7 -26 -7 -40q0 -20 13 -20q15 0 61 30l26 17l10 -18q-71 -53 -109 -75q-32 -19 -50 -19q-31 0 -31 40q0 28 13 76l66 240q8 32 8 44q0 23 -18 23q-6 0 -51 -28l-28 -18l-7 20l28 20q104 74 132 74q27 0 27 -26q0 -14 -6 -36zM210 604q-40 0 -40 43
q0 23 17.5 44t40.5 21q15 0 25.5 -11t10.5 -27q0 -30 -15 -50t-39 -20z" />
    <glyph glyph-name="j" unicode="j" horiz-adv-x="278" 
d="M-70 -269l8 57q30 -19 54 -19q27 0 46 87l99 491q8 43 8 44q0 23 -18 23q-6 0 -51 -28l-28 -18l-7 20l28 20q104 74 132 74q27 0 27 -26q0 -14 -6 -36l-76 -350q-22 -103 -41 -168q-17 -59 -55.5 -118.5t-76.5 -59.5q-30 0 -43 7zM211 604q-40 0 -40 43q0 23 17.5 44
t40.5 21q15 0 25.5 -11t10.5 -27q0 -30 -15 -50t-39 -20z" />
    <glyph glyph-name="k" unicode="k" horiz-adv-x="444" 
d="M234 722l-106 -485l2 -2q70 101 143 174t125 73q25 0 51 -9l-17 -63q-20 6 -38 6q-69 0 -155 -86l-14 -14q51 -160 96 -241q13 -23 25 -23q13 0 30 10l43 24l8 -19l-46 -32q-62 -44 -80 -44q-17 0 -37 36q-32 59 -90 232q-53 -51 -67 -127l-23 -124l-67 -17l-9 10l23 92
t23 93.5t18.5 80.5t17.5 87l48 268q2 10 2 25q0 23 -34 23h-48l4 21q40 3 81 12q38 9 79 30z" />
    <glyph glyph-name="l" unicode="l" horiz-adv-x="278" 
d="M251 722l-128 -606q-7 -35 -7 -40q0 -20 13 -20q15 0 61 30l26 17l10 -18q-71 -53 -109 -75q-32 -19 -50 -19q-31 0 -31 40q0 32 33 153q18 66 49 229t36 209q0 4 1.5 13t1.5 12q0 23 -34 23h-48l4 21q40 3 81 12q38 9 79 30z" />
    <glyph glyph-name="m" unicode="m" horiz-adv-x="778" 
d="M387 113l-21 -107l-69 -15l-5 11q55 232 74 340q5 28 5 48q0 24 -10 24q-43 0 -116 -76q-43 -45 -66 -99.5t-40 -130.5l-22 -102l-68 -15l-3 11q29 99 66 276q16 78 16 113q0 23 -18 23q-6 0 -51 -28l-28 -18l-7 20l28 20q104 74 132 74q24 0 24 -33q0 -17 -6 -41
l-31 -126l2 -2q33 44 47.5 62t42 45t60.5 49q69 46 105 46q27 0 27 -32q0 -6 -7 -41l-29 -130l2 -2q62 91 166 159q69 46 105 46q27 0 27 -30q0 -4 -7 -39l-75 -297q-7 -26 -7 -40q0 -20 13 -20q15 0 61 30l26 17l10 -18q-71 -53 -109 -75q-32 -19 -50 -19q-31 0 -31 40
q0 37 13 76q33 104 62 235q6 30 6 46q0 26 -11 26q-27 0 -53 -18.5t-67 -57.5q-83 -78 -113 -225z" />
    <glyph glyph-name="n" unicode="n" horiz-adv-x="556" 
d="M202 408l-36 -153h4q71 102 133 153q90 74 148 74q32 0 32 -35q0 -27 -11 -75l-61 -256q-7 -26 -7 -40q0 -20 13 -20q15 0 61 30l26 17l10 -18q-71 -53 -109 -75q-32 -19 -50 -19q-31 0 -31 40q0 19 13 76l52 212q11 42 11 72q0 23 -17 23q-25 0 -69 -30q-36 -25 -74 -73
t-61 -94q-37 -76 -56 -209q-29 -5 -70 -17l-7 11q29 99 66 276q16 78 16 113q0 23 -18 23q-6 0 -51 -28l-28 -18l-7 20l28 20q104 74 132 74q24 0 24 -33q0 -17 -6 -41z" />
    <glyph glyph-name="o" unicode="o" horiz-adv-x="444" 
d="M148 -11q-131 0 -131 160q0 103 40.5 183.5t119.5 121.5q54 28 101 28q67 0 100 -42.5t33 -111.5q0 -63 -23 -131.5t-62 -116.5q-31 -39 -80.5 -65t-97.5 -26zM187 27q45 0 73 33q36 41 55.5 115.5t19.5 140.5q0 128 -93 128q-40 0 -61 -17q-41 -33 -64.5 -119
t-23.5 -153q0 -128 94 -128z" />
    <glyph glyph-name="p" unicode="p" 
d="M143 165l-18 -106q34 -23 85 -23q61 0 90 44q39 59 66 136t27 141q0 67 -34 67q-31 0 -55 -14q-60 -35 -104.5 -104t-56.5 -141zM115 3l-42 -262q-44 -7 -73 -17l-7 6q38 171 57 278l46 270q16 88 16 113q0 21 -18 21q-9 0 -51 -26l-28 -18l-7 20l28 20q104 74 132 74
q23 0 23 -33q0 -14 -5 -41l-22 -112l2 -2q33 65 105.5 126.5t135.5 61.5q58 0 58 -123q0 -50 -23 -120t-52 -114q-45 -66 -145 -115q-42 -21 -70 -21q-12 0 -60 14z" />
    <glyph glyph-name="q" unicode="q" horiz-adv-x="463" 
d="M385 458l33 22l14 -6q-13 -40 -27 -118l-74 -394q-24 -120 -31 -221q-36 -5 -86 -17l-9 14q19 20 27 57l75 407l-2 2q-23 -42 -70 -94t-94 -85q-1 -1 -11 -8t-13 -9t-12 -7t-14.5 -6.5t-14.5 -3.5t-18 -2q-34 0 -34 90q0 73 23 161q21 81 42 114.5t83 80.5q61 47 108 47
t105 -24zM330 311l21 95q-61 27 -95 27q-56 0 -75 -24q-35 -45 -60 -137t-25 -156q0 -57 22 -57q30 0 78 45q62 58 88 100q34 55 46 107z" />
    <glyph glyph-name="r" unicode="r" horiz-adv-x="389" 
d="M368 365h-14q-15 19 -37 19q-29 0 -82 -65q-60 -74 -85 -193l-26 -120q-44 -8 -67 -15l-10 7q42 130 74 319q9 55 9 74q0 21 -18 21q-9 0 -51 -26l-28 -18l-7 20l28 20q104 74 132 74q24 0 24 -33q0 -17 -6 -41q-14 -57 -30 -142l2 -2q14 33 73 118l11 16q12 17 15 20.5
t14 17.5t17.5 19t16.5 13t20 11t21 3q6 0 20 -6q-12 -58 -16 -111z" />
    <glyph glyph-name="s" unicode="s" horiz-adv-x="389" 
d="M31 148h25v-84q37 -35 92 -35q53 0 86 28.5t33 80.5q0 31 -14 45t-46 20l-63 12q-97 19 -97 101q0 51 37 88q78 78 159 78q51 0 102 -27q-14 -68 -19 -113h-23v55q-10 21 -39 33t-55 12q-42 0 -72.5 -26t-30.5 -67q0 -19 6 -32t18.5 -20t23.5 -10.5t31 -7.5l43 -8
q106 -19 106 -95q0 -73 -72 -129q-76 -58 -145 -58q-56 0 -108 27q16 62 22 132z" />
    <glyph glyph-name="t" unicode="t" horiz-adv-x="333" 
d="M125 390h-84l2 13q24 6 88 37l25 170q47 18 78 36l11 -15q-23 -69 -45 -197q54 0 110 6l-11 -50h-107q-45 -221 -52 -274q-4 -28 -4 -40q0 -20 14 -20q17 0 60 30l45 31l10 -18q-101 -81 -126 -93q-32 -15 -52 -15q-31 0 -31 40q0 5 13 76z" />
    <glyph glyph-name="u" unicode="u" horiz-adv-x="556" 
d="M71 77l57 270q8 32 8 44q0 21 -18 21q-9 0 -51 -26l-28 -18l-7 20l28 20q104 74 132 74q23 0 23 -33q0 -14 -5 -41l-57 -271q-7 -31 -7 -53q0 -25 13 -25q21 0 43 16q47 33 98 96t71 117q21 57 36 126l10 51l68 17l7 -9q-49 -187 -84 -357q-6 -30 -6 -40q0 -17 13 -17
q20 0 61 27l26 17l10 -18q-71 -53 -109 -75q-32 -19 -50 -19q-31 0 -31 40q0 19 13 76l32 119l-4 1q-31 -52 -104 -133q-97 -105 -158 -105q-11 0 -22.5 10.5t-11.5 26.5q0 30 4 51z" />
    <glyph glyph-name="v" unicode="v" 
d="M332 423l50 47q12 12 33 12q32 0 47 -31t15 -67t-19 -104q-15 -54 -54 -119t-99 -118.5t-116 -53.5q-54 0 -83.5 38.5t-29.5 94.5q0 141 151 300l-1 2q-28 -4 -58 -4q-20 0 -48 2h-8q-41 0 -52 -28l-17 -42h-22q19 80 38 118q13 7 32 7q8 0 12 -1q37 -4 66 -5
q22 -1 53 -1q30 0 53 12l10 -18q-137 -163 -137 -316q0 -47 19.5 -78t63.5 -31q45 0 93 57q40 47 64.5 118.5t24.5 135.5q0 63 -43 63q-15 0 -27 -9z" />
    <glyph glyph-name="w" unicode="w" horiz-adv-x="722" 
d="M554 423l50 47q12 12 33 12q32 0 47 -31t15 -67t-19 -104q-15 -54 -54 -119t-99 -118.5t-116 -53.5q-34 0 -53.5 30t-19.5 75q0 32 10 84l-2 2q-18 -35 -32 -59t-39.5 -59t-54.5 -54t-59 -19q-47 0 -68 42.5t-21 94.5q0 49 20 100t39 79t53.5 69t38.5 46l3 4
q-28 -4 -58 -4q-20 0 -48 2h-8q-41 0 -52 -28l-17 -42h-22q19 80 38 118q13 7 32 7q8 0 12 -1q37 -4 66 -5q22 -1 53 -1q30 0 53 12l10 -18q-89 -98 -126 -216q-14 -45 -14 -119q0 -33 14.5 -61.5t44.5 -28.5q55 0 128 159q21 47 34 113l29 149l74 22l7 -8l-52 -184
q-21 -73 -21 -160q0 -38 14 -64.5t36 -26.5q45 0 93 57q40 47 64.5 118.5t24.5 135.5q0 63 -43 63q-15 0 -27 -9z" />
    <glyph glyph-name="x" unicode="x" 
d="M21 88l20 3l11 -28q4 -9 31 -9q38 0 102 99l40 62l-11 62q-19 109 -51 132q-10 7 -22 7q-27 0 -68 -48l-17 10l58 83q14 21 57 21q28 0 47 -11.5t29 -34.5t14 -41t8 -48l6 -48l37 55q17 25 27 39t31 39t42.5 37.5t41.5 12.5q14 0 30 -10l-15 -85l-14 -4q-5 23 -35 23h-4
q-7 -1 -13.5 -3t-13.5 -6.5t-12.5 -8.5t-12.5 -11l-11 -11t-10.5 -13t-9 -12t-9 -12.5t-7.5 -10.5l-35 -49l18 -101q6 -34 19 -70q17 -45 46 -45q23 0 75 45l9 -19l-49 -44q-51 -46 -85 -46q-53 0 -73 124l-11 69l-76 -117q-49 -76 -104 -76q-20 0 -42 12q12 72 12 87z" />
    <glyph glyph-name="y" unicode="y" 
d="M-7 -180l48 34l10 -4q-2 -14 -2 -19q0 -29 17.5 -47t44.5 -18q67 0 116 99q28 58 55 151l47 162l-2 2q-37 -57 -85 -109q-71 -82 -105 -82q-21 0 -33 19t-12 42q0 33 1 50l17 243v15q0 52 -21 52q-5 0 -27 -13l-48 -29l-11 18l82 56q58 40 75 40q12 0 18 -14.5t6 -55.5
q0 -39 -4 -90l-15 -194v-12q0 -49 20 -49q15 0 46 27t59 68q55 79 80 169l35 132q32 3 74 19l11 -9l-141 -440q-40 -123 -101 -200q-86 -109 -173 -109q-34 0 -58.5 22.5t-24.5 58.5q0 10 1 15z" />
    <glyph glyph-name="z" unicode="z" horiz-adv-x="444" 
d="M-1 21l348 395l-2 2q-35 -20 -89 -20q-30 0 -78 10q-25 5 -45 5q-23 0 -39 -5l-30 -58h-21l32 122q33 10 62 10q19 0 79 -16q76 -21 134 -21q19 0 34 14l23 23l9 -9l-6 -32l-335 -378l2 -2q41 19 89 19q35 0 104 -16q29 -7 48 -7q31 0 40 25l22 60h22q-15 -60 -30 -143
q-35 -10 -48 -10q-36 0 -92 13q-9 2 -32 7.5t-35.5 8.5t-31.5 5.5t-35 2.5q-53 0 -90 -32z" />
    <glyph glyph-name="braceleft" unicode="{" horiz-adv-x="333" 
d="M111 427l29 172q13 81 54.5 107.5t124.5 26.5q-49 -12 -72 -39.5t-32 -80.5l-30 -172q-10 -56 -31 -84.5t-72 -40.5v-2q35 -9 49.5 -28t14.5 -50q0 -14 -6 -54l-28 -162q-4 -28 -4 -38q0 -68 67 -82q-74 0 -105 18.5t-31 71.5q0 24 6 56l27 156q5 28 5 44q0 28 -14 43.5
t-48 25.5q47 13 67.5 38.5t28.5 73.5z" />
    <glyph glyph-name="bar" unicode="|" horiz-adv-x="606" 
d="M275 750h56v-1000h-56v1000z" />
    <glyph glyph-name="braceright" unicode="}" horiz-adv-x="333" 
d="M222 206l-29 -172q-13 -81 -54.5 -107.5t-124.5 -26.5q49 12 72 39.5t32 80.5l30 172q10 56 31 84.5t72 40.5v2q-35 9 -49.5 28t-14.5 50q0 14 6 54l28 162q4 28 4 38q0 68 -67 82q74 0 105 -18.5t31 -71.5q0 -25 -6 -56l-27 -156q-5 -28 -5 -44q0 -28 14 -43.5t48 -25.5
q-47 -13 -67.5 -38.5t-28.5 -73.5z" />
    <glyph glyph-name="asciitilde" unicode="~" horiz-adv-x="606" 
d="M520 339l35 -40q-58 -109 -141 -109q-28 0 -135 44q-64 26 -87 26q-19 0 -35 -7.5t-30 -24.5t-21 -27t-20 -33l-35 40q30 53 62 84.5t80 31.5q39 0 117 -35q80 -36 105 -36q32 0 60 26t45 60z" />
    <glyph glyph-name="uni00A0" unicode="&#xa0;" horiz-adv-x="250" 
 />
    <glyph glyph-name="exclamdown" unicode="&#xa1;" horiz-adv-x="333" 
d="M188 467q20 0 32.5 -14t12.5 -34q0 -26 -16.5 -47.5t-43.5 -21.5q-45 0 -45 48q0 26 17 47.5t43 21.5zM111 -250l-85 -26l-11 9q28 104 37 145l86 371l30 17l6 -3l-21 -154q-22 -168 -42 -359z" />
    <glyph glyph-name="cent" unicode="&#xa2;" 
d="M316 480l27 71h33l-27 -71q37 0 69 -22q-19 -81 -21 -128h-23v64q0 17 -44 33l-146 -382q13 -5 26 -5q74 0 169 75l7 -20l-60 -49q-69 -57 -163 -57l-34 -85h-32l35 94q-29 6 -47 31t-23.5 52t-5.5 57q0 97 48 196q21 43 53 68.5t86 53.5q38 20 73 24zM157 64l140 368
q-4 1 -12 1q-40 0 -70 -23q-5 -4 -10 -8.5t-8 -8t-6.5 -9t-5.5 -8.5t-5 -10.5l-4 -10t-4.5 -11.5t-4.5 -12q-14 -36 -25.5 -92t-11.5 -93q0 -56 27 -83z" />
    <glyph glyph-name="sterling" unicode="&#xa3;" 
d="M477 159l-36 -158q-22 -15 -61 -15q-9 0 -155 26q-84 14 -106 14q-34 0 -46 -9q-24 -19 -50 -35q-21 10 -21 45q23 12 38 25q49 40 68 128q6 28 21 142h-95l7 35h94q29 197 123 291q60 60 125 60q52 0 96 -28q-17 -54 -19 -122h-23v54q0 20 -26 35.5t-67 15.5
q-30 0 -55 -23t-34 -71q-12 -63 -46 -212h142l-7 -35h-143q-32 -127 -56 -177q-10 -22 -27 -47.5t-23 -29.5l2 -2q44 13 76 13q41 0 122 -13q24 -4 71 -4h18q33 0 47 37l22 60h24z" />
    <glyph glyph-name="currency" unicode="&#xa4;" 
d="M14 545l31 32l57 -56q59 54 148 54q90 0 148 -54l57 56l31 -32l-56 -56q53 -54 53 -144q0 -80 -51 -142l54 -54l-31 -31l-55 53q-64 -56 -150 -56t-150 56l-55 -53l-31 31l54 54q-51 62 -51 142q0 90 53 144zM250 523q-76 0 -128.5 -51.5t-52.5 -126.5t53 -126.5
t128 -51.5t128 51.5t53 126.5t-52.5 126.5t-128.5 51.5z" />
    <glyph glyph-name="yen" unicode="&#xa5;" 
d="M270 203l-16 -110q-3 -17 -3 -36q0 -14 6 -21t25 -8l41 -3l-2 -28q-87 3 -105 3q-22 0 -65 -1.5t-53 -1.5l3 28l41 3q22 1 28 9q8 9 22 88l13 78h-115l6 34h114q2 14 2 22q0 19 -7 51h-99l6 34h84l-9 42q-24 114 -46 168q-31 76 -71 76q-11 0 -35 -12v24q29 23 61 57
q21 0 38 -11.5t30 -34.5t20.5 -41.5t17.5 -46.5q32 -94 58 -243h2q46 120 96 209q77 137 154 160l-4 -70q-23 -4 -45 -19t-41 -40t-31.5 -45t-28.5 -50q-31 -58 -41 -80l-19 -43h96l-6 -34h-102q-9 -22 -15 -73h111l-6 -34h-110z" />
    <glyph glyph-name="brokenbar" unicode="&#xa6;" horiz-adv-x="606" 
d="M275 675h56v-350h-56v350zM275 175h56v-350h-56v350z" />
    <glyph glyph-name="section" unicode="&#xa7;" 
d="M236 72l-51 28q-31 17 -48 28t-41 30.5t-35.5 43t-11.5 51.5q0 51 27 86t82 74q-41 43 -41 85q0 57 37 106q12 16 38 41.5t41 33.5q46 27 101 27q81 0 129 -40l-31 -129h-25l5 80q-38 44 -109 44q-53 0 -91 -33.5t-38 -86.5q0 -50 46 -80l42 -28l81 -48
q28 -17 40.5 -25.5t30.5 -25.5t25 -37t7 -46q0 -48 -30.5 -89t-76.5 -67q51 -43 51 -99q0 -77 -78 -151q-68 -65 -153 -65q-39 0 -79 13.5t-66 38.5l33 141l24 -2l-6 -86q46 -59 132 -59q53 0 93 38t40 91q0 30 -15 53.5t-31.5 35t-47.5 28.5zM202 177l116 -66q66 52 66 105
q0 65 -88 113l-59 33l-60 37q-65 -50 -65 -111q0 -60 90 -111z" />
    <glyph glyph-name="dieresis" unicode="&#xa8;" horiz-adv-x="333" 
d="M128 604q-40 0 -40 43q0 23 17.5 44t40.5 21q15 0 25.5 -11t10.5 -27q0 -30 -15 -50t-39 -20zM328 604q-40 0 -40 43q0 23 17.5 44t40.5 21q15 0 25.5 -11t10.5 -27q0 -30 -15 -50t-39 -20z" />
    <glyph glyph-name="copyright" unicode="&#xa9;" horiz-adv-x="747" 
d="M371 706q151 0 258 -106t107 -256t-107 -256t-257 -106q-148 0 -254.5 106t-106.5 255t106 256t254 107zM371 662q-130 0 -223 -94t-93 -225t93.5 -224t223.5 -93q132 0 226 93t94 225t-94.5 225t-226.5 93zM527 522v-107h-26q-1 51 -28.5 79t-79.5 28q-71 0 -109 -50
t-38 -123q0 -71 39.5 -127t107.5 -56q87 0 123 77l21 -9q-18 -46 -64 -72.5t-99 -26.5q-88 0 -142 58t-54 147q0 93 57 150.5t151 57.5q65 0 141 -26z" />
    <glyph glyph-name="ordfeminine" unicode="&#xaa;" horiz-adv-x="333" 
d="M210 670q-33 0 -45 -12t-24 -45q-34 -82 -34 -139q0 -27 12 -27q13 0 42.5 26t40.5 41q37 51 63 145q-35 11 -55 11zM319 694l-60 -228v-4q0 -16 12 -16q4 0 10 2.5t10 5.5t12.5 9.5t13.5 9.5l4 -12q-75 -57 -93 -57q-17 0 -17 21q0 10 4 32l15 71l-1 -1l-2 2
q-21 -29 -36 -46.5t-39 -38t-50 -34.5q-12 -6 -20 -6q-22 0 -22 50q0 39 18.5 101t41.5 90q9 9 22 19q9 8 36 22q25 13 60 13q22 0 53 -11l21 11z" />
    <glyph glyph-name="guillemotleft" unicode="&#xab;" 
d="M129 170l-72 81v16q12 11 50.5 43.5t58.5 51.5l85 78l19 -16l-137 -168l95 -171l-20 -15q-77 98 -79 100zM296 170l-72 81v16q12 11 50.5 43.5t58.5 51.5l85 78l19 -16l-137 -168l95 -171l-20 -15q-77 98 -79 100z" />
    <glyph glyph-name="logicalnot" unicode="&#xac;" horiz-adv-x="606" 
d="M499 118v204h-448v56h504v-260h-56z" />
    <glyph glyph-name="uni00AD" unicode="&#xad;" horiz-adv-x="333" 
d="M19 223l19 58h266l-18 -58h-267z" />
    <glyph glyph-name="registered" unicode="&#xae;" horiz-adv-x="747" 
d="M371 706q151 0 258 -106t107 -256t-107 -256t-257 -106q-148 0 -254.5 106t-106.5 255t106 256t254 107zM371 662q-130 0 -223 -94t-93 -225t93.5 -224t223.5 -93q132 0 226 93t94 225t-94.5 225t-226.5 93zM205 554h156q31 0 54 -3t48.5 -12.5t39 -30.5t13.5 -53
q0 -45 -32 -71.5t-79 -32.5v-2q47 -5 87 -103q20 -48 32 -60q13 -13 39 -13v-16h-41q-33 0 -48 12q-17 13 -42 76q-28 68 -41 81q-14 14 -47 14h-35v-129q0 -21 5 -28.5t23 -8.5l21 -1v-16h-152v16h16q19 0 25.5 5.5t6.5 25.5v303q0 18 -7.5 23t-24.5 6l-17 1v17zM309 492
v-132h27q124 0 124 90q0 42 -25 63.5t-69 21.5h-29q-18 0 -23 -8.5t-5 -26.5v-8z" />
    <glyph glyph-name="macron" unicode="&#xaf;" horiz-adv-x="333" 
d="M386 589l-11 -51h-301l11 51h301z" />
    <glyph glyph-name="degree" unicode="&#xb0;" horiz-adv-x="400" 
d="M390 539q0 -62 -44 -106t-106 -44t-106 44t-44 106v2q0 61 44 104.5t106 43.5t106 -44.5t44 -105.5zM350 539q0 45 -32.5 77.5t-78.5 32.5q-44 0 -76.5 -32t-32.5 -76v-2q0 -46 32 -78t78 -32q45 0 77.5 32t32.5 78z" />
    <glyph glyph-name="plusminus" unicode="&#xb1;" horiz-adv-x="606" 
d="M275 333v171h56v-171h224v-56h-224v-168h-56v168h-224v56h224zM555 0h-504v56h504v-56z" />
    <glyph glyph-name="two.superior" unicode="&#xb2;" horiz-adv-x="300" 
d="M232 479l-154 -152v-6h130q41 0 74 9l4 -11l-11 -41q-88 2 -130 2q-44 0 -132 -2v21q93 92 150 159q63 76 63 132q0 62 -65 62q-30 0 -49.5 -14.5t-38.5 -46.5l-18 10l39 72q36 26 85 26q50 0 80.5 -26t30.5 -72q0 -66 -58 -122z" />
    <glyph glyph-name="three.superior" unicode="&#xb3;" horiz-adv-x="300" 
d="M28 299l18 87l22 -3q-3 -12 -3 -26q0 -58 82 -58q37 0 66 37t29 79q0 76 -85 76q-17 0 -47 -10l-4 13l11 30q5 0 15.5 -0.5t14.5 -0.5q41 0 67.5 25t26.5 64q0 20 -19.5 33t-40.5 13q-41 0 -67 -34l-13 -17l-15 10l38 63q43 19 74 19q41 0 71 -20t30 -57q0 -64 -93 -106
v-2q98 -17 98 -93q0 -63 -54 -105.5t-123 -42.5q-61 0 -99 26z" />
    <glyph glyph-name="acute" unicode="&#xb4;" horiz-adv-x="333" 
d="M122 518l153 151q20 18 32 18q15 0 27 -9t12 -20q0 -22 -28 -39l-162 -101h-34z" />
    <glyph glyph-name="mu" unicode="&#xb5;" horiz-adv-x="504" 
d="M475 85q-84 -62 -109 -77q-32 -19 -50 -19q-31 0 -31 40q0 30 13 78l32 119l-4 1q-44 -74 -99 -135q-3 -4 -15.5 -17.5t-18.5 -20t-18 -18.5t-20 -18.5t-17.5 -14t-17.5 -11t-14 -3.5q-40 0 -41 59q-12 -45 -22.5 -113.5t-11.5 -106.5q-59 -24 -78 -39l-13 11
q99 272 139 457q36 166 41 208l70 17l7 -9l-62 -255q-17 -73 -17 -106q0 -5 0.5 -11.5t0.5 -9.5q0 -9 5 -19t13 -10q11 0 28 12q46 33 97.5 96.5t71.5 117.5q25 68 36 126l10 51l68 17l7 -9q-49 -187 -84 -357q-6 -30 -6 -40q0 -17 13 -17q20 0 61 27l26 17z" />
    <glyph glyph-name="paragraph" unicode="&#xb6;" 
d="M180 -119l63 369q-81 7 -145.5 83t-64.5 182q0 94 48.5 135.5t123.5 41.5h3l210 -3q28 0 60 0.5t71 1.5t62 1l-5 -30h-23q-36 0 -52 -12t-24 -58l-125 -729q-2 -14 -2 -18q0 -17 8 -26t18 -11t26 -2h43l-5 -30q-10 0 -86 1.5t-114 1.5q-11 0 -188 -3l5 30h30q29 0 42 13
t21 62zM451 657h-68l-147 -846h68zM249 288l63 364q-34 5 -56 5q-55 0 -84 -37t-29 -131q0 -86 30 -138.5t76 -62.5z" />
    <glyph glyph-name="periodcentered" unicode="&#xb7;" horiz-adv-x="250" 
d="M113 312q20 0 32.5 -14t12.5 -34q0 -26 -16.5 -47.5t-43.5 -21.5q-45 0 -45 48q0 26 17 47.5t43 21.5z" />
    <glyph glyph-name="cedilla" unicode="&#xb8;" horiz-adv-x="333" 
d="M50 -104l-9 8l61 96h38l-44 -64q16 2 22 2q37 0 60.5 -17.5t23.5 -52.5q0 -46 -38.5 -65t-89.5 -19q-31 0 -83 20l17 29q44 -14 70 -14q22 0 37 12t15 34q0 17 -14 27t-31 10q-8 0 -35 -6z" />
    <glyph glyph-name="one.superior" unicode="&#xb9;" horiz-adv-x="300" 
d="M257 624l-47 -254q-5 -23 -5 -36q0 -16 7.5 -22t30.5 -7l42 -3l-4 -24q-74 2 -110 2t-110 -2l5 24l49 6q15 2 21 10.5t10 30.5l54 300q-8 -4 -29 -12t-32 -13l-54 -24l-5 3l7 43q69 15 107 29l69 24l10 -6q-12 -46 -16 -69z" />
    <glyph glyph-name="ordmasculine" unicode="&#xba;" horiz-adv-x="333" 
d="M151 404q-85 0 -85 96q0 75 46 137t124 62q44 0 65 -25t21 -67q0 -37 -15 -78t-40 -70q-20 -23 -52.5 -39t-63.5 -16zM212 676q-28 0 -49 -19t-30.5 -48.5t-13.5 -55.5t-4 -49q0 -77 61 -77q35 0 58.5 34.5t31 71t7.5 67.5q0 76 -61 76z" />
    <glyph glyph-name="guillemotright" unicode="&#xbb;" 
d="M204 340l72 -81v-16q-12 -11 -50.5 -43.5t-58.5 -51.5l-85 -78l-19 16l137 168l-95 171l20 15q77 -98 79 -100zM371 340l72 -81v-16q-12 -11 -50.5 -43.5t-58.5 -51.5l-85 -78l-19 16l137 168l-95 171l20 15q77 -98 79 -100z" />
    <glyph glyph-name="onequarter" unicode="&#xbc;" horiz-adv-x="750" 
d="M410 138l219 276l45 9l9 -7l-47 -266h76l3 -8l-11 -32q-18 3 -34 3h-43l-7 -28q-4 -17 -4 -36q0 -22 21 -24l54 -3l-4 -24q-72 2 -107 2q-34 0 -108 -2l3 24l51 3q15 1 23 9t13 28l13 51h-165v25zM447 150l137 -1l46 225h-7zM227 624l-47 -254q-5 -23 -5 -36
q0 -16 7.5 -22t30.5 -7l42 -3l-4 -24q-74 2 -110 2t-110 -2l5 24l49 6q15 2 21 10.5t10 30.5l54 300q-8 -4 -29 -12t-32 -13l-54 -24l-5 3l7 43q69 15 107 29l69 24l10 -6q-12 -46 -16 -69zM210 0h-56l451 699h56z" />
    <glyph glyph-name="onehalf" unicode="&#xbd;" horiz-adv-x="750" 
d="M186 0h-56l451 699h56zM227 624l-47 -254q-5 -23 -5 -36q0 -16 7.5 -22t30.5 -7l42 -3l-4 -24q-74 2 -110 2t-110 -2l5 24l49 6q15 2 21 10.5t10 30.5l54 300q-8 -4 -29 -12t-32 -13l-54 -24l-5 3l7 43q69 15 107 29l69 24l10 -6q-12 -46 -16 -69zM663 199l-154 -152v-6
h130q41 0 74 9l4 -11l-11 -41q-88 2 -130 2q-44 0 -132 -2v21q93 92 150 159q63 76 63 132q0 62 -65 62q-30 0 -49.5 -14.5t-38.5 -46.5l-18 10l39 72q36 26 85 26q50 0 80.5 -26t30.5 -72q0 -66 -58 -122z" />
    <glyph glyph-name="threequarters" unicode="&#xbe;" horiz-adv-x="750" 
d="M35 299l18 87l22 -3q-3 -12 -3 -26q0 -58 82 -58q37 0 66 37t29 79q0 76 -85 76q-17 0 -47 -10l-4 13l11 30q5 0 15.5 -0.5t14.5 -0.5q41 0 67.5 25t26.5 64q0 20 -19.5 33t-40.5 13q-41 0 -67 -34l-13 -17l-15 10l38 63q43 19 74 19q41 0 71 -20t30 -57q0 -64 -93 -106
v-2q98 -17 98 -93q0 -63 -54 -105.5t-123 -42.5q-61 0 -99 26zM210 0h-56l451 699h56zM410 138l219 276l45 9l9 -7l-47 -266h76l3 -8l-11 -32q-18 3 -34 3h-43l-7 -28q-4 -17 -4 -36q0 -22 21 -24l54 -3l-4 -24q-72 2 -107 2q-34 0 -108 -2l3 24l51 3q15 1 23 9t13 28l13 51
h-165v25zM447 150l137 -1l46 225h-7z" />
    <glyph glyph-name="questiondown" unicode="&#xbf;" 
d="M347 -105l22 -6q-1 -4 -15 -37l-25 -61q-57 -37 -112 -37q-68 0 -114 34.5t-46 99.5q0 75 74 145l104 100q50 47 50 77q0 24 -27 51l25 6q38 -22 38 -63q0 -50 -55 -111l-70 -79q-57 -65 -57 -115q0 -37 27 -61.5t64 -24.5q38 0 57.5 10.5t39.5 41.5zM325 467
q20 0 32.5 -14t12.5 -34q0 -26 -16.5 -47.5t-43.5 -21.5q-45 0 -45 48q0 26 17 47.5t43 21.5z" />
    <glyph glyph-name="Agrave" unicode="&#xc0;" horiz-adv-x="722" 
d="M462 705h46l87 -625q3 -25 11 -38q5 -9 45 -14l26 -3v-28q-14 0 -38.5 1t-45 1.5t-38.5 0.5t-38 -0.5t-45 -1.5t-39 -1v28l44 3q43 3 43 27q0 6 -2 19t-2 15l-25 188h-246l-102 -175q-26 -46 -26 -55q0 -7 9.5 -12.5t21.5 -6.5l52 -3v-28l-108 3q-16 0 -34.5 -0.5
t-41 -1.5t-35.5 -1v30l20 5q14 4 22.5 7.5t27 22t38.5 50.5zM447 598l-177 -285h216l-37 285h-2zM392 879l153 -151h-34l-162 101q-28 17 -28 39q0 11 12 20t27 9q12 0 32 -18z" />
    <glyph glyph-name="Aacute" unicode="&#xc1;" horiz-adv-x="722" 
d="M462 705h46l87 -625q3 -25 11 -38q5 -9 45 -14l26 -3v-28q-14 0 -38.5 1t-45 1.5t-38.5 0.5t-38 -0.5t-45 -1.5t-39 -1v28l44 3q43 3 43 27q0 6 -2 19t-2 15l-25 188h-246l-102 -175q-26 -46 -26 -55q0 -7 9.5 -12.5t21.5 -6.5l52 -3v-28l-108 3q-16 0 -34.5 -0.5
t-41 -1.5t-35.5 -1v30l20 5q14 4 22.5 7.5t27 22t38.5 50.5zM447 598l-177 -285h216l-37 285h-2zM393 728l153 151q20 18 32 18q15 0 27 -9t12 -20q0 -22 -28 -39l-162 -101h-34z" />
    <glyph glyph-name="Acircumflex" unicode="&#xc2;" horiz-adv-x="722" 
d="M462 705h46l87 -625q3 -25 11 -38q5 -9 45 -14l26 -3v-28q-14 0 -38.5 1t-45 1.5t-38.5 0.5t-38 -0.5t-45 -1.5t-39 -1v28l44 3q43 3 43 27q0 6 -2 19t-2 15l-25 188h-246l-102 -175q-26 -46 -26 -55q0 -7 9.5 -12.5t21.5 -6.5l52 -3v-28l-108 3q-16 0 -34.5 -0.5
t-41 -1.5t-35.5 -1v30l20 5q14 4 22.5 7.5t27 22t38.5 50.5zM447 598l-177 -285h216l-37 285h-2zM523 889l88 -169h-36l-82 104l-137 -104h-39l157 169h49z" />
    <glyph glyph-name="Atilde" unicode="&#xc3;" horiz-adv-x="722" 
d="M462 705h46l87 -625q3 -25 11 -38q5 -9 45 -14l26 -3v-28q-14 0 -38.5 1t-45 1.5t-38.5 0.5t-38 -0.5t-45 -1.5t-39 -1v28l44 3q43 3 43 27q0 6 -2 19t-2 15l-25 188h-246l-102 -175q-26 -46 -26 -55q0 -7 9.5 -12.5t21.5 -6.5l52 -3v-28l-108 3q-16 0 -34.5 -0.5
t-41 -1.5t-35.5 -1v30l20 5q14 4 22.5 7.5t27 22t38.5 50.5zM447 598l-177 -285h216l-37 285h-2zM347 745h-29q25 103 98 103q28 0 63 -14l60 -24q13 -5 26 -5q7 0 10 1q9 1 18.5 10t12.5 14t11 18h28q-7 -43 -30 -71q-27 -32 -70 -32q-19 0 -61 16l-38 15q-35 13 -47 13
q-21 0 -31.5 -10.5t-20.5 -33.5z" />
    <glyph glyph-name="Adieresis" unicode="&#xc4;" horiz-adv-x="722" 
d="M462 705h46l87 -625q3 -25 11 -38q5 -9 45 -14l26 -3v-28q-14 0 -38.5 1t-45 1.5t-38.5 0.5t-38 -0.5t-45 -1.5t-39 -1v28l44 3q43 3 43 27q0 6 -2 19t-2 15l-25 188h-246l-102 -175q-26 -46 -26 -55q0 -7 9.5 -12.5t21.5 -6.5l52 -3v-28l-108 3q-16 0 -34.5 -0.5
t-41 -1.5t-35.5 -1v30l20 5q14 4 22.5 7.5t27 22t38.5 50.5zM447 598l-177 -285h216l-37 285h-2zM383 739q-40 0 -40 43q0 23 17.5 44t40.5 21q15 0 25.5 -11t10.5 -27q0 -30 -15 -50t-39 -20zM583 739q-40 0 -40 43q0 23 17.5 44t40.5 21q15 0 25.5 -11t10.5 -27
q0 -30 -15 -50t-39 -20z" />
    <glyph glyph-name="Aring" unicode="&#xc5;" horiz-adv-x="722" 
d="M462 705h46l87 -625q3 -25 11 -38q5 -9 45 -14l26 -3v-28q-14 0 -38.5 1t-45 1.5t-38.5 0.5t-38 -0.5t-45 -1.5t-39 -1v28l44 3q43 3 43 27q0 6 -2 19t-2 15l-25 188h-246l-102 -175q-26 -46 -26 -55q0 -7 9.5 -12.5t21.5 -6.5l52 -3v-28l-108 3q-16 0 -34.5 -0.5
t-41 -1.5t-35.5 -1v30l20 5q14 4 22.5 7.5t27 22t38.5 50.5zM447 598l-177 -285h216l-37 285h-2zM494 882q-28 0 -45 -17.5t-17 -46.5t17 -46.5t45 -17.5t45 17.5t17 46.5t-17 46.5t-45 17.5zM494 918q41 0 70.5 -29t29.5 -69v-4q0 -40 -29.5 -69t-70.5 -29t-70.5 29
t-29.5 69v4q0 40 29.5 69t70.5 29z" />
    <glyph glyph-name="AE" unicode="&#xc6;" horiz-adv-x="941" 
d="M486 279h-222q-6 -10 -17 -27.5t-15 -24.5l-76 -129q-20 -34 -20 -44q0 -27 61 -27h24v-30q-12 0 -34 1t-40 1.5t-34 0.5q-21 0 -63 -1.5t-54 -1.5v30l34 5q17 2 36 30l368 545q13 20 13 37q0 8 -12.5 13t-24.5 5h-66v30q33 0 109 -2q18 0 61 -0.5t68 -0.5q19 0 247 3
q43 0 73 -3q-16 -57 -21 -152h-24l-8 89q-2 24 -107 24q-20 0 -57.5 -2t-52.5 -2q-5 -10 -9 -32l-42 -238h17q113 0 219 6l4 -7l-19 -45q-88 4 -132 4h-97l-43 -253q-2 -12 -2 -35q77 -7 107 -7q45 0 133 6q29 2 40 13.5t20 42.5l16 60h27q-18 -94 -21 -125q-3 -29 -4 -36
q-99 -3 -100 -3q-28 0 -103.5 1.5t-118.5 1.5q-5 0 -140 -3l5 26q38 7 48 18q8 10 11 25zM290 319h202l54 336h-14q-14 0 -37 -35z" />
    <glyph glyph-name="Ccedilla" unicode="&#xc7;" horiz-adv-x="667" 
d="M597 519v84q-70 50 -184 50q-95 0 -160 -51t-92.5 -127.5t-27.5 -171.5q0 -122 60 -195t180 -73q65 0 114 17.5t113 57.5l10 -7l-10 -36q-114 -83 -249 -84l-32 -47q16 2 22 2q37 0 60.5 -17.5t23.5 -52.5q0 -46 -38.5 -65t-89.5 -19q-31 0 -83 20l17 29q44 -14 70 -14
q22 0 37 12t15 34q0 17 -14 27t-31 10q-8 0 -35 -6l-9 8l51 80q-130 7 -200 84t-70 213q0 233 177 353q106 72 233 72q94 0 196 -41q-20 -64 -27 -146h-27z" />
    <glyph glyph-name="Egrave" unicode="&#xc8;" horiz-adv-x="611" 
d="M221 334l-43 -253q-2 -12 -2 -35q77 -7 127 -7q67 0 133 6q29 2 40 13.5t20 42.5l16 60h27q-18 -94 -21 -125q-3 -29 -4 -36q-99 -3 -100 -3q-40 0 -121 1.5t-121 1.5q-7 0 -142 -3l5 26q2 0 9 1.5t9 2t8.5 2t8.5 2.5t7 2.5t7 3.5t5 4.5t4 6t2 7.5l87 504q6 36 9 74v3
q0 25 -35 26l-54 2l3 28q22 0 70 -2q11 0 36 -0.5t39 -0.5q19 0 247 3q43 0 73 -3q-16 -57 -21 -152h-24l-8 89q-2 24 -127 24q-20 0 -57.5 -2t-52.5 -2q-5 -10 -9 -32l-42 -238h37q112 0 219 6l4 -7l-19 -45q-88 4 -132 4h-117zM324 879l153 -151h-34l-162 101
q-28 17 -28 39q0 11 12 20t27 9q12 0 32 -18z" />
    <glyph glyph-name="Eacute" unicode="&#xc9;" horiz-adv-x="611" 
d="M221 334l-43 -253q-2 -12 -2 -35q77 -7 127 -7q67 0 133 6q29 2 40 13.5t20 42.5l16 60h27q-18 -94 -21 -125q-3 -29 -4 -36q-99 -3 -100 -3q-40 0 -121 1.5t-121 1.5q-7 0 -142 -3l5 26q2 0 9 1.5t9 2t8.5 2t8.5 2.5t7 2.5t7 3.5t5 4.5t4 6t2 7.5l87 504q6 36 9 74v3
q0 25 -35 26l-54 2l3 28q22 0 70 -2q11 0 36 -0.5t39 -0.5q19 0 247 3q43 0 73 -3q-16 -57 -21 -152h-24l-8 89q-2 24 -127 24q-20 0 -57.5 -2t-52.5 -2q-5 -10 -9 -32l-42 -238h37q112 0 219 6l4 -7l-19 -45q-88 4 -132 4h-117zM321 728l153 151q20 18 32 18q15 0 27 -9
t12 -20q0 -22 -28 -39l-162 -101h-34z" />
    <glyph glyph-name="Ecircumflex" unicode="&#xca;" horiz-adv-x="611" 
d="M221 334l-43 -253q-2 -12 -2 -35q77 -7 127 -7q67 0 133 6q29 2 40 13.5t20 42.5l16 60h27q-18 -94 -21 -125q-3 -29 -4 -36q-99 -3 -100 -3q-40 0 -121 1.5t-121 1.5q-7 0 -142 -3l5 26q2 0 9 1.5t9 2t8.5 2t8.5 2.5t7 2.5t7 3.5t5 4.5t4 6t2 7.5l87 504q6 36 9 74v3
q0 25 -35 26l-54 2l3 28q22 0 70 -2q11 0 36 -0.5t39 -0.5q19 0 247 3q43 0 73 -3q-16 -57 -21 -152h-24l-8 89q-2 24 -127 24q-20 0 -57.5 -2t-52.5 -2q-5 -10 -9 -32l-42 -238h37q112 0 219 6l4 -7l-19 -45q-88 4 -132 4h-117zM441 889l88 -169h-36l-82 104l-137 -104h-39
l157 169h49z" />
    <glyph glyph-name="Edieresis" unicode="&#xcb;" horiz-adv-x="611" 
d="M221 334l-43 -253q-2 -12 -2 -35q77 -7 127 -7q67 0 133 6q29 2 40 13.5t20 42.5l16 60h27q-18 -94 -21 -125q-3 -29 -4 -36q-99 -3 -100 -3q-40 0 -121 1.5t-121 1.5q-7 0 -142 -3l5 26q2 0 9 1.5t9 2t8.5 2t8.5 2.5t7 2.5t7 3.5t5 4.5t4 6t2 7.5l87 504q6 36 9 74v3
q0 25 -35 26l-54 2l3 28q22 0 70 -2q11 0 36 -0.5t39 -0.5q19 0 247 3q43 0 73 -3q-16 -57 -21 -152h-24l-8 89q-2 24 -127 24q-20 0 -57.5 -2t-52.5 -2q-5 -10 -9 -32l-42 -238h37q112 0 219 6l4 -7l-19 -45q-88 4 -132 4h-117zM307 739q-40 0 -40 43q0 23 17.5 44t40.5 21
q15 0 25.5 -11t10.5 -27q0 -30 -15 -50t-39 -20zM507 739q-40 0 -40 43q0 23 17.5 44t40.5 21q15 0 25.5 -11t10.5 -27q0 -30 -15 -50t-39 -20z" />
    <glyph glyph-name="Igrave" unicode="&#xcc;" horiz-adv-x="333" 
d="M104 125l72 434q7 47 9 74v3q0 25 -35 26l-47 2l3 28q21 0 69 -1.5t72 -1.5q35 0 107 3l-3 -28l-35 -3q-28 -2 -37.5 -11t-13.5 -37l-87 -520q-4 -22 -4 -36t7 -21t29 -8l52 -3l-3 -28q-111 3 -126 3t-126 -3l3 28l36 3q25 1 33 9q13 13 25 88zM185 879l153 -151h-34
l-162 101q-28 17 -28 39q0 11 12 20t27 9q12 0 32 -18z" />
    <glyph glyph-name="Iacute" unicode="&#xcd;" horiz-adv-x="333" 
d="M104 125l72 434q7 47 9 74v3q0 25 -35 26l-47 2l3 28q21 0 69 -1.5t72 -1.5q35 0 107 3l-3 -28l-35 -3q-28 -2 -37.5 -11t-13.5 -37l-87 -520q-4 -22 -4 -36t7 -21t29 -8l52 -3l-3 -28q-111 3 -126 3t-126 -3l3 28l36 3q25 1 33 9q13 13 25 88zM182 728l153 151
q20 18 32 18q15 0 27 -9t12 -20q0 -22 -28 -39l-162 -101h-34z" />
    <glyph glyph-name="Icircumflex" unicode="&#xce;" horiz-adv-x="333" 
d="M104 125l72 434q7 47 9 74v3q0 25 -35 26l-47 2l3 28q21 0 69 -1.5t72 -1.5q35 0 107 3l-3 -28l-35 -3q-28 -2 -37.5 -11t-13.5 -37l-87 -520q-4 -22 -4 -36t7 -21t29 -8l52 -3l-3 -28q-111 3 -126 3t-126 -3l3 28l36 3q25 1 33 9q13 13 25 88zM302 889l88 -169h-36
l-82 104l-137 -104h-39l157 169h49z" />
    <glyph glyph-name="Idieresis" unicode="&#xcf;" horiz-adv-x="333" 
d="M104 125l72 434q7 47 9 74v3q0 25 -35 26l-47 2l3 28q21 0 69 -1.5t72 -1.5q35 0 107 3l-3 -28l-35 -3q-28 -2 -37.5 -11t-13.5 -37l-87 -520q-4 -22 -4 -36t7 -21t29 -8l52 -3l-3 -28q-111 3 -126 3t-126 -3l3 28l36 3q25 1 33 9q13 13 25 88zM168 739q-40 0 -40 43
q0 23 17.5 44t40.5 21q15 0 25.5 -11t10.5 -27q0 -30 -15 -50t-39 -20zM368 739q-40 0 -40 43q0 23 17.5 44t40.5 21q15 0 25.5 -11t10.5 -27q0 -30 -15 -50t-39 -20z" />
    <glyph glyph-name="Eth" unicode="&#xd0;" horiz-adv-x="778" 
d="M142 378l31 181q6 36 9 74v3q0 25 -35 26l-53 2l3 28q120 -3 123 -3l204 3h13q148 0 226 -60t78 -204q0 -117 -60 -216.5t-163 -161.5q-50 -30 -95 -41.5t-106 -11.5h-10q-21 0 -58.5 1t-68.5 1.5t-59 0.5l-93 -3l5 26q2 1 9 2.5t10 2t9 2.5t9 4t7 5t6 7t3 9l50 291h-117
l6 32h117zM268 650l-46 -272h187l-6 -32h-187l-44 -253q-4 -24 -4 -37q95 -15 165 -15q151 0 233.5 110t82.5 267q0 128 -68 182.5t-201 54.5q-21 0 -59 -2.5t-53 -2.5z" />
    <glyph glyph-name="Ntilde" unicode="&#xd1;" horiz-adv-x="778" 
d="M237 692l343 -586h2l80 486q5 35 5 46q0 23 -36 24l-47 2l5 28q84 -3 107 -3q21 0 108 3l-5 -28l-37 -2q-27 -2 -32 -11q-14 -25 -28 -109l-94 -553h-50l-336 575h-2l-80 -462q-3 -16 -3 -30q0 -17 4 -26q6 -15 45 -18l42 -3l-5 -28q-12 0 -34.5 1t-41 1.5t-34.5 0.5
l-111 -3l5 28l31 3q27 3 35 14q11 14 19 60l88 474q5 30 5 34t-13 18.5t-21 19.5q-20 12 -46 14l-35 2l5 28q9 0 25.5 -1t30 -1.5t25.5 -0.5t25.5 0.5t30 1.5t25.5 1zM355 745h-29q25 103 98 103q28 0 63 -14l60 -24q13 -5 26 -5q7 0 10 1q9 1 18.5 10t12.5 14t11 18h28
q-7 -43 -30 -71q-27 -32 -70 -32q-19 0 -61 16l-38 15q-35 13 -47 13q-21 0 -31.5 -10.5t-20.5 -33.5z" />
    <glyph glyph-name="Ograve" unicode="&#xd2;" horiz-adv-x="778" 
d="M330 -18q-146 0 -211.5 76.5t-65.5 224.5q0 177 117 300t292 123q134 0 210 -72.5t76 -204.5q0 -120 -52 -221.5t-148.5 -163.5t-217.5 -62zM428 664q-76 0 -133.5 -35.5t-90 -94t-48 -124.5t-15.5 -138q0 -117 53.5 -182.5t168.5 -65.5q76 0 134.5 33.5t93 90t52 123.5
t17.5 140q0 253 -232 253zM408 879l153 -151h-34l-162 101q-28 17 -28 39q0 11 12 20t27 9q12 0 32 -18z" />
    <glyph glyph-name="Oacute" unicode="&#xd3;" horiz-adv-x="778" 
d="M330 -18q-146 0 -211.5 76.5t-65.5 224.5q0 177 117 300t292 123q134 0 210 -72.5t76 -204.5q0 -120 -52 -221.5t-148.5 -163.5t-217.5 -62zM428 664q-76 0 -133.5 -35.5t-90 -94t-48 -124.5t-15.5 -138q0 -117 53.5 -182.5t168.5 -65.5q76 0 134.5 33.5t93 90t52 123.5
t17.5 140q0 253 -232 253zM405 728l153 151q20 18 32 18q15 0 27 -9t12 -20q0 -22 -28 -39l-162 -101h-34z" />
    <glyph glyph-name="Ocircumflex" unicode="&#xd4;" horiz-adv-x="778" 
d="M330 -18q-146 0 -211.5 76.5t-65.5 224.5q0 177 117 300t292 123q134 0 210 -72.5t76 -204.5q0 -120 -52 -221.5t-148.5 -163.5t-217.5 -62zM428 664q-76 0 -133.5 -35.5t-90 -94t-48 -124.5t-15.5 -138q0 -117 53.5 -182.5t168.5 -65.5q76 0 134.5 33.5t93 90t52 123.5
t17.5 140q0 253 -232 253zM525 889l88 -169h-36l-82 104l-137 -104h-39l157 169h49z" />
    <glyph glyph-name="Otilde" unicode="&#xd5;" horiz-adv-x="778" 
d="M330 -18q-146 0 -211.5 76.5t-65.5 224.5q0 177 117 300t292 123q134 0 210 -72.5t76 -204.5q0 -120 -52 -221.5t-148.5 -163.5t-217.5 -62zM428 664q-76 0 -133.5 -35.5t-90 -94t-48 -124.5t-15.5 -138q0 -117 53.5 -182.5t168.5 -65.5q76 0 134.5 33.5t93 90t52 123.5
t17.5 140q0 253 -232 253zM355 745h-29q25 103 98 103q28 0 63 -14l60 -24q13 -5 26 -5q7 0 10 1q9 1 18.5 10t12.5 14t11 18h28q-7 -43 -30 -71q-27 -32 -70 -32q-19 0 -61 16l-38 15q-35 13 -47 13q-21 0 -31.5 -10.5t-20.5 -33.5z" />
    <glyph glyph-name="Odieresis" unicode="&#xd6;" horiz-adv-x="778" 
d="M330 -18q-146 0 -211.5 76.5t-65.5 224.5q0 177 117 300t292 123q134 0 210 -72.5t76 -204.5q0 -120 -52 -221.5t-148.5 -163.5t-217.5 -62zM428 664q-76 0 -133.5 -35.5t-90 -94t-48 -124.5t-15.5 -138q0 -117 53.5 -182.5t168.5 -65.5q76 0 134.5 33.5t93 90t52 123.5
t17.5 140q0 253 -232 253zM383 739q-40 0 -40 43q0 23 17.5 44t40.5 21q15 0 25.5 -11t10.5 -27q0 -30 -15 -50t-39 -20zM583 739q-40 0 -40 43q0 23 17.5 44t40.5 21q15 0 25.5 -11t10.5 -27q0 -30 -15 -50t-39 -20z" />
    <glyph glyph-name="multiply" unicode="&#xd7;" horiz-adv-x="606" 
d="M263 255l-180 180l41 39l179 -179l179 179l41 -39l-181 -180l181 -180l-41 -39l-179 179l-179 -179l-41 39z" />
    <glyph glyph-name="Oslash" unicode="&#xd8;" horiz-adv-x="778" 
d="M330 -18q-126 0 -196 61l-74 -82l-28 24l78 83q-57 74 -57 215q0 177 117 300t292 123q122 0 199 -63l72 78l29 -26l-74 -79q60 -68 60 -187q0 -120 -52 -221.5t-148.5 -163.5t-217.5 -62zM624 567l-435 -470q57 -73 174 -73q76 0 134.5 33.5t93 90t52 123.5t17.5 140
q0 97 -36 156zM168 131l434 469q-64 64 -174 64q-76 0 -133.5 -35.5t-90 -94t-48 -124.5t-15.5 -138q0 -84 27 -141z" />
    <glyph glyph-name="Ugrave" unicode="&#xd9;" horiz-adv-x="778" 
d="M708 613l-83 -499q-8 -48 -8 -64q0 -18 32 -21l60 -4l-5 -28q-4 0 -38 1.5t-51 1.5q-10 0 -85 -3l-5 5q17 71 26 122l-2 2q-45 -58 -121.5 -101t-145.5 -43q-84 0 -134.5 40.5t-50.5 122.5q0 21 6 61l64 375q7 40 7 57q0 14 -7.5 18.5t-26.5 5.5l-52 2l3 28q11 0 29.5 -1
t33.5 -1.5t28 -0.5t27.5 0.5t32.5 1.5t28 1l-88 -477q-7 -35 -7 -61q0 -58 40.5 -86.5t100.5 -28.5q67 0 132 40t108 98l63 382q7 47 9 74v3q0 25 -35 26l-48 2l3 28q20 0 68 -1.5t72 -1.5q29 0 110 3l-3 -28l-36 -3q-28 -2 -37.5 -11t-13.5 -37zM392 879l153 -151h-34
l-162 101q-28 17 -28 39q0 11 12 20t27 9q12 0 32 -18z" />
    <glyph glyph-name="Uacute" unicode="&#xda;" horiz-adv-x="778" 
d="M708 613l-83 -499q-8 -48 -8 -64q0 -18 32 -21l60 -4l-5 -28q-4 0 -38 1.5t-51 1.5q-10 0 -85 -3l-5 5q17 71 26 122l-2 2q-45 -58 -121.5 -101t-145.5 -43q-84 0 -134.5 40.5t-50.5 122.5q0 21 6 61l64 375q7 40 7 57q0 14 -7.5 18.5t-26.5 5.5l-52 2l3 28q11 0 29.5 -1
t33.5 -1.5t28 -0.5t27.5 0.5t32.5 1.5t28 1l-88 -477q-7 -35 -7 -61q0 -58 40.5 -86.5t100.5 -28.5q67 0 132 40t108 98l63 382q7 47 9 74v3q0 25 -35 26l-48 2l3 28q20 0 68 -1.5t72 -1.5q29 0 110 3l-3 -28l-36 -3q-28 -2 -37.5 -11t-13.5 -37zM399 728l153 151
q20 18 32 18q15 0 27 -9t12 -20q0 -22 -28 -39l-162 -101h-34z" />
    <glyph glyph-name="Ucircumflex" unicode="&#xdb;" horiz-adv-x="778" 
d="M708 613l-83 -499q-8 -48 -8 -64q0 -18 32 -21l60 -4l-5 -28q-4 0 -38 1.5t-51 1.5q-10 0 -85 -3l-5 5q17 71 26 122l-2 2q-45 -58 -121.5 -101t-145.5 -43q-84 0 -134.5 40.5t-50.5 122.5q0 21 6 61l64 375q7 40 7 57q0 14 -7.5 18.5t-26.5 5.5l-52 2l3 28q11 0 29.5 -1
t33.5 -1.5t28 -0.5t27.5 0.5t32.5 1.5t28 1l-88 -477q-7 -35 -7 -61q0 -58 40.5 -86.5t100.5 -28.5q67 0 132 40t108 98l63 382q7 47 9 74v3q0 25 -35 26l-48 2l3 28q20 0 68 -1.5t72 -1.5q29 0 110 3l-3 -28l-36 -3q-28 -2 -37.5 -11t-13.5 -37zM517 889l88 -169h-36
l-82 104l-137 -104h-39l157 169h49z" />
    <glyph glyph-name="Udieresis" unicode="&#xdc;" horiz-adv-x="778" 
d="M708 613l-83 -499q-8 -48 -8 -64q0 -18 32 -21l60 -4l-5 -28q-4 0 -38 1.5t-51 1.5q-10 0 -85 -3l-5 5q17 71 26 122l-2 2q-45 -58 -121.5 -101t-145.5 -43q-84 0 -134.5 40.5t-50.5 122.5q0 21 6 61l64 375q7 40 7 57q0 14 -7.5 18.5t-26.5 5.5l-52 2l3 28q11 0 29.5 -1
t33.5 -1.5t28 -0.5t27.5 0.5t32.5 1.5t28 1l-88 -477q-7 -35 -7 -61q0 -58 40.5 -86.5t100.5 -28.5q67 0 132 40t108 98l63 382q7 47 9 74v3q0 25 -35 26l-48 2l3 28q20 0 68 -1.5t72 -1.5q29 0 110 3l-3 -28l-36 -3q-28 -2 -37.5 -11t-13.5 -37zM363 739q-40 0 -40 43
q0 23 17.5 44t40.5 21q15 0 25.5 -11t10.5 -27q0 -30 -15 -50t-39 -20zM563 739q-40 0 -40 43q0 23 17.5 44t40.5 21q15 0 25.5 -11t10.5 -27q0 -30 -15 -50t-39 -20z" />
    <glyph glyph-name="Yacute" unicode="&#xdd;" horiz-adv-x="667" 
d="M127 702l4 3h3q26 0 48 -12t38.5 -35t26.5 -41.5t22 -46.5q18 -44 44 -135.5t32 -121.5h2q39 102 127 223q47 64 94.5 105.5t106.5 55.5l-6 -71q-30 -4 -58 -19t-53 -40.5t-41 -45t-39 -51.5q-42 -58 -76 -122.5t-40 -101.5l-24 -153q-4 -22 -4 -36t7 -21t29 -8l49 -3
l-3 -28q-102 3 -123 3q-26 0 -77.5 -1.5t-61.5 -1.5l4 28l48 3q25 1 33 9q12 12 25 88l21 126v5q0 33 -36.5 146.5t-59.5 156.5q-41 76 -92 76q-13 0 -42 -12l-3 24q53 37 75 55zM349 728l153 151q20 18 32 18q15 0 27 -9t12 -20q0 -22 -28 -39l-162 -101h-34z" />
    <glyph glyph-name="Thorn" unicode="&#xde;" horiz-adv-x="611" 
d="M244 432l-58 -339q-4 -22 -4 -36t7 -21t29 -8l65 -3l-3 -28q-10 0 -61.5 1.5t-77.5 1.5q-3 0 -132 -3l4 28l41 3q25 1 33 9q12 12 25 88l74 434q6 36 9 74v3q0 25 -35 26l-47 2l3 28q21 0 69 -1.5t72 -1.5q21 0 114 3l-3 -28l-42 -3q-28 -2 -37 -10.5t-14 -37.5l-13 -71
h20q28 0 102 2h7q83 0 131 -38.5t48 -121.5q0 -94 -68 -162.5t-164 -68.5q-50 0 -91 21l-4 32q36 -18 78 -18q84 0 122.5 48.5t38.5 126.5q0 76 -38.5 110.5t-114.5 34.5q-22 0 -70 -8q-1 -4 -7 -29t-8 -39z" />
    <glyph glyph-name="germandbls" unicode="&#xdf;" 
d="M111 383h-81l4 22l56 23q32 13 33 21l15 81q10 51 27 74q36 48 120 93q67 36 109 36q32 0 63 -27t31 -73q0 -47 -21.5 -86.5t-64.5 -90.5q-45 -54 -45 -82q0 -30 39 -99q3 -5 9.5 -16t8.5 -15t7 -13t6.5 -12.5t5 -10.5l5 -10t3.5 -8.5t2.5 -9.5t1 -8.5t0.5 -8.5
q0 -54 -48 -105q-70 -74 -127 -74q-39 0 -79 21q5 13 13 54t8 53h20v-56q23 -28 65 -28q30 0 56.5 22t26.5 70q0 27 -14 54l-54 105q-17 34 -17 52q0 8 2 16t7.5 17.5t8 14t12 17.5t10.5 15q5 7 21.5 30.5t21 30t15.5 24.5t14.5 26.5t9.5 23.5t7.5 27.5t1.5 26.5
q0 13 -5.5 30t-26 36t-53.5 19q-46 0 -72.5 -26t-38.5 -58q-10 -26 -49 -223l-72 -339q-36 -175 -112 -253q-60 -62 -118 -62q-26 0 -39 4q12 34 22 83l11 2q24 -30 54 -30q26 0 49 23.5t33 56.5q23 74 34 137z" />
    <glyph glyph-name="agrave" unicode="&#xe0;" horiz-adv-x="444" 
d="M235 433q-44 0 -64.5 -21.5t-40.5 -73.5q-54 -143 -54 -232q0 -26 4 -36.5t15 -10.5q24 0 61 36t70 81q65 86 93 238q-54 19 -84 19zM402 472l-92 -379q-1 -3 -1 -11q0 -23 15 -23q7 0 13.5 2t15.5 8t13.5 10t16.5 14t16 13l7 -21q-111 -94 -144 -94q-26 0 -26 33
q0 26 6 53l27 120l-3 1q-38 -56 -80 -102.5t-70 -67.5q-54 -39 -78 -39q-19 0 -26.5 28.5t-7.5 55.5q0 77 40 195.5t82 148.5q56 40 85 52.5t67 12.5q32 0 81 -19l33 18zM201 689l153 -151h-34l-162 101q-28 17 -28 39q0 11 12 20t27 9q12 0 32 -18z" />
    <glyph glyph-name="aacute" unicode="&#xe1;" horiz-adv-x="444" 
d="M235 433q-44 0 -64.5 -21.5t-40.5 -73.5q-54 -143 -54 -232q0 -26 4 -36.5t15 -10.5q24 0 61 36t70 81q65 86 93 238q-54 19 -84 19zM402 472l-92 -379q-1 -3 -1 -11q0 -23 15 -23q7 0 13.5 2t15.5 8t13.5 10t16.5 14t16 13l7 -21q-111 -94 -144 -94q-26 0 -26 33
q0 26 6 53l27 120l-3 1q-38 -56 -80 -102.5t-70 -67.5q-54 -39 -78 -39q-19 0 -26.5 28.5t-7.5 55.5q0 77 40 195.5t82 148.5q56 40 85 52.5t67 12.5q32 0 81 -19l33 18zM190 538l153 151q20 18 32 18q15 0 27 -9t12 -20q0 -22 -28 -39l-162 -101h-34z" />
    <glyph glyph-name="acircumflex" unicode="&#xe2;" horiz-adv-x="444" 
d="M235 433q-44 0 -64.5 -21.5t-40.5 -73.5q-54 -143 -54 -232q0 -26 4 -36.5t15 -10.5q24 0 61 36t70 81q65 86 93 238q-54 19 -84 19zM402 472l-92 -379q-1 -3 -1 -11q0 -23 15 -23q7 0 13.5 2t15.5 8t13.5 10t16.5 14t16 13l7 -21q-111 -94 -144 -94q-26 0 -26 33
q0 26 6 53l27 120l-3 1q-38 -56 -80 -102.5t-70 -67.5q-54 -39 -78 -39q-19 0 -26.5 28.5t-7.5 55.5q0 77 40 195.5t82 148.5q56 40 85 52.5t67 12.5q32 0 81 -19l33 18zM318 699l88 -169h-36l-82 104l-137 -104h-39l157 169h49z" />
    <glyph glyph-name="atilde" unicode="&#xe3;" horiz-adv-x="444" 
d="M235 433q-44 0 -64.5 -21.5t-40.5 -73.5q-54 -143 -54 -232q0 -26 4 -36.5t15 -10.5q24 0 61 36t70 81q65 86 93 238q-54 19 -84 19zM402 472l-92 -379q-1 -3 -1 -11q0 -23 15 -23q7 0 13.5 2t15.5 8t13.5 10t16.5 14t16 13l7 -21q-111 -94 -144 -94q-26 0 -26 33
q0 26 6 53l27 120l-3 1q-38 -56 -80 -102.5t-70 -67.5q-54 -39 -78 -39q-19 0 -26.5 28.5t-7.5 55.5q0 77 40 195.5t82 148.5q56 40 85 52.5t67 12.5q32 0 81 -19l33 18zM148 555h-29q25 103 98 103q28 0 63 -14l60 -24q13 -5 26 -5q7 0 10 1q9 1 18.5 10t12.5 14t11 18h28
q-7 -43 -30 -71q-27 -32 -70 -32q-19 0 -61 16l-38 15q-35 13 -47 13q-21 0 -31.5 -10.5t-20.5 -33.5z" />
    <glyph glyph-name="adieresis" unicode="&#xe4;" horiz-adv-x="444" 
d="M235 433q-44 0 -64.5 -21.5t-40.5 -73.5q-54 -143 -54 -232q0 -26 4 -36.5t15 -10.5q24 0 61 36t70 81q65 86 93 238q-54 19 -84 19zM402 472l-92 -379q-1 -3 -1 -11q0 -23 15 -23q7 0 13.5 2t15.5 8t13.5 10t16.5 14t16 13l7 -21q-111 -94 -144 -94q-26 0 -26 33
q0 26 6 53l27 120l-3 1q-38 -56 -80 -102.5t-70 -67.5q-54 -39 -78 -39q-19 0 -26.5 28.5t-7.5 55.5q0 77 40 195.5t82 148.5q56 40 85 52.5t67 12.5q32 0 81 -19l33 18zM184 549q-40 0 -40 43q0 23 17.5 44t40.5 21q15 0 25.5 -11t10.5 -27q0 -30 -15 -50t-39 -20zM384 549
q-40 0 -40 43q0 23 17.5 44t40.5 21q15 0 25.5 -11t10.5 -27q0 -30 -15 -50t-39 -20z" />
    <glyph glyph-name="aring" unicode="&#xe5;" horiz-adv-x="444" 
d="M235 433q-44 0 -64.5 -21.5t-40.5 -73.5q-54 -143 -54 -232q0 -26 4 -36.5t15 -10.5q24 0 61 36t70 81q65 86 93 238q-54 19 -84 19zM402 472l-92 -379q-1 -3 -1 -11q0 -23 15 -23q7 0 13.5 2t15.5 8t13.5 10t16.5 14t16 13l7 -21q-111 -94 -144 -94q-26 0 -26 33
q0 26 6 53l27 120l-3 1q-38 -56 -80 -102.5t-70 -67.5q-54 -39 -78 -39q-19 0 -26.5 28.5t-7.5 55.5q0 77 40 195.5t82 148.5q56 40 85 52.5t67 12.5q32 0 81 -19l33 18zM295 692q-28 0 -45 -17.5t-17 -46.5t17 -46.5t45 -17.5t45 17.5t17 46.5t-17 46.5t-45 17.5zM295 728
q41 0 70.5 -29t29.5 -69v-4q0 -40 -29.5 -69t-70.5 -29t-70.5 29t-29.5 69v4q0 40 29.5 69t70.5 29z" />
    <glyph glyph-name="ae" unicode="&#xe6;" horiz-adv-x="638" 
d="M282 228h-38q-37 0 -65 -5t-53 -18.5t-38.5 -39.5t-13.5 -64q0 -65 70 -65q38 0 74.5 35t53.5 99q7 26 10 58zM494 440q-59 0 -98.5 -60.5t-42.5 -124.5q45 2 86.5 14.5t75.5 44t34 76.5q0 24 -15 37t-40 13zM216 252h68q6 18 6 47v14q0 55 -28 88t-82 33q-29 0 -53 -9
q-7 -3 -11 -14l-20 -58l-18 5l-6 68q9 5 28 17.5t26.5 17t22 11t29.5 8.5t34 2q101 0 139 -94q111 94 183 94q40 0 64.5 -20.5t24.5 -59.5q0 -40 -30 -75.5t-71 -55.5q-75 -37 -173 -41q-13 -69 -13 -99q0 -43 22.5 -69t63.5 -26q14 0 28 3.5t31 12.5l25.5 13.5t29 18.5
t23.5 16l20 13l7 -22q-42 -33 -62.5 -48.5t-61.5 -34.5t-76 -19q-95 0 -118 92q-92 -92 -168 -92q-99 0 -99 102q0 161 215 161z" />
    <glyph glyph-name="ccedilla" unicode="&#xe7;" horiz-adv-x="407" 
d="M342 330v60q0 17 -25 31q-21 12 -53 12q-34 0 -58 -11q-37 -17 -62 -66.5t-34 -99.5t-9 -97q0 -119 89 -119q42 0 141 65l15 10l8 -20l-50 -41q-73 -59 -142 -63l-38 -55q16 2 22 2q37 0 60.5 -17.5t23.5 -52.5q0 -46 -38.5 -65t-89.5 -19q-31 0 -83 20l17 29
q44 -14 70 -14q22 0 37 12t15 34q0 17 -14 27t-31 10q-8 0 -35 -6l-9 8l56 87q-100 13 -100 145q0 83 30 162t78 110q51 33 71 44.5t43.5 20.5t46.5 9q63 0 95 -24q-12 -33 -24 -128h-23z" />
    <glyph glyph-name="egrave" unicode="&#xe8;" horiz-adv-x="389" 
d="M181 234l-82 -20q-8 -41 -8 -84q0 -42 20 -68t60 -26q51 0 133 58l24 17l8 -19q-124 -103 -199 -103q-122 0 -122 128q0 61 31 163q25 83 75 121q106 81 166 81q37 0 62 -19.5t25 -56.5q0 -93 -124 -147q-40 -17 -69 -25zM113 274l-9 -37q60 13 109 35q35 16 61 48.5
t26 67.5q0 52 -51 52q-20 0 -46 -12q-59 -27 -90 -154zM173 689l153 -151h-34l-162 101q-28 17 -28 39q0 11 12 20t27 9q12 0 32 -18z" />
    <glyph glyph-name="eacute" unicode="&#xe9;" horiz-adv-x="389" 
d="M181 234l-82 -20q-8 -41 -8 -84q0 -42 20 -68t60 -26q51 0 133 58l24 17l8 -19q-124 -103 -199 -103q-122 0 -122 128q0 61 31 163q25 83 75 121q106 81 166 81q37 0 62 -19.5t25 -56.5q0 -93 -124 -147q-40 -17 -69 -25zM113 274l-9 -37q60 13 109 35q35 16 61 48.5
t26 67.5q0 52 -51 52q-20 0 -46 -12q-59 -27 -90 -154zM170 538l153 151q20 18 32 18q15 0 27 -9t12 -20q0 -22 -28 -39l-162 -101h-34z" />
    <glyph glyph-name="ecircumflex" unicode="&#xea;" horiz-adv-x="389" 
d="M181 234l-82 -20q-8 -41 -8 -84q0 -42 20 -68t60 -26q51 0 133 58l24 17l8 -19q-124 -103 -199 -103q-122 0 -122 128q0 61 31 163q25 83 75 121q106 81 166 81q37 0 62 -19.5t25 -56.5q0 -93 -124 -147q-40 -17 -69 -25zM113 274l-9 -37q60 13 109 35q35 16 61 48.5
t26 67.5q0 52 -51 52q-20 0 -46 -12q-59 -27 -90 -154zM310 699l88 -169h-36l-82 104l-137 -104h-39l157 169h49z" />
    <glyph glyph-name="edieresis" unicode="&#xeb;" horiz-adv-x="389" 
d="M181 234l-82 -20q-8 -41 -8 -84q0 -42 20 -68t60 -26q51 0 133 58l24 17l8 -19q-124 -103 -199 -103q-122 0 -122 128q0 61 31 163q25 83 75 121q106 81 166 81q37 0 62 -19.5t25 -56.5q0 -93 -124 -147q-40 -17 -69 -25zM113 274l-9 -37q60 13 109 35q35 16 61 48.5
t26 67.5q0 52 -51 52q-20 0 -46 -12q-59 -27 -90 -154zM156 549q-40 0 -40 43q0 23 17.5 44t40.5 21q15 0 25.5 -11t10.5 -27q0 -30 -15 -50t-39 -20zM356 549q-40 0 -40 43q0 23 17.5 44t40.5 21q15 0 25.5 -11t10.5 -27q0 -30 -15 -50t-39 -20z" />
    <glyph glyph-name="igrave" unicode="&#xec;" horiz-adv-x="278" 
d="M215 420l-77 -304q-7 -26 -7 -40q0 -20 13 -20q15 0 61 30l26 17l10 -18q-71 -53 -109 -75q-32 -19 -50 -19q-31 0 -31 40q0 28 13 76l66 240q8 32 8 44q0 21 -18 21q-9 0 -51 -26l-28 -18l-7 20l28 20q104 74 132 74q27 0 27 -26q0 -14 -6 -36zM117 689l153 -151h-34
l-162 101q-28 17 -28 39q0 11 12 20t27 9q12 0 32 -18z" />
    <glyph glyph-name="iacute" unicode="&#xed;" horiz-adv-x="278" 
d="M215 420l-77 -304q-7 -26 -7 -40q0 -20 13 -20q15 0 61 30l26 17l10 -18q-71 -53 -109 -75q-32 -19 -50 -19q-31 0 -31 40q0 28 13 76l66 240q8 32 8 44q0 21 -18 21q-9 0 -51 -26l-28 -18l-7 20l28 20q104 74 132 74q27 0 27 -26q0 -14 -6 -36zM106 538l153 151
q20 18 32 18q15 0 27 -9t12 -20q0 -22 -28 -39l-162 -101h-34z" />
    <glyph glyph-name="icircumflex" unicode="&#xee;" horiz-adv-x="278" 
d="M215 420l-77 -304q-7 -26 -7 -40q0 -20 13 -20q15 0 61 30l26 17l10 -18q-71 -53 -109 -75q-32 -19 -50 -19q-31 0 -31 40q0 28 13 76l66 240q8 32 8 44q0 21 -18 21q-9 0 -51 -26l-28 -18l-7 20l28 20q104 74 132 74q27 0 27 -26q0 -14 -6 -36zM235 699l88 -169h-36
l-82 104l-137 -104h-39l157 169h49z" />
    <glyph glyph-name="idieresis" unicode="&#xef;" horiz-adv-x="278" 
d="M215 420l-77 -304q-7 -26 -7 -40q0 -20 13 -20q15 0 61 30l26 17l10 -18q-71 -53 -109 -75q-32 -19 -50 -19q-31 0 -31 40q0 28 13 76l66 240q8 32 8 44q0 21 -18 21q-9 0 -51 -26l-28 -18l-7 20l28 20q104 74 132 74q27 0 27 -26q0 -14 -6 -36zM101 549q-40 0 -40 43
q0 23 17.5 44t40.5 21q15 0 25.5 -11t10.5 -27q0 -30 -15 -50t-39 -20zM301 549q-40 0 -40 43q0 23 17.5 44t40.5 21q15 0 25.5 -11t10.5 -27q0 -30 -15 -50t-39 -20z" />
    <glyph glyph-name="eth" unicode="&#xf0;" horiz-adv-x="444" 
d="M242 444q-44 0 -75.5 -32t-46.5 -81.5t-21 -93t-6 -82.5q0 -128 94 -128q41 0 72 32.5t46.5 82t23 95.5t7.5 85q0 61 -20.5 91.5t-73.5 30.5zM156 545l129 65q-45 63 -105 78l20 45q87 -45 131 -103l135 66l12 -29l-130 -63q25 -48 42 -120t17 -125q0 -63 -17 -127
t-48 -119t-81.5 -89.5t-112.5 -34.5q-131 0 -131 160q0 78 28 152.5t87 127.5t136 53q33 0 68 -20q0 60 -33 120l-135 -66z" />
    <glyph glyph-name="ntilde" unicode="&#xf1;" horiz-adv-x="556" 
d="M202 408l-36 -153h4q71 102 133 153q90 74 148 74q32 0 32 -35q0 -27 -11 -75l-61 -256q-7 -26 -7 -40q0 -20 13 -20q15 0 61 30l26 17l10 -18q-71 -53 -109 -75q-32 -19 -50 -19q-31 0 -31 40q0 19 13 76l52 212q11 42 11 72q0 23 -17 23q-25 0 -69 -30q-36 -25 -74 -73
t-61 -94q-37 -76 -56 -209q-29 -5 -70 -17l-7 11q29 99 66 276q16 78 16 113q0 23 -18 23q-6 0 -51 -28l-28 -18l-7 20l28 20q104 74 132 74q24 0 24 -33q0 -17 -6 -41zM204 555h-29q25 103 98 103q28 0 63 -14l60 -24q13 -5 26 -5q7 0 10 1q9 1 18.5 10t12.5 14t11 18h28
q-7 -43 -30 -71q-27 -32 -70 -32q-19 0 -61 16l-38 15q-35 13 -47 13q-21 0 -31.5 -10.5t-20.5 -33.5z" />
    <glyph glyph-name="ograve" unicode="&#xf2;" horiz-adv-x="444" 
d="M148 -11q-131 0 -131 160q0 103 40.5 183.5t119.5 121.5q54 28 101 28q67 0 100 -42.5t33 -111.5q0 -63 -23 -131.5t-62 -116.5q-31 -39 -80.5 -65t-97.5 -26zM187 27q45 0 73 33q36 41 55.5 115.5t19.5 140.5q0 128 -93 128q-40 0 -61 -17q-41 -33 -64.5 -119
t-23.5 -153q0 -128 94 -128zM193 689l153 -151h-34l-162 101q-28 17 -28 39q0 11 12 20t27 9q12 0 32 -18z" />
    <glyph glyph-name="oacute" unicode="&#xf3;" horiz-adv-x="444" 
d="M148 -11q-131 0 -131 160q0 103 40.5 183.5t119.5 121.5q54 28 101 28q67 0 100 -42.5t33 -111.5q0 -63 -23 -131.5t-62 -116.5q-31 -39 -80.5 -65t-97.5 -26zM187 27q45 0 73 33q36 41 55.5 115.5t19.5 140.5q0 128 -93 128q-40 0 -61 -17q-41 -33 -64.5 -119
t-23.5 -153q0 -128 94 -128zM190 538l153 151q20 18 32 18q15 0 27 -9t12 -20q0 -22 -28 -39l-162 -101h-34z" />
    <glyph glyph-name="ocircumflex" unicode="&#xf4;" horiz-adv-x="444" 
d="M148 -11q-131 0 -131 160q0 103 40.5 183.5t119.5 121.5q54 28 101 28q67 0 100 -42.5t33 -111.5q0 -63 -23 -131.5t-62 -116.5q-31 -39 -80.5 -65t-97.5 -26zM187 27q45 0 73 33q36 41 55.5 115.5t19.5 140.5q0 128 -93 128q-40 0 -61 -17q-41 -33 -64.5 -119
t-23.5 -153q0 -128 94 -128zM318 699l88 -169h-36l-82 104l-137 -104h-39l157 169h49z" />
    <glyph glyph-name="otilde" unicode="&#xf5;" horiz-adv-x="444" 
d="M148 -11q-131 0 -131 160q0 103 40.5 183.5t119.5 121.5q54 28 101 28q67 0 100 -42.5t33 -111.5q0 -63 -23 -131.5t-62 -116.5q-31 -39 -80.5 -65t-97.5 -26zM187 27q45 0 73 33q36 41 55.5 115.5t19.5 140.5q0 128 -93 128q-40 0 -61 -17q-41 -33 -64.5 -119
t-23.5 -153q0 -128 94 -128zM148 555h-29q25 103 98 103q28 0 63 -14l60 -24q13 -5 26 -5q7 0 10 1q9 1 18.5 10t12.5 14t11 18h28q-7 -43 -30 -71q-27 -32 -70 -32q-19 0 -61 16l-38 15q-35 13 -47 13q-21 0 -31.5 -10.5t-20.5 -33.5z" />
    <glyph glyph-name="odieresis" unicode="&#xf6;" horiz-adv-x="444" 
d="M148 -11q-131 0 -131 160q0 103 40.5 183.5t119.5 121.5q54 28 101 28q67 0 100 -42.5t33 -111.5q0 -63 -23 -131.5t-62 -116.5q-31 -39 -80.5 -65t-97.5 -26zM187 27q45 0 73 33q36 41 55.5 115.5t19.5 140.5q0 128 -93 128q-40 0 -61 -17q-41 -33 -64.5 -119
t-23.5 -153q0 -128 94 -128zM184 549q-40 0 -40 43q0 23 17.5 44t40.5 21q15 0 25.5 -11t10.5 -27q0 -30 -15 -50t-39 -20zM384 549q-40 0 -40 43q0 23 17.5 44t40.5 21q15 0 25.5 -11t10.5 -27q0 -30 -15 -50t-39 -20z" />
    <glyph glyph-name="divide" unicode="&#xf7;" horiz-adv-x="606" 
d="M51 224v56h504v-56h-504zM303 504q23 0 36.5 -14t13.5 -36t-13.5 -36t-36.5 -14t-36.5 14t-13.5 36t13.5 36t36.5 14zM303 100q23 0 36.5 -14t13.5 -36t-13.5 -36t-36.5 -14t-36.5 14t-13.5 36t13.5 36t36.5 14z" />
    <glyph glyph-name="oslash" unicode="&#xf8;" horiz-adv-x="444" 
d="M376 442l60 68l24 -20l-66 -75q17 -36 17 -87q0 -63 -23 -131.5t-62 -116.5q-31 -39 -80.5 -65t-97.5 -26q-64 0 -96 40l-46 -53l-24 20l53 60q-18 35 -18 93t17 115.5t48.5 107t82.5 80t113 30.5q64 0 98 -40zM333 346l-230 -260q22 -59 84 -59q41 0 72 32.5t46.5 81.5
t22.5 93.5t7 81.5q0 8 -2 30zM95 124l230 260q-21 60 -83 60q-44 0 -75.5 -32t-46.5 -81.5t-21 -93t-6 -82.5q0 -11 2 -31z" />
    <glyph glyph-name="ugrave" unicode="&#xf9;" horiz-adv-x="556" 
d="M71 77l57 270q8 32 8 44q0 21 -18 21q-9 0 -51 -26l-28 -18l-7 20l28 20q104 74 132 74q23 0 23 -33q0 -14 -5 -41l-57 -271q-7 -31 -7 -53q0 -25 13 -25q21 0 43 16q47 33 98 96t71 117q21 57 36 126l10 51l68 17l7 -9q-49 -187 -84 -357q-6 -30 -6 -40q0 -17 13 -17
q20 0 61 27l26 17l10 -18q-71 -53 -109 -75q-32 -19 -50 -19q-31 0 -31 40q0 19 13 76l32 119l-4 1q-31 -52 -104 -133q-97 -105 -158 -105q-11 0 -22.5 10.5t-11.5 26.5q0 30 4 51zM257 689l153 -151h-34l-162 101q-28 17 -28 39q0 11 12 20t27 9q12 0 32 -18z" />
    <glyph glyph-name="uacute" unicode="&#xfa;" horiz-adv-x="556" 
d="M71 77l57 270q8 32 8 44q0 21 -18 21q-9 0 -51 -26l-28 -18l-7 20l28 20q104 74 132 74q23 0 23 -33q0 -14 -5 -41l-57 -271q-7 -31 -7 -53q0 -25 13 -25q21 0 43 16q47 33 98 96t71 117q21 57 36 126l10 51l68 17l7 -9q-49 -187 -84 -357q-6 -30 -6 -40q0 -17 13 -17
q20 0 61 27l26 17l10 -18q-71 -53 -109 -75q-32 -19 -50 -19q-31 0 -31 40q0 19 13 76l32 119l-4 1q-31 -52 -104 -133q-97 -105 -158 -105q-11 0 -22.5 10.5t-11.5 26.5q0 30 4 51zM296 538l153 151q20 18 32 18q15 0 27 -9t12 -20q0 -22 -28 -39l-162 -101h-34z" />
    <glyph glyph-name="ucircumflex" unicode="&#xfb;" horiz-adv-x="556" 
d="M71 77l57 270q8 32 8 44q0 21 -18 21q-9 0 -51 -26l-28 -18l-7 20l28 20q104 74 132 74q23 0 23 -33q0 -14 -5 -41l-57 -271q-7 -31 -7 -53q0 -25 13 -25q21 0 43 16q47 33 98 96t71 117q21 57 36 126l10 51l68 17l7 -9q-49 -187 -84 -357q-6 -30 -6 -40q0 -17 13 -17
q20 0 61 27l26 17l10 -18q-71 -53 -109 -75q-32 -19 -50 -19q-31 0 -31 40q0 19 13 76l32 119l-4 1q-31 -52 -104 -133q-97 -105 -158 -105q-11 0 -22.5 10.5t-11.5 26.5q0 30 4 51zM374 699l88 -169h-36l-82 104l-137 -104h-39l157 169h49z" />
    <glyph glyph-name="udieresis" unicode="&#xfc;" horiz-adv-x="556" 
d="M71 77l57 270q8 32 8 44q0 21 -18 21q-9 0 -51 -26l-28 -18l-7 20l28 20q104 74 132 74q23 0 23 -33q0 -14 -5 -41l-57 -271q-7 -31 -7 -53q0 -25 13 -25q21 0 43 16q47 33 98 96t71 117q21 57 36 126l10 51l68 17l7 -9q-49 -187 -84 -357q-6 -30 -6 -40q0 -17 13 -17
q20 0 61 27l26 17l10 -18q-71 -53 -109 -75q-32 -19 -50 -19q-31 0 -31 40q0 19 13 76l32 119l-4 1q-31 -52 -104 -133q-97 -105 -158 -105q-11 0 -22.5 10.5t-11.5 26.5q0 30 4 51zM240 549q-40 0 -40 43q0 23 17.5 44t40.5 21q15 0 25.5 -11t10.5 -27q0 -30 -15 -50
t-39 -20zM440 549q-40 0 -40 43q0 23 17.5 44t40.5 21q15 0 25.5 -11t10.5 -27q0 -30 -15 -50t-39 -20z" />
    <glyph glyph-name="yacute" unicode="&#xfd;" 
d="M-7 -180l48 34l10 -4q-2 -14 -2 -19q0 -29 17.5 -47t44.5 -18q67 0 116 99q28 58 55 151l47 162l-2 2q-37 -57 -85 -109q-71 -82 -105 -82q-21 0 -33 19t-12 42q0 33 1 50l17 243v15q0 52 -21 52q-5 0 -27 -13l-48 -29l-11 18l82 56q58 40 75 40q12 0 18 -14.5t6 -55.5
q0 -39 -4 -90l-15 -194v-12q0 -49 20 -49q15 0 46 27t59 68q55 79 80 169l35 132q32 3 74 19l11 -9l-141 -440q-40 -123 -101 -200q-86 -109 -173 -109q-34 0 -58.5 22.5t-24.5 58.5q0 10 1 15zM268 538l153 151q20 18 32 18q15 0 27 -9t12 -20q0 -22 -28 -39l-162 -101h-34
z" />
    <glyph glyph-name="thorn" unicode="&#xfe;" 
d="M111 165l-18 -106q34 -23 85 -23q61 0 90 44q39 59 66 136t27 141q0 67 -34 67q-31 0 -55 -14q-60 -35 -104.5 -104t-56.5 -141zM41 -259l-73 -17l-7 6q32 144 57 278l112 614q2 10 2 25q0 23 -34 23h-48l4 21q40 3 81 12q38 9 79 30l12 -11l-92 -426l2 -2
q31 64 103.5 126t135.5 62q58 0 58 -123q0 -50 -23 -120t-52 -114q-45 -66 -145 -115q-42 -21 -70 -21q-12 0 -60 14z" />
    <glyph glyph-name="ydieresis" unicode="&#xff;" 
d="M-7 -180l48 34l10 -4q-2 -14 -2 -19q0 -29 17.5 -47t44.5 -18q67 0 116 99q28 58 55 151l47 162l-2 2q-37 -57 -85 -109q-71 -82 -105 -82q-21 0 -33 19t-12 42q0 33 1 50l17 243v15q0 52 -21 52q-5 0 -27 -13l-48 -29l-11 18l82 56q58 40 75 40q12 0 18 -14.5t6 -55.5
q0 -39 -4 -90l-15 -194v-12q0 -49 20 -49q15 0 46 27t59 68q55 79 80 169l35 132q32 3 74 19l11 -9l-141 -440q-40 -123 -101 -200q-86 -109 -173 -109q-34 0 -58.5 22.5t-24.5 58.5q0 10 1 15zM212 549q-40 0 -40 43q0 23 17.5 44t40.5 21q15 0 25.5 -11t10.5 -27
q0 -30 -15 -50t-39 -20zM412 549q-40 0 -40 43q0 23 17.5 44t40.5 21q15 0 25.5 -11t10.5 -27q0 -30 -15 -50t-39 -20z" />
    <glyph glyph-name="dotlessi" unicode="&#x131;" horiz-adv-x="278" 
d="M215 420l-77 -304q-7 -26 -7 -40q0 -20 13 -20q15 0 61 30l26 17l10 -18q-71 -53 -109 -75q-32 -19 -50 -19q-31 0 -31 40q0 28 13 76l66 240q8 32 8 44q0 21 -18 21q-9 0 -51 -26l-28 -18l-7 20l28 20q104 74 132 74q27 0 27 -26q0 -14 -6 -36z" />
    <glyph glyph-name="Lslash" unicode="&#x141;" horiz-adv-x="556" 
d="M130 340l37 219q6 36 9 74v3q0 25 -35 26l-47 2l3 28q21 0 69 -1.5t72 -1.5q21 0 114 3l-3 -28l-42 -3q-28 -2 -37 -10.5t-14 -37.5l-39 -227l143 77l12 -29l-162 -86l-46 -267q-2 -12 -2 -35q77 -7 127 -7q118 0 155 9q18 4 31 55l17 62h31q-13 -62 -20 -121
q-3 -25 -3 -44q-99 -3 -100 -3q-40 0 -120.5 1.5t-121.5 1.5q-7 0 -142 -3l5 26q2 0 9 1.5t9 2t8.5 2t8.5 2.5t7 2.5t7 3.5t5 4.5t4 6t2 7.5l42 246l-127 -68l-12 29z" />
    <glyph glyph-name="lslash" unicode="&#x142;" horiz-adv-x="278" 
d="M106 381l49 241q2 10 2 25q0 23 -34 23h-48l4 21q40 3 81 12q38 9 79 30l12 -11l-61 -288l100 62l12 -29l-121 -75l-58 -276q-7 -35 -7 -40q0 -20 13 -20q15 0 61 30l26 17l10 -18q-71 -53 -109 -75q-32 -19 -50 -19q-31 0 -31 40q0 19 13 76l48 232l-95 -59l-12 29z" />
    <glyph glyph-name="OE" unicode="&#x152;" horiz-adv-x="1028" 
d="M660 334l-43 -253q-2 -12 -2 -35q42 -7 107 -7q45 0 133 6q29 2 40 13.5t20 42.5l16 60h27q-18 -94 -21 -125q-3 -29 -4 -36q-99 -3 -100 -3q-28 0 -103.5 1.5t-118.5 1.5q-10 0 -36 -1.5t-35 -1.5h-2q-12 0 -12 9q0 4 4 20l13 59l-2 2q-91 -105 -231 -105
q-126 0 -190 76.5t-64 204.5q0 115 45.5 215t136 164t207.5 64q63 0 108.5 -18.5t81.5 -64.5l7 49q2 20 14 20h2q10 0 30 -2q5 0 16.5 -0.5t17.5 -0.5q24 0 94.5 1.5t99.5 1.5q43 0 73 -3q-16 -57 -21 -152h-24l-8 89q-2 24 -127 24q-5 0 -93 -4q-5 -10 -9 -32l-39 -238h17
q113 0 219 6l4 -7l-19 -45q-88 4 -132 4h-97zM571 270l29 169q5 26 5 58q0 81 -46 124t-136 43q-72 0 -128 -36t-87.5 -94.5t-47.5 -123.5t-16 -132q0 -108 46.5 -181t132.5 -73q97 0 164 75t84 171z" />
    <glyph glyph-name="oe" unicode="&#x153;" horiz-adv-x="669" 
d="M591 95l22 16l6 -23q-120 -99 -195 -99q-44 0 -75 20.5t-39 61.5q-77 -82 -160 -82q-74 0 -103.5 43.5t-29.5 120.5q0 147 86 243q33 37 79 61.5t92 24.5q89 0 126 -86q38 28 54.5 39.5t53 29t63.5 17.5q37 0 60 -22t23 -59q0 -32 -18 -60t-42.5 -46.5t-65 -36t-70 -27
t-74.5 -21.5q-9 -50 -9 -85q0 -40 21 -64.5t61 -24.5q52 0 134 59zM188 27q54 0 85 49q27 42 43 116t16 132q0 120 -97 120q-32 0 -57 -21.5t-36.5 -45t-22.5 -58.5q-26 -82 -26 -172q0 -120 95 -120zM534 440q-54 0 -95 -53q-31 -40 -51 -153q58 12 110 39q82 42 82 113
q0 54 -46 54z" />
    <glyph glyph-name="Scaron" unicode="&#x160;" horiz-adv-x="556" 
d="M451 537v76q-37 45 -113 45q-66 0 -112 -41.5t-46 -106.5q0 -51 23 -80t73 -39l65 -14q68 -15 106 -46.5t38 -95.5q0 -109 -89.5 -181t-201.5 -72q-36 0 -79.5 10.5t-72.5 27.5q16 73 24 152h30v-99q56 -43 140 -43q74 0 122 45t48 118q0 83 -81 103l-95 23
q-66 16 -94 53t-28 105q0 96 83.5 162.5t181.5 66.5q74 0 133 -34q-19 -60 -25 -135h-30zM376 720h-46l-96 169h37l90 -105l142 105h36z" />
    <glyph glyph-name="scaron" unicode="&#x161;" horiz-adv-x="389" 
d="M31 148h25v-84q37 -35 92 -35q53 0 86 28.5t33 80.5q0 31 -14 45t-46 20l-63 12q-97 19 -97 101q0 51 37 88q78 78 159 78q51 0 102 -27q-14 -68 -19 -113h-23v55q-10 21 -39 33t-55 12q-42 0 -72.5 -26t-30.5 -67q0 -19 6 -32t18.5 -20t23.5 -10.5t31 -7.5l43 -8
q106 -19 106 -95q0 -73 -72 -129q-76 -58 -145 -58q-56 0 -108 27q16 62 22 132zM226 530h-46l-96 169h37l90 -105l142 105h36z" />
    <glyph glyph-name="Ydieresis" unicode="&#x178;" horiz-adv-x="667" 
d="M127 702l4 3h3q26 0 48 -12t38.5 -35t26.5 -41.5t22 -46.5q18 -44 44 -135.5t32 -121.5h2q39 102 127 223q47 64 94.5 105.5t106.5 55.5l-6 -71q-30 -4 -58 -19t-53 -40.5t-41 -45t-39 -51.5q-42 -58 -76 -122.5t-40 -101.5l-24 -153q-4 -22 -4 -36t7 -21t29 -8l49 -3
l-3 -28q-102 3 -123 3q-26 0 -77.5 -1.5t-61.5 -1.5l4 28l48 3q25 1 33 9q12 12 25 88l21 126v5q0 33 -36.5 146.5t-59.5 156.5q-41 76 -92 76q-13 0 -42 -12l-3 24q53 37 75 55zM315 739q-40 0 -40 43q0 23 17.5 44t40.5 21q15 0 25.5 -11t10.5 -27q0 -30 -15 -50t-39 -20z
M515 739q-40 0 -40 43q0 23 17.5 44t40.5 21q15 0 25.5 -11t10.5 -27q0 -30 -15 -50t-39 -20z" />
    <glyph glyph-name="Zcaron" unicode="&#x17d;" horiz-adv-x="667" 
d="M20 -3v22l502 633h-180q-116 0 -180 -13q-22 -74 -27 -106h-26q11 99 11 159q354 -3 355 -3l162 3v-20l-504 -633h281q67 0 127 13q22 60 39 112h26q-20 -106 -23 -167q-165 3 -329 3q-117 0 -234 -3zM425 720h-46l-96 169h37l90 -105l142 105h36z" />
    <glyph glyph-name="zcaron" unicode="&#x17e;" horiz-adv-x="444" 
d="M-1 21l348 395l-2 2q-35 -20 -89 -20q-30 0 -78 10q-25 5 -45 5q-23 0 -39 -5l-30 -58h-21l32 122q33 10 62 10q19 0 79 -16q76 -21 134 -21q19 0 34 14l23 23l9 -9l-6 -32l-335 -378l2 -2q41 19 89 19q35 0 104 -16q29 -7 48 -7q31 0 40 25l22 60h22q-15 -60 -30 -143
q-35 -10 -48 -10q-36 0 -92 13q-9 2 -32 7.5t-35.5 8.5t-31.5 5.5t-35 2.5q-53 0 -90 -32zM284 530h-46l-96 169h37l90 -105l142 105h36z" />
    <glyph glyph-name="florin" unicode="&#x192;" 
d="M5 -276l12 80l11 4q17 -20 51 -20q14 0 29.5 18t22.5 42q14 50 17 65l84 457h-113l9 34h109q24 122 91 215q64 89 117 89q15 0 25 -5l-12 -79q-24 23 -56 23q-14 0 -27.5 -9.5t-19.5 -23.5q-16 -41 -34 -147l-11 -63h112l-8 -34h-109l-51 -247q-19 -90 -60 -206.5
t-77 -146.5q-55 -46 -112 -46z" />
    <glyph glyph-name="circumflex" unicode="&#x2c6;" horiz-adv-x="333" 
d="M262 679l88 -169h-36l-82 104l-137 -104h-39l157 169h49z" />
    <glyph glyph-name="caron" unicode="&#x2c7;" horiz-adv-x="333" 
d="M246 510h-46l-96 169h37l90 -105l142 105h36z" />
    <glyph glyph-name="uni02C9" unicode="&#x2c9;" horiz-adv-x="333" 
d="M386 589l-11 -51h-301l11 51h301z" />
    <glyph glyph-name="breve" unicode="&#x2d8;" horiz-adv-x="333" 
d="M92 677h29q2 -48 31.5 -74t78.5 -26q85 0 133 100h29q-15 -70 -57.5 -114.5t-109.5 -44.5q-134 0 -134 148v11z" />
    <glyph glyph-name="dotaccent" unicode="&#x2d9;" horiz-adv-x="333" 
d="M229 604q-40 0 -40 43q0 23 17.5 44t40.5 21q15 0 25.5 -11t10.5 -27q0 -30 -15 -50t-39 -20z" />
    <glyph glyph-name="ring" unicode="&#x2da;" horiz-adv-x="333" 
d="M259 672q-28 0 -45 -17.5t-17 -46.5t17 -46.5t45 -17.5t45 17.5t17 46.5t-17 46.5t-45 17.5zM259 708q41 0 70.5 -29t29.5 -69v-4q0 -40 -29.5 -69t-70.5 -29t-70.5 29t-29.5 69v4q0 40 29.5 69t70.5 29z" />
    <glyph glyph-name="ogonek" unicode="&#x2db;" horiz-adv-x="333" 
d="M203 -129l10 -22q-25 -23 -39 -35t-39.5 -26t-45.5 -14q-27 0 -42.5 20t-15.5 54q0 66 78 134h37q-1 -2 -15 -18t-19.5 -24.5t-12 -23.5t-6.5 -29q0 -22 11.5 -36.5t29.5 -14.5q5 0 9.5 1t9.5 3t9 3.5t10 5.5t9 6.5t11 8t11 7.5z" />
    <glyph glyph-name="tilde" unicode="&#x2dc;" horiz-adv-x="333" 
d="M92 535h-29q25 103 98 103q28 0 63 -14l60 -24q13 -5 26 -5q7 0 10 1q9 1 18.5 10t12.5 14t11 18h28q-7 -43 -30 -71q-27 -32 -70 -32q-19 0 -61 16l-38 15q-35 13 -47 13q-21 0 -31.5 -10.5t-20.5 -33.5z" />
    <glyph glyph-name="hungarumlaut" unicode="&#x2dd;" horiz-adv-x="333" 
d="M16 518l153 151q20 18 32 18q15 0 27 -9t12 -20q0 -22 -28 -39l-162 -101h-34zM183 518l153 151q20 18 32 18q15 0 27 -9t12 -20q0 -22 -28 -39l-162 -101h-34z" />
    <glyph glyph-name="uni03A9" unicode="&#x3a9;" horiz-adv-x="654" 
d="M592 129l-44 -129h-209l-3 16q4 6 37 53t47.5 71t40 69t40.5 86.5t22 83.5q25 146 -15.5 217t-117.5 71q-81 0 -144 -71t-90 -222q-4 -21 -5.5 -42.5t-1.5 -39.5t2.5 -41t4 -37t8 -38t8.5 -34t10.5 -35t10.5 -31t11 -31.5t10 -28.5l-10 -16h-206l2 129l22 2
q5 -47 16.5 -61t38.5 -14h98q-126 154 -96 324q25 142 115.5 228t202.5 86q114 0 172 -82.5t33 -223.5q-28 -157 -213 -332h99q30 0 44.5 12.5t37.5 62.5z" />
    <glyph glyph-name="uni03BC" unicode="&#x3bc;" horiz-adv-x="504" 
d="M475 85q-84 -62 -109 -77q-32 -19 -50 -19q-31 0 -31 40q0 30 13 78l32 119l-4 1q-44 -74 -99 -135q-3 -4 -15.5 -17.5t-18.5 -20t-18 -18.5t-20 -18.5t-17.5 -14t-17.5 -11t-14 -3.5q-40 0 -41 59q-12 -45 -22.5 -113.5t-11.5 -106.5q-59 -24 -78 -39l-13 11
q99 272 139 457q36 166 41 208l70 17l7 -9l-62 -255q-17 -73 -17 -106q0 -5 0.5 -11.5t0.5 -9.5q0 -9 5 -19t13 -10q11 0 28 12q46 33 97.5 96.5t71.5 117.5q25 68 36 126l10 51l68 17l7 -9q-49 -187 -84 -357q-6 -30 -6 -40q0 -17 13 -17q20 0 61 27l26 17z" />
    <glyph glyph-name="pi" unicode="&#x3c0;" horiz-adv-x="514" 
d="M494 463l20 -9q-18 -44 -46 -77q-16 -3 -66 -3q-7 -26 -47 -244q-16 -92 26 -92q24 0 54 32l10 -17q-45 -65 -103 -65q-38 0 -53.5 27.5t-2.5 97.5q16 88 56 263q-110 2 -150 2l-3 -21q-18 -103 -46.5 -187t-47 -118t-30.5 -47q-31 -13 -56 -17l-3 15q58 60 97.5 167.5
t56.5 208.5q-31 0 -55.5 -7t-36 -13.5t-37.5 -24.5l-9 19l10.5 10.5t12.5 12t13 11.5t16.5 12.5t17.5 10.5t21 10t22.5 7t26.5 5.5t29 1.5q30 0 111.5 -1.5t129.5 -1.5q23 0 35 6t27 26z" />
    <glyph glyph-name="endash" unicode="&#x2013;" 
d="M500 228h-510l10 50h510z" />
    <glyph glyph-name="emdash" unicode="&#x2014;" horiz-adv-x="1000" 
d="M1000 228h-1010l10 50h1010z" />
    <glyph glyph-name="quoteleft" unicode="&#x2018;" horiz-adv-x="278" 
d="M87 488l-9 18q70 134 141 214l32 13l7 -9q-69 -104 -82 -211q-39 -7 -89 -25z" />
    <glyph glyph-name="quoteright" unicode="&#x2019;" horiz-adv-x="278" 
d="M249 733l9 -18q-70 -134 -141 -214l-32 -13l-7 9q69 104 82 211q39 7 89 25z" />
    <glyph glyph-name="quotesinglbase" unicode="&#x201a;" horiz-adv-x="278" 
d="M112 95l88 25l11 -12q-63 -130 -143 -218l-32 -12l-9 7q60 81 85 210z" />
    <glyph glyph-name="quotedblleft" unicode="&#x201c;" 
d="M107 488l-9 18q70 134 141 214l32 13l7 -9q-69 -104 -82 -211q-39 -7 -89 -25zM304 488l-9 18q70 134 141 214l32 13l7 -9q-69 -104 -82 -211q-39 -7 -89 -25z" />
    <glyph glyph-name="quotedblright" unicode="&#x201d;" 
d="M269 733l9 -18q-70 -134 -141 -214l-32 -13l-7 9q69 104 82 211q39 7 89 25zM466 733l9 -18q-70 -134 -141 -214l-32 -13l-7 9q69 104 82 211q39 7 89 25z" />
    <glyph glyph-name="quotedblbase" unicode="&#x201e;" 
d="M128 95l88 25l11 -12q-63 -130 -143 -218l-32 -12l-9 7q60 81 85 210zM325 95l88 25l11 -12q-63 -130 -143 -218l-32 -12l-9 7q60 81 85 210z" />
    <glyph glyph-name="dagger" unicode="&#x2020;" 
d="M61 472l170 -6l11 70q4 23 6.5 48.5t4.5 56.5t4 48l2 3q28 -2 41 -2q15 0 41 2l3 -3q-13 -45 -34 -153l-14 -70l169 5l4 -4l-8 -57l-5 -4l-170 6l-10 -68q-37 -258 -46 -339l-5 -5q-28 2 -42 2t-42 -2l-3 3q49 193 70 326l13 83l-169 -5l-4 4l8 57z" />
    <glyph glyph-name="daggerdbl" unicode="&#x2021;" 
d="M105 490l159 -6l6 40q11 75 18 163l5 5q26 -2 38 -2q14 0 38 2l1 -5q-12 -46 -36 -163l-8 -38l160 6l8 -8l-6 -50l-9 -5l-162 7l-9 -56q-12 -82 -12 -103v-12q-15 -31 -29 -101l-14 -70l160 6l8 -8l-6 -50l-9 -5l-162 7l-12 -68q0 -1 -12 -128l-8 -10q-24 2 -38 2
q-12 0 -38 -2l-2 10q19 76 32 130l15 66l-162 -7l-9 5l10 50l11 6l159 -6l13 75q11 61 11 102q13 22 32 119l9 48l-162 -7l-9 5l10 50z" />
    <glyph glyph-name="bullet" unicode="&#x2022;" 
d="M86 354q0 70 51 121t121 51t121 -51t51 -121t-51 -121t-121 -51t-121 51t-51 121z" />
    <glyph glyph-name="ellipsis" unicode="&#x2026;" horiz-adv-x="1000" 
d="M162 112q20 0 32.5 -14t12.5 -34q0 -26 -16.5 -47.5t-43.5 -21.5q-45 0 -45 48q0 26 17 47.5t43 21.5zM495 112q20 0 32.5 -14t12.5 -34q0 -26 -16.5 -47.5t-43.5 -21.5q-45 0 -45 48q0 26 17 47.5t43 21.5zM828 112q20 0 32.5 -14t12.5 -34q0 -26 -16.5 -47.5
t-43.5 -21.5q-45 0 -45 48q0 26 17 47.5t43 21.5z" />
    <glyph glyph-name="perthousand" unicode="&#x2030;" horiz-adv-x="1000" 
d="M228 699q56 0 87.5 -35t31.5 -91q0 -69 -46 -122t-114 -53q-59 0 -87 38.5t-28 99.5q0 62 47.5 112.5t108.5 50.5zM228 676q-31 0 -53.5 -35t-30.5 -76.5t-8 -81.5q0 -62 55 -62q31 0 53.5 35t30.5 76.5t8 81.5q0 62 -55 62zM487 301q56 0 87.5 -35t31.5 -91
q0 -69 -46 -122t-114 -53q-59 0 -87 38.5t-28 99.5q0 62 47.5 112.5t108.5 50.5zM487 278q-31 0 -53.5 -35t-30.5 -76.5t-8 -81.5q0 -62 55 -62q31 0 53.5 35t30.5 76.5t8 81.5q0 62 -55 62zM810 301q56 0 87.5 -35t31.5 -91q0 -69 -46 -122t-114 -53q-59 0 -87 38.5
t-28 99.5q0 62 47.5 112.5t108.5 50.5zM810 278q-31 0 -53.5 -35t-30.5 -76.5t-8 -81.5q0 -62 55 -62q31 0 53.5 35t30.5 76.5t8 81.5q0 62 -55 62zM94 -6l456 723h41l-452 -723h-45z" />
    <glyph glyph-name="guilsinglleft" unicode="&#x2039;" horiz-adv-x="333" 
d="M129 170l-72 81v16q12 11 50.5 43.5t58.5 51.5l85 78l19 -16l-137 -168l95 -171l-20 -15q-77 98 -79 100z" />
    <glyph glyph-name="guilsinglright" unicode="&#x203a;" horiz-adv-x="333" 
d="M204 340l72 -81v-16q-12 -11 -50.5 -43.5t-58.5 -51.5l-85 -78l-19 16l137 168l-95 171l20 15q77 -98 79 -100z" />
    <glyph glyph-name="fraction" unicode="&#x2044;" horiz-adv-x="167" 
d="M-114 0h-56l451 699h56z" />
    <glyph glyph-name="Euro" unicode="&#x20ac;" 
d="M465 514v90q-49 54 -117 54q-65 0 -116.5 -69t-73.5 -172h264l-12 -39h-259q-5 -34 -5 -81v-16h233l-11 -39h-220q9 -98 49.5 -152.5t114.5 -54.5q45 0 79 15.5t76 53.5l10 -7l-10 -36q-79 -79 -182 -79q-94 0 -151.5 66.5t-63.5 193.5h-50l11 39h39q0 46 9 97h-52l12 39
h48q32 130 118 211q77 71 172 71q66 0 141 -41q-20 -62 -27 -144h-26z" />
    <glyph glyph-name="afii61289" unicode="&#x2113;" horiz-adv-x="370" 
d="M301 106l15 -15q-69 -100 -164 -100q-60 0 -84 38q-23 42 -5 142l16 89l-62 -44l-8 21l75 56l22 124q23 128 41.5 181t54.5 88q39 43 81 43q38 0 52 -36t4 -92q-26 -147 -187 -295l-18 -102q-14 -98 -0.5 -132t55.5 -34q56 0 112 68zM182 476l-23 -129q51 53 89 122
t49 132q9 44 2 72t-29 28q-26 0 -46 -51t-42 -174z" />
    <glyph glyph-name="trademark" unicode="&#x2122;" horiz-adv-x="1000" 
d="M390 689v-96h-23q0 43 -16 57.5t-61 14.5h-41v-325q0 -24 11 -29q12 -6 52 -6v-20h-182v20q40 0 52 6q11 5 11 29v325h-41q-45 0 -61 -14.5t-16 -57.5h-23v96h338zM575 689l129 -308l132 308h112v-18h-21q-27 0 -27 -20v-300q0 -27 7 -36.5t33 -9.5h11v-20h-158v20h11
q26 0 33 9.5t7 36.5v298h-2l-150 -364h-8l-152 364h-1v-311q0 -19 9.5 -25t38.5 -8v-20h-121v20q29 2 38.5 8t9.5 25v296q0 23 -6 30t-20 7h-14v18h109z" />
    <glyph glyph-name="Omega" unicode="&#x2126;" horiz-adv-x="654" 
d="M592 129l-44 -129h-209l-3 16q4 6 37 53t47.5 71t40 69t40.5 86.5t22 83.5q25 146 -15.5 217t-117.5 71q-81 0 -144 -71t-90 -222q-4 -21 -5.5 -42.5t-1.5 -39.5t2.5 -41t4 -37t8 -38t8.5 -34t10.5 -35t10.5 -31t11 -31.5t10 -28.5l-10 -16h-206l2 129l22 2
q5 -47 16.5 -61t38.5 -14h98q-126 154 -96 324q25 142 115.5 228t202.5 86q114 0 172 -82.5t33 -223.5q-28 -157 -213 -332h99q30 0 44.5 12.5t37.5 62.5z" />
    <glyph glyph-name="estimated" unicode="&#x212e;" horiz-adv-x="924" 
d="M890 334h-637q-6 0 -6 -5v-193q0 -12 9 -22q102 -105 241 -105q151 0 254 118h56q-53 -63 -135 -100t-176 -37q-163 0 -278 103.5t-115 249.5q0 147 115 250.5t278 103.5q164 0 279 -103.5t115 -250.5v-9zM745 359v194q0 14 -9 23q-102 100 -239 100q-139 0 -240 -103
q-10 -10 -10 -24v-190q0 -7 6 -7h488q4 0 4 7z" />
    <glyph glyph-name="partialdiff" unicode="&#x2202;" horiz-adv-x="477" 
d="M260 423h1q34 0 65.5 -17.5t47.5 -52.5q23 96 25 105q18 82 3 158q-8 40 -36.5 71.5t-71.5 31.5q-61 0 -130 -50q-7 -1 -13 8t-6.5 21t4.5 23q65 40 132 40q117 0 159 -140q28 -90 4 -228q-27 -150 -87 -251q-90 -151 -208 -151q-74 0 -109 52.5t-20 144.5q16 92 82 161
q31 32 73.5 53t84.5 21zM270 388h-1q-62 0 -114 -59q-53 -69 -73 -178q-9 -54 9.5 -93.5t61.5 -39.5q66 0 128 105q41 67 79 191q-7 26 -31 50t-59 24z" />
    <glyph glyph-name="Delta" unicode="&#x2206;" horiz-adv-x="573" 
d="M486 0h-507l4 20l352 665l31 9l123 -674zM408 40l-95 539l-282 -539h377z" />
    <glyph glyph-name="product" unicode="&#x220f;" horiz-adv-x="682" 
d="M656 684v-23q-58 -4 -70.5 -14t-12.5 -48v-592q0 -44 13 -55.5t68 -15.5v-23h-225v23q54 4 66 14.5t12 56.5v617q0 20 -6 25.5t-27 5.5h-200q-20 0 -25.5 -4.5t-5.5 -22.5v-621q0 -45 9.5 -55.5t60.5 -15.5v-23h-218v23q55 5 67.5 15.5t12.5 55.5v592q0 39 -12.5 48.5
t-70.5 13.5v23h564z" />
    <glyph glyph-name="summation" unicode="&#x2211;" horiz-adv-x="566" 
d="M545 80l-38 -168h-413v20l209 351l-204 380v21h409q0 -8 1.5 -30.5t4.5 -59t4 -59.5l-23 -4q-9 60 -28 94q-9 18 -27.5 24t-68.5 6h-186l179 -326l-208 -356h239q60 0 80 17t47 97z" />
    <glyph glyph-name="minus" unicode="&#x2212;" horiz-adv-x="606" 
d="M555 224h-504v56h504v-56z" />
    <glyph glyph-name="uni2215" unicode="&#x2215;" horiz-adv-x="167" 
d="M-114 0h-56l451 699h56z" />
    <glyph glyph-name="uni2219" unicode="&#x2219;" horiz-adv-x="250" 
d="M113 312q20 0 32.5 -14t12.5 -34q0 -26 -16.5 -47.5t-43.5 -21.5q-45 0 -45 48q0 26 17 47.5t43 21.5z" />
    <glyph glyph-name="radical" unicode="&#x221a;" horiz-adv-x="573" 
d="M555 881l-150 -1023l-17 -9l-201 542l-80 -38l-9 29l136 63l159 -443h2l127 887z" />
    <glyph glyph-name="infinity" unicode="&#x221e;" horiz-adv-x="723" 
d="M679 285v-1q0 -64 -41.5 -105t-97.5 -41q-41 0 -79 25t-87 82q-30 -34 -50.5 -53.5t-53 -36.5t-67.5 -17q-56 0 -96.5 41t-40.5 102q0 63 40.5 104t102.5 41q47 0 86.5 -28.5t81.5 -79.5q33 38 49 54t50 35t70 19q59 0 96 -39.5t37 -101.5zM209 183h1q12 0 23 2.5
t23.5 10t19.5 11.5t21 17.5t17.5 17t18.5 20t16 17.5q-28 35 -42.5 51t-43.5 34t-59 18q-42 0 -66 -29.5t-24 -72.5q0 -41 27 -69t68 -28zM541 382h-1q-17 0 -33.5 -6t-33.5 -20t-26.5 -23t-26 -28t-19.5 -22q49 -56 78.5 -78t63.5 -22q41 0 65 29.5t24 68.5q0 47 -25 74
t-66 27z" />
    <glyph glyph-name="integral" unicode="&#x222b;" horiz-adv-x="411" 
d="M220 20l-18 412q-4 97 1.5 169.5t17.5 116t32 70t40.5 35.5t45.5 9q20 0 36 -11t16 -30q0 -17 -10.5 -26.5t-26.5 -9.5q-15 0 -26 19t-22 19q-12 0 -22 -12t-17.5 -52t-4.5 -103l17 -382q6 -129 -2.5 -218t-30 -133t-46 -61.5t-57.5 -17.5q-23 0 -38 12.5t-15 29.5
q-1 17 12 28t31 11q13 0 24.5 -20t21.5 -20q22 0 33.5 45t7.5 120z" />
    <glyph glyph-name="approxequal" unicode="&#x2248;" horiz-adv-x="514" 
d="M445 414l30 -26q-42 -88 -116 -88q-39 0 -102 37q-49 31 -81 31q-47 0 -87 -68l-32 24q44 89 124 89q13 0 24.5 -2t24 -7.5t17.5 -8t19 -10.5l14 -8q2 -1 9.5 -5.5l10 -6t9 -5t9 -4.5t8 -3.5t9 -3.5t8.5 -2t9.5 -1.5t9.5 -0.5q44 0 83 69zM445 259l30 -25
q-42 -89 -116 -89q-36 0 -102 37q-53 32 -81 32q-47 0 -87 -69l-32 25q45 89 124 89q13 0 25 -2.5t23.5 -7.5t18.5 -8.5t18 -10t14 -8.5q4 -2 16 -9t17 -9.5t14.5 -6.5t17.5 -5.5t17 -1.5q26 0 44.5 16.5t38.5 52.5z" />
    <glyph glyph-name="notequal" unicode="&#x2260;" horiz-adv-x="528" 
d="M387 477l-39 -87h135v-47h-154l-58 -131h212v-46h-230l-47 -104l-37 16l40 88h-130v46h148l58 131h-206v47h224l47 103z" />
    <glyph glyph-name="lessequal" unicode="&#x2264;" horiz-adv-x="540" 
d="M494 103l-397 208v49l397 207v-56l-348 -174v-2l348 -175v-57zM496 17h-404v48h404v-48z" />
    <glyph glyph-name="greaterequal" unicode="&#x2265;" horiz-adv-x="541" 
d="M98 567l397 -207v-49l-397 -208v57l347 174v2l-347 175v56zM496 17h-403v48h403v-48z" />
    <glyph glyph-name="lozenge" unicode="&#x25ca;" horiz-adv-x="580" 
d="M534 332l-182 -396h-55l-181 396l182 398h55zM481 332l-154 345h-3l-155 -344l155 -346h3z" />
    <glyph glyph-name="zero.taboldstyle" unicode="&#xf643;" 
d="M456 295q0 -129 -80.5 -219t-187.5 -90q-76 0 -114 50.5t-38 136.5q0 53 17.5 106t49.5 98t83 73t111 28q81 0 120 -48.5t39 -134.5zM104 177q0 -151 115 -151q44 0 79 27t53.5 69t27.5 83.5t9 78.5q0 76 -32.5 115t-83.5 39q-71 0 -119.5 -66.5t-48.5 -194.5z" />
    <glyph glyph-name="one.taboldstyle" unicode="&#xf644;" 
d="M92 411l296 71l6 -24l-18 -8q-25 -9 -32.5 -17.5t-14.5 -37.5q-16 -65 -36.5 -187t-20.5 -149q0 -29 35 -30l91 -4l-2 -33q-114 8 -169 8q-57 0 -167 -8l4 33l90 5q25 1 34.5 24t22.5 106q38 227 41 251l-158 -49l-12 8z" />
    <glyph glyph-name="two.taboldstyle" unicode="&#xf645;" 
d="M26 -4l6 41q35 21 47 28.5t50 32.5t57 40t49 41.5t45.5 47t27.5 46.5t12 50q0 43 -28 68.5t-78 25.5q-82 0 -106 -53l-14 8l24 69q67 37 129 37q24 0 48.5 -6.5t48.5 -20t39 -39t15 -59.5q0 -22 -6.5 -44t-20.5 -42.5t-27 -38.5t-37 -37.5t-39 -32.5t-43.5 -31.5
t-40.5 -26.5t-39.5 -24.5l-32.5 -19.5v-1h80q62 0 182 4l30 68l22 2l-36 -137q-16 1 -47.5 2.5t-47.5 2.5q-93 3 -95 3q-131 0 -164 -10z" />
    <glyph glyph-name="three.taboldstyle" unicode="&#xf646;" 
d="M6 -224v50l6 6q40 -10 65 -10q59 0 105.5 24.5t72.5 62t39.5 76t13.5 72.5q0 51 -26.5 78.5t-69.5 27.5q-37 0 -92 -16l-8 4l24 48q86 3 135 42.5t49 88.5q0 39 -22.5 63.5t-64.5 24.5q-40 0 -68.5 -16.5t-60.5 -55.5l-22 16l52 82q68 34 128 34q67 0 99.5 -31t32.5 -71
q0 -98 -128 -171q25 -5 40 -9.5t37.5 -17t33.5 -35.5t11 -56q0 -47 -27 -101.5t-71.5 -101.5t-111.5 -78.5t-139 -31.5q-9 0 -33 2z" />
    <glyph glyph-name="four.taboldstyle" unicode="&#xf647;" 
d="M387 410l-59 -345q44 0 134 2l-16 -61q-82 4 -127 4l-33 -216q-31 -5 -68 -20l-14 6l51 231q-18 0 -53.5 0.5t-53.5 0.5q-48 0 -142 -8v18q144 269 324 442l64 14l10 -8q-10 -19 -17 -60zM80 65h184l58 340l-2 2q-65 -65 -134.5 -167.5t-105.5 -174.5z" />
    <glyph glyph-name="five.taboldstyle" unicode="&#xf648;" 
d="M6 -225l8 55q38 -4 58 -4q57 0 102.5 25t70 62t37 72t12.5 62q0 41 -18.5 62t-67.5 41q-62 25 -83 39t-21 26q0 8 8 45l48 218q47 -14 170 -14q84 0 100 14l12 -6l-36 -66q-48 -6 -116 -6q-40 0 -112 4l-16 -73q-1 -7 -5 -20.5t-6.5 -24t-2.5 -16.5q0 -7 3.5 -11.5
t15 -10.5t24.5 -11t40.5 -17t54.5 -24q40 -18 58.5 -42.5t19.5 -72.5q1 -41 -25 -94.5t-67.5 -100.5t-99 -79.5t-111.5 -32.5q-15 0 -32.5 0.5t-22.5 0.5z" />
    <glyph glyph-name="six.taboldstyle" unicode="&#xf649;" 
d="M479 684v-28q-120 -30 -207.5 -119.5t-122.5 -212.5l2 -2q80 76 162 76q57 0 94.5 -40t37.5 -109q0 -102 -70 -182.5t-171 -80.5q-80 0 -117.5 54t-37.5 133q0 94 37 183t97.5 155t137.5 112t158 61zM367 231q0 52 -25 83t-72 31q-25 0 -48.5 -9t-46.5 -29.5t-37.5 -60.5
t-14.5 -95q0 -65 30 -95t68 -30q65 0 105.5 58t40.5 147z" />
    <glyph glyph-name="seven.taboldstyle" unicode="&#xf64a;" 
d="M76 302l24 170l8 6q83 -14 189 -14q127 0 191 14v-38q-215 -301 -380 -666h-70l-10 14q45 73 123.5 197.5t141 225t112.5 185.5q-72 4 -139 4q-73 0 -132 -8l-34 -92z" />
    <glyph glyph-name="eight.taboldstyle" unicode="&#xf64b;" 
d="M299 632q-53 0 -87 -37.5t-34 -86.5q0 -82 100 -130q110 62 110 156q0 44 -25 71t-64 27zM32 128q0 72 50.5 125t123.5 87q-18 10 -30 18t-29.5 24.5t-27 39t-9.5 50.5q0 77 65 138.5t152 61.5q61 0 95 -32.5t34 -91.5q0 -94 -146 -184q35 -20 55.5 -35.5t37.5 -46.5
t17 -71q0 -78 -70.5 -151.5t-160.5 -73.5q-73 0 -115 39.5t-42 102.5zM342 181q0 30 -7.5 52.5t-24.5 39.5t-31 27t-39 24q-72 -32 -106 -81.5t-34 -103.5q0 -49 29 -81t79 -32q63 0 98.5 47.5t35.5 107.5z" />
    <glyph glyph-name="nine.taboldstyle" unicode="&#xf64c;" 
d="M24 -232l-12 26q262 81 330 344l-2 2q-62 -78 -147 -78q-66 0 -107.5 42t-41.5 121q0 93 75 173t177 80q68 0 109 -48.5t41 -135.5q0 -178 -114 -324.5t-308 -201.5zM122 244q0 -64 32.5 -97t76.5 -33q59 0 98 53.5t39 133.5q0 63 -31 97t-77 34q-66 0 -102 -57t-36 -131
z" />
    <glyph glyph-name="dollar.taboldstyle" unicode="&#xf653;" 
d="M289 733h37l-10 -60q83 0 134 -34l2 -10q-16 -57 -25 -115h-24v72q-14 17 -42.5 28.5t-52.5 13.5l-41 -257q80 -11 123.5 -43.5t43.5 -105.5q0 -88 -72.5 -157t-156.5 -76l-14 -102h-41l20 101q-121 14 -155 42q12 49 22 145h26v-90q32 -38 115 -53l44 273
q-71 14 -110.5 45.5t-39.5 97.5q0 87 59.5 145t148.5 78zM255 301l-43 -269q62 0 105 48.5t43 110.5q0 50 -25 74t-80 36zM234 377l40 251q-59 1 -97 -44t-38 -105q0 -79 95 -102z" />
    <glyph glyph-name="cent.taboldstyle" unicode="&#xf654;" 
d="M316 480l27 71h33l-27 -71q37 0 69 -22q-19 -81 -21 -128h-23v64q0 17 -44 33l-146 -382q13 -5 26 -5q74 0 169 75l7 -20l-60 -49q-69 -57 -163 -57l-34 -85h-32l35 94q-29 6 -47 31t-23.5 52t-5.5 57q0 97 48 196q21 43 53 68.5t86 53.5q38 20 73 24zM157 64l140 368
q-44 7 -82 -22q-5 -4 -10 -8.5t-8 -8t-6.5 -9t-5.5 -8.5t-5 -10.5l-4 -10t-4.5 -11.5t-4.5 -12q-14 -36 -25.5 -92t-11.5 -93q0 -56 27 -83z" />
    </font>
</defs>
</svg>
