<?xml version="1.0" standalone="no"?>
<!DOCTYPE svg PUBLIC "-//W3C//DTD SVG 1.1//EN" "http://www.w3.org/Graphics/SVG/1.1/DTD/svg11.dtd" >
<svg xmlns="http://www.w3.org/2000/svg" xmlns:xlink="http://www.w3.org/1999/xlink" version="1.1">
<metadata>
Created by FontForge 20161003 at Tue May  2 14:45:39 2017
 By www-data
(c) 1985, 1987, 1989, 1990, 1992, 1997, 1998, 1999, 2002 Adobe Systems Incorporated. All rights reserved.
</metadata>
<defs>
<font id="PalatinoLTStdRoman" horiz-adv-x="500" >
  <font-face 
    font-family="PalatinoLTStdRoman"
    font-weight="400"
    font-stretch="normal"
    units-per-em="1000"
    panose-1="2 4 5 2 5 5 5 3 3 4"
    ascent="726"
    descent="-274"
    x-height="459"
    cap-height="692"
    bbox="-166 -283 1021 927"
    underline-thickness="50"
    underline-position="-150"
    unicode-range="U+0020-FB02"
  />
<missing-glyph 
d="M0 0v700h500v-700h-500zM250 395l170 255h-340zM280 350l170 -255v510zM80 50h340l-170 255zM50 605v-510l170 255z" />
    <glyph glyph-name="f_i" unicode="fi" horiz-adv-x="605" 
d="M341 717v-77l-12 -6q-30 28 -66 28q-46 0 -59.5 -28t-13.5 -115v-85l121 4l-7 -53h-114v-283q0 -44 5 -58q6 -12 32 -14l52 -3v-30q-126 3 -131 3q-17 0 -125 -3v30l46 3q26 2 32 14q5 14 5 58v283l-69 -4v22l69 31v42q0 96 42 144l58 66q36 42 90 42q19 0 45 -11z
M504 462v-360q0 -44 5 -58q6 -12 32 -14l46 -3v-30q-108 3 -125 3t-125 -3v30l46 3q26 2 32 14q5 14 5 58v223q0 51 -7 62q-8 11 -37 11h-37v28q90 9 156 43zM466 687q22 0 39 -17t17 -39t-17 -38.5t-39 -16.5t-38.5 16.5t-16.5 38.5t16.5 39t38.5 17z" />
    <glyph glyph-name="f_l" unicode="fl" horiz-adv-x="608" 
d="M423 102v504q0 55 -25 55h-42v-21l-22 -6q-38 28 -71 28q-46 0 -59.5 -28t-13.5 -115v-85l131 4l-7 -53h-124v-283q0 -44 5 -58q6 -12 32 -14l52 -3v-30q-126 3 -131 3q-17 0 -125 -3v30l46 3q26 2 32 14q5 14 5 58v283l-69 -4v22l69 31v42q0 96 42 144l58 66
q36 42 90 42q7 0 60 -11v-28q91 19 142 37l9 -10v-614q0 -44 5 -58q6 -12 32 -14l46 -3v-30q-108 3 -125 3t-125 -3v30l46 3q26 2 32 14q5 14 5 58z" />
    <glyph glyph-name=".notdef" 
d="M0 0v700h500v-700h-500zM250 395l170 255h-340zM280 350l170 -255v510zM80 50h340l-170 255zM50 605v-510l170 255z" />
    <glyph glyph-name=".null" horiz-adv-x="0" 
 />
    <glyph glyph-name="nonmarkingreturn" horiz-adv-x="333" 
 />
    <glyph glyph-name="space" unicode=" " horiz-adv-x="250" 
 />
    <glyph glyph-name="exclam" unicode="!" horiz-adv-x="278" 
d="M138 -5q-23 0 -40 17.5t-17 40.5t17.5 40.5t39.5 17.5q23 0 41 -17.5t18 -40.5t-17.5 -40.5t-41.5 -17.5zM160 694h34v-25q0 -21 -2 -45t-5.5 -53t-4.5 -45l-24 -278v-25l-28 -23l-10 5q0 27 -2 40l-26 305q-3 33 -7 106z" />
    <glyph glyph-name="quotedbl" unicode="&#x22;" horiz-adv-x="371" 
d="M105 469h-20l-33 196v5q0 14 13.5 26.5t29.5 12.5t29.5 -12.5t13.5 -26.5v-5zM286 469h-20l-33 196v5q0 14 13.5 26.5t29.5 12.5t29.5 -12.5t13.5 -26.5v-5z" />
    <glyph glyph-name="numbersign" unicode="#" 
d="M470 280v-56h-109l-31 -224h-58l31 224h-134l-33 -224h-58l33 224h-107v56h116l21 139h-110v56h118l31 209h58l-31 -209h133l30 209h58l-30 -209h97v-56h-105l-20 -139h100zM332 419h-133l-21 -139h134z" />
    <glyph glyph-name="dollar" unicode="$" 
d="M223 18v279q-37 4 -62.5 9t-52 16t-42.5 27.5t-26 44t-10 64.5q0 87 52.5 142t140.5 66q-1 15 -2.5 37t-1.5 28h45q-2 -24 -4 -62q108 -8 166 -43q-13 -47 -13 -126h-32v42q0 24 -3 36q-6 24 -43.5 38.5t-74.5 16.5v-260q39 -4 65 -8.5t56.5 -15.5t48 -27.5t29.5 -45.5
t12 -68q0 -95 -61 -153t-150 -71q1 -19 2.5 -53.5t1.5 -46.5h-45q2 24 4 98q-92 0 -193 42q8 44 12 148h32v-64q0 -20 3 -26q13 -25 57.5 -43.5t88.5 -20.5zM260 292v-274q54 6 93 50t39 103q0 61 -33.5 87t-98.5 34zM223 379v251q-58 -4 -88 -41.5t-30 -95.5q0 -56 30 -82
t88 -32z" />
    <glyph glyph-name="percent" unicode="%" horiz-adv-x="840" 
d="M202 689q66 0 109.5 -43t43.5 -109q0 -72 -45.5 -120.5t-117.5 -48.5q-66 0 -109.5 43t-43.5 109q0 72 45.5 120.5t117.5 48.5zM199 666q-46 0 -67 -43t-21 -95q0 -137 83 -137q46 0 67.5 43.5t21.5 94.5q0 33 -5.5 60.5t-25.5 52t-53 24.5zM649 321q66 0 109.5 -43
t43.5 -109q0 -72 -45.5 -120.5t-117.5 -48.5q-66 0 -109.5 43t-43.5 109q0 72 45.5 120.5t117.5 48.5zM646 298q-46 0 -67 -43t-21 -95q0 -137 83 -137q46 0 67.5 43.5t21.5 94.5q0 33 -5.5 60.5t-25.5 52t-53 24.5zM250 -20h-40l366 729h40z" />
    <glyph glyph-name="ampersand" unicode="&#x26;" horiz-adv-x="778" 
d="M548 387l194 7q-12 -39 -12 -72q-44 8 -140 12q5 -16 5 -46q0 -83 -81 -170q109 -63 169 -63q24 0 64 19l6 -25l-87 -63q-8 -6 -30 -6h-10q-31 0 -88.5 25.5t-86.5 51.5q-94 -77 -199 -77q-94 0 -151.5 55t-57.5 138q0 130 155 214q-30 72 -30 130q0 68 24 89l68 60
q25 23 69 23t69.5 -24t25.5 -68q0 -101 -144 -200q78 -128 204 -256q48 61 48 108q0 30 -6.5 55t-16.5 29q-14 5 -91 11l33 45q52 -2 79 -2h18zM213 352q-41 -31 -62 -64.5t-21 -80.5q0 -68 49.5 -119.5t117.5 -51.5q60 0 123 46q-51 57 -78 88.5t-65 83t-64 98.5zM303 636
q-40 0 -52.5 -23.5t-12.5 -64.5q0 -44 26 -117q33 21 63 61.5t30 73.5q0 26 -14.5 48t-39.5 22z" />
    <glyph glyph-name="quotesingle" unicode="'" horiz-adv-x="208" 
d="M114 469h-20l-33 196v5q0 14 13.5 26.5t29.5 12.5t29.5 -12.5t13.5 -26.5v-5z" />
    <glyph glyph-name="parenleft" unicode="(" horiz-adv-x="333" 
d="M301 -194l-19 -21q-222 189 -222 482q0 276 222 459l19 -26q-155 -166 -155 -433q0 -290 155 -461z" />
    <glyph glyph-name="parenright" unicode=")" horiz-adv-x="333" 
d="M51 -215l-19 21q155 171 155 461q0 267 -155 433l19 26q222 -183 222 -459q0 -293 -222 -482z" />
    <glyph glyph-name="asterisk" unicode="*" horiz-adv-x="389" 
d="M168 514l-131 64l-3 10l44 52h10l95 -98l26 143l9 4l62 -19l3 -15l-69 -125l139 24l6 -4v-62l-9 -8l-138 20l68 -122v-10l-68 -26l-10 4l-18 142l-106 -88h-10l-36 51l5 9z" />
    <glyph glyph-name="plus" unicode="+" horiz-adv-x="606" 
d="M275 289v223h56v-223h224v-56h-224v-226h-56v226h-224v56h224z" />
    <glyph glyph-name="comma" unicode="," horiz-adv-x="250" 
d="M204 123l14 -14q-36 -102 -147 -245l-41 -19l-14 11q82 133 90 237q27 6 98 30z" />
    <glyph glyph-name="hyphen" unicode="-" horiz-adv-x="333" 
d="M282 215h-260l-5 5l27 67h263l5 -5z" />
    <glyph glyph-name="period" unicode="." horiz-adv-x="250" 
d="M124 -5q-23 0 -40 17.5t-17 40.5t17.5 40.5t39.5 17.5q23 0 41 -17.5t18 -40.5t-17.5 -40.5t-41.5 -17.5z" />
    <glyph glyph-name="slash" unicode="/" horiz-adv-x="606" 
d="M519 726l-372 -845h-60l372 845h60z" />
    <glyph glyph-name="zero" unicode="0" 
d="M238 -20q-106 5 -157.5 85t-51.5 255q0 369 237 369q199 0 199 -312q0 -397 -227 -397zM248 654h-7q-28 0 -50 -11.5t-35.5 -34.5t-22.5 -49t-13 -64t-5.5 -70.5t-1.5 -76.5q0 -78 6 -135t21 -103.5t43 -70.5t68 -24q34 0 58.5 18t38 44.5t21.5 68.5t10 79.5t2 87.5
q0 78 -5.5 135t-19 106t-40.5 74.5t-68 25.5z" />
    <glyph glyph-name="one" unicode="1" 
d="M67 555l-7 43q133 46 227 96l14 -5v-593q0 -41 13 -52q14 -12 52 -14l52 -3v-30q-36 0 -86.5 1.5t-72.5 1.5q-21 0 -73 -1.5t-90 -1.5v30l56 3q38 2 52 14q13 11 13 52v485q0 33 -8 33q-2 0 -3 -1l-129 -58h-10z" />
    <glyph glyph-name="two" unicode="2" 
d="M16 23l170 181q90 96 122.5 156t32.5 111q0 62 -36 101.5t-98 39.5q-54 0 -83 -17.5t-43 -65.5l-13 -46h-29q4 26 9.5 73t7.5 63q62 70 170 70q103 0 154 -53.5t51 -133.5q0 -59 -29 -109t-98 -123l-182 -193q59 0 346 10q-2 -30 -2 -45t2 -45q-27 0 -73 1t-83.5 1.5
t-71.5 0.5q-2 0 -224 -3v26z" />
    <glyph glyph-name="three" unicode="3" 
d="M43 498l29 124q60 67 162 67q84 0 134 -41t50 -111q0 -82 -110 -163q154 -22 154 -154q0 -92 -88.5 -166t-195.5 -74q-56 0 -128 26q-6 65 -35 147l27 10q22 -73 64.5 -107.5t115.5 -34.5q67 0 107 49t40 118q0 68 -33.5 107t-99.5 39q-34 0 -82 -22l-7 6l12 53
q5 0 14 -1t16 -1.5t14 -0.5q59 0 96 42t37 96q0 50 -35.5 83t-85.5 33q-38 0 -76.5 -21.5t-46.5 -46.5l-18 -56h-31z" />
    <glyph glyph-name="four" unicode="4" 
d="M280 181h-267l-11 23l283 463l74 27l12 -5q-7 -43 -7 -305v-139h27q41 0 81 3v-71q-31 4 -108 4v-75q0 -48 12.5 -60.5t47.5 -15.5l48 -3v-30q-18 0 -50 1t-58 1.5t-50 0.5q-3 0 -156 -3v30l62 3q35 2 47.5 15t12.5 61v75zM280 245v349h-2l-213 -349h215z" />
    <glyph glyph-name="five" unicode="5" 
d="M127 605l-9 -209q79 50 140 50q89 0 145 -52.5t56 -141.5q0 -113 -89.5 -192.5t-201.5 -79.5q-70 0 -106 24q-19 59 -49 133l24 14l46 -82q13 -22 48.5 -33t69.5 -11q84 0 128.5 47.5t44.5 127.5q0 81 -41.5 129t-114.5 48q-39 0 -65.5 -14.5t-57.5 -46.5l-20 6
q6 56 6 232q0 94 -2 130l5 5q97 -5 174 -5t174 5l5 -5q-2 -26 -2 -39q0 -14 2 -40l-5 -5q-138 0 -305 5z" />
    <glyph glyph-name="six" unicode="6" 
d="M242 -20q-73 0 -122 39.5t-68.5 97.5t-19.5 129q0 163 96 282.5t251 160.5l37 -17v-8q-132 -38 -201.5 -118t-83.5 -215q8 6 25 19.5t25 19t23 15t26.5 13.5t27.5 7.5t34 3.5q82 0 129 -52.5t47 -138.5q0 -103 -65.5 -170.5t-160.5 -67.5zM251 349q-36 0 -71.5 -20
t-48.5 -51q-8 -21 -8 -57v-13q0 -35 6 -66.5t20 -62t41 -48.5t64 -18q65 0 96.5 51.5t31.5 120.5q0 68 -32.5 116t-98.5 48z" />
    <glyph glyph-name="seven" unicode="7" 
d="M56 10l244 392q56 91 109 201h-267q-35 0 -45.5 -12.5t-15.5 -57.5l-7 -56h-30q3 102 3 104q0 15 -0.5 32t-1.5 38t-1 33l10 5q122 -5 221 -5q100 0 222 5v-30l-183 -329q-98 -178 -157 -333q-45 3 -46 3t-46 -3z" />
    <glyph glyph-name="eight" unicode="8" 
d="M259 689q74 0 125.5 -37.5t51.5 -108.5q0 -50 -33.5 -87t-89.5 -75q74 -33 112.5 -70.5t38.5 -104.5q0 -94 -71 -160t-165 -66q-85 0 -141.5 49t-56.5 133q0 62 39 110.5t99 72.5q-58 36 -86.5 72t-28.5 87q0 85 59.5 135t146.5 50zM284 295l-80 36q-103 -57 -103 -168
q0 -69 39 -109t107 -40q59 0 98.5 46t39.5 104q0 47 -31 80t-70 51zM223 423l55 -27q90 55 90 136q0 55 -32 89t-87 34q-56 0 -88.5 -30t-32.5 -85q0 -71 95 -117z" />
    <glyph glyph-name="nine" unicode="9" 
d="M96 -20l-34 17v8q130 30 212 119t86 216l-70 -58q-14 -11 -39.5 -18.5t-45.5 -7.5q-86 0 -135.5 57t-49.5 144q0 98 63.5 165t161.5 67q99 0 155.5 -73t56.5 -195q0 -159 -89 -275.5t-272 -165.5zM242 317q58 0 93 44t35 105q0 74 -30 132t-96 58h-3q-72 -1 -103.5 -49.5
t-31.5 -119.5q0 -68 35 -119t101 -51z" />
    <glyph glyph-name="colon" unicode=":" horiz-adv-x="250" 
d="M123 -5q-23 0 -40 17.5t-17 40.5t17.5 40.5t39.5 17.5q23 0 41 -17.5t18 -40.5t-17.5 -40.5t-41.5 -17.5zM123 340q-23 0 -40 17.5t-17 40.5t17.5 40.5t39.5 17.5q23 0 41 -17.5t18 -40.5t-17.5 -40.5t-41.5 -17.5z" />
    <glyph glyph-name="semicolon" unicode=";" horiz-adv-x="250" 
d="M204 125l14 -14q-36 -102 -147 -245l-41 -19l-14 11q82 133 90 237q27 6 98 30zM150 340q-23 0 -40 17.5t-17 40.5t17.5 40.5t39.5 17.5q23 0 41 -17.5t18 -40.5t-17.5 -40.5t-41.5 -17.5z" />
    <glyph glyph-name="less" unicode="&#x3c;" horiz-adv-x="606" 
d="M558 60v-60l-501 234v54l501 234v-60l-432 -203z" />
    <glyph glyph-name="equal" unicode="=" horiz-adv-x="606" 
d="M555 386v-56h-504v56h504zM555 192v-56h-504v56h504z" />
    <glyph glyph-name="greater" unicode="&#x3e;" horiz-adv-x="606" 
d="M48 60l432 199l-432 203v60l501 -234v-54l-501 -234v60z" />
    <glyph glyph-name="question" unicode="?" horiz-adv-x="444" 
d="M43 546l38 113q68 35 125 35q78 0 133.5 -41t55.5 -115q0 -45 -26.5 -82.5t-75.5 -81.5q-5 -5 -18.5 -17t-19 -17t-16.5 -15.5t-16 -16.5t-12.5 -15.5t-11 -16.5t-6 -15.5t-2.5 -16.5q0 -23 22 -49l-21 -14q-44 25 -44 73q0 21 13.5 46t25 38.5t38.5 43.5
q25 28 38.5 44.5t26 42.5t12.5 49q0 47 -34 78.5t-85 31.5q-73 0 -91 -42l-20 -48zM198 -5q-23 0 -40 17.5t-17 40.5t17.5 40.5t39.5 17.5q23 0 41 -17.5t18 -40.5t-17.5 -40.5t-41.5 -17.5z" />
    <glyph glyph-name="at" unicode="@" horiz-adv-x="747" 
d="M658 171h61q-46 -87 -133 -139t-186 -52q-157 0 -266.5 99t-109.5 250q0 154 105.5 259.5t262.5 105.5q133 0 232.5 -79.5t99.5 -205.5q0 -109 -75.5 -192t-157.5 -83q-35 0 -54.5 24.5t-21.5 59.5q-22 -28 -35.5 -42t-36.5 -25.5t-50 -11.5q-58 0 -96 41.5t-38 103.5
q0 84 65.5 154.5t150.5 70.5q37 0 59.5 -20.5t28.5 -55.5h2l17 66h88l-77 -279q-4 -16 -4 -27q0 -30 27 -30q49 0 102 73.5t53 170.5t-76 167t-196 70q-138 0 -229 -86.5t-91 -221.5t93.5 -220.5t232.5 -85.5q78 0 143.5 37.5t109.5 103.5zM309 166q41 0 74 48t47.5 102
t14.5 92q0 27 -13 50.5t-40 23.5q-41 0 -75.5 -43t-51.5 -95t-17 -90q0 -35 14.5 -61.5t46.5 -26.5z" />
    <glyph glyph-name="A" unicode="A" horiz-adv-x="778" 
d="M408 700l242 -568q25 -56 32 -68q18 -32 40 -34l34 -3v-30q-132 3 -133 3q-20 0 -66 -1.5t-67 -1.5v30l47 3q41 2 41 20q0 14 -21 64l-46 115h-288l-28 -67q-35 -82 -35 -104q0 -15 11 -20t37 -8l37 -3v-30q-20 0 -59.5 1.5t-55.5 1.5q-1 0 -115 -3v30l37 3q34 3 54 49
l178 405q72 162 92 216h32zM240 269h253l-126 298z" />
    <glyph glyph-name="B" unicode="B" horiz-adv-x="611" 
d="M113 95v474q0 61 -9 75q-7 12 -42 15l-36 3v30q20 0 73 -1.5t71 -1.5q33 0 98 1.5t95 1.5h8q75 0 123 -33t48 -105q0 -64 -50 -108t-117 -55v-2q86 -3 143.5 -42t57.5 -120q0 -39 -15 -77t-46 -73.5t-87.5 -57.5t-130.5 -22h-14q-13 0 -35 1t-40 1.5t-34 0.5
q-1 0 -109 -3v23l26 10q22 9 22 65zM208 362v-315q32 -8 84 -8q84 0 132.5 45.5t48.5 125.5q0 81 -49.5 117.5t-148.5 36.5q-31 0 -67 -2zM208 644v-243q36 -2 71 -2q72 0 118 32.5t46 102.5q0 67 -40 92.5t-111 25.5q-52 0 -84 -8z" />
    <glyph glyph-name="C" unicode="C" horiz-adv-x="709" 
d="M670 84l-28 -50q-41 -25 -104.5 -39.5t-113.5 -14.5q-182 0 -292 97.5t-110 266.5t122 269q116 96 289 96q115 0 231 -41q-19 -89 -19 -152h-31v72q0 19 -22 32.5t-64 29.5q-49 17 -112 17q-136 0 -211.5 -87t-75.5 -220q0 -148 90 -237t239 -89q53 0 110.5 17t92.5 43z
" />
    <glyph glyph-name="D" unicode="D" horiz-adv-x="774" 
d="M113 95v474q0 61 -9 75q-7 12 -42 15l-40 3v30q23 0 62.5 -1t72.5 -1.5t62 -0.5q42 0 174 3h13q152 0 248.5 -82.5t96.5 -222.5q0 -121 -61 -219t-154 -136q-87 -35 -195 -35h-19q-120 3 -129 3q-20 0 -42.5 -0.5t-50 -1.5t-43.5 -1v23l31 16q25 13 25 59zM208 644v-595
q32 -8 114 -8q102 0 163 29q159 74 159 289q0 90 -24 150t-70.5 90t-100 41.5t-127.5 11.5q-82 0 -114 -8z" />
    <glyph glyph-name="E" unicode="E" horiz-adv-x="611" 
d="M121 120v449q0 61 -9 75q-8 14 -42 15l-48 3v30q28 0 84 -2q14 0 42.5 -0.5t42.5 -0.5q47 0 129 1.5t107 1.5q71 0 129 -3q-16 -64 -16 -152h-35v65q0 24 -9 27q-56 21 -196 21q-52 0 -84 -8v-267q48 -3 116 -3q89 0 106 11q6 5 8 26l5 52h30q0 -7 -1.5 -50.5t-1.5 -65.5
q0 -3 3 -111h-30l-5 59q-2 21 -8 25q-17 12 -106 12q-85 0 -116 -3v-280q32 -8 84 -8q179 0 202 13q23 12 35 112h35q-16 -77 -16 -164q-114 -3 -166 -3h-31q-14 0 -97.5 1.5t-120.5 1.5q-17 0 -34.5 -0.5t-39 -1.5t-33.5 -1v30l36 3q35 3 42 15q9 14 9 75z" />
    <glyph glyph-name="F" unicode="F" horiz-adv-x="556" 
d="M216 327v-207q0 -61 9 -75q8 -14 42 -15l48 -3v-30q-78 3 -145 3q-70 0 -148 -3v30l48 3q34 1 42 15q9 14 9 75v449q0 61 -9 75q-8 14 -42 15l-48 3v30q28 0 84 -2q14 0 42.5 -0.5t42.5 -0.5q35 0 112 1.5t104 1.5q71 0 129 -3q-16 -64 -16 -152h-35v65q0 24 -9 27
q-56 21 -176 21q-52 0 -84 -8v-267q48 -3 116 -3q89 0 106 11q6 5 8 26l5 52h30q0 -7 -1.5 -50.5t-1.5 -65.5q0 -3 3 -111h-30l-5 59q-2 21 -8 25q-17 12 -106 12q-85 0 -116 -3z" />
    <glyph glyph-name="G" unicode="G" horiz-adv-x="763" 
d="M596 98v101q0 18 -7.5 26t-26.5 9l-83 7v30q82 -2 122 -2q41 0 123 2l4 -25l-29 -10q-8 -3 -9.5 -8.5t-1.5 -28.5v-168q-175 -51 -263 -51q-177 0 -290 93.5t-113 273.5q0 163 119 262.5t303 99.5q30 0 59 -2.5t49 -5t46 -8.5t36 -8.5t33 -9t25 -7.5q-20 -78 -20 -152
h-31v53q0 32 -20 48.5t-63 31.5q-52 18 -140 18q-139 0 -214 -83t-75 -220q0 -153 85.5 -247.5t236.5 -94.5q56 0 95.5 10.5t44.5 24.5t5 41z" />
    <glyph glyph-name="H" unicode="H" horiz-adv-x="832" 
d="M711 569v-449q0 -61 9 -75q8 -14 42 -15l48 -3v-30q-78 3 -145 3q-70 0 -148 -3v30l48 3q34 1 42 15q9 14 9 75v223q-24 2 -83 2h-234q-59 0 -83 -2v-223q0 -61 9 -75q8 -14 42 -15l48 -3v-30q-78 3 -145 3q-70 0 -148 -3v30l48 3q34 1 42 15q9 14 9 75v449q0 61 -9 75
q-8 14 -42 15l-48 3v30q78 -3 148 -3q67 0 145 3v-30l-48 -3q-34 -1 -42 -15q-9 -14 -9 -75v-178q24 -2 83 -2h234q59 0 83 2v178q0 61 -9 75q-8 14 -42 15l-48 3v30q78 -3 148 -3q67 0 145 3v-30l-48 -3q-34 -1 -42 -15q-9 -14 -9 -75z" />
    <glyph glyph-name="I" unicode="I" horiz-adv-x="337" 
d="M216 569v-449q0 -61 9 -75q8 -14 42 -15l48 -3v-30q-78 3 -145 3q-70 0 -148 -3v30l48 3q34 1 42 15q9 14 9 75v449q0 61 -9 75q-8 14 -42 15l-48 3v30q78 -3 148 -3q67 0 145 3v-30l-48 -3q-34 -1 -42 -15q-9 -14 -9 -75z" />
    <glyph glyph-name="J" unicode="J" horiz-adv-x="333" 
d="M212 569v-478q0 -38 -3 -65.5t-17.5 -67t-41.5 -72.5q-65 -80 -143 -80q-9 0 -17 2l-5 76l11 6q30 -19 70 -19q32 0 43 33q8 27 8 79v586q0 61 -9 75q-8 14 -42 15l-48 3v30q78 -3 148 -3q67 0 145 3v-30l-48 -3q-34 -1 -42 -15q-9 -14 -9 -75z" />
    <glyph glyph-name="K" unicode="K" horiz-adv-x="726" 
d="M216 325v-205q0 -61 9 -75q8 -14 42 -15l48 -3v-30q-78 3 -145 3q-70 0 -148 -3v30l48 3q34 1 42 15q9 14 9 75v449q0 61 -9 75q-8 14 -42 15l-48 3v30q78 -3 148 -3q67 0 145 3v-30l-48 -3q-34 -1 -42 -15q-9 -14 -9 -75v-214l278 271q29 29 29 39v27q7 0 39.5 -1.5
t49.5 -1.5q8 0 80 3v-30l-42 -2q-38 -1 -78 -38l-266 -240l330 -312q42 -39 62 -41l21 -2v-30q-57 3 -66 3q-14 0 -41.5 -1.5t-37.5 -1.5l-348 335z" />
    <glyph glyph-name="L" unicode="L" horiz-adv-x="611" 
d="M216 569v-522q32 -8 84 -8q201 0 221 19q7 7 21 64l12 50h32q-14 -128 -21 -172q-114 -3 -166 -3h-31q-35 0 -109 1.5t-109 1.5q-7 0 -85 -3v23l31 16q25 13 25 59v474q0 61 -9 75q-8 14 -42 15l-48 3v30q78 -3 148 -3q67 0 145 3v-30l-48 -3q-34 -1 -42 -15
q-9 -14 -9 -75z" />
    <glyph glyph-name="M" unicode="M" horiz-adv-x="946" 
d="M827 569v-449q0 -61 9 -75q8 -14 42 -15l48 -3v-30q-78 3 -145 3q-77 0 -134 -3v30l34 3q35 3 42 15q9 14 9 75v454h-2q-19 -34 -42 -82l-178 -378q-11 -24 -31 -71.5t-23 -55.5h-20l-277 587h-2v-454q0 -61 9 -75q7 -12 42 -15l44 -3v-30q-10 0 -53.5 1.5t-66.5 1.5
q-16 0 -35 -0.5t-43 -1.5t-38 -1v30l44 3q35 3 42 15q9 14 9 75v449q0 61 -9 75q-7 12 -42 15l-44 3v30q93 -3 95 -3t95 3l264 -556l262 556q11 0 30 -1t35 -1.5t30 -0.5q6 0 93 3v-30l-42 -3q-35 -3 -42 -15q-9 -14 -9 -75z" />
    <glyph glyph-name="N" unicode="N" horiz-adv-x="831" 
d="M112 120v449q0 61 -9 75q-7 12 -42 15l-44 3v30q11 0 55 -1.5t65 -1.5q8 0 17 0.5t20 1.5t17 1l478 -590h3v467q0 61 -9 75q-7 12 -42 15l-44 3v30q5 0 50 -1.5t66 -1.5q23 0 66.5 1.5t53.5 1.5v-30l-44 -3q-35 -3 -42 -15q-9 -14 -9 -75v-552q0 -1 3 -37l-90 16
l-471 585h-2v-461q0 -61 9 -75q7 -12 42 -15l44 -3v-30q-10 0 -53.5 1.5t-66.5 1.5q-16 0 -35 -0.5t-43 -1.5t-38 -1v30l44 3q35 3 42 15q9 14 9 75z" />
    <glyph glyph-name="O" unicode="O" horiz-adv-x="786" 
d="M377 -20q-155 0 -255 99.5t-100 264.5q0 158 102.5 261.5t273.5 103.5q165 0 265.5 -89.5t100.5 -252.5q0 -162 -111.5 -274.5t-275.5 -112.5zM382 667q-125 0 -189 -78.5t-64 -207.5q0 -68 16.5 -130.5t49 -114.5t88 -83t126.5 -31q121 0 184.5 85.5t63.5 228.5
q0 153 -69.5 242t-205.5 89z" />
    <glyph glyph-name="P" unicode="P" horiz-adv-x="604" 
d="M216 642v-522q0 -61 9 -75q8 -14 42 -15l48 -3v-30q-78 3 -145 3q-70 0 -148 -3v30l48 3q34 1 42 15q9 14 9 75v449q0 59 -10 73t-43 17l-45 3v30q16 0 81.5 -1.5t98.5 -1.5q8 0 170 3h7q81 0 140.5 -38.5t59.5 -114.5q0 -93 -70 -154t-170 -61q-30 0 -60 6l-10 36
q31 -10 66 -10q61 0 102.5 42.5t41.5 106.5q0 149 -162 149q-54 0 -102 -12z" />
    <glyph glyph-name="Q" unicode="Q" horiz-adv-x="786" 
d="M398 709q165 0 265.5 -89.5t100.5 -252.5q0 -155 -105 -267.5t-251 -117.5v-2q19 -2 40 -8t35 -11.5t38 -16t35 -14.5q89 -35 152 -35q28 0 56 6v-21l-84 -56q-56 10 -106 26l-148 46q-50 15 -80 15q-12 0 -26 -8l-59 -32l2 32q83 64 109 72l11 4v2h-6
q-160 0 -257.5 98.5t-97.5 268.5q0 156 102.5 258.5t273.5 102.5zM382 667q-125 0 -189 -78.5t-64 -207.5q0 -68 16.5 -130t49 -114t88 -83t126.5 -31q126 0 187 84t61 229q0 153 -69.5 242t-205.5 89z" />
    <glyph glyph-name="R" unicode="R" horiz-adv-x="668" 
d="M216 642v-522q0 -61 9 -75q8 -14 42 -15l48 -3v-30q-78 3 -145 3q-70 0 -148 -3v30l48 3q34 1 42 15q9 14 9 75v449q0 61 -9 75q-7 12 -42 15l-41 3v30q159 -3 170 -3q1 0 175 3h9q105 0 149 -43.5t44 -106.5q0 -76 -57 -126.5t-138 -66.5l227 -296q17 -22 61 -26v-30
q-6 0 -32.5 1.5t-39.5 1.5q-10 0 -21.5 -0.5t-25 -1.5t-21.5 -1q-7 10 -21.5 28t-19.5 26l-184 247q-9 13 -27.5 34t-24.5 28l6 12q9 -1 27 -1q26 0 61 5q55 9 92.5 47.5t37.5 92.5q0 74 -45 106t-113 32q-54 0 -102 -12z" />
    <glyph glyph-name="S" unicode="S" horiz-adv-x="525" 
d="M447 526h-32l-6 57q-2 21 -9.5 32.5t-34.5 27.5q-40 24 -109 24q-58 0 -103 -38.5t-45 -107.5q0 -53 37.5 -83.5t127.5 -40.5q116 -12 173 -48t57 -116q0 -82 -45.5 -141t-112 -85.5t-144.5 -26.5q-93 0 -171 38q7 44 7 115v38h32l8 -67q4 -31 53.5 -55.5t109.5 -24.5
q72 0 125.5 41.5t53.5 112.5q0 66 -45 95t-131 39q-118 13 -168.5 53t-50.5 118q0 73 40 126.5t96.5 76.5t119.5 23q73 0 181 -42q-14 -71 -14 -141z" />
    <glyph glyph-name="T" unicode="T" horiz-adv-x="613" 
d="M259 120v423q0 60 -4 100h-155q-22 0 -30 -7t-10 -26l-4 -79h-31q0 88 -7 161q36 0 108 -1.5t108 -1.5h145q36 0 108 2q18 0 54 0.5t54 0.5q-7 -73 -7 -161h-31l-4 79q-2 19 -10 26t-30 7h-155q-4 -40 -4 -100v-423q0 -61 9 -75q8 -14 42 -15l48 -3v-30q-78 3 -145 3
q-70 0 -148 -3v30l48 3q34 1 42 15q9 14 9 75z" />
    <glyph glyph-name="U" unicode="U" horiz-adv-x="778" 
d="M111 214v355q0 61 -9 75q-8 14 -42 15l-48 3v30q78 -3 148 -3q67 0 145 3v-30l-48 -3q-34 -1 -42 -15q-9 -14 -9 -75v-344q0 -102 50.5 -142.5t155.5 -40.5q206 0 206 207v320q0 61 -9 75q-7 12 -42 15l-44 3v30q5 0 50 -1.5t66 -1.5q23 0 66.5 1.5t53.5 1.5v-30l-44 -3
q-35 -3 -42 -15q-9 -14 -9 -75v-289q0 -161 -66 -230.5t-217 -69.5q-136 0 -203 51.5t-67 182.5z" />
    <glyph glyph-name="V" unicode="V" horiz-adv-x="722" 
d="M188 628l197 -507l183 473q9 22 9 36q0 27 -35 29l-52 3v30l108 -3q16 0 34 0.5t40 1.5t34 1v-30l-30 -3q-15 -1 -26.5 -17.5t-27.5 -54.5l-174 -421q-41 -98 -64 -175h-50q-19 68 -58 165l-188 462q-16 39 -44 41l-36 3v30q132 -3 133 -3t133 3v-30l-56 -3
q-32 -2 -32 -20q0 -7 2 -11z" />
    <glyph glyph-name="W" unicode="W" horiz-adv-x="1000" 
d="M613 197l-125 339l-174 -442q-26 -68 -36 -103h-50q-3 14 -23 103l-119 515q-7 29 -19 38.5t-31 11.5l-28 3v30q14 0 39.5 -1t46.5 -1.5t40 -0.5t40 0.5t46.5 1.5t39.5 1v-30l-42 -3q-12 -1 -19 -3t-12.5 -10t-5.5 -22t4 -31l99 -446h2l123 312q66 169 90 241h32
q6 -25 41 -126l155 -434h2l131 486q1 4 1 10q0 11 -10.5 16t-36.5 7l-40 3v30q12 0 33 -1t38.5 -1.5t33.5 -0.5l105 3v-30l-32 -3q-30 -3 -38 -29l-153 -538q-25 -90 -27 -101h-50q-12 43 -71 206z" />
    <glyph glyph-name="X" unicode="X" horiz-adv-x="667" 
d="M487 21l-168 282q-39 -55 -45 -64l-157 -242l-51 3q-1 0 -52 -3v30l26 3q7 1 14.5 4.5t12 6.5t11.5 10.5t9 10t9.5 13t8.5 11.5l189 255l-128 213q-52 87 -92 90l-45 3l-2 26l141 27q25 -13 57 -65l128 -216l185 270h101v-30l-41 -3q-19 -1 -64 -62q-3 -4 -4 -6
l-154 -208l176 -280q14 -23 21 -33t20.5 -23t24.5 -14l30 -3v-30q-8 0 -22.5 1t-26.5 1.5t-23 0.5q-1 0 -73 -3z" />
    <glyph glyph-name="Y" unicode="Y" horiz-adv-x="667" 
d="M220 602l143 -261l103 163q53 84 108 190h80v-15q-66 -77 -141.5 -184t-104.5 -171q-14 -30 -14 -75v-129q0 -61 9 -75q8 -14 42 -15l48 -3v-30q-78 3 -145 3q-70 0 -148 -3v30l48 3q34 1 42 15q9 14 9 75v142q0 25 -9 40l-124 216q-36 62 -71 94.5t-57 35.5l-29 3v29
l115 24q1 0 2.5 0.5t2.5 0.5q4 0 7.5 -1t7 -3.5t6.5 -4.5t7 -6.5t6 -6.5t6.5 -8t6.5 -8q27 -33 44 -65z" />
    <glyph glyph-name="Z" unicode="Z" horiz-adv-x="667" 
d="M637 663l-486 -619h273q114 0 141.5 11t32.5 61l6 57h34q-6 -66 -6 -176q-294 3 -305 3l-312 -3v28q8 10 43.5 52t53.5 65l302 388q66 84 86 118h-228q-67 0 -100 -5.5t-41.5 -14t-10.5 -27.5l-6 -71h-34q3 40 3 81t-3 81q396 -3 397 -3q23 0 49 0.5t58 1.5t49 1z" />
    <glyph glyph-name="bracketleft" unicode="[" horiz-adv-x="333" 
d="M88 14v514q0 14 -1 62t-2.5 78t-5.5 45l9 13q66 -2 97 -2q33 0 97 2l6 -6v-26l-4 -5h-38q-67 0 -70 -35q-4 -49 -4 -126v-514q0 -77 4 -126q3 -35 70 -35h38l4 -5v-26l-6 -6q-64 2 -97 2q-31 0 -97 -2l-9 13q4 15 5.5 45t2.5 78t1 62z" />
    <glyph glyph-name="backslash" unicode="\" horiz-adv-x="606" 
d="M81 726h59l372 -726h-59z" />
    <glyph glyph-name="bracketright" unicode="]" horiz-adv-x="333" 
d="M245 528v-514q0 -14 1 -62t2.5 -78t5.5 -45l-9 -13q-66 2 -97 2q-33 0 -97 -2l-6 6v26l4 5h38q67 0 70 35q4 49 4 126v514q0 77 -4 126q-3 35 -70 35h-38l-4 5v26l6 6q64 -2 97 -2q31 0 97 2l9 -13q-4 -15 -5.5 -45t-2.5 -78t-1 -62z" />
    <glyph glyph-name="asciicircum" unicode="^" horiz-adv-x="606" 
d="M119 283h-68l219 406h66l218 -406h-68l-183 338z" />
    <glyph glyph-name="underscore" unicode="_" 
d="M0 -75h500v-50h-500v50z" />
    <glyph glyph-name="grave" unicode="`" horiz-adv-x="333" 
d="M215 506l-144 90q-12 7 -18.5 11.5t-14 14t-7.5 20.5q0 15 9 25t24 10q20 0 53 -33l138 -138h-40z" />
    <glyph glyph-name="a" unicode="a" 
d="M225 270l99 18v3q0 59 -31.5 92t-94.5 33q-32 0 -46 -4t-24 -17q-5 -6 -17 -33l-13 -31l-26 7v65l53 32q56 34 116 34q92 0 127.5 -44.5t35.5 -154.5v-183q0 -27 3 -43q3 -13 25 -15l39 -2v-30l-75 3q-12 0 -24.5 -0.5t-28 -1.5t-24.5 -1l5 85l-124 -86q-11 -8 -46 -8
q-54 0 -88 31.5t-34 89.5q0 41 16 70.5t47 47t60 26.5t70 17zM324 124v132q-88 -12 -146 -35q-26 -10 -43 -38t-17 -56q0 -37 23 -59.5t55 -22.5q35 0 96 46q20 15 32 33z" />
    <glyph glyph-name="b" unicode="b" horiz-adv-x="553" 
d="M150 718v-347h2l53 54q19 20 53.5 32t67.5 12q85 0 133.5 -58t48.5 -146q0 -50 -23 -104.5t-56 -78.5l-100 -72q-30 -22 -91 -22q-74 0 -124 36l-40 -36l-16 6q0 7 1.5 21t2.5 22l4 116v467q0 41 -25 41h-56v28q102 15 156 37zM150 308v-215q0 -16 42.5 -35t79.5 -19
q64 0 106.5 50t42.5 144q0 72 -35 121.5t-104 49.5q-53 0 -92.5 -34t-39.5 -62z" />
    <glyph glyph-name="c" unicode="c" horiz-adv-x="444" 
d="M399 311h-28l-7 61q-7 16 -42 30.5t-62 14.5q-62 0 -104 -37t-42 -126q0 -111 53.5 -166.5t133.5 -55.5q53 0 102 29l10 -15l-21 -32q-7 -10 -48.5 -22t-90.5 -12q-94 0 -160.5 62t-66.5 169q0 64 25.5 112.5t60.5 74.5q37 28 85 48q53 23 96 23q65 0 120 -35
q-14 -52 -14 -123z" />
    <glyph glyph-name="d" unicode="d" horiz-adv-x="611" 
d="M412 437v183q0 41 -25 41h-56v28q102 15 156 37l9 -8v-616q0 -44 5 -58q6 -12 32 -14l46 -3v-30q-18 0 -48 1.5t-43 1.5q-12 0 -24.5 -0.5t-28 -1.5t-24.5 -1l5 92l-111 -93q-10 -8 -64 -8q-101 0 -153.5 64t-52.5 167q0 65 27 114.5t67 70.5l88 46q36 19 74 19
q49 0 121 -32zM412 221v129q0 17 -48 44.5t-90 27.5h-3q-76 -2 -112.5 -46.5t-36.5 -136.5q0 -77 41.5 -135.5t114.5 -58.5q59 0 109 63q25 32 25 91v22z" />
    <glyph glyph-name="e" unicode="e" horiz-adv-x="479" 
d="M253 436q-58 0 -95 -40t-37 -113v-13q52 -6 127 -6q58 0 111 3q0 74 -27 121.5t-79 47.5zM258 469q83 0 136.5 -50t53.5 -133q0 -28 -2 -42q-84 -14 -181 -14h-146q0 -91 46 -144t135 -53q22 0 46.5 8t37.5 15.5t40 23.5l13 -10l-20 -34q-7 -12 -61 -34t-99 -22
q-110 0 -170.5 63.5t-60.5 167.5q0 135 72 191q35 28 62 40q59 27 98 27z" />
    <glyph glyph-name="f" unicode="f" horiz-adv-x="333" 
d="M341 717v-77l-12 -6q-30 28 -66 28q-46 0 -59.5 -28t-13.5 -115v-85l131 4l-7 -53h-124v-283q0 -44 5 -58q6 -12 32 -14l46 -3v-30q-108 3 -125 3t-125 -3v30l46 3q26 2 32 14q5 14 5 58v283l-69 -4v22l69 31v42q0 96 42 144l58 66q36 42 90 42q19 0 45 -11z" />
    <glyph glyph-name="g" unicode="g" horiz-adv-x="556" 
d="M519 378h-92q11 -25 11 -56q0 -79 -67 -124q-68 -48 -140 -48q-7 0 -21 2q-2 -2 -16.5 -14.5t-22 -22t-7.5 -19.5q0 -40 76 -40h160q61 0 89.5 -38.5t28.5 -85.5q0 -85 -75 -150t-196 -65q-92 0 -153.5 42t-61.5 108q0 55 28 80l87 47q-66 18 -66 59q0 22 15 42l77 59v2
q-14 0 -32 7t-38.5 21t-34 42t-13.5 64q0 87 76 136q66 43 145 43q76 0 122 -42l142 4l4 -12zM354 290q0 61 -28.5 103t-86.5 42q-48 0 -74 -33t-26 -85q0 -64 31.5 -98.5t81.5 -34.5q44 0 73 30t29 76zM254 -252q81 0 133 43.5t52 104.5q0 47 -30 68.5t-111 21.5
q-61 0 -106 -4q-26 -3 -55 -32.5t-29 -72.5q0 -62 41.5 -95.5t104.5 -33.5z" />
    <glyph glyph-name="h" unicode="h" horiz-adv-x="582" 
d="M88 102v518q0 41 -25 41h-56v28q102 15 156 37l9 -8v-338h2l74 64q29 25 81 25q165 0 165 -174v-193q0 -44 5 -58q6 -12 32 -14l41 -3v-30q-75 3 -82 3q-11 0 -80 -3v284q0 61 -31.5 94t-83.5 33q-45 0 -84 -31t-39 -63v-212q0 -44 5 -58q6 -12 32 -14l45 -3v-30
q-105 3 -124 3t-124 -3v30l45 3q26 2 32 14q5 14 5 58z" />
    <glyph glyph-name="i" unicode="i" horiz-adv-x="291" 
d="M188 465v-363q0 -44 5 -58q6 -12 32 -14l46 -3v-30q-108 3 -125 3t-125 -3v30l46 3q26 2 32 14q5 14 5 58v225q0 51 -7 62q-8 11 -37 11h-37v28q80 8 156 41zM141 687q22 0 39 -17t17 -39t-17 -38.5t-39 -16.5t-38.5 16.5t-16.5 38.5t16.5 39t38.5 17z" />
    <glyph glyph-name="j" unicode="j" horiz-adv-x="234" 
d="M159 465v-484q0 -122 -53 -189q-60 -75 -134 -75l-12 38q15 -3 34 -3q13 0 28.5 11.5t26.5 31.5q26 49 26 198v334q0 51 -7 62q-8 11 -37 11h-37v28q80 8 156 41zM112 577q-22 0 -39 17t-17 39t17 38.5t39 16.5t38.5 -16.5t16.5 -38.5t-16.5 -39t-38.5 -17z" />
    <glyph glyph-name="k" unicode="k" horiz-adv-x="556" 
d="M104 102v518q0 41 -25 41h-56v28q102 15 156 37l9 -8v-457l73 59q58 47 150 139h100v-30h-5q-42 0 -103 -47l-129 -101q20 -24 64 -68l126 -125q48 -48 85 -48v-23l-96 -29l-265 252v-138q0 -44 5 -58q6 -12 32 -14l44 -3v-30q-102 3 -123 3q-17 0 -125 -3v30l46 3
q26 2 32 14q5 14 5 58z" />
    <glyph glyph-name="l" unicode="l" horiz-adv-x="291" 
d="M104 102v518q0 41 -25 41h-56v28q102 15 156 37l9 -8v-616q0 -44 5 -58q6 -12 32 -14l46 -3v-30q-108 3 -125 3t-125 -3v30l46 3q26 2 32 14q5 14 5 58z" />
    <glyph glyph-name="m" unicode="m" horiz-adv-x="883" 
d="M99 102v225q0 51 -7 62q-8 11 -37 11h-37v28q80 8 156 41l9 -4v-85l69 64q28 25 88 25q98 0 137 -93l76 68q29 25 88 25q62 0 103 -43t41 -118v-206q0 -44 5 -58q6 -12 32 -14l47 -3v-30q-11 0 -29 1t-32.5 1.5t-26.5 0.5q-11 0 -80 -3v284q0 54 -24 90.5t-70 36.5
q-45 0 -84 -31t-39 -63v-212q0 -44 5 -58q6 -12 32 -14l46 -3v-30q-108 3 -125 3t-125 -3v30l46 3q26 2 32 14q5 14 5 58v179q0 54 -24 90.5t-70 36.5q-45 0 -84 -31t-39 -63v-212q0 -44 5 -58q6 -12 32 -14l42 -3v-30q-96 3 -121 3q-17 0 -125 -3v30l46 3q26 2 32 14
q5 14 5 58z" />
    <glyph glyph-name="n" unicode="n" horiz-adv-x="582" 
d="M172 314v-212q0 -44 5 -58q6 -12 32 -14l45 -3v-30q-105 3 -124 3t-124 -3v30l45 3q26 2 32 14q5 14 5 58v225q0 51 -7 62q-8 11 -37 11h-37v28q80 8 156 41l9 -4v-85h2l74 64q29 25 81 25q165 0 165 -174v-193q0 -44 5 -58q6 -12 32 -14l41 -3v-30q-75 3 -82 3
q-11 0 -80 -3v284q0 61 -31.5 94t-83.5 33q-45 0 -84 -31t-39 -63z" />
    <glyph glyph-name="o" unicode="o" horiz-adv-x="546" 
d="M252 -20h-7q-92 0 -152.5 66.5t-60.5 167.5q0 115 68 185t187 70q96 0 161.5 -66t65.5 -162q0 -115 -73.5 -188t-188.5 -73zM264 436q-74 0 -106.5 -50t-32.5 -129q0 -43 8.5 -83t26.5 -77.5t51.5 -60.5t79.5 -23q64 0 97 53.5t33 130.5q0 100 -43.5 169.5t-113.5 69.5z
" />
    <glyph glyph-name="p" unicode="p" horiz-adv-x="601" 
d="M91 -176v503q0 51 -7 62q-8 11 -37 11h-37v28q80 8 156 41l9 -4v-94h2l80 73q28 25 94 25q82 0 142.5 -57.5t60.5 -146.5q0 -47 -30 -108.5t-57 -78.5l-114 -74q-25 -16 -69 -16q-71 0 -109 25v-189q0 -44 5 -58q6 -12 32 -14l46 -3v-30q-108 3 -125 3t-125 -3v30l46 3
q26 2 32 14q5 14 5 58zM175 301v-203q51 -59 142 -59q62 0 106 56t44 140q0 74 -40 121.5t-116 47.5q-89 0 -131 -76q-5 -9 -5 -27z" />
    <glyph glyph-name="q" unicode="q" horiz-adv-x="560" 
d="M393 -176v242l-104 -66q-17 -12 -49 -12h-7q-104 6 -151 67.5t-47 146.5q0 134 97 196l84 54q30 17 75 17q72 0 141 -33l49 31l19 -11q-23 -46 -23 -138v-494q0 -44 5 -58q6 -12 32 -14l46 -3v-30q-108 3 -125 3q-22 0 -44.5 -0.5t-49 -1.5t-43.5 -1v30l58 3q26 2 32 14
q5 14 5 58zM393 120v261q-43 41 -127 41q-56 0 -100 -41.5t-44 -127.5q0 -40 8 -75t25 -66t48.5 -49t73.5 -18q37 0 76.5 27.5t39.5 47.5z" />
    <glyph glyph-name="r" unicode="r" horiz-adv-x="395" 
d="M104 102v225q0 51 -7 62q-8 11 -37 11h-37v28q80 8 156 41l9 -4v-101h2l54 64q34 41 84 41q31 0 46 -11l-9 -120h-21q-21 46 -68 46q-34 0 -61 -32t-27 -78v-172q0 -44 5 -58q6 -12 42 -14l52 -3v-30q-12 0 -62 1.5t-79 1.5q-17 0 -125 -3v30l46 3q26 2 32 14q5 14 5 58z
" />
    <glyph glyph-name="s" unicode="s" horiz-adv-x="424" 
d="M41 143h30v-41q0 -43 39 -64t90 -21q48 0 82.5 25.5t34.5 65.5q0 24 -12.5 42t-35.5 24q-121 30 -147 40q-85 32 -85 109q0 75 54.5 110.5t133.5 35.5q59 0 129 -25q-3 -37 -5 -113h-28v23q0 37 -35 59.5t-81 22.5q-98 0 -98 -81q0 -32 26 -50.5t83 -28.5q93 -16 134 -44
t41 -84q0 -78 -65.5 -123t-155.5 -45q-71 0 -140 24q11 48 11 139z" />
    <glyph glyph-name="t" unicode="t" horiz-adv-x="326" 
d="M98 382l-76 -4v21l78 35v70q0 43 -4 79q50 15 85 38l12 -11q-11 -81 -11 -142v-38l137 6l-9 -54h-128v-262q0 -36 12 -52.5t43 -16.5q26 0 59 19l13 -17l-48 -53q-11 -12 -65 -12q-98 0 -98 106v288z" />
    <glyph glyph-name="u" unicode="u" horiz-adv-x="603" 
d="M503 465v-363q0 -44 5 -58q6 -12 32 -14l41 -3v-30q-75 3 -82 3q-6 0 -84 -3q4 56 4 92l-67 -62q-44 -39 -112 -39q-41 0 -69 11t-42 25t-21 41t-8 44t-1 50v168q0 51 -7 62q-8 11 -37 11h-37v28q80 8 156 41l9 -4v-295q0 -64 22 -92.5t87 -28.5q47 0 87 38.5t40 76.5
v163q0 51 -7 62q-8 11 -37 11h-37v28q80 8 156 41z" />
    <glyph glyph-name="v" unicode="v" horiz-adv-x="565" 
d="M452 362l-118 -260q-10 -21 -23 -58.5t-18 -50.5h-50l-172 403q-12 27 -23 31q-4 2 -8 2l-34 2v28l117 -3q17 0 36.5 0.5t43 1.5t36.5 1v-28l-49 -2q-25 -2 -25 -21q0 -14 9 -36l119 -288q47 103 62 140l42 106q19 47 19 72q0 26 -24 27l-41 2v28q93 -3 94 -3t94 3v-28
l-31 -2q-26 -2 -56 -67z" />
    <glyph glyph-name="w" unicode="w" horiz-adv-x="834" 
d="M290 185l123 284h23q9 -29 29 -81l115 -290q44 112 48 124l50 140q7 18 7 33q0 33 -39 34l-34 2v28q11 0 31 -1t36 -1.5t31 -0.5t31 0.5t36 1.5t31 1v-28l-26 -2q-16 -1 -30 -21t-34 -66l-68 -156q-12 -27 -23.5 -59.5t-24.5 -72t-21 -61.5h-46l-136 342
q-4 -9 -23.5 -49.5t-28.5 -62.5l-98 -230h-47l-102 336q-19 60 -32.5 79t-33.5 21l-28 2v28q13 0 37.5 -1t44 -1.5t37.5 -0.5t37.5 0.5t44 1.5t37.5 1v-28l-40 -2q-20 -2 -29 -7.5t-9 -19.5q0 -10 4 -22l84 -276q6 12 12 25.5t13 30t11 25.5z" />
    <glyph glyph-name="x" unicode="x" horiz-adv-x="516" 
d="M288 254l148 -200q16 -21 35 -24l25 -3v-30q-60 3 -61 3q-2 0 -62 -3q-9 7 -26 33l-107 162l-74 -98q-13 -17 -35 -53.5t-25 -40.5h-86v27h17q17 0 30 15l149 176l-120 174q-18 26 -50 29l-21 2l-5 26l116 20q44 -44 60 -69l76 -116l124 175h82v-28h-14q-24 0 -34 -11z
" />
    <glyph glyph-name="y" unicode="y" horiz-adv-x="556" 
d="M297 86l119 292q6 15 6 24q0 24 -42 27l-26 2v28q11 0 30 -1t35 -1.5t30 -0.5t30 0.5t35 1.5t30 1v-28l-28 -2q-18 -2 -37 -28.5t-47 -92.5l-203 -468q-27 -62 -60.5 -92.5t-91.5 -30.5q-26 0 -50 15l24 75h13q23 -23 49 -23h2q20 1 37.5 14t32.5 37.5t21.5 38.5t17.5 41
l23 61l-165 404q-11 27 -22.5 37t-29.5 12l-18 2v28q13 0 36.5 -1t43 -1.5t36.5 -0.5t36.5 0.5t43 1.5t36.5 1v-28l-38 -2q-33 -2 -33 -26q0 -17 9 -39z" />
    <glyph glyph-name="z" unicode="z" 
d="M455 432l-314 -397h135q136 0 142 25l18 79h30q-2 -16 -6 -45t-6.5 -52.5t-2.5 -44.5q-309 3 -310 3q-18 0 -37.5 -0.5t-44 -1.5t-37.5 -1l-6 20q60 68 90 105l170 212q40 50 65 90h-143q-55 0 -74 -5t-22 -21l-12 -68h-30q0 7 4.5 56.5t4.5 75.5q255 -3 280 -3
q1 0 106 3v-30z" />
    <glyph glyph-name="braceleft" unicode="{" horiz-adv-x="333" 
d="M206 128v-173q0 -57 18.5 -88.5t64.5 -41.5q-88 0 -121.5 31t-33.5 127v168q0 57 -14.5 82.5t-61.5 39.5q45 14 60.5 40.5t15.5 78.5v186q0 88 36.5 118t118.5 30q-47 -14 -65 -44.5t-18 -86.5v-186q0 -61 -16 -91.5t-65 -43.5v-2q50 -13 65.5 -45.5t15.5 -98.5z" />
    <glyph glyph-name="bar" unicode="|" horiz-adv-x="606" 
d="M275 750h56v-1000h-56v1000z" />
    <glyph glyph-name="braceright" unicode="}" horiz-adv-x="333" 
d="M127 -45v173q0 66 15.5 98.5t65.5 45.5v2q-49 13 -65 43.5t-16 91.5v186q0 56 -18 86.5t-65 44.5q82 0 118.5 -30t36.5 -118v-186q0 -52 15.5 -78.5t60.5 -40.5q-47 -14 -61.5 -39.5t-14.5 -82.5v-168q0 -96 -33.5 -127t-121.5 -31q46 10 64.5 41.5t18.5 88.5z" />
    <glyph glyph-name="asciitilde" unicode="~" horiz-adv-x="606" 
d="M520 347l35 -40q-58 -109 -141 -109q-28 0 -135 44q-64 26 -87 26q-19 0 -35 -7.5t-30 -24.5t-21 -27t-20 -33l-35 40q30 53 62 84.5t80 31.5q35 0 117 -35q85 -36 105 -36q32 0 60 26t45 60z" />
    <glyph glyph-name="uni00A0" unicode="&#xa0;" horiz-adv-x="250" 
 />
    <glyph glyph-name="exclamdown" unicode="&#xa1;" horiz-adv-x="278" 
d="M115 -225h-34v25q0 21 2 45t5.5 53t4.5 45l24 278v25l28 23l10 -5q0 -27 2 -40l26 -305q3 -33 7 -106zM138 353q-23 0 -40 17.5t-17 40.5t17.5 40.5t39.5 17.5q23 0 41 -17.5t18 -40.5t-17.5 -40.5t-41.5 -17.5z" />
    <glyph glyph-name="cent" unicode="&#xa2;" 
d="M347 411l-106 -353q38 -22 84 -22q49 0 114 28l9 -11l-20 -33q-65 -34 -138 -34q-40 0 -69 5l-28 -92h-41l32 104q-61 28 -92 84t-31 126q0 152 102 203l80 40q29 14 82 14l27 92h40l-27 -92q39 0 80 -26q-11 -64 -11 -117v-13h-28l-9 66q-16 18 -50 31zM208 84l101 335
q-22 5 -38 5q-55 0 -88 -43t-33 -128q0 -118 58 -169z" />
    <glyph glyph-name="sterling" unicode="&#xa3;" 
d="M374 360l-4 -48q-120 4 -181 5q-4 -122 -94 -248q48 7 103 7q45 0 206 -7h3q16 0 21.5 8.5t8.5 28.5l7 52h26v-148q-23 -20 -40 -20q-112 0 -189 19q-75 18 -162 23l-45 -45h-22v49q16 16 48 32q8 4 18.5 28t20 76t9.5 114v30l-96 -3l8 45q13 0 27.5 -0.5t32.5 -1.5
t28 -1v106q0 33 18 77q13 33 44 61.5t88 61.5t119 33t101 -26q-10 -48 -10 -105q0 -21 1 -31h-33q0 53 -12.5 77.5t-49.5 33.5q-16 4 -44 4q-40 0 -69 -19t-43 -51t-20 -64.5t-6 -69.5v-89q30 1 91 3t91 3z" />
    <glyph glyph-name="currency" unicode="&#xa4;" 
d="M77 531l48 -48q48 41 125 41t125 -41l48 48l47 -47l-49 -49q42 -42 42 -123q0 -74 -42 -122l49 -49l-45 -45l-48 48q-47 -42 -127 -42t-127 42l-48 -48l-45 45l49 49q-42 48 -42 122q0 81 42 123l-49 49zM250 465q-63 0 -108.5 -45t-45.5 -108q0 -62 45.5 -106.5
t108.5 -44.5t108.5 44.5t45.5 106.5q0 63 -45.5 108t-108.5 45z" />
    <glyph glyph-name="yen" unicode="&#xa5;" 
d="M334 382h122v-39h-139q-17 -38 -17 -65v-32h156v-39h-156v-87q0 -60 8 -75q7 -14 36 -15l41 -3v-30q-67 3 -125 3q-67 0 -118 -3v30l41 3q29 1 36 15q8 15 8 75v87h-156v39h156v16q0 20 -6 31l-21 50h-129v39h111l-75 160q-32 71 -54 91q-19 18 -40 18q-2 0 -4.5 -0.5
t-3.5 -0.5v29l92 21q3 1 10 1q28 0 43 -34q2 -3 25 -65l104 -261l70 163q40 92 77 190h70v-15q-65 -90 -130 -229z" />
    <glyph glyph-name="brokenbar" unicode="&#xa6;" horiz-adv-x="606" 
d="M275 675h56v-350h-56v350zM275 175h56v-350h-56v350z" />
    <glyph glyph-name="section" unicode="&#xa7;" 
d="M403 521h-31l-5 87q-53 49 -123 49q-57 0 -96 -33t-39 -90q0 -19 9 -35.5t22 -27t36 -21.5t41 -17.5t48 -15.5q15 -5 22 -7q41 -13 66.5 -23.5t54.5 -29t43 -44.5t14 -60q0 -80 -78 -142q60 -29 60 -107q0 -81 -75.5 -152t-167.5 -71q-89 0 -160 44q9 84 12 157h32l5 -90
q28 -32 61 -45.5t84 -13.5q61 0 103.5 31.5t42.5 89.5q0 37 -28.5 64.5t-53.5 37.5t-86 30q-7 3 -11 4q-35 11 -54 18t-46.5 21t-42 28.5t-25.5 37t-11 50.5q0 39 23.5 76.5t59.5 60.5q-58 39 -58 103q0 88 67.5 156t159.5 68q80 0 138 -36q-12 -77 -13 -152zM135 369
q-43 -37 -43 -90q0 -57 110 -100q25 -9 84 -28t79 -28q34 51 34 89q0 37 -24 60t-69 41q-25 10 -84.5 27t-86.5 29z" />
    <glyph glyph-name="dieresis" unicode="&#xa8;" horiz-adv-x="333" 
d="M67 687q22 0 39 -17t17 -39t-17 -38.5t-39 -16.5t-38.5 16.5t-16.5 38.5t16.5 39t38.5 17zM266 687q22 0 39 -17t17 -39t-17 -38.5t-39 -16.5t-38.5 16.5t-16.5 38.5t16.5 39t38.5 17z" />
    <glyph glyph-name="copyright" unicode="&#xa9;" horiz-adv-x="747" 
d="M371 706q151 0 258 -106t107 -256t-107 -256t-257 -106q-148 0 -254.5 106t-106.5 255t106 256t254 107zM371 662q-130 0 -223 -94t-93 -225t93.5 -224t223.5 -93q132 0 226 93t94 225t-94.5 225t-226.5 93zM527 522v-107h-26q-1 51 -28.5 79t-79.5 28q-71 0 -109 -50
t-38 -123q0 -71 39.5 -127t107.5 -56q87 0 123 77l21 -9q-18 -46 -64 -72.5t-99 -26.5q-88 0 -142 58t-54 147q0 93 57 150.5t151 57.5q65 0 141 -26z" />
    <glyph glyph-name="ordfeminine" unicode="&#xaa;" horiz-adv-x="333" 
d="M150 590l64 10v3q0 74 -82 74q-35 0 -45 -12q-3 -3 -11 -20l-9 -19l-17 4v39l35 20q35 20 75 20q108 0 108 -95q0 -6 -2 -24v-102q0 -29 3 -35q4 -7 21 -9l20 -1v-17q-9 0 -25 1t-24 1q-9 0 -25 -1t-25 -1l3 51l-81 -52q-5 -3 -30 -3q-35 0 -57 18t-22 53q0 25 10.5 42.5
t31 28t39 16t45.5 10.5zM214 502v79q-56 -7 -95 -21q-17 -6 -28 -22.5t-11 -33.5q0 -22 15 -35t36 -13t62 26q11 7 21 20z" />
    <glyph glyph-name="guillemotleft" unicode="&#xab;" 
d="M331 248l119 -162l-23 -15q-11 12 -34.5 34.5t-31.5 30.5l-110 106v12q11 11 31 30t36.5 35t31.5 31l77 78l23 -13q-13 -15 -30 -40zM130 248l119 -162l-23 -15q-11 12 -34.5 34.5t-31.5 30.5l-110 106v12q11 11 31 30t36.5 35t31.5 31l77 78l23 -13q-13 -15 -30 -40z
" />
    <glyph glyph-name="logicalnot" unicode="&#xac;" horiz-adv-x="606" 
d="M495 120v210h-444v56h500v-266h-56z" />
    <glyph glyph-name="uni00AD" unicode="&#xad;" horiz-adv-x="333" 
d="M282 215h-260l-5 5l27 67h263l5 -5z" />
    <glyph glyph-name="registered" unicode="&#xae;" horiz-adv-x="747" 
d="M371 706q151 0 258 -106t107 -256t-107 -256t-257 -106q-148 0 -254.5 106t-106.5 255t106 256t254 107zM371 662q-130 0 -223 -94t-93 -225t93.5 -224t223.5 -93q132 0 226 93t94 225t-94.5 225t-226.5 93zM205 554h156q31 0 54 -3t48.5 -12.5t39 -30.5t13.5 -53
q0 -45 -32 -71.5t-79 -32.5v-2q47 -5 87 -103q20 -48 32 -60q13 -13 39 -13v-16h-41q-33 0 -48 12q-17 13 -42 76q-28 68 -41 81q-14 14 -47 14h-35v-129q0 -21 5 -28.5t23 -8.5l21 -1v-16h-152v16h16q19 0 25.5 5.5t6.5 25.5v303q0 18 -7.5 23t-24.5 6l-17 1v17zM309 492
v-132h27q124 0 124 90q0 42 -25 63.5t-69 21.5h-29q-18 0 -23 -8.5t-5 -26.5v-8z" />
    <glyph glyph-name="macron" unicode="&#xaf;" horiz-adv-x="333" 
d="M323 538h-312v53h312v-53z" />
    <glyph glyph-name="degree" unicode="&#xb0;" horiz-adv-x="400" 
d="M350 539q0 -62 -44 -106t-106 -44t-106 44t-44 106v2q0 61 44 104.5t106 43.5t106 -44.5t44 -105.5zM310 539q0 45 -32.5 77.5t-78.5 32.5q-44 0 -76.5 -32t-32.5 -76v-2q0 -46 32 -78t78 -32q45 0 77.5 32t32.5 78z" />
    <glyph glyph-name="plusminus" unicode="&#xb1;" horiz-adv-x="606" 
d="M275 339v173h56v-173h224v-56h-224v-170h-56v170h-224v56h224zM555 0h-504v56h504v-56z" />
    <glyph glyph-name="twosuperior" unicode="&#xb2;" horiz-adv-x="300" 
d="M200 438l-115 -109h122q52 0 94 5q-1 -12 -1 -33q0 -19 1 -28q-14 0 -70 1.5t-85 1.5q-22 0 -46 -0.5t-54 -1.5t-46 -1v20l108 104q61 59 80.5 93t19.5 68q0 38 -21.5 60t-61.5 22q-56 0 -73 -47l-13 -35h-24q3 18 6.5 47t5.5 42q39 42 110 42q68 0 103.5 -32t35.5 -80
q0 -66 -76 -139z" />
    <glyph glyph-name="threesuperior" unicode="&#xb3;" horiz-adv-x="300" 
d="M27 578l19 71q39 40 105 40q55 0 87.5 -24.5t32.5 -66.5q0 -49 -72 -97q100 -13 100 -92q0 -61 -55 -102t-129 -41q-35 0 -88 16q-1 13 -26 94l31 8q14 -47 41 -66.5t70 -19.5q39 0 64.5 26.5t25.5 65.5t-21 60t-60 21q-35 0 -53 -13l-10 4l10 43q7 0 17 -0.5t15 -0.5
q34 0 57 23.5t23 52.5q0 26 -21 44.5t-51 18.5q-34 0 -58 -18.5t-29 -46.5h-25z" />
    <glyph glyph-name="acute" unicode="&#xb4;" horiz-adv-x="333" 
d="M78 506l138 138q33 33 53 33q15 0 24 -10t9 -25q0 -11 -7.5 -20.5t-14 -14t-18.5 -11.5l-144 -90h-40z" />
    <glyph glyph-name="mu" unicode="&#xb5;" horiz-adv-x="574" 
d="M562 25q-77 -12 -153 -40l-12 3l1 87l-61 -53q-41 -36 -98 -36q-40 0 -69.5 18.5t-38.5 48.5q1 -50 2.5 -122.5t1.5 -86.5q0 -26 -12 -43t-36 -17q-36 0 -36 29v2q0 3 9 39q36 140 36 321v151q0 51 -10.5 62.5t-55.5 11.5h-11v28q92 12 154 42l10 -6l-3 -168v-122
q0 -127 100 -127q48 0 83 35t35 83v171q0 42 -10 53t-54 11h-11v28q81 11 150 42l12 -6q-3 -144 -3 -202v-76q0 -103 5 -119q6 -16 37 -16q2 0 38 2v-28z" />
    <glyph glyph-name="paragraph" unicode="&#xb6;" horiz-adv-x="628" 
d="M280 382v273q-4 1 -14 1q-44 0 -80 -33t-36 -101q0 -54 37.5 -92.5t92.5 -47.5zM589 694v-30l-32 -3q-38 -4 -50.5 -19.5t-12.5 -67.5v-601q0 -59 10 -73t43 -17l42 -3v-30q-144 3 -202 3q-67 0 -202 -3v30l42 3q33 3 43 17t10 73v372q-52 0 -105.5 21t-94.5 68t-41 108
q0 64 47.5 108t136.5 44h18q97 -5 175 -5q80 0 173 5zM421 655h-68v-775h68v775z" />
    <glyph glyph-name="periodcentered" unicode="&#xb7;" horiz-adv-x="250" 
d="M124 203q-23 0 -40 17.5t-17 40.5t17.5 40.5t39.5 17.5q23 0 41 -17.5t18 -40.5t-17.5 -40.5t-41.5 -17.5z" />
    <glyph glyph-name="cedilla" unicode="&#xb8;" horiz-adv-x="333" 
d="M141 -108l39 97l37 1l-25 -65q12 4 29 4q35 0 59 -18t24 -52q0 -44 -37 -64t-85 -20q-34 0 -86 16l14 31q40 -11 61 -11q28 0 43 9.5t15 36.5q0 16 -12.5 26t-27.5 10q-17 0 -41 -7z" />
    <glyph glyph-name="onesuperior" unicode="&#xb9;" horiz-adv-x="300" 
d="M130 379v238q0 19 -5 19h-2l-81 -34h-7l-4 32q23 8 76.5 27.5t84.5 30.5l10 -3q-8 -112 -8 -204v-106q0 -51 7.5 -65.5t34.5 -14.5h33v-26q-29 1 -64 2t-48 1q-14 0 -47.5 -1.5t-58.5 -1.5v26h36q27 0 35 14.5t8 65.5z" />
    <glyph glyph-name="ordmasculine" unicode="&#xba;" horiz-adv-x="333" 
d="M176 709q62 0 104.5 -39.5t42.5 -97.5q0 -69 -48 -112.5t-122 -43.5q-62 0 -102.5 39t-40.5 101q0 69 44.5 111t121.5 42zM161 689q-48 0 -69.5 -30t-21.5 -77q0 -57 25 -101.5t79 -44.5q41 0 65 32.5t24 77.5q0 60 -28.5 101.5t-73.5 41.5z" />
    <glyph glyph-name="guillemotright" unicode="&#xbb;" 
d="M251 86l119 162l-89 127q-17 25 -30 40l23 13l77 -78q15 -15 31.5 -31t36.5 -35t31 -30v-12l-110 -106q-8 -8 -31.5 -30.5t-34.5 -34.5zM50 86l119 162l-89 127q-17 25 -30 40l23 13l77 -78q15 -15 31.5 -31t36.5 -35t31 -30v-12l-110 -106q-8 -8 -31.5 -30.5
t-34.5 -34.5z" />
    <glyph glyph-name="onequarter" unicode="&#xbc;" horiz-adv-x="750" 
d="M595 107h-173l-5 15q24 44 27 50l158 228l49 16l9 -3q-5 -90 -5 -183v-77h20q16 0 52 2v-51q-20 3 -70 3v-36q0 -49 44 -49h21v-25q-58 3 -100 3q-38 0 -107 -3v25h21q31 0 45 10t14 39v36zM595 153v189h-2l-127 -189h129zM208 0h-52l451 689h52zM129 379v238q0 19 -5 19
h-2l-81 -34h-7l-4 32q23 8 76.5 27.5t84.5 30.5l10 -3q-8 -112 -8 -204v-106q0 -51 7.5 -65.5t34.5 -14.5h33v-26q-29 1 -64 2t-48 1q-14 0 -47.5 -1.5t-58.5 -1.5v26h36q27 0 35 14.5t8 65.5z" />
    <glyph glyph-name="onehalf" unicode="&#xbd;" horiz-adv-x="750" 
d="M174 0h-52l451 689h52zM114 379v238q0 19 -5 19h-2l-81 -34h-7l-4 32q23 8 76.5 27.5t84.5 30.5l10 -3q-8 -112 -8 -204v-106q0 -51 7.5 -65.5t34.5 -14.5h33v-26q-29 1 -64 2t-48 1q-14 0 -47.5 -1.5t-58.5 -1.5v26h36q27 0 35 14.5t8 65.5zM634 162l-115 -109h122
q52 0 94 5q-1 -12 -1 -33q0 -19 1 -28q-14 0 -70 1.5t-85 1.5q-22 0 -46 -0.5t-54 -1.5t-46 -1v20l108 104q61 59 80.5 93t19.5 68q0 38 -21.5 60t-61.5 22q-56 0 -73 -47l-13 -35h-24q3 18 6.5 47t5.5 42q39 42 110 42q68 0 103.5 -32t35.5 -80q0 -66 -76 -139z" />
    <glyph glyph-name="threequarters" unicode="&#xbe;" horiz-adv-x="750" 
d="M41 578l19 71q39 40 105 40q55 0 87.5 -24.5t32.5 -66.5q0 -49 -72 -97q100 -13 100 -92q0 -61 -55 -102t-129 -41q-35 0 -88 16q-1 13 -26 94l31 8q14 -47 41 -66.5t70 -19.5q39 0 64.5 26.5t25.5 65.5t-21 60t-60 21q-35 0 -53 -13l-10 4l10 43q7 0 17 -0.5t15 -0.5
q34 0 57 23.5t23 52.5q0 26 -21 44.5t-51 18.5q-34 0 -58 -18.5t-29 -46.5h-25zM217 0h-52l451 689h52zM603 153v189h-2l-127 -189h129zM603 107h-173l-5 15q24 44 27 50l158 228l49 16l9 -3q-5 -90 -5 -183v-77h20q16 0 52 2v-51q-20 3 -70 3v-36q0 -49 44 -49h21v-25
q-58 3 -100 3q-38 0 -107 -3v25h21q31 0 45 10t14 39v36z" />
    <glyph glyph-name="questiondown" unicode="&#xbf;" horiz-adv-x="444" 
d="M395 -83l-38 -113q-68 -35 -125 -35q-78 0 -133.5 41t-55.5 115q0 45 26.5 82.5t75.5 81.5q5 5 18.5 17t19 17t16.5 15.5t16 16.5t12.5 15.5t11 16.5t6 15.5t2.5 16.5q0 23 -22 49l21 14q44 -25 44 -73q0 -21 -13.5 -46t-25 -38.5t-38.5 -43.5q-25 -28 -38.5 -44.5
t-26 -42.5t-12.5 -49q0 -47 34 -78.5t85 -31.5q73 0 91 42l20 48zM241 353q-23 0 -40 17.5t-17 40.5t17.5 40.5t39.5 17.5q23 0 41 -17.5t18 -40.5t-17.5 -40.5t-41.5 -17.5z" />
    <glyph glyph-name="Agrave" unicode="&#xc0;" horiz-adv-x="778" 
d="M408 700l242 -568q25 -56 32 -68q18 -32 40 -34l34 -3v-30q-132 3 -133 3q-20 0 -66 -1.5t-67 -1.5v30l47 3q41 2 41 20q0 14 -21 64l-46 115h-288l-28 -67q-35 -82 -35 -104q0 -15 11 -20t37 -8l37 -3v-30q-20 0 -59.5 1.5t-55.5 1.5q-1 0 -115 -3v30l37 3q34 3 54 49
l178 405q72 162 92 216h32zM240 269h253l-126 298zM430 737l-144 90q-12 7 -18.5 11.5t-14 14t-7.5 20.5q0 15 9 25t24 10q20 0 53 -33l138 -138h-40z" />
    <glyph glyph-name="Aacute" unicode="&#xc1;" horiz-adv-x="778" 
d="M408 700l242 -568q25 -56 32 -68q18 -32 40 -34l34 -3v-30q-132 3 -133 3q-20 0 -66 -1.5t-67 -1.5v30l47 3q41 2 41 20q0 14 -21 64l-46 115h-288l-28 -67q-35 -82 -35 -104q0 -15 11 -20t37 -8l37 -3v-30q-20 0 -59.5 1.5t-55.5 1.5q-1 0 -115 -3v30l37 3q34 3 54 49
l178 405q72 162 92 216h32zM240 269h253l-126 298zM307 737l138 138q33 33 53 33q15 0 24 -10t9 -25q0 -11 -7.5 -20.5t-14 -14t-18.5 -11.5l-144 -90h-40z" />
    <glyph glyph-name="Acircumflex" unicode="&#xc2;" horiz-adv-x="778" 
d="M408 700l242 -568q25 -56 32 -68q18 -32 40 -34l34 -3v-30q-132 3 -133 3q-20 0 -66 -1.5t-67 -1.5v30l47 3q41 2 41 20q0 14 -21 64l-46 115h-288l-28 -67q-35 -82 -35 -104q0 -15 11 -20t37 -8l37 -3v-30q-20 0 -59.5 1.5t-55.5 1.5q-1 0 -115 -3v30l37 3q34 3 54 49
l178 405q72 162 92 216h32zM240 269h253l-126 298zM359 908h62l125 -167h-35l-121 103l-121 -103h-35z" />
    <glyph glyph-name="Atilde" unicode="&#xc3;" horiz-adv-x="778" 
d="M408 700l242 -568q25 -56 32 -68q18 -32 40 -34l34 -3v-30q-132 3 -133 3q-20 0 -66 -1.5t-67 -1.5v30l47 3q41 2 41 20q0 14 -21 64l-46 115h-288l-28 -67q-35 -82 -35 -104q0 -15 11 -20t37 -8l37 -3v-30q-20 0 -59.5 1.5t-55.5 1.5q-1 0 -115 -3v30l37 3q34 3 54 49
l178 405q72 162 92 216h32zM240 269h253l-126 298zM526 871h29q0 -31 -26 -64q-32 -41 -80 -41q-15 0 -27.5 3t-20 6t-22.5 10t-23 11q-32 15 -49 15q-36 0 -53 -45h-29q8 45 36.5 72.5t72.5 27.5q24 0 76 -25q46 -20 56 -20h4q24 3 35 14t21 36z" />
    <glyph glyph-name="Adieresis" unicode="&#xc4;" horiz-adv-x="778" 
d="M408 700l242 -568q25 -56 32 -68q18 -32 40 -34l34 -3v-30q-132 3 -133 3q-20 0 -66 -1.5t-67 -1.5v30l47 3q41 2 41 20q0 14 -21 64l-46 115h-288l-28 -67q-35 -82 -35 -104q0 -15 11 -20t37 -8l37 -3v-30q-20 0 -59.5 1.5t-55.5 1.5q-1 0 -115 -3v30l37 3q34 3 54 49
l178 405q72 162 92 216h32zM240 269h253l-126 298zM290 868q22 0 39 -17t17 -39t-17 -38.5t-39 -16.5t-38.5 16.5t-16.5 38.5t16.5 39t38.5 17zM489 868q22 0 39 -17t17 -39t-17 -38.5t-39 -16.5t-38.5 16.5t-16.5 38.5t16.5 39t38.5 17z" />
    <glyph glyph-name="Aring" unicode="&#xc5;" horiz-adv-x="778" 
d="M408 700l242 -568q25 -56 32 -68q18 -32 40 -34l34 -3v-30q-132 3 -133 3q-20 0 -66 -1.5t-67 -1.5v30l47 3q41 2 41 20q0 14 -21 64l-46 115h-288l-28 -67q-35 -82 -35 -104q0 -15 11 -20t37 -8l37 -3v-30q-20 0 -59.5 1.5t-55.5 1.5q-1 0 -115 -3v30l37 3q34 3 54 49
l178 405q72 162 92 216h32zM240 269h253l-126 298zM390 891q-28 0 -45 -17.5t-17 -46.5t17 -46.5t45 -17.5t45 17.5t17 46.5t-17 46.5t-45 17.5zM390 927q41 0 70.5 -29t29.5 -69v-4q0 -40 -29.5 -69t-70.5 -29t-70.5 29t-29.5 69v4q0 40 29.5 69t70.5 29z" />
    <glyph glyph-name="AE" unicode="&#xc6;" horiz-adv-x="944" 
d="M450 655l-208 -372h220v372h-12zM76 87l289 512q19 36 19 49q0 7 -54 11l-44 3v30q79 0 155 -2q20 0 48.5 -0.5t37.5 -0.5q47 0 129 1.5t107 1.5q71 0 129 -3q-16 -64 -16 -152h-35v65q0 24 -9 27q-56 21 -196 21q-52 0 -84 -8v-267q48 -3 116 -3q89 0 106 11q6 5 8 26
l5 52h30q0 -7 -1.5 -50.5t-1.5 -65.5q0 -3 3 -111h-30l-5 59q-2 21 -8 25q-17 12 -106 12q-85 0 -116 -3v-280q32 -8 84 -8q179 0 202 13q23 12 35 112h35q-16 -77 -16 -164q-114 -3 -166 -3h-31q-19 1 -57.5 1t-57.5 1q-37 1 -103 1l-69 -3v23l28 16q26 15 26 84v122
q-14 0 -38.5 1t-45 1.5t-38.5 0.5t-38.5 -0.5t-45 -1.5t-38.5 -1l-64 -114q-28 -50 -28 -70q0 -24 53 -28l36 -3v-30q-75 3 -100 3q-22 0 -65.5 -1.5t-59.5 -1.5v30l34 5q23 4 52 55z" />
    <glyph glyph-name="Ccedilla" unicode="&#xc7;" horiz-adv-x="709" 
d="M433 709q115 0 231 -41q-19 -89 -19 -152h-31v72q0 19 -22 32.5t-64 29.5q-49 17 -112 17q-136 0 -211.5 -87t-75.5 -220q0 -148 90 -237t239 -89q53 0 110.5 17t92.5 43l9 -10l-28 -50q-38 -23 -96.5 -37t-107.5 -16l-22 -56q12 4 29 4q35 0 59 -18t24 -52
q0 -44 -37 -64t-85 -20q-34 0 -86 16l14 31q40 -11 61 -11q28 0 43 9.5t15 36.5q0 16 -12.5 26t-27.5 10q-17 0 -41 -7l-7 6l38 89q-174 6 -277.5 103t-103.5 260q0 169 122 269q116 96 289 96z" />
    <glyph glyph-name="Egrave" unicode="&#xc8;" horiz-adv-x="611" 
d="M121 120v449q0 61 -9 75q-8 14 -42 15l-48 3v30q28 0 84 -2q14 0 42.5 -0.5t42.5 -0.5q47 0 129 1.5t107 1.5q71 0 129 -3q-16 -64 -16 -152h-35v65q0 24 -9 27q-56 21 -196 21q-52 0 -84 -8v-267q48 -3 116 -3q89 0 106 11q6 5 8 26l5 52h30q0 -7 -1.5 -50.5t-1.5 -65.5
q0 -3 3 -111h-30l-5 59q-2 21 -8 25q-17 12 -106 12q-85 0 -116 -3v-280q32 -8 84 -8q179 0 202 13q23 12 35 112h35q-16 -77 -16 -164q-114 -3 -166 -3h-31q-14 0 -97.5 1.5t-120.5 1.5q-17 0 -34.5 -0.5t-39 -1.5t-33.5 -1v30l36 3q35 3 42 15q9 14 9 75zM354 737l-144 90
q-12 7 -18.5 11.5t-14 14t-7.5 20.5q0 15 9 25t24 10q20 0 53 -33l138 -138h-40z" />
    <glyph glyph-name="Eacute" unicode="&#xc9;" horiz-adv-x="611" 
d="M121 120v449q0 61 -9 75q-8 14 -42 15l-48 3v30q28 0 84 -2q14 0 42.5 -0.5t42.5 -0.5q47 0 129 1.5t107 1.5q71 0 129 -3q-16 -64 -16 -152h-35v65q0 24 -9 27q-56 21 -196 21q-52 0 -84 -8v-267q48 -3 116 -3q89 0 106 11q6 5 8 26l5 52h30q0 -7 -1.5 -50.5t-1.5 -65.5
q0 -3 3 -111h-30l-5 59q-2 21 -8 25q-17 12 -106 12q-85 0 -116 -3v-280q32 -8 84 -8q179 0 202 13q23 12 35 112h35q-16 -77 -16 -164q-114 -3 -166 -3h-31q-14 0 -97.5 1.5t-120.5 1.5q-17 0 -34.5 -0.5t-39 -1.5t-33.5 -1v30l36 3q35 3 42 15q9 14 9 75zM217 737l138 138
q33 33 53 33q15 0 24 -10t9 -25q0 -11 -7.5 -20.5t-14 -14t-18.5 -11.5l-144 -90h-40z" />
    <glyph glyph-name="Ecircumflex" unicode="&#xca;" horiz-adv-x="611" 
d="M121 120v449q0 61 -9 75q-8 14 -42 15l-48 3v30q28 0 84 -2q14 0 42.5 -0.5t42.5 -0.5q47 0 129 1.5t107 1.5q71 0 129 -3q-16 -64 -16 -152h-35v65q0 24 -9 27q-56 21 -196 21q-52 0 -84 -8v-267q48 -3 116 -3q89 0 106 11q6 5 8 26l5 52h30q0 -7 -1.5 -50.5t-1.5 -65.5
q0 -3 3 -111h-30l-5 59q-2 21 -8 25q-17 12 -106 12q-85 0 -116 -3v-280q32 -8 84 -8q179 0 202 13q23 12 35 112h35q-16 -77 -16 -164q-114 -3 -166 -3h-31q-14 0 -97.5 1.5t-120.5 1.5q-17 0 -34.5 -0.5t-39 -1.5t-33.5 -1v30l36 3q35 3 42 15q9 14 9 75zM275 908h62
l125 -167h-35l-121 103l-121 -103h-35z" />
    <glyph glyph-name="Edieresis" unicode="&#xcb;" horiz-adv-x="611" 
d="M121 120v449q0 61 -9 75q-8 14 -42 15l-48 3v30q28 0 84 -2q14 0 42.5 -0.5t42.5 -0.5q47 0 129 1.5t107 1.5q71 0 129 -3q-16 -64 -16 -152h-35v65q0 24 -9 27q-56 21 -196 21q-52 0 -84 -8v-267q48 -3 116 -3q89 0 106 11q6 5 8 26l5 52h30q0 -7 -1.5 -50.5t-1.5 -65.5
q0 -3 3 -111h-30l-5 59q-2 21 -8 25q-17 12 -106 12q-85 0 -116 -3v-280q32 -8 84 -8q179 0 202 13q23 12 35 112h35q-16 -77 -16 -164q-114 -3 -166 -3h-31q-14 0 -97.5 1.5t-120.5 1.5q-17 0 -34.5 -0.5t-39 -1.5t-33.5 -1v30l36 3q35 3 42 15q9 14 9 75zM206 868
q22 0 39 -17t17 -39t-17 -38.5t-39 -16.5t-38.5 16.5t-16.5 38.5t16.5 39t38.5 17zM405 868q22 0 39 -17t17 -39t-17 -38.5t-39 -16.5t-38.5 16.5t-16.5 38.5t16.5 39t38.5 17z" />
    <glyph glyph-name="Igrave" unicode="&#xcc;" horiz-adv-x="337" 
d="M216 569v-449q0 -61 9 -75q8 -14 42 -15l48 -3v-30q-78 3 -145 3q-70 0 -148 -3v30l48 3q34 1 42 15q9 14 9 75v449q0 61 -9 75q-8 14 -42 15l-48 3v30q78 -3 148 -3q67 0 145 3v-30l-48 -3q-34 -1 -42 -15q-9 -14 -9 -75zM217 737l-144 90q-12 7 -18.5 11.5t-14 14
t-7.5 20.5q0 15 9 25t24 10q20 0 53 -33l138 -138h-40z" />
    <glyph glyph-name="Iacute" unicode="&#xcd;" horiz-adv-x="337" 
d="M216 569v-449q0 -61 9 -75q8 -14 42 -15l48 -3v-30q-78 3 -145 3q-70 0 -148 -3v30l48 3q34 1 42 15q9 14 9 75v449q0 61 -9 75q-8 14 -42 15l-48 3v30q78 -3 148 -3q67 0 145 3v-30l-48 -3q-34 -1 -42 -15q-9 -14 -9 -75zM80 737l138 138q33 33 53 33q15 0 24 -10t9 -25
q0 -11 -7.5 -20.5t-14 -14t-18.5 -11.5l-144 -90h-40z" />
    <glyph glyph-name="Icircumflex" unicode="&#xce;" horiz-adv-x="337" 
d="M216 569v-449q0 -61 9 -75q8 -14 42 -15l48 -3v-30q-78 3 -145 3q-70 0 -148 -3v30l48 3q34 1 42 15q9 14 9 75v449q0 61 -9 75q-8 14 -42 15l-48 3v30q78 -3 148 -3q67 0 145 3v-30l-48 -3q-34 -1 -42 -15q-9 -14 -9 -75zM138 908h62l125 -167h-35l-121 103l-121 -103
h-35z" />
    <glyph glyph-name="Idieresis" unicode="&#xcf;" horiz-adv-x="337" 
d="M216 569v-449q0 -61 9 -75q8 -14 42 -15l48 -3v-30q-78 3 -145 3q-70 0 -148 -3v30l48 3q34 1 42 15q9 14 9 75v449q0 61 -9 75q-8 14 -42 15l-48 3v30q78 -3 148 -3q67 0 145 3v-30l-48 -3q-34 -1 -42 -15q-9 -14 -9 -75zM69 868q22 0 39 -17t17 -39t-17 -38.5
t-39 -16.5t-38.5 16.5t-16.5 38.5t16.5 39t38.5 17zM268 868q22 0 39 -17t17 -39t-17 -38.5t-39 -16.5t-38.5 16.5t-16.5 38.5t16.5 39t38.5 17z" />
    <glyph glyph-name="Eth" unicode="&#xd0;" horiz-adv-x="774" 
d="M113 95v251h-99v36h99v187q0 61 -9 75q-7 12 -42 15l-40 3v30q23 0 62.5 -1t72.5 -1.5t62 -0.5q42 0 174 3h13q152 0 248.5 -82.5t96.5 -222.5q0 -116 -61 -218.5t-154 -136.5q-2 -1 -12 -4.5t-13.5 -4.5t-13.5 -4.5t-15.5 -5t-16.5 -4t-18.5 -4t-19.5 -3.5t-23 -3
t-24 -1.5t-27 -0.5h-13q-20 0 -70.5 1.5t-76.5 1.5q-20 0 -42.5 -0.5t-50 -1.5t-43.5 -1v23l31 16q25 13 25 59zM208 644v-262h184v-36h-184v-297q32 -8 114 -8q102 0 155 25q167 78 167 293q0 90 -24 150t-70.5 90t-100 41.5t-127.5 11.5q-82 0 -114 -8z" />
    <glyph glyph-name="Ntilde" unicode="&#xd1;" horiz-adv-x="831" 
d="M112 120v449q0 61 -9 75q-7 12 -42 15l-44 3v30q11 0 55 -1.5t65 -1.5q8 0 17 0.5t20 1.5t17 1l478 -590h3v467q0 61 -9 75q-7 12 -42 15l-44 3v30q5 0 50 -1.5t66 -1.5q23 0 66.5 1.5t53.5 1.5v-30l-44 -3q-35 -3 -42 -15q-9 -14 -9 -75v-552q0 -1 3 -37l-90 16
l-471 585h-2v-461q0 -61 9 -75q7 -12 42 -15l44 -3v-30q-10 0 -53.5 1.5t-66.5 1.5q-16 0 -35 -0.5t-43 -1.5t-38 -1v30l44 3q35 3 42 15q9 14 9 75zM552 871h29q0 -31 -26 -64q-32 -41 -80 -41q-15 0 -27.5 3t-20 6t-22.5 10t-23 11q-32 15 -49 15q-36 0 -53 -45h-29
q8 45 36.5 72.5t72.5 27.5q24 0 76 -25q46 -20 56 -20h4q24 3 35 14t21 36z" />
    <glyph glyph-name="Ograve" unicode="&#xd2;" horiz-adv-x="786" 
d="M377 -20q-155 0 -255 99.5t-100 264.5q0 158 102.5 261.5t273.5 103.5q165 0 265.5 -89.5t100.5 -252.5q0 -162 -111.5 -274.5t-275.5 -112.5zM382 667q-125 0 -189 -78.5t-64 -207.5q0 -68 16.5 -130.5t49 -114.5t88 -83t126.5 -31q121 0 184.5 85.5t63.5 228.5
q0 153 -69.5 242t-205.5 89zM442 737l-144 90q-12 7 -18.5 11.5t-14 14t-7.5 20.5q0 15 9 25t24 10q20 0 53 -33l138 -138h-40z" />
    <glyph glyph-name="Oacute" unicode="&#xd3;" horiz-adv-x="786" 
d="M377 -20q-155 0 -255 99.5t-100 264.5q0 158 102.5 261.5t273.5 103.5q165 0 265.5 -89.5t100.5 -252.5q0 -162 -111.5 -274.5t-275.5 -112.5zM382 667q-125 0 -189 -78.5t-64 -207.5q0 -68 16.5 -130.5t49 -114.5t88 -83t126.5 -31q121 0 184.5 85.5t63.5 228.5
q0 153 -69.5 242t-205.5 89zM305 737l138 138q33 33 53 33q15 0 24 -10t9 -25q0 -11 -7.5 -20.5t-14 -14t-18.5 -11.5l-144 -90h-40z" />
    <glyph glyph-name="Ocircumflex" unicode="&#xd4;" horiz-adv-x="786" 
d="M377 -20q-155 0 -255 99.5t-100 264.5q0 158 102.5 261.5t273.5 103.5q165 0 265.5 -89.5t100.5 -252.5q0 -162 -111.5 -274.5t-275.5 -112.5zM382 667q-125 0 -189 -78.5t-64 -207.5q0 -68 16.5 -130.5t49 -114.5t88 -83t126.5 -31q121 0 184.5 85.5t63.5 228.5
q0 153 -69.5 242t-205.5 89zM363 908h62l125 -167h-35l-121 103l-121 -103h-35z" />
    <glyph glyph-name="Otilde" unicode="&#xd5;" horiz-adv-x="786" 
d="M377 -20q-155 0 -255 99.5t-100 264.5q0 158 102.5 261.5t273.5 103.5q165 0 265.5 -89.5t100.5 -252.5q0 -162 -111.5 -274.5t-275.5 -112.5zM382 667q-125 0 -189 -78.5t-64 -207.5q0 -68 16.5 -130.5t49 -114.5t88 -83t126.5 -31q121 0 184.5 85.5t63.5 228.5
q0 153 -69.5 242t-205.5 89zM530 883h29q0 -31 -26 -64q-32 -41 -80 -41q-15 0 -27.5 3t-20 6t-22.5 10t-23 11q-32 15 -49 15q-36 0 -53 -45h-29q8 45 36.5 72.5t72.5 27.5q24 0 76 -25q46 -20 56 -20h4q24 3 35 14t21 36z" />
    <glyph glyph-name="Odieresis" unicode="&#xd6;" horiz-adv-x="786" 
d="M377 -20q-155 0 -255 99.5t-100 264.5q0 158 102.5 261.5t273.5 103.5q165 0 265.5 -89.5t100.5 -252.5q0 -162 -111.5 -274.5t-275.5 -112.5zM382 667q-125 0 -189 -78.5t-64 -207.5q0 -68 16.5 -130.5t49 -114.5t88 -83t126.5 -31q121 0 184.5 85.5t63.5 228.5
q0 153 -69.5 242t-205.5 89zM294 868q22 0 39 -17t17 -39t-17 -38.5t-39 -16.5t-38.5 16.5t-16.5 38.5t16.5 39t38.5 17zM493 868q22 0 39 -17t17 -39t-17 -38.5t-39 -16.5t-38.5 16.5t-16.5 38.5t16.5 39t38.5 17z" />
    <glyph glyph-name="multiply" unicode="&#xd7;" horiz-adv-x="606" 
d="M263 255l-180 180l41 39l179 -179l179 179l41 -39l-181 -180l181 -180l-41 -39l-179 179l-179 -179l-41 39z" />
    <glyph glyph-name="Oslash" unicode="&#xd8;" horiz-adv-x="833" 
d="M154 67l-91 -85l-33 29l94 88q-79 92 -79 249q0 156 102.5 258.5t273.5 102.5q160 0 258 -83l86 83l32 -30l-88 -83q78 -89 78 -229q0 -162 -111.5 -274.5t-275.5 -112.5q-152 0 -246 87zM641 531l-422 -400q76 -109 213 -109q121 0 184.5 85.5t63.5 228.5q0 121 -39 195
zM196 167l420 403q-36 47 -93 72t-118 25q-125 0 -189 -78.5t-64 -207.5q0 -131 44 -214z" />
    <glyph glyph-name="Ugrave" unicode="&#xd9;" horiz-adv-x="778" 
d="M111 214v355q0 61 -9 75q-8 14 -42 15l-48 3v30q78 -3 148 -3q67 0 145 3v-30l-48 -3q-34 -1 -42 -15q-9 -14 -9 -75v-344q0 -102 50.5 -142.5t155.5 -40.5q206 0 206 207v320q0 61 -9 75q-7 12 -42 15l-44 3v30q5 0 50 -1.5t66 -1.5q23 0 66.5 1.5t53.5 1.5v-30l-44 -3
q-35 -3 -42 -15q-9 -14 -9 -75v-289q0 -161 -66 -230.5t-217 -69.5q-136 0 -203 51.5t-67 182.5zM438 737l-144 90q-12 7 -18.5 11.5t-14 14t-7.5 20.5q0 15 9 25t24 10q20 0 53 -33l138 -138h-40z" />
    <glyph glyph-name="Uacute" unicode="&#xda;" horiz-adv-x="778" 
d="M111 214v355q0 61 -9 75q-8 14 -42 15l-48 3v30q78 -3 148 -3q67 0 145 3v-30l-48 -3q-34 -1 -42 -15q-9 -14 -9 -75v-344q0 -102 50.5 -142.5t155.5 -40.5q206 0 206 207v320q0 61 -9 75q-7 12 -42 15l-44 3v30q5 0 50 -1.5t66 -1.5q23 0 66.5 1.5t53.5 1.5v-30l-44 -3
q-35 -3 -42 -15q-9 -14 -9 -75v-289q0 -161 -66 -230.5t-217 -69.5q-136 0 -203 51.5t-67 182.5zM333 737l138 138q33 33 53 33q15 0 24 -10t9 -25q0 -11 -7.5 -20.5t-14 -14t-18.5 -11.5l-144 -90h-40z" />
    <glyph glyph-name="Ucircumflex" unicode="&#xdb;" horiz-adv-x="778" 
d="M111 214v355q0 61 -9 75q-8 14 -42 15l-48 3v30q78 -3 148 -3q67 0 145 3v-30l-48 -3q-34 -1 -42 -15q-9 -14 -9 -75v-344q0 -102 50.5 -142.5t155.5 -40.5q206 0 206 207v320q0 61 -9 75q-7 12 -42 15l-44 3v30q5 0 50 -1.5t66 -1.5q23 0 66.5 1.5t53.5 1.5v-30l-44 -3
q-35 -3 -42 -15q-9 -14 -9 -75v-289q0 -161 -66 -230.5t-217 -69.5q-136 0 -203 51.5t-67 182.5zM383 908h62l125 -167h-35l-121 103l-121 -103h-35z" />
    <glyph glyph-name="Udieresis" unicode="&#xdc;" horiz-adv-x="778" 
d="M111 214v355q0 61 -9 75q-8 14 -42 15l-48 3v30q78 -3 148 -3q67 0 145 3v-30l-48 -3q-34 -1 -42 -15q-9 -14 -9 -75v-344q0 -102 50.5 -142.5t155.5 -40.5q206 0 206 207v320q0 61 -9 75q-7 12 -42 15l-44 3v30q5 0 50 -1.5t66 -1.5q23 0 66.5 1.5t53.5 1.5v-30l-44 -3
q-35 -3 -42 -15q-9 -14 -9 -75v-289q0 -161 -66 -230.5t-217 -69.5q-136 0 -203 51.5t-67 182.5zM290 868q22 0 39 -17t17 -39t-17 -38.5t-39 -16.5t-38.5 16.5t-16.5 38.5t16.5 39t38.5 17zM489 868q22 0 39 -17t17 -39t-17 -38.5t-39 -16.5t-38.5 16.5t-16.5 38.5t16.5 39
t38.5 17z" />
    <glyph glyph-name="Yacute" unicode="&#xdd;" horiz-adv-x="667" 
d="M220 602l143 -261l103 163q53 84 108 190h80v-15q-66 -77 -141.5 -184t-104.5 -171q-14 -30 -14 -75v-129q0 -61 9 -75q8 -14 42 -15l48 -3v-30q-78 3 -145 3q-70 0 -148 -3v30l48 3q34 1 42 15q9 14 9 75v142q0 25 -9 40l-124 216q-36 62 -71 94.5t-57 35.5l-29 3v29
l115 24q1 0 2.5 0.5t2.5 0.5q4 0 7.5 -1t7 -3.5t6.5 -4.5t7 -6.5t6 -6.5t6.5 -8t6.5 -8q27 -33 44 -65zM315 737l138 138q33 33 53 33q15 0 24 -10t9 -25q0 -11 -7.5 -20.5t-14 -14t-18.5 -11.5l-144 -90h-40z" />
    <glyph glyph-name="Thorn" unicode="&#xde;" horiz-adv-x="604" 
d="M226 491v-371q0 -61 9 -75q8 -14 42 -15l48 -3v-30q-78 3 -145 3q-70 0 -148 -3v30l48 3q34 1 42 15q9 14 9 75v449q0 61 -9 75q-8 14 -42 15l-48 3v30q78 -3 148 -3q67 0 145 3v-30l-48 -3q-34 -1 -42 -15q-9 -14 -9 -75v-27q11 -2 51 -2q58 0 90 1h7q81 0 140.5 -38.5
t59.5 -114.5q0 -90 -65.5 -151t-147.5 -61q-44 0 -65 6l-11 37q34 -9 64 -9q49 0 87 41.5t38 102.5q0 145 -164 145q-52 0 -84 -8z" />
    <glyph glyph-name="germandbls" unicode="&#xdf;" horiz-adv-x="556" 
d="M180 466v-359q0 -46 11 -63t35 -17h28l21 85h27v-46q35 -32 76 -32q29 0 52.5 21.5t23.5 50.5q0 44 -24 68.5t-69 47.5q-24 13 -35 19.5t-27.5 19.5t-23.5 28.5t-7 35.5q0 38 19 58l39 43q33 35 103 35q11 57 11 80q0 64 -33.5 104.5t-96.5 40.5q-66 0 -98 -46t-32 -174z
M96 102v283h-69v14l69 35v66q0 12 1.5 22.5t5 21t5.5 17.5t8.5 17.5t8 13.5t9.5 14l8 12q25 37 72 70q25 17 62.5 30t62.5 13q74 0 115.5 -40t41.5 -113q0 -81 -44 -187q-39 23 -75 23q-23 0 -36 -13t-13 -29q0 -17 13.5 -33t27.5 -24.5t39 -21.5t30 -16q81 -48 81 -116
q0 -24 -9.5 -54.5t-27.5 -44.5l-58 -44q-37 -27 -75 -27q-55 0 -97 20l-1 -14q-13 0 -36 1t-42 1.5t-36 0.5l-114 -3v30l36 3q26 2 32 14q5 14 5 58z" />
    <glyph glyph-name="agrave" unicode="&#xe0;" 
d="M225 270l99 18v3q0 59 -31.5 92t-94.5 33q-32 0 -46 -4t-24 -17q-5 -6 -17 -33l-13 -31l-26 7v65l53 32q56 34 116 34q92 0 127.5 -44.5t35.5 -154.5v-183q0 -27 3 -43q3 -13 25 -15l39 -2v-30l-75 3q-12 0 -24.5 -0.5t-28 -1.5t-24.5 -1l5 85l-124 -86q-11 -8 -46 -8
q-54 0 -88 31.5t-34 89.5q0 41 16 70.5t47 47t60 26.5t70 17zM324 124v132q-88 -12 -146 -35q-26 -10 -43 -38t-17 -56q0 -37 23 -59.5t55 -22.5q35 0 96 46q20 15 32 33zM275 526l-144 90q-12 7 -18.5 11.5t-14 14t-7.5 20.5q0 15 9 25t24 10q20 0 53 -33l138 -138h-40z
" />
    <glyph glyph-name="aacute" unicode="&#xe1;" 
d="M225 270l99 18v3q0 59 -31.5 92t-94.5 33q-32 0 -46 -4t-24 -17q-5 -6 -17 -33l-13 -31l-26 7v65l53 32q56 34 116 34q92 0 127.5 -44.5t35.5 -154.5v-183q0 -27 3 -43q3 -13 25 -15l39 -2v-30l-75 3q-12 0 -24.5 -0.5t-28 -1.5t-24.5 -1l5 85l-124 -86q-11 -8 -46 -8
q-54 0 -88 31.5t-34 89.5q0 41 16 70.5t47 47t60 26.5t70 17zM324 124v132q-88 -12 -146 -35q-26 -10 -43 -38t-17 -56q0 -37 23 -59.5t55 -22.5q35 0 96 46q20 15 32 33zM162 526l138 138q33 33 53 33q15 0 24 -10t9 -25q0 -11 -7.5 -20.5t-14 -14t-18.5 -11.5l-144 -90
h-40z" />
    <glyph glyph-name="acircumflex" unicode="&#xe2;" 
d="M225 270l99 18v3q0 59 -31.5 92t-94.5 33q-32 0 -46 -4t-24 -17q-5 -6 -17 -33l-13 -31l-26 7v65l53 32q56 34 116 34q92 0 127.5 -44.5t35.5 -154.5v-183q0 -27 3 -43q3 -13 25 -15l39 -2v-30l-75 3q-12 0 -24.5 -0.5t-28 -1.5t-24.5 -1l5 85l-124 -86q-11 -8 -46 -8
q-54 0 -88 31.5t-34 89.5q0 41 16 70.5t47 47t60 26.5t70 17zM324 124v132q-88 -12 -146 -35q-26 -10 -43 -38t-17 -56q0 -37 23 -59.5t55 -22.5q35 0 96 46q20 15 32 33zM208 697h62l125 -167h-35l-121 103l-121 -103h-35z" />
    <glyph glyph-name="atilde" unicode="&#xe3;" 
d="M225 270l99 18v3q0 59 -31.5 92t-94.5 33q-32 0 -46 -4t-24 -17q-5 -6 -17 -33l-13 -31l-26 7v65l53 32q56 34 116 34q92 0 127.5 -44.5t35.5 -154.5v-183q0 -27 3 -43q3 -13 25 -15l39 -2v-30l-75 3q-12 0 -24.5 -0.5t-28 -1.5t-24.5 -1l5 85l-124 -86q-11 -8 -46 -8
q-54 0 -88 31.5t-34 89.5q0 41 16 70.5t47 47t60 26.5t70 17zM324 124v132q-88 -12 -146 -35q-26 -10 -43 -38t-17 -56q0 -37 23 -59.5t55 -22.5q35 0 96 46q20 15 32 33zM375 672h29q0 -31 -26 -64q-32 -41 -80 -41q-15 0 -27.5 3t-20 6t-22.5 10t-23 11q-32 15 -49 15
q-36 0 -53 -45h-29q8 45 36.5 72.5t72.5 27.5q24 0 76 -25q46 -20 56 -20h4q24 3 35 14t21 36z" />
    <glyph glyph-name="adieresis" unicode="&#xe4;" 
d="M225 270l99 18v3q0 59 -31.5 92t-94.5 33q-32 0 -46 -4t-24 -17q-5 -6 -17 -33l-13 -31l-26 7v65l53 32q56 34 116 34q92 0 127.5 -44.5t35.5 -154.5v-183q0 -27 3 -43q3 -13 25 -15l39 -2v-30l-75 3q-12 0 -24.5 -0.5t-28 -1.5t-24.5 -1l5 85l-124 -86q-11 -8 -46 -8
q-54 0 -88 31.5t-34 89.5q0 41 16 70.5t47 47t60 26.5t70 17zM324 124v132q-88 -12 -146 -35q-26 -10 -43 -38t-17 -56q0 -37 23 -59.5t55 -22.5q35 0 96 46q20 15 32 33zM139 657q22 0 39 -17t17 -39t-17 -38.5t-39 -16.5t-38.5 16.5t-16.5 38.5t16.5 39t38.5 17zM338 657
q22 0 39 -17t17 -39t-17 -38.5t-39 -16.5t-38.5 16.5t-16.5 38.5t16.5 39t38.5 17z" />
    <glyph glyph-name="aring" unicode="&#xe5;" 
d="M225 270l99 18v3q0 59 -31.5 92t-94.5 33q-32 0 -46 -4t-24 -17q-5 -6 -17 -33l-13 -31l-26 7v65l53 32q56 34 116 34q92 0 127.5 -44.5t35.5 -154.5v-183q0 -27 3 -43q3 -13 25 -15l39 -2v-30l-75 3q-12 0 -24.5 -0.5t-28 -1.5t-24.5 -1l5 85l-124 -86q-11 -8 -46 -8
q-54 0 -88 31.5t-34 89.5q0 41 16 70.5t47 47t60 26.5t70 17zM324 124v132q-88 -12 -146 -35q-26 -10 -43 -38t-17 -56q0 -37 23 -59.5t55 -22.5q35 0 96 46q20 15 32 33zM239 680q-28 0 -45 -17.5t-17 -46.5t17 -46.5t45 -17.5t45 17.5t17 46.5t-17 46.5t-45 17.5zM239 716
q41 0 70.5 -29t29.5 -69v-4q0 -40 -29.5 -69t-70.5 -29t-70.5 29t-29.5 69v4q0 40 29.5 69t70.5 29z" />
    <glyph glyph-name="ae" unicode="&#xe6;" horiz-adv-x="758" 
d="M69 399l98 53q32 17 73 17q95 0 144 -71q83 71 158 71q83 0 136.5 -50t53.5 -133q0 -28 -2 -42q-84 -14 -181 -14h-146q0 -91 46 -144t135 -53q52 0 126 47l14 -10l-20 -34q-7 -12 -61 -34t-101 -22q-140 0 -198 109l-123 -96q-16 -13 -59 -13q-53 0 -92.5 32.5
t-39.5 88.5q0 63 25.5 89.5t83.5 43.5q62 18 129 25l56 6q-2 151 -119 151q-20 0 -50.5 -9t-37.5 -22q-14 -23 -22 -54l-26 6v62zM324 117v116q-46 -5 -65.5 -8t-55.5 -12.5t-62 -23.5q-25 -23 -25 -66q0 -78 89 -78q62 0 119 72zM547 436q-68 0 -105 -42.5t-37 -123.5
q52 -6 128 -6q61 0 116 3v13q0 64 -31 110t-71 46z" />
    <glyph glyph-name="ccedilla" unicode="&#xe7;" horiz-adv-x="444" 
d="M198 -108l38 90q-89 5 -149.5 66t-60.5 163q0 64 25.5 112.5t60.5 74.5q37 28 85 48q53 23 96 23q65 0 120 -35q-14 -52 -14 -123h-28l-7 61q-7 16 -42 30.5t-62 14.5q-62 0 -104 -37t-42 -126q0 -111 53.5 -166.5t133.5 -55.5q53 0 102 29l10 -15l-21 -32
q-6 -8 -41.5 -19.5t-79.5 -13.5l-22 -56q12 4 29 4q35 0 59 -18t24 -52q0 -44 -37 -64t-85 -20q-34 0 -86 16l14 31q40 -11 61 -11q28 0 43 9.5t15 36.5q0 16 -12.5 26t-27.5 10q-16 0 -41 -7z" />
    <glyph glyph-name="egrave" unicode="&#xe8;" horiz-adv-x="479" 
d="M253 436q-58 0 -95 -40t-37 -113v-13q52 -6 127 -6q58 0 111 3q0 74 -27 121.5t-79 47.5zM258 469q83 0 136.5 -50t53.5 -133q0 -28 -2 -42q-84 -14 -181 -14h-146q0 -91 46 -144t135 -53q22 0 46.5 8t37.5 15.5t40 23.5l13 -10l-20 -34q-7 -12 -61 -34t-99 -22
q-110 0 -170.5 63.5t-60.5 167.5q0 135 72 191q35 28 62 40q59 27 98 27zM288 526l-144 90q-12 7 -18.5 11.5t-14 14t-7.5 20.5q0 15 9 25t24 10q20 0 53 -33l138 -138h-40z" />
    <glyph glyph-name="eacute" unicode="&#xe9;" horiz-adv-x="479" 
d="M253 436q-58 0 -95 -40t-37 -113v-13q52 -6 127 -6q58 0 111 3q0 74 -27 121.5t-79 47.5zM258 469q83 0 136.5 -50t53.5 -133q0 -28 -2 -42q-84 -14 -181 -14h-146q0 -91 46 -144t135 -53q22 0 46.5 8t37.5 15.5t40 23.5l13 -10l-20 -34q-7 -12 -61 -34t-99 -22
q-110 0 -170.5 63.5t-60.5 167.5q0 135 72 191q35 28 62 40q59 27 98 27zM175 526l138 138q33 33 53 33q15 0 24 -10t9 -25q0 -11 -7.5 -20.5t-14 -14t-18.5 -11.5l-144 -90h-40z" />
    <glyph glyph-name="ecircumflex" unicode="&#xea;" horiz-adv-x="479" 
d="M253 436q-58 0 -95 -40t-37 -113v-13q52 -6 127 -6q58 0 111 3q0 74 -27 121.5t-79 47.5zM258 469q83 0 136.5 -50t53.5 -133q0 -28 -2 -42q-84 -14 -181 -14h-146q0 -91 46 -144t135 -53q22 0 46.5 8t37.5 15.5t40 23.5l13 -10l-20 -34q-7 -12 -61 -34t-99 -22
q-110 0 -170.5 63.5t-60.5 167.5q0 135 72 191q35 28 62 40q59 27 98 27zM221 697h62l125 -167h-35l-121 103l-121 -103h-35z" />
    <glyph glyph-name="edieresis" unicode="&#xeb;" horiz-adv-x="479" 
d="M253 436q-58 0 -95 -40t-37 -113v-13q52 -6 127 -6q58 0 111 3q0 74 -27 121.5t-79 47.5zM258 469q83 0 136.5 -50t53.5 -133q0 -28 -2 -42q-84 -14 -181 -14h-146q0 -91 46 -144t135 -53q22 0 46.5 8t37.5 15.5t40 23.5l13 -10l-20 -34q-7 -12 -61 -34t-99 -22
q-110 0 -170.5 63.5t-60.5 167.5q0 135 72 191q35 28 62 40q59 27 98 27zM140 657q22 0 39 -17t17 -39t-17 -38.5t-39 -16.5t-38.5 16.5t-16.5 38.5t16.5 39t38.5 17zM339 657q22 0 39 -17t17 -39t-17 -38.5t-39 -16.5t-38.5 16.5t-16.5 38.5t16.5 39t38.5 17z" />
    <glyph glyph-name="igrave" unicode="&#xec;" horiz-adv-x="287" 
d="M188 465v-363q0 -44 5 -58q6 -12 32 -14l46 -3v-30q-108 3 -125 3t-125 -3v30l46 3q26 2 32 14q5 14 5 58v225q0 51 -7 62q-8 11 -37 11h-37v28q80 8 156 41zM192 526l-144 90q-12 7 -18.5 11.5t-14 14t-7.5 20.5q0 15 9 25t24 10q20 0 53 -33l138 -138h-40z" />
    <glyph glyph-name="iacute" unicode="&#xed;" horiz-adv-x="287" 
d="M188 465v-363q0 -44 5 -58q6 -12 32 -14l46 -3v-30q-108 3 -125 3t-125 -3v30l46 3q26 2 32 14q5 14 5 58v225q0 51 -7 62q-8 11 -37 11h-37v28q80 8 156 41zM55 526l138 138q33 33 53 33q15 0 24 -10t9 -25q0 -11 -7.5 -20.5t-14 -14t-18.5 -11.5l-144 -90h-40z" />
    <glyph glyph-name="icircumflex" unicode="&#xee;" horiz-adv-x="287" 
d="M188 465v-363q0 -44 5 -58q6 -12 32 -14l46 -3v-30q-108 3 -125 3t-125 -3v30l46 3q26 2 32 14q5 14 5 58v225q0 51 -7 62q-8 11 -37 11h-37v28q80 8 156 41zM113 697h62l125 -167h-35l-121 103l-121 -103h-35z" />
    <glyph glyph-name="idieresis" unicode="&#xef;" horiz-adv-x="287" 
d="M188 465v-363q0 -44 5 -58q6 -12 32 -14l46 -3v-30q-108 3 -125 3t-125 -3v30l46 3q26 2 32 14q5 14 5 58v225q0 51 -7 62q-8 11 -37 11h-37v28q80 8 156 41zM44 657q22 0 39 -17t17 -39t-17 -38.5t-39 -16.5t-38.5 16.5t-16.5 38.5t16.5 39t38.5 17zM243 657
q22 0 39 -17t17 -39t-17 -38.5t-39 -16.5t-38.5 16.5t-16.5 38.5t16.5 39t38.5 17z" />
    <glyph glyph-name="eth" unicode="&#xf0;" horiz-adv-x="546" 
d="M275 13q64 0 102.5 64.5t38.5 174.5q0 49 -14.5 86.5t-38.5 57.5t-49 30t-50 10q-74 0 -106.5 -51t-32.5 -130q0 -42 8 -82.5t24.5 -77.5t47 -59.5t70.5 -22.5zM124 550l136 66q-43 41 -122 80l34 32q93 -55 133 -90l143 70l18 -30l-131 -64q169 -161 169 -350
q0 -120 -64 -200t-184 -84h-8q-94 0 -155 66t-61 168q0 114 66.5 184.5t178.5 70.5q59 0 101 -25l2 2q-41 91 -98 142l-140 -68z" />
    <glyph glyph-name="ntilde" unicode="&#xf1;" horiz-adv-x="582" 
d="M172 314v-212q0 -44 5 -58q6 -12 32 -14l45 -3v-30q-105 3 -124 3t-124 -3v30l45 3q26 2 32 14q5 14 5 58v225q0 51 -7 62q-8 11 -37 11h-37v28q80 8 156 41l9 -4v-85h2l74 64q29 25 81 25q165 0 165 -174v-193q0 -44 5 -58q6 -12 32 -14l41 -3v-30q-75 3 -82 3
q-11 0 -80 -3v284q0 61 -31.5 94t-83.5 33q-45 0 -84 -31t-39 -63zM416 672h29q0 -31 -26 -64q-32 -41 -80 -41q-15 0 -27.5 3t-20 6t-22.5 10t-23 11q-32 15 -49 15q-36 0 -53 -45h-29q8 45 36.5 72.5t72.5 27.5q24 0 76 -25q46 -20 56 -20h4q24 3 35 14t21 36z" />
    <glyph glyph-name="ograve" unicode="&#xf2;" horiz-adv-x="546" 
d="M252 -20h-7q-92 0 -152.5 66.5t-60.5 167.5q0 115 68 185t187 70q96 0 161.5 -66t65.5 -162q0 -115 -73.5 -188t-188.5 -73zM264 436q-74 0 -106.5 -50t-32.5 -129q0 -43 8.5 -83t26.5 -77.5t51.5 -60.5t79.5 -23q64 0 97 53.5t33 130.5q0 100 -43.5 169.5t-113.5 69.5z
M310 526l-144 90q-12 7 -18.5 11.5t-14 14t-7.5 20.5q0 15 9 25t24 10q20 0 53 -33l138 -138h-40z" />
    <glyph glyph-name="oacute" unicode="&#xf3;" horiz-adv-x="546" 
d="M252 -20h-7q-92 0 -152.5 66.5t-60.5 167.5q0 115 68 185t187 70q96 0 161.5 -66t65.5 -162q0 -115 -73.5 -188t-188.5 -73zM264 436q-74 0 -106.5 -50t-32.5 -129q0 -43 8.5 -83t26.5 -77.5t51.5 -60.5t79.5 -23q64 0 97 53.5t33 130.5q0 100 -43.5 169.5t-113.5 69.5z
M185 526l138 138q33 33 53 33q15 0 24 -10t9 -25q0 -11 -7.5 -20.5t-14 -14t-18.5 -11.5l-144 -90h-40z" />
    <glyph glyph-name="ocircumflex" unicode="&#xf4;" horiz-adv-x="546" 
d="M252 -20h-7q-92 0 -152.5 66.5t-60.5 167.5q0 115 68 185t187 70q96 0 161.5 -66t65.5 -162q0 -115 -73.5 -188t-188.5 -73zM264 436q-74 0 -106.5 -50t-32.5 -129q0 -43 8.5 -83t26.5 -77.5t51.5 -60.5t79.5 -23q64 0 97 53.5t33 130.5q0 100 -43.5 169.5t-113.5 69.5z
M243 697h62l125 -167h-35l-121 103l-121 -103h-35z" />
    <glyph glyph-name="otilde" unicode="&#xf5;" horiz-adv-x="546" 
d="M252 -20h-7q-92 0 -152.5 66.5t-60.5 167.5q0 115 68 185t187 70q96 0 161.5 -66t65.5 -162q0 -115 -73.5 -188t-188.5 -73zM264 436q-74 0 -106.5 -50t-32.5 -129q0 -43 8.5 -83t26.5 -77.5t51.5 -60.5t79.5 -23q64 0 97 53.5t33 130.5q0 100 -43.5 169.5t-113.5 69.5z
M410 672h29q0 -31 -26 -64q-32 -41 -80 -41q-15 0 -27.5 3t-20 6t-22.5 10t-23 11q-33 15 -49 15q-36 0 -53 -45h-29q8 45 36.5 72.5t72.5 27.5q24 0 76 -25q46 -20 56 -20h4q24 3 35 14t21 36z" />
    <glyph glyph-name="odieresis" unicode="&#xf6;" horiz-adv-x="546" 
d="M252 -20h-7q-92 0 -152.5 66.5t-60.5 167.5q0 115 68 185t187 70q96 0 161.5 -66t65.5 -162q0 -115 -73.5 -188t-188.5 -73zM264 436q-74 0 -106.5 -50t-32.5 -129q0 -43 8.5 -83t26.5 -77.5t51.5 -60.5t79.5 -23q64 0 97 53.5t33 130.5q0 100 -43.5 169.5t-113.5 69.5z
M174 657q22 0 39 -17t17 -39t-17 -38.5t-39 -16.5t-38.5 16.5t-16.5 38.5t16.5 39t38.5 17zM373 657q22 0 39 -17t17 -39t-17 -38.5t-39 -16.5t-38.5 16.5t-16.5 38.5t16.5 39t38.5 17z" />
    <glyph glyph-name="divide" unicode="&#xf7;" horiz-adv-x="606" 
d="M51 233v56h504v-56h-504zM303 396q-23 0 -40 17.5t-17 40.5t17.5 40.5t39.5 17.5q23 0 41 -17.5t18 -40.5q0 -24 -17.5 -41t-41.5 -17zM303 10q-23 0 -40 17.5t-17 40.5t17.5 40.5t39.5 17.5q23 0 41 -17.5t18 -40.5q0 -24 -17.5 -41t-41.5 -17z" />
    <glyph glyph-name="oslash" unicode="&#xf8;" horiz-adv-x="556" 
d="M16 0l67 64q-46 64 -46 150q0 112 69.5 183.5t185.5 71.5q86 0 149 -55l62 60l27 -25l-63 -61q52 -65 52 -147q0 -115 -73.5 -188t-188.5 -73q-90 0 -151 57l-62 -60zM404 327l-238 -232q45 -82 130 -82q61 0 95.5 54t34.5 130q0 67 -22 130zM150 130l238 232
q-19 32 -51 53t-68 21q-74 0 -106.5 -50t-32.5 -129q0 -68 20 -127z" />
    <glyph glyph-name="ugrave" unicode="&#xf9;" horiz-adv-x="603" 
d="M503 465v-363q0 -44 5 -58q6 -12 32 -14l41 -3v-30q-75 3 -82 3q-6 0 -84 -3q4 56 4 92l-67 -62q-44 -39 -112 -39q-41 0 -69 11t-42 25t-21 41t-8 44t-1 50v168q0 51 -7 62q-8 11 -37 11h-37v28q80 8 156 41l9 -4v-295q0 -64 22 -92.5t87 -28.5q47 0 87 38.5t40 76.5
v163q0 51 -7 62q-8 11 -37 11h-37v28q80 8 156 41zM326 526l-144 90q-12 7 -18.5 11.5t-14 14t-7.5 20.5q0 15 9 25t24 10q20 0 53 -33l138 -138h-40z" />
    <glyph glyph-name="uacute" unicode="&#xfa;" horiz-adv-x="603" 
d="M503 465v-363q0 -44 5 -58q6 -12 32 -14l41 -3v-30q-75 3 -82 3q-6 0 -84 -3q4 56 4 92l-67 -62q-44 -39 -112 -39q-41 0 -69 11t-42 25t-21 41t-8 44t-1 50v168q0 51 -7 62q-8 11 -37 11h-37v28q80 8 156 41l9 -4v-295q0 -64 22 -92.5t87 -28.5q47 0 87 38.5t40 76.5
v163q0 51 -7 62q-8 11 -37 11h-37v28q80 8 156 41zM237 526l138 138q33 33 53 33q15 0 24 -10t9 -25q0 -11 -7.5 -20.5t-14 -14t-18.5 -11.5l-144 -90h-40z" />
    <glyph glyph-name="ucircumflex" unicode="&#xfb;" horiz-adv-x="603" 
d="M503 465v-363q0 -44 5 -58q6 -12 32 -14l41 -3v-30q-75 3 -82 3q-6 0 -84 -3q4 56 4 92l-67 -62q-44 -39 -112 -39q-41 0 -69 11t-42 25t-21 41t-8 44t-1 50v168q0 51 -7 62q-8 11 -37 11h-37v28q80 8 156 41l9 -4v-295q0 -64 22 -92.5t87 -28.5q47 0 87 38.5t40 76.5
v163q0 51 -7 62q-8 11 -37 11h-37v28q80 8 156 41zM271 697h62l125 -167h-35l-121 103l-121 -103h-35z" />
    <glyph glyph-name="udieresis" unicode="&#xfc;" horiz-adv-x="603" 
d="M503 465v-363q0 -44 5 -58q6 -12 32 -14l41 -3v-30q-75 3 -82 3q-6 0 -84 -3q4 56 4 92l-67 -62q-44 -39 -112 -39q-41 0 -69 11t-42 25t-21 41t-8 44t-1 50v168q0 51 -7 62q-8 11 -37 11h-37v28q80 8 156 41l9 -4v-295q0 -64 22 -92.5t87 -28.5q47 0 87 38.5t40 76.5
v163q0 51 -7 62q-8 11 -37 11h-37v28q80 8 156 41zM202 657q22 0 39 -17t17 -39t-17 -38.5t-39 -16.5t-38.5 16.5t-16.5 38.5t16.5 39t38.5 17zM401 657q22 0 39 -17t17 -39t-17 -38.5t-39 -16.5t-38.5 16.5t-16.5 38.5t16.5 39t38.5 17z" />
    <glyph glyph-name="yacute" unicode="&#xfd;" horiz-adv-x="556" 
d="M297 86l119 292q6 15 6 24q0 24 -42 27l-26 2v28q11 0 30 -1t35 -1.5t30 -0.5t30 0.5t35 1.5t30 1v-28l-28 -2q-18 -2 -37 -28.5t-47 -92.5l-203 -468q-27 -62 -60.5 -92.5t-91.5 -30.5q-26 0 -50 15l24 75h13q23 -23 49 -23h2q20 1 37.5 14t32.5 37.5t21.5 38.5t17.5 41
l23 61l-165 404q-11 27 -22.5 37t-29.5 12l-18 2v28q13 0 36.5 -1t43 -1.5t36.5 -0.5t36.5 0.5t43 1.5t36.5 1v-28l-38 -2q-33 -2 -33 -26q0 -17 9 -39zM222 526l138 138q33 33 53 33q15 0 24 -10t9 -25q0 -11 -7.5 -20.5t-14 -14t-18.5 -11.5l-144 -90h-40z" />
    <glyph glyph-name="thorn" unicode="&#xfe;" horiz-adv-x="601" 
d="M165 301v-203q51 -59 142 -59q64 0 107 51t43 145q0 74 -40 121.5t-116 47.5q-89 0 -131 -76q-5 -9 -5 -27zM81 -176v796q0 41 -25 41h-56v28q102 15 156 37l9 -8v-347h2l53 54q19 20 53.5 32t67.5 12q82 0 142.5 -57.5t60.5 -146.5q0 -50 -23 -104.5t-56 -78.5l-100 -72
q-30 -22 -91 -22q-52 0 -109 25v-189q0 -44 5 -58q6 -12 32 -14l46 -3v-30q-108 3 -125 3t-125 -3v30l46 3q26 2 32 14q5 14 5 58z" />
    <glyph glyph-name="ydieresis" unicode="&#xff;" horiz-adv-x="556" 
d="M297 86l119 292q6 15 6 24q0 24 -42 27l-26 2v28q11 0 30 -1t35 -1.5t30 -0.5t30 0.5t35 1.5t30 1v-28l-28 -2q-18 -2 -37 -28.5t-47 -92.5l-203 -468q-27 -62 -60.5 -92.5t-91.5 -30.5q-26 0 -50 15l24 75h13q23 -23 49 -23h2q20 1 37.5 14t32.5 37.5t21.5 38.5t17.5 41
l23 61l-165 404q-11 27 -22.5 37t-29.5 12l-18 2v28q13 0 36.5 -1t43 -1.5t36.5 -0.5t36.5 0.5t43 1.5t36.5 1v-28l-38 -2q-33 -2 -33 -26q0 -17 9 -39zM179 657q22 0 39 -17t17 -39t-17 -38.5t-39 -16.5t-38.5 16.5t-16.5 38.5t16.5 39t38.5 17zM378 657q22 0 39 -17
t17 -39t-17 -38.5t-39 -16.5t-38.5 16.5t-16.5 38.5t16.5 39t38.5 17z" />
    <glyph glyph-name="dotlessi" unicode="&#x131;" horiz-adv-x="287" 
d="M188 465v-363q0 -44 5 -58q6 -12 32 -14l46 -3v-30q-108 3 -125 3t-125 -3v30l46 3q26 2 32 14q5 14 5 58v225q0 51 -7 62q-8 11 -37 11h-37v28q80 8 156 41z" />
    <glyph glyph-name="Lslash" unicode="&#x141;" horiz-adv-x="611" 
d="M121 330v239q0 61 -9 75q-8 14 -42 15l-48 3v30q78 -3 148 -3q67 0 145 3v-30l-48 -3q-34 -1 -42 -15q-9 -14 -9 -75v-181l138 84l16 -32l-154 -94v-299q32 -8 84 -8q201 0 221 19q7 7 21 64l12 50h32q-14 -128 -21 -172q-114 -3 -166 -3h-31q-35 0 -109 1.5t-109 1.5
q-7 0 -85 -3v23l31 16q25 13 25 59v193l-99 -60l-16 32z" />
    <glyph glyph-name="lslash" unicode="&#x142;" horiz-adv-x="291" 
d="M104 390v230q0 41 -25 41h-56v28q102 15 156 37l9 -8v-277l103 63l15 -32l-118 -72v-298q0 -44 5 -58q6 -12 32 -14l46 -3v-30q-108 3 -125 3t-125 -3v30l46 3q26 2 32 14q5 14 5 58v246l-102 -62l-16 32z" />
    <glyph glyph-name="OE" unicode="&#x152;" horiz-adv-x="998" 
d="M22 341q0 164 104 266t268 102q10 0 120 -11q10 -1 32 -5t35 -4q47 0 129 1.5t107 1.5q71 0 129 -3q-16 -64 -16 -152h-35v65q0 24 -9 27q-56 21 -188 21q-52 0 -84 -8v-267q48 -3 108 -3q89 0 106 11q6 5 8 26l5 52h30q0 -7 -1.5 -50.5t-1.5 -65.5q0 -3 3 -111h-30
l-5 59q-2 21 -8 25q-16 12 -106 12q-77 0 -108 -3v-280q32 -8 84 -8q171 0 194 13q23 12 35 112h35q-16 -77 -16 -164q-114 -3 -166 -3h-31q-10 0 -28 0.5t-26 0.5q-109 0 -207 -12q-48 -6 -100 -6q-160 0 -263 98t-103 263zM519 139v399q0 52 -5 83q-43 44 -130 44
q-123 0 -192.5 -76.5t-69.5 -215.5q0 -149 71 -249t199 -100q27 0 68.5 10.5t53.5 21.5q5 31 5 83z" />
    <glyph glyph-name="oe" unicode="&#x153;" horiz-adv-x="827" 
d="M617 230h-146q0 -91 46 -144t135 -53q52 0 126 47l14 -10l-20 -34q-7 -12 -61 -34t-101 -22q-100 0 -175 87q-77 -87 -174 -87q-99 0 -164 68t-65 187q0 107 69 170.5t170 63.5q102 0 174 -76q44 41 82 58.5t83 17.5q83 0 136.5 -50t53.5 -133q0 -28 -2 -42
q-84 -14 -181 -14zM251 436q-63 0 -94.5 -45t-31.5 -124q0 -111 41 -182.5t111 -71.5q65 0 95.5 52.5t30.5 136.5q0 41 -7 78.5t-22.5 74.5t-47 59t-75.5 22zM615 436q-68 0 -105 -42.5t-37 -123.5q52 -6 128 -6q61 0 116 3v13q0 64 -31 110t-71 46z" />
    <glyph glyph-name="Scaron" unicode="&#x160;" horiz-adv-x="525" 
d="M447 526h-32l-6 57q-2 21 -9.5 32.5t-34.5 27.5q-40 24 -109 24q-58 0 -103 -38.5t-45 -107.5q0 -53 37.5 -83.5t127.5 -40.5q116 -12 173 -48t57 -116q0 -82 -45.5 -141t-112 -85.5t-144.5 -26.5q-93 0 -171 38q7 44 7 115v38h32l8 -67q4 -31 53.5 -55.5t109.5 -24.5
q72 0 125.5 41.5t53.5 112.5q0 66 -45 95t-131 39q-118 13 -168.5 53t-50.5 118q0 73 40 126.5t96.5 76.5t119.5 23q73 0 181 -42q-14 -71 -14 -141zM263 805l122 103h34l-125 -167h-62l-125 167h35z" />
    <glyph glyph-name="scaron" unicode="&#x161;" horiz-adv-x="424" 
d="M41 143h30v-41q0 -43 39 -64t90 -21q48 0 82.5 25.5t34.5 65.5q0 24 -12.5 42t-35.5 24q-121 30 -147 40q-85 32 -85 109q0 75 54.5 110.5t133.5 35.5q59 0 129 -25q-3 -37 -5 -113h-28v23q0 37 -35 59.5t-81 22.5q-98 0 -98 -81q0 -32 26 -50.5t83 -28.5q93 -16 134 -44
t41 -84q0 -78 -65.5 -123t-155.5 -45q-71 0 -140 24q11 48 11 139zM213 594l122 103h34l-125 -167h-62l-125 167h35z" />
    <glyph glyph-name="Ydieresis" unicode="&#x178;" horiz-adv-x="667" 
d="M220 602l143 -261l103 163q53 84 108 190h80v-15q-66 -77 -141.5 -184t-104.5 -171q-14 -30 -14 -75v-129q0 -61 9 -75q8 -14 42 -15l48 -3v-30q-78 3 -145 3q-70 0 -148 -3v30l48 3q34 1 42 15q9 14 9 75v142q0 25 -9 40l-124 216q-36 62 -71 94.5t-57 35.5l-29 3v29
l115 24q1 0 2.5 0.5t2.5 0.5q4 0 7.5 -1t7 -3.5t6.5 -4.5t7 -6.5t6 -6.5t6.5 -8t6.5 -8q27 -33 44 -65zM258 868q22 0 39 -17t17 -39t-17 -38.5t-39 -16.5t-38.5 16.5t-16.5 38.5t16.5 39t38.5 17zM457 868q22 0 39 -17t17 -39t-17 -38.5t-39 -16.5t-38.5 16.5t-16.5 38.5
t16.5 39t38.5 17z" />
    <glyph glyph-name="Zcaron" unicode="&#x17d;" horiz-adv-x="667" 
d="M637 663l-486 -619h273q114 0 141.5 11t32.5 61l6 57h34q-6 -66 -6 -176q-294 3 -305 3l-312 -3v28q8 10 43.5 52t53.5 65l302 388q66 84 86 118h-228q-67 0 -100 -5.5t-41.5 -14t-10.5 -27.5l-6 -71h-34q3 40 3 81t-3 81q396 -3 397 -3q23 0 49 0.5t58 1.5t49 1z
M346 805l122 103h34l-125 -167h-62l-125 167h35z" />
    <glyph glyph-name="zcaron" unicode="&#x17e;" 
d="M455 432l-314 -397h135q136 0 142 25l18 79h30q-2 -16 -6 -45t-6.5 -52.5t-2.5 -44.5q-309 3 -310 3q-18 0 -37.5 -0.5t-44 -1.5t-37.5 -1l-6 20q60 68 90 105l170 212q40 50 65 90h-143q-55 0 -74 -5t-22 -21l-12 -68h-30q0 7 4.5 56.5t4.5 75.5q255 -3 280 -3
q1 0 106 3v-30zM251 594l122 103h34l-125 -167h-62l-125 167h35z" />
    <glyph glyph-name="florin" unicode="&#x192;" 
d="M311 364l-72 -348q-11 -52 -27.5 -96.5t-44 -88t-70.5 -68.5t-97 -25q11 48 15 89l11 7q18 -20 45 -20q28 0 43 26t31 108l80 416q-72 -4 -108 -5q1 9 5 26.5t5 26.5q18 -1 53.5 -2t53.5 -2q28 128 75 198q65 97 164 100q-11 -37 -14 -92l-10 -8q-2 1 -10 8t-17 11.5
t-21 4.5q-26 0 -36.5 -17t-17.5 -55l-27 -150q17 1 52.5 2t52.5 2q-3 -12 -9 -54q-43 4 -105 6z" />
    <glyph glyph-name="circumflex" unicode="&#x2c6;" horiz-adv-x="333" 
d="M136 677h62l125 -167h-35l-121 103l-121 -103h-35z" />
    <glyph glyph-name="caron" unicode="&#x2c7;" horiz-adv-x="333" 
d="M167 574l122 103h34l-125 -167h-62l-125 167h35z" />
    <glyph glyph-name="uni02C9" unicode="&#x2c9;" horiz-adv-x="333" 
d="M323 538h-312v53h312v-53z" />
    <glyph glyph-name="breve" unicode="&#x2d8;" horiz-adv-x="333" 
d="M26 664h30q0 -43 34.5 -70.5t76.5 -27.5t76.5 27.5t34.5 70.5h30q0 -67 -37.5 -112.5t-103.5 -45.5t-103.5 45.5t-37.5 112.5z" />
    <glyph glyph-name="dotaccent" unicode="&#x2d9;" horiz-adv-x="250" 
d="M125 687q22 0 39 -17t17 -39t-17 -38.5t-39 -16.5t-38.5 16.5t-16.5 38.5t16.5 39t38.5 17z" />
    <glyph glyph-name="ring" unicode="&#x2da;" horiz-adv-x="333" 
d="M167 660q-28 0 -45 -17.5t-17 -46.5t17 -46.5t45 -17.5t45 17.5t17 46.5t-17 46.5t-45 17.5zM167 696q41 0 70.5 -29t29.5 -69v-4q0 -40 -29.5 -69t-70.5 -29t-70.5 29t-29.5 69v4q0 40 29.5 69t70.5 29z" />
    <glyph glyph-name="ogonek" unicode="&#x2db;" horiz-adv-x="313" 
d="M269 -116l19 -30q-73 -79 -133 -79q-53 0 -79 25t-26 67q0 32 27 65.5t62 47.5h43q-57 -54 -57 -89q0 -28 11.5 -43t46.5 -15q43 0 86 51z" />
    <glyph glyph-name="tilde" unicode="&#x2dc;" horiz-adv-x="333" 
d="M303 640h29q0 -31 -26 -64q-32 -41 -80 -41q-15 0 -27.5 3t-20 6t-22.5 10t-23 11q-33 15 -49 15q-36 0 -53 -45h-29q8 45 36.5 72.5t72.5 27.5q24 0 76 -25q46 -20 56 -20h4q24 3 35 14t21 36z" />
    <glyph glyph-name="hungarumlaut" unicode="&#x2dd;" horiz-adv-x="380" 
d="M3 506l128 148q29 33 53 33q15 0 24 -10t9 -25q0 -19 -39 -48l-135 -98h-40zM163 506l128 148q29 33 53 33q15 0 24 -10t9 -25q0 -19 -39 -48l-135 -98h-40z" />
    <glyph glyph-name="uni03A9" unicode="&#x3a9;" horiz-adv-x="655" 
d="M623 133l-22 -133h-211l-5 17q5 10 27 54.5t33.5 71t27.5 69.5t23.5 84.5t7.5 82.5q-1 145 -52.5 215.5t-125.5 70.5q-79 0 -127.5 -70t-48.5 -221q0 -49 9.5 -97t32.5 -102t34.5 -78t40.5 -80l-7 -17h-209l-21 133l23 2q14 -47 27.5 -61t41.5 -14h96q-154 151 -154 321
q0 141 75.5 226.5t188.5 85.5q115 0 187.5 -82t72.5 -223q0 -67 -28 -135t-57 -107t-71 -86h99q29 0 41.5 13t26.5 62z" />
    <glyph glyph-name="uni03BC" unicode="&#x3bc;" horiz-adv-x="574" 
d="M562 25q-77 -12 -153 -40l-12 3l1 87l-61 -53q-41 -36 -98 -36q-40 0 -69.5 18.5t-38.5 48.5q1 -50 2.5 -122.5t1.5 -86.5q0 -26 -12 -43t-36 -17q-36 0 -36 29v2q0 3 9 39q36 140 36 321v151q0 51 -10.5 62.5t-55.5 11.5h-11v28q92 12 154 42l10 -6l-3 -168v-122
q0 -127 100 -127q48 0 83 35t35 83v171q0 42 -10 53t-54 11h-11v28q81 11 150 42l12 -6q-3 -144 -3 -202v-76q0 -103 5 -119q6 -16 37 -16q2 0 38 2v-28z" />
    <glyph glyph-name="pi" unicode="&#x3c0;" horiz-adv-x="516" 
d="M467 462l23 -8q-11 -49 -33 -80q-15 -4 -64 -4q-4 -49 -4 -238q0 -91 42 -91q21 0 47 30l12 -18q-33 -65 -93 -65q-39 0 -59.5 28t-20.5 98q0 96 10 258q-108 2 -146 2v-20q0 -103 -13.5 -186t-26 -117t-22.5 -46q-29 -13 -54 -17l-6 16q47 61 67.5 167t20.5 204
q-30 0 -53 -6.5t-34.5 -13.5t-32.5 -24l-14 20q1 1 10 12t12.5 14t13.5 13t17 14.5t19.5 11.5t24 10t27.5 5.5t33 2.5q30 0 112 -1.5t130 -1.5q22 0 33 6t22 25z" />
    <glyph glyph-name="uni2010" unicode="&#x2010;" horiz-adv-x="333" 
d="M282 215h-260l-5 5l27 67h263l5 -5z" />
    <glyph glyph-name="endash" unicode="&#x2013;" 
d="M500 219h-500v58h500v-58z" />
    <glyph glyph-name="emdash" unicode="&#x2014;" horiz-adv-x="1000" 
d="M1000 219h-1000v58h1000v-58z" />
    <glyph glyph-name="quoteleft" unicode="&#x2018;" horiz-adv-x="278" 
d="M174 685l44 24l15 -10q-71 -109 -78 -223q-4 -1 -97 -30l-13 13q47 123 129 226z" />
    <glyph glyph-name="quoteright" unicode="&#x2019;" horiz-adv-x="278" 
d="M104 470l-44 -24l-15 10q71 109 78 223q4 1 97 30l13 -13q-47 -123 -129 -226z" />
    <glyph glyph-name="quotesinglbase" unicode="&#x201a;" horiz-adv-x="278" 
d="M197 110l13 -13q-47 -123 -129 -226l-44 -24l-15 10q71 109 78 223q4 1 97 30z" />
    <glyph glyph-name="quotedblleft" unicode="&#x201c;" 
d="M180 685l44 24l15 -10q-71 -109 -78 -223q-4 -1 -97 -30l-13 13q47 123 129 226zM390 685l44 24l15 -10q-71 -109 -78 -223q-4 -1 -97 -30l-13 13q47 123 129 226z" />
    <glyph glyph-name="quotedblright" unicode="&#x201d;" 
d="M110 470l-44 -24l-15 10q71 109 78 223q4 1 97 30l13 -13q-47 -123 -129 -226zM320 470l-44 -24l-15 10q71 109 78 223q4 1 97 30l13 -13q-47 -123 -129 -226z" />
    <glyph glyph-name="quotedblbase" unicode="&#x201e;" 
d="M226 110l13 -13q-47 -123 -129 -226l-44 -24l-15 10q71 109 78 223q4 1 97 30zM436 110l13 -13q-47 -123 -129 -226l-44 -24l-15 10q71 109 78 223q4 1 97 30z" />
    <glyph glyph-name="dagger" unicode="&#x2020;" 
d="M154 460h59v52q0 41 -11 155l-2 22l5 5q3 0 20 -1.5t25 -1.5t25 1.5t20 1.5l5 -5l-2 -22q-11 -114 -11 -155v-52h59l96 6l19 1l5 -5q-3 -16 -3 -34q0 -16 3 -33l-5 -5l-19 1l-96 6h-59v-78q0 -196 7 -293l2 -26l-5 -5q-28 4 -41 4t-41 -4l-5 5l2 26q7 97 7 293v78h-59
l-96 -6l-19 -1l-5 5q3 17 3 33q0 18 -3 34l5 5l19 -1z" />
    <glyph glyph-name="daggerdbl" unicode="&#x2021;" 
d="M138 483h75v47q0 37 -11 140l-2 19l5 5q3 0 20 -1.5t25 -1.5t25 1.5t20 1.5l5 -5l-2 -19q-11 -103 -11 -140v-47h75q19 0 55 3.5t44 3.5l5 -5q-3 -15 -3 -32t3 -35l-5 -5q-8 1 -44 4t-55 3h-75q0 -91 8 -197q-8 -106 -8 -198h75q19 0 55 3.5t44 3.5l5 -5q-3 -15 -3 -32
t3 -35l-5 -5q-8 1 -44 4t-55 3h-75v-47q0 -37 11 -140l2 -19l-5 -5q-3 0 -20 1.5t-25 1.5t-25 -1.5t-20 -1.5l-5 5l2 19q11 103 11 140v47h-75q-19 0 -55 -3t-44 -4l-5 5q3 18 3 35t-3 32l5 5q8 0 44 -3.5t55 -3.5h75q0 92 -8 198q8 106 8 197h-75q-19 0 -55 -3t-44 -4l-5 5
q3 18 3 35t-3 32l5 5q8 0 44 -3.5t55 -3.5z" />
    <glyph glyph-name="bullet" unicode="&#x2022;" horiz-adv-x="606" 
d="M131 344q0 70 50.5 121t121.5 51t121.5 -51t50.5 -121t-50.5 -121t-121.5 -51t-121.5 51t-50.5 121z" />
    <glyph glyph-name="ellipsis" unicode="&#x2026;" horiz-adv-x="1000" 
d="M499 -5q-23 0 -40 17.5t-17 40.5t17.5 40.5t39.5 17.5q23 0 41 -17.5t18 -40.5t-17.5 -40.5t-41.5 -17.5zM166 -5q-23 0 -40 17.5t-17 40.5t17.5 40.5t39.5 17.5q23 0 41 -17.5t18 -40.5t-17.5 -40.5t-41.5 -17.5zM832 -5q-23 0 -40 17.5t-17 40.5t17.5 40.5t39.5 17.5
q23 0 41 -17.5t18 -40.5t-17.5 -40.5t-41.5 -17.5z" />
    <glyph glyph-name="perthousand" unicode="&#x2030;" horiz-adv-x="1144" 
d="M265 689q57 0 96 -42t39 -104q0 -69 -40 -116t-104 -47q-57 0 -95 41.5t-38 106.5q0 69 39.5 115t102.5 46zM263 666q-29 0 -47 -23.5t-23.5 -51t-5.5 -58.5q0 -130 71 -130q41 0 59.5 41t18.5 90q0 132 -73 132zM563 309q57 0 96 -42t39 -104q0 -69 -40 -116t-104 -47
q-57 0 -95 41.5t-38 106.5q0 69 39.5 115t102.5 46zM561 286q-29 0 -47 -23.5t-23.5 -51t-5.5 -58.5q0 -130 71 -130q41 0 59.5 41t18.5 90q0 132 -73 132zM886 309q57 0 96 -42t39 -104q0 -69 -40 -116t-104 -47q-57 0 -95 41.5t-38 106.5q0 69 39.5 115t102.5 46zM884 286
q-29 0 -47 -23.5t-23.5 -51t-5.5 -58.5q0 -130 71 -130q41 0 59.5 41t18.5 90q0 132 -73 132zM238 -20h-40l391 729h40z" />
    <glyph glyph-name="guilsinglleft" unicode="&#x2039;" horiz-adv-x="331" 
d="M146 248l119 -162l-23 -15q-11 12 -34.5 34.5t-31.5 30.5l-110 106v12q11 11 31 30t36.5 35t31.5 31l77 78l23 -13q-13 -15 -30 -40z" />
    <glyph glyph-name="guilsinglright" unicode="&#x203a;" horiz-adv-x="331" 
d="M66 86l119 162l-89 127q-17 25 -30 40l23 13l77 -78q15 -15 31.5 -31t36.5 -35t31 -30v-12l-110 -106q-8 -8 -31.5 -30.5t-34.5 -34.5z" />
    <glyph glyph-name="fraction" unicode="&#x2044;" horiz-adv-x="167" 
d="M-114 0h-52l451 689h52z" />
    <glyph glyph-name="Euro" unicode="&#x20ac;" 
d="M482 76l-19 -47q-25 -24 -64 -36.5t-73 -12.5q-97 0 -163.5 69.5t-85.5 192.5h-57l8 39h45q-3 27 -3 56q0 27 1 41h-51l8 39h47q17 114 73 186q72 91 184 91q79 0 152 -40q-19 -87 -19 -149h-30v64q0 38 -34.5 61t-81.5 23q-69 0 -110.5 -65t-51.5 -171h254l-8 -39h-249
v-25q0 -41 4 -72h227l-8 -39h-214q18 -99 67 -155t119 -56q32 0 67 17t57 43z" />
    <glyph glyph-name="afii61289" unicode="&#x2113;" horiz-adv-x="375" 
d="M340 100l18 -15q-52 -103 -149 -103q-62 0 -92 38q-31 41 -31 142v87l-54 -43l-12 22l66 55v126q0 125 9 177.5t39 87.5q34 45 77 45q39 0 60 -36t21 -92q0 -147 -135 -293v-99q0 -93 20.5 -130t62.5 -37q56 0 100 68zM157 467v-126q41 51 66 118.5t25 130.5
q0 101 -44 101q-26 0 -36.5 -50.5t-10.5 -173.5z" />
    <glyph glyph-name="trademark" unicode="&#x2122;" horiz-adv-x="979" 
d="M378 689v-96h-23q0 43 -16 57.5t-61 14.5h-41v-325q0 -24 11 -29q12 -6 52 -6v-20h-182v20q40 0 52 6q11 5 11 29v325h-41q-45 0 -61 -14.5t-16 -57.5h-23v96h338zM563 689l129 -308l132 308h112v-18h-21q-27 0 -27 -20v-300q0 -27 7 -36.5t33 -9.5h11v-20h-158v20h11
q26 0 33 9.5t7 36.5v298h-2l-150 -364h-8l-152 364h-1v-311q0 -19 9.5 -25t38.5 -8v-20h-121v20q29 2 38.5 8t9.5 25v296q0 23 -6 30t-20 7h-14v18h109z" />
    <glyph glyph-name="Omega" unicode="&#x2126;" horiz-adv-x="655" 
d="M623 133l-22 -133h-211l-5 17q5 10 27 54.5t33.5 71t27.5 69.5t23.5 84.5t7.5 82.5q-1 145 -52.5 215.5t-125.5 70.5q-79 0 -127.5 -70t-48.5 -221q0 -49 9.5 -97t32.5 -102t34.5 -78t40.5 -80l-7 -17h-209l-21 133l23 2q14 -47 27.5 -61t41.5 -14h96q-154 151 -154 321
q0 141 75.5 226.5t188.5 85.5q115 0 187.5 -82t72.5 -223q0 -67 -28 -135t-57 -107t-71 -86h99q29 0 41.5 13t26.5 62z" />
    <glyph glyph-name="estimated" unicode="&#x212e;" horiz-adv-x="854" 
d="M820 324h-637q-5 0 -5 -4v-193q0 -12 8 -22q102 -105 241 -105q74 0 139.5 31.5t113.5 86.5h57q-53 -63 -135.5 -100t-175.5 -37q-163 0 -278 103t-115 249q0 147 115 250.5t278 103.5q164 0 279 -103.5t115 -250.5v-9zM675 349v194q0 14 -9 23q-103 101 -239 101
q-138 0 -240 -104q-9 -9 -9 -24v-190q0 -6 5 -6h488q4 0 4 6z" />
    <glyph glyph-name="partialdiff" unicode="&#x2202;" horiz-adv-x="481" 
d="M240 413h1q34 0 67.5 -17t55.5 -50q7 77 8 106q2 83 -25 156q-15 39 -48.5 68.5t-75.5 29.5q-64 0 -122 -51q-12 -2 -22 19.5t-4 36.5q58 39 126 39q120 0 186 -139q45 -92 45 -229q0 -150 -43 -249q-63 -151 -184 -151q-75 0 -120 52t-45 144q0 91 54 162
q25 32 64.5 52.5t81.5 20.5zM258 377h-1q-61 0 -101 -58q-42 -71 -42 -182q0 -53 24.5 -90t65.5 -37q63 0 108 105q30 70 45 190q-11 26 -38.5 49t-60.5 23z" />
    <glyph glyph-name="Delta" unicode="&#x2206;" horiz-adv-x="575" 
d="M542 0h-510v22l235 661l33 10l242 -671v-22zM450 43l-187 527l-183 -527h370z" />
    <glyph glyph-name="product" unicode="&#x220f;" horiz-adv-x="621" 
d="M594 683v-24q-58 -4 -70.5 -14.5t-12.5 -50.5v-582q0 -46 13 -58.5t68 -16.5v-23h-230v23q53 5 64.5 15.5t11.5 59.5v610q0 20 -6 25.5t-27 5.5h-192q-20 0 -25.5 -5t-5.5 -23v-613q0 -47 9.5 -58.5t60.5 -16.5v-23h-224v23q55 5 67.5 16.5t12.5 58.5v582
q0 40 -12.5 50.5t-70.5 14.5v24h569z" />
    <glyph glyph-name="summation" unicode="&#x2211;" horiz-adv-x="503" 
d="M481 84l-40 -173h-414v22l208 346l-204 383v21h411q0 -7 4.5 -61.5t6.5 -88.5l-24 -5q-12 63 -29 94q-9 19 -27.5 25t-69.5 6h-178l176 -323l-208 -352h235q60 0 80.5 17t47.5 96z" />
    <glyph glyph-name="minus" unicode="&#x2212;" horiz-adv-x="606" 
d="M555 233h-504v56h504v-56z" />
    <glyph glyph-name="uni2215" unicode="&#x2215;" horiz-adv-x="167" 
d="M-114 0h-52l451 689h52z" />
    <glyph glyph-name="uni2219" unicode="&#x2219;" horiz-adv-x="250" 
d="M124 203q-23 0 -40 17.5t-17 40.5t17.5 40.5t39.5 17.5q23 0 41 -17.5t18 -40.5t-17.5 -40.5t-41.5 -17.5z" />
    <glyph glyph-name="radical" unicode="&#x221a;" horiz-adv-x="507" 
d="M489 877l-152 -1022l-18 -9l-200 540l-80 -37l-10 29l140 65l155 -435h2l128 878z" />
    <glyph glyph-name="infinity" unicode="&#x221e;" horiz-adv-x="705" 
d="M659 284v-1q0 -66 -41.5 -107t-98.5 -41q-42 0 -80 25t-86 82q-30 -34 -50.5 -53.5t-53 -36.5t-67.5 -17q-56 0 -97 42t-41 103q0 64 41 105.5t104 41.5q47 0 86 -28t81 -79q54 59 79 78q43 29 90 29q59 0 96.5 -40t37.5 -103zM188 183h2q9 0 18 1.5t18 6l16 8t16 11
t14 11.5t15 14.5t13.5 14t13.5 15t12 13.5q-22 28 -31.5 38.5t-29.5 29.5t-39.5 26.5t-41.5 7.5q-41 0 -65 -29t-24 -72q0 -41 26 -68.5t67 -27.5zM519 380h-1q-17 0 -33 -6t-32.5 -19.5t-26 -22.5t-26 -28t-19.5 -22q49 -56 77.5 -77.5t62.5 -21.5q40 0 64 30t24 67
q0 46 -25 73t-65 27z" />
    <glyph glyph-name="integral" unicode="&#x222b;" horiz-adv-x="347" 
d="M151 16l-19 409q-18 404 141 404q20 0 37 -11t18 -31q0 -19 -11.5 -29t-28.5 -10q-16 0 -27 20.5t-21 20.5q-12 0 -22 -12t-16.5 -51t-3.5 -101l17 -379q6 -128 -3 -217.5t-31 -134.5t-47.5 -63.5t-59.5 -18.5q-24 0 -39.5 13t-15.5 31q-1 18 12.5 30t32.5 12
q14 0 25.5 -22t21.5 -22q22 0 33 44.5t7 117.5z" />
    <glyph glyph-name="approxequal" unicode="&#x2248;" horiz-adv-x="494" 
d="M423 416l32 -27q-42 -90 -116 -90q-39 0 -102 37q-49 31 -81 31q-46 0 -85 -67l-34 26q20 41 53 65.5t72 24.5q12 0 23.5 -2t24 -7.5t18 -8t18.5 -10.5t14 -8q55 -32 81 -32q44 0 82 68zM423 259l32 -27q-44 -90 -116 -90q-39 0 -102 37q-53 32 -80 32q-47 0 -86 -69
l-34 27q20 41 53 65.5t72 24.5q13 0 24.5 -2t23 -7t18 -8t18.5 -10.5t14 -8.5t10 -6t10.5 -6.5t9.5 -5t10.5 -5t9.5 -4t10 -3t9.5 -1.5t11.5 -1q25 0 43.5 16.5t38.5 51.5z" />
    <glyph glyph-name="notequal" unicode="&#x2260;" horiz-adv-x="494" 
d="M354 478l-38 -86h132v-50h-151l-58 -130h209v-50h-228l-46 -103l-40 16l39 87h-128v50h148l57 130h-205v50h224l46 103z" />
    <glyph glyph-name="lessequal" unicode="&#x2264;" horiz-adv-x="494" 
d="M446 103l-396 207v53l396 207v-60l-344 -172v-2l344 -173v-60zM449 14h-403v51h403v-51z" />
    <glyph glyph-name="greaterequal" unicode="&#x2265;" horiz-adv-x="494" 
d="M51 570l396 -207v-53l-396 -207v60l344 172v3l-344 172v60zM449 14h-403v51h403v-51z" />
    <glyph glyph-name="lozenge" unicode="&#x25ca;" horiz-adv-x="512" 
d="M466 331l-180 -395h-60l-180 395l181 398h59zM410 331l-152 342h-3l-153 -341l153 -342h3z" />
    <glyph glyph-name="A.sc" unicode="&#xe000;" horiz-adv-x="611" 
d="M290 498h38l174 -395q22 -51 40 -64.5t50 -13.5v-28q-48 3 -119 3q-25 0 -70 -1.5t-53 -1.5v28q43 0 58.5 6t15.5 21q0 8 -5 22t-10 25t-14 29.5t-11 23.5q-68 2 -103 2q-33 0 -101 -2q-2 -4 -12 -22.5t-16 -35t-6 -33.5q0 -20 17 -28t57 -8v-28q-99 3 -104 3
q-16 0 -47 -1.5t-51 -1.5v28q36 0 55 17.5t51 90.5zM285 390l-88 -196q52 -2 81 -2q25 0 91 2z" />
    <glyph glyph-name="AE.sc" unicode="&#xe001;" horiz-adv-x="778" 
d="M200 456v28q20 0 79.5 -2t90.5 -2q41 0 115 4q72 4 114 4q78 0 128 -8l-9 -118h-26l-12 76q-77 10 -137 10q-36 0 -63 -6q-1 -29 -1.5 -85.5t-0.5 -85.5q14 0 49.5 -0.5t56.5 -0.5q29 0 39.5 14.5t11.5 53.5h30q-5 -70 -5 -75q0 -16 5 -101h-30q-1 51 -18 61.5t-78 10.5
q-23 0 -61 -2q1 -33 2.5 -95.5t1.5 -92.5q36 -6 75 -6q84 0 129 14l20 88h30l-12 -136q-56 -4 -135 -4q-52 0 -101.5 2t-54.5 2q-19 0 -89 -4v22l42 18q4 34 4 130q-52 2 -99 2q-50 0 -90 -2q-3 -6 -20 -36.5t-25 -48.5t-8 -29q0 -28 76 -28v-28q-78 4 -118 4q-12 0 -98 -4
v28q44 0 67.5 22.5t63.5 95.5l124 226q29 50 29 62q0 14 -19.5 18t-72.5 4zM221 210h171q2 28 2 61q0 59 -1 94.5t-3.5 55.5t-6 26.5t-9.5 6.5q-4 0 -11 -7t-16.5 -21t-18.5 -28t-21 -35t-20.5 -36t-20.5 -36.5t-17 -30.5z" />
    <glyph glyph-name="Aacute.sc" unicode="&#xe002;" horiz-adv-x="611" 
d="M290 498h38l174 -395q22 -51 40 -64.5t50 -13.5v-28q-48 3 -119 3q-25 0 -70 -1.5t-53 -1.5v28q43 0 58.5 6t15.5 21q0 8 -5 22t-10 25t-14 29.5t-11 23.5q-68 2 -103 2q-33 0 -101 -2q-2 -4 -12 -22.5t-16 -35t-6 -33.5q0 -20 17 -28t57 -8v-28q-99 3 -104 3
q-16 0 -47 -1.5t-51 -1.5v28q36 0 55 17.5t51 90.5zM285 390l-88 -196q52 -2 81 -2q25 0 91 2zM217 551l138 138q33 33 53 33q15 0 24 -10t9 -25q0 -11 -7.5 -20.5t-14 -14t-18.5 -11.5l-144 -90h-40z" />
    <glyph glyph-name="Acircumflex.sc" unicode="&#xe003;" horiz-adv-x="611" 
d="M290 498h38l174 -395q22 -51 40 -64.5t50 -13.5v-28q-48 3 -119 3q-25 0 -70 -1.5t-53 -1.5v28q43 0 58.5 6t15.5 21q0 8 -5 22t-10 25t-14 29.5t-11 23.5q-68 2 -103 2q-33 0 -101 -2q-2 -4 -12 -22.5t-16 -35t-6 -33.5q0 -20 17 -28t57 -8v-28q-99 3 -104 3
q-16 0 -47 -1.5t-51 -1.5v28q36 0 55 17.5t51 90.5zM285 390l-88 -196q52 -2 81 -2q25 0 91 2zM263 718h62l125 -167h-35l-121 103l-121 -103h-35z" />
    <glyph glyph-name="Adieresis.sc" unicode="&#xe004;" horiz-adv-x="611" 
d="M290 498h38l174 -395q22 -51 40 -64.5t50 -13.5v-28q-48 3 -119 3q-25 0 -70 -1.5t-53 -1.5v28q43 0 58.5 6t15.5 21q0 8 -5 22t-10 25t-14 29.5t-11 23.5q-68 2 -103 2q-33 0 -101 -2q-2 -4 -12 -22.5t-16 -35t-6 -33.5q0 -20 17 -28t57 -8v-28q-99 3 -104 3
q-16 0 -47 -1.5t-51 -1.5v28q36 0 55 17.5t51 90.5zM285 390l-88 -196q52 -2 81 -2q25 0 91 2zM194 682q22 0 36 -14t14 -36t-14 -36t-36 -14t-36 14t-14 36t14 36t36 14zM393 682q23 0 36.5 -14t13.5 -36t-13.5 -36t-36.5 -14t-36.5 14t-13.5 36t13.5 36t36.5 14z" />
    <glyph glyph-name="Agrave.sc" unicode="&#xe005;" horiz-adv-x="611" 
d="M290 498h38l174 -395q22 -51 40 -64.5t50 -13.5v-28q-48 3 -119 3q-25 0 -70 -1.5t-53 -1.5v28q43 0 58.5 6t15.5 21q0 8 -5 22t-10 25t-14 29.5t-11 23.5q-68 2 -103 2q-33 0 -101 -2q-2 -4 -12 -22.5t-16 -35t-6 -33.5q0 -20 17 -28t57 -8v-28q-99 3 -104 3
q-16 0 -47 -1.5t-51 -1.5v28q36 0 55 17.5t51 90.5zM285 390l-88 -196q52 -2 81 -2q25 0 91 2zM330 551l-144 90q-12 7 -18.5 11.5t-14 14t-7.5 20.5q0 15 9 25t24 10q20 0 53 -33l138 -138h-40z" />
    <glyph glyph-name="Aring.sc" unicode="&#xe006;" horiz-adv-x="611" 
d="M290 498h38l174 -395q22 -51 40 -64.5t50 -13.5v-28q-48 3 -119 3q-25 0 -70 -1.5t-53 -1.5v28q43 0 58.5 6t15.5 21q0 8 -5 22t-10 25t-14 29.5t-11 23.5q-68 2 -103 2q-33 0 -101 -2q-2 -4 -12 -22.5t-16 -35t-6 -33.5q0 -20 17 -28t57 -8v-28q-99 3 -104 3
q-16 0 -47 -1.5t-51 -1.5v28q36 0 55 17.5t51 90.5zM285 390l-88 -196q52 -2 81 -2q25 0 91 2zM294 741q41 0 71 -29.5t29 -70.5q1 -41 -29 -70.5t-71 -29.5t-71 29.5t-29 70.5q-1 41 29 70.5t71 29.5zM294 705q-28 0 -45 -17.5t-17 -46.5t17 -46.5t45 -17.5t45 17.5
t17 46.5t-17 46.5t-45 17.5z" />
    <glyph glyph-name="Atilde.sc" unicode="&#xe007;" horiz-adv-x="611" 
d="M290 498h38l174 -395q22 -51 40 -64.5t50 -13.5v-28q-48 3 -119 3q-25 0 -70 -1.5t-53 -1.5v28q43 0 58.5 6t15.5 21q0 8 -5 22t-10 25t-14 29.5t-11 23.5q-68 2 -103 2q-33 0 -101 -2q-2 -4 -12 -22.5t-16 -35t-6 -33.5q0 -20 17 -28t57 -8v-28q-99 3 -104 3
q-16 0 -47 -1.5t-51 -1.5v28q36 0 55 17.5t51 90.5zM285 390l-88 -196q52 -2 81 -2q25 0 91 2zM430 677h29q0 -31 -26 -64q-32 -41 -80 -41q-15 0 -27.5 3t-20 6t-22.5 10t-23 11q-32 15 -49 15q-36 0 -53 -45h-29q8 45 36.5 72.5t72.5 27.5q24 0 76 -25q46 -22 60 -20
q24 3 35 14t21 36z" />
    <glyph glyph-name="B.sc" unicode="&#xe008;" 
d="M198 250v-212q28 -4 45 -4q65 0 94 34.5t29 79.5q0 106 -132 106q-14 0 -36 -4zM198 450v-164q27 0 40.5 0.5t37.5 5t36.5 12.5t23 25t10.5 42q0 83 -101 83q-13 0 -47 -4zM108 107v306q0 28 -16 36.5t-64 8.5v28q34 -2 118 -2q25 0 75.5 1t78.5 1q140 0 140 -97
q0 -43 -32 -75t-86 -36v-2q64 -1 104 -33.5t40 -79.5q0 -80 -54.5 -122.5t-141.5 -42.5q-21 0 -64.5 1t-63.5 1q-58 0 -84 -2v20q33 12 41.5 27.5t8.5 61.5z" />
    <glyph glyph-name="C.sc" unicode="&#xe009;" horiz-adv-x="556" 
d="M510 332h-28l-4 68q-52 62 -151 62q-80 0 -131.5 -59t-51.5 -158q0 -92 55 -153.5t157 -61.5q95 0 160 51l12 -7l-14 -38q-25 -20 -77.5 -35t-118.5 -15q-119 0 -196.5 71t-77.5 180q0 123 82.5 192t212.5 69q41 0 95 -10.5t88 -25.5q-12 -59 -12 -130z" />
    <glyph glyph-name="Ccedilla.sc" unicode="&#xe00a;" horiz-adv-x="556" 
d="M253 -108l42 96q-110 7 -180.5 76.5t-70.5 172.5q0 123 82.5 192t212.5 69q41 0 95 -10.5t88 -25.5q-12 -59 -12 -130h-28l-4 68q-52 62 -151 62q-80 0 -131.5 -59t-51.5 -158q0 -92 55 -153.5t157 -61.5q95 0 160 51l12 -7l-14 -38q-24 -20 -74 -34t-111 -15l-25 -62
q12 4 29 4q35 0 59 -18t24 -52q0 -44 -37 -64t-85 -20q-34 0 -86 16l14 31q40 -11 61 -11q28 0 43 9.5t15 36.5q0 16 -12.5 26t-27.5 10q-17 0 -41 -7z" />
    <glyph glyph-name="D.sc" unicode="&#xe00b;" horiz-adv-x="611" 
d="M206 377v-335q56 -4 66 -4q100 0 147 59.5t47 153.5q0 99 -51.5 149t-132.5 50q-44 0 -74 -6q-2 -50 -2 -67zM116 113v287q0 32 -16.5 45t-63.5 13v28q42 -2 124 -2q23 0 69 1t72 1q129 0 197 -57.5t68 -158.5q0 -43 -14 -87t-44 -87t-87 -70.5t-133 -27.5q-21 0 -64 1
t-63 1q-35 0 -93 -2v20q28 11 38 29.5t10 65.5z" />
    <glyph glyph-name="E.sc" unicode="&#xe00c;" 
d="M116 108v282q0 48 -17 59t-76 11v27q93 -3 94 -3q37 0 109 4t109 4q70 0 121 -8q-9 -52 -12 -120h-28q-5 62 -10 80q-56 10 -135 10q-27 0 -63 -6q-2 -35 -2 -175q46 -2 96 -2q36 0 46 12.5t10 54.5h30q-2 -54 -2 -85q0 -37 2 -93h-30q0 49 -15.5 62t-79.5 13
q-25 0 -57 -2q0 -130 4 -193q54 -4 88 -4q71 0 112 12q14 38 22 90h26q-1 -72 -8 -136q-50 -5 -136 -5q-30 0 -81 1.5t-74 1.5q-26 0 -70.5 -1.5t-58.5 -1.5v28q59 0 72.5 14t13.5 69z" />
    <glyph glyph-name="Eacute.sc" unicode="&#xe00d;" 
d="M116 108v282q0 48 -17 59t-76 11v27q93 -3 94 -3q37 0 109 4t109 4q70 0 121 -8q-9 -52 -12 -120h-28q-5 62 -10 80q-56 10 -135 10q-27 0 -63 -6q-2 -35 -2 -175q46 -2 96 -2q36 0 46 12.5t10 54.5h30q-2 -54 -2 -85q0 -37 2 -93h-30q0 49 -15.5 62t-79.5 13
q-25 0 -57 -2q0 -130 4 -193q54 -4 88 -4q71 0 112 12q14 38 22 90h26q-1 -72 -8 -136q-50 -5 -136 -5q-30 0 -81 1.5t-74 1.5q-26 0 -70.5 -1.5t-58.5 -1.5v28q59 0 72.5 14t13.5 69zM186 551l138 138q33 33 53 33q15 0 24 -10t9 -25q0 -11 -7.5 -20.5t-14 -14t-18.5 -11.5
l-144 -90h-40z" />
    <glyph glyph-name="Ecircumflex.sc" unicode="&#xe00e;" 
d="M116 108v282q0 48 -17 59t-76 11v27q93 -3 94 -3q37 0 109 4t109 4q70 0 121 -8q-9 -52 -12 -120h-28q-5 62 -10 80q-56 10 -135 10q-27 0 -63 -6q-2 -35 -2 -175q46 -2 96 -2q36 0 46 12.5t10 54.5h30q-2 -54 -2 -85q0 -37 2 -93h-30q0 49 -15.5 62t-79.5 13
q-25 0 -57 -2q0 -130 4 -193q54 -4 88 -4q71 0 112 12q14 38 22 90h26q-1 -72 -8 -136q-50 -5 -136 -5q-30 0 -81 1.5t-74 1.5q-26 0 -70.5 -1.5t-58.5 -1.5v28q59 0 72.5 14t13.5 69zM232 718h62l125 -167h-35l-121 103l-121 -103h-35z" />
    <glyph glyph-name="Edieresis.sc" unicode="&#xe00f;" 
d="M116 108v282q0 48 -17 59t-76 11v27q93 -3 94 -3q37 0 109 4t109 4q70 0 121 -8q-9 -52 -12 -120h-28q-5 62 -10 80q-56 10 -135 10q-27 0 -63 -6q-2 -35 -2 -175q46 -2 96 -2q36 0 46 12.5t10 54.5h30q-2 -54 -2 -85q0 -37 2 -93h-30q0 49 -15.5 62t-79.5 13
q-25 0 -57 -2q0 -130 4 -193q54 -4 88 -4q71 0 112 12q14 38 22 90h26q-1 -72 -8 -136q-50 -5 -136 -5q-30 0 -81 1.5t-74 1.5q-26 0 -70.5 -1.5t-58.5 -1.5v28q59 0 72.5 14t13.5 69zM151 682q23 0 36.5 -14t13.5 -36t-13.5 -36t-36.5 -14t-36.5 14t-13.5 36t13.5 36
t36.5 14zM350 682q22 0 36 -14t14 -36t-14 -36t-36 -14t-36 14t-14 36t14 36t36 14z" />
    <glyph glyph-name="Egrave.sc" unicode="&#xe010;" 
d="M116 108v282q0 48 -17 59t-76 11v27q93 -3 94 -3q37 0 109 4t109 4q70 0 121 -8q-9 -52 -12 -120h-28q-5 62 -10 80q-56 10 -135 10q-27 0 -63 -6q-2 -35 -2 -175q46 -2 96 -2q36 0 46 12.5t10 54.5h30q-2 -54 -2 -85q0 -37 2 -93h-30q0 49 -15.5 62t-79.5 13
q-25 0 -57 -2q0 -130 4 -193q54 -4 88 -4q71 0 112 12q14 38 22 90h26q-1 -72 -8 -136q-50 -5 -136 -5q-30 0 -81 1.5t-74 1.5q-26 0 -70.5 -1.5t-58.5 -1.5v28q59 0 72.5 14t13.5 69zM299 551l-144 90q-12 7 -18.5 11.5t-14 14t-7.5 20.5q0 15 9 25t24 10q20 0 53 -33
l138 -138h-40z" />
    <glyph glyph-name="Eth.sc" unicode="&#xe011;" horiz-adv-x="611" 
d="M206 236v-194q56 -4 66 -4q100 0 147 59.5t47 153.5q0 99 -51.5 149t-132.5 50q-44 0 -74 -6q-2 -50 -2 -67v-101h130v-40h-130zM116 113v123h-80v40h80v124q0 32 -16.5 45t-63.5 13v28q42 -2 124 -2q23 0 69 1t72 1q129 0 197 -57.5t68 -158.5q0 -43 -14 -87t-44 -87
t-87 -70.5t-133 -27.5q-21 0 -64 1t-63 1q-35 0 -93 -2v20q28 11 38 29.5t10 65.5z" />
    <glyph glyph-name="F.sc" unicode="&#xe012;" horiz-adv-x="444" 
d="M108 94v300q0 44 -14.5 54.5t-73.5 10.5v28q93 -3 114 -3q32 0 92 4q62 4 91 4q61 0 103 -8q-9 -54 -12 -118h-28q-4 47 -10 78q-53 8 -170 8q-2 -45 -2 -189q28 -2 72 -2q41 0 51.5 10.5t16.5 56.5h28q-2 -40 -2 -89q0 -31 2 -87h-28q-4 51 -16 62t-53 11q-27 0 -71 -2
v-139q0 -36 15.5 -47.5t70.5 -11.5v-28q-84 3 -136 3q-30 0 -72.5 -1.5t-57.5 -1.5v28q57 0 73.5 13t16.5 56z" />
    <glyph glyph-name="G.sc" unicode="&#xe013;" horiz-adv-x="556" 
d="M487 350h-27l-3 48q-2 30 -45 44.5t-98 15.5q-89 1 -135.5 -58t-46.5 -154q0 -67 21 -114.5t53.5 -69t59.5 -30t52 -8.5q66 0 96 20q2 25 2 86q0 24 -15 31t-63 9v24q30 0 72 -1t56 -1q36 0 62 2v-24l-27 -14q0 -92 3 -132q-102 -38 -205 -38q-115 0 -193 74t-78 176
q0 105 80.5 183t209.5 78q70 0 187 -33z" />
    <glyph glyph-name="H.sc" unicode="&#xe014;" horiz-adv-x="667" 
d="M118 92v306q0 43 -15.5 52t-78.5 9v28q123 -3 133 -3q27 0 74.5 1.5t62.5 1.5v-28q-58 0 -72 -9t-14 -52v-121q80 -2 129 -2t129 2v121q0 43 -14 52t-72 9v28q15 0 62.5 -1.5t74.5 -1.5q10 0 133 3v-28q-63 0 -78.5 -9t-15.5 -52v-306q0 -42 16 -54.5t74 -12.5v-28
l-126 3q-5 0 -140 -3v28q56 0 71 11t15 56v149q-80 2 -129 2t-129 -2v-149q0 -45 15 -56t71 -11v-28q-135 3 -140 3l-126 -3v28q58 0 74 12.5t16 54.5z" />
    <glyph glyph-name="I.sc" unicode="&#xe015;" horiz-adv-x="333" 
d="M120 92v312q0 37 -18 46t-72 9v28q108 -3 132 -3q27 0 73.5 1.5t64.5 1.5v-28q-59 0 -74.5 -8t-15.5 -47v-312q0 -45 14.5 -56t75.5 -11v-28q-132 3 -133 3q-20 0 -43 -0.5t-51 -1.5t-43 -1v28q57 0 73.5 11.5t16.5 55.5z" />
    <glyph glyph-name="Iacute.sc" unicode="&#xe016;" horiz-adv-x="333" 
d="M120 92v312q0 37 -18 46t-72 9v28q108 -3 132 -3q27 0 73.5 1.5t64.5 1.5v-28q-59 0 -74.5 -8t-15.5 -47v-312q0 -45 14.5 -56t75.5 -11v-28q-132 3 -133 3q-20 0 -43 -0.5t-51 -1.5t-43 -1v28q57 0 73.5 11.5t16.5 55.5zM90 551l138 138q33 33 53 33q15 0 24 -10t9 -25
q0 -11 -7.5 -20.5t-14 -14t-18.5 -11.5l-144 -90h-40z" />
    <glyph glyph-name="Icircumflex.sc" unicode="&#xe017;" horiz-adv-x="333" 
d="M120 92v312q0 37 -18 46t-72 9v28q108 -3 132 -3q27 0 73.5 1.5t64.5 1.5v-28q-59 0 -74.5 -8t-15.5 -47v-312q0 -45 14.5 -56t75.5 -11v-28q-132 3 -133 3q-20 0 -43 -0.5t-51 -1.5t-43 -1v28q57 0 73.5 11.5t16.5 55.5zM148 718h62l125 -167h-35l-121 103l-121 -103
h-35z" />
    <glyph glyph-name="Idieresis.sc" unicode="&#xe018;" horiz-adv-x="333" 
d="M120 92v312q0 37 -18 46t-72 9v28q108 -3 132 -3q27 0 73.5 1.5t64.5 1.5v-28q-59 0 -74.5 -8t-15.5 -47v-312q0 -45 14.5 -56t75.5 -11v-28q-132 3 -133 3q-20 0 -43 -0.5t-51 -1.5t-43 -1v28q57 0 73.5 11.5t16.5 55.5zM79 682q23 0 36.5 -14t13.5 -36t-13.5 -36
t-36.5 -14t-36.5 14t-13.5 36t13.5 36t36.5 14zM278 682q22 0 36 -14t14 -36t-14 -36t-36 -14t-36 14t-14 36t14 36t36 14z" />
    <glyph glyph-name="Igrave.sc" unicode="&#xe019;" horiz-adv-x="333" 
d="M120 92v312q0 37 -18 46t-72 9v28q108 -3 132 -3q27 0 73.5 1.5t64.5 1.5v-28q-59 0 -74.5 -8t-15.5 -47v-312q0 -45 14.5 -56t75.5 -11v-28q-132 3 -133 3q-20 0 -43 -0.5t-51 -1.5t-43 -1v28q57 0 73.5 11.5t16.5 55.5zM227 551l-144 90q-12 7 -18.5 11.5t-14 14
t-7.5 20.5q0 15 9 25t24 10q20 0 53 -33l138 -138h-40z" />
    <glyph glyph-name="J.sc" unicode="&#xe01a;" horiz-adv-x="333" 
d="M124 -24v415q0 46 -16 57t-76 11v28q63 -3 132 -3q1 0 136 3v-28q-60 0 -73 -13.5t-13 -79.5v-299q0 -108 -52.5 -161t-135.5 -53h-14q2 20 2 33q0 19 -2 33l9 3q24 -25 53 -25q50 0 50 79z" />
    <glyph glyph-name="K.sc" unicode="&#xe01b;" horiz-adv-x="556" 
d="M292 487v-28q-60 0 -73 -8t-13 -49v-143l6 -1q19 20 64.5 64.5t73.5 74.5t52 61v29q15 0 38 -0.5t34 -0.5q8 0 28 0.5t32 0.5v-27q-31 0 -47 -5.5t-37 -24.5l-158 -146l209 -225q26 -28 38 -32q6 -2 13 -2v-28q-9 0 -27 0.5t-27 0.5q-11 0 -33 -0.5t-33 -0.5l-216 243
l-10 -4v-154q0 -38 15 -47.5t73 -9.5v-28q-129 3 -132 3q-20 0 -42 -0.5t-49.5 -1.5t-42.5 -1v28q56 0 72 11t16 56v300q0 46 -15 56.5t-73 10.5v28q22 0 64 -1.5t64 -1.5q23 0 45.5 0.5t48 1.5t42.5 1z" />
    <glyph glyph-name="L.sc" unicode="&#xe01c;" 
d="M110 104v308q0 33 -15.5 40t-74.5 7v28q9 0 55 -1.5t73 -1.5q19 0 68 1.5t70 1.5v-28q-53 0 -69.5 -9.5t-16.5 -52.5v-265q0 -50 4 -93q40 -2 68 -2q107 0 146 14l20 81h30q-12 -59 -17 -132q-49 -3 -123 -3q-54 0 -104.5 1.5t-67.5 1.5q-19 0 -36 -0.5t-36.5 -1.5
t-31.5 -1v28q36 6 47 19t11 60z" />
    <glyph glyph-name="Lslash.sc" unicode="&#xe01d;" 
d="M48 154v44l62 38v176q0 33 -15.5 40t-74.5 7v28q9 0 55 -1.5t73 -1.5q19 0 68 1.5t70 1.5v-28q-53 0 -69.5 -9.5t-16.5 -52.5v-106l114 69v-44l-114 -69v-115q0 -50 4 -93q40 -2 68 -2q107 0 146 14l20 81h30q-12 -59 -17 -132q-49 -3 -123 -3q-54 0 -104.5 1.5
t-67.5 1.5q-19 0 -36 -0.5t-36.5 -1.5t-31.5 -1v28q36 6 47 19t11 60v88z" />
    <glyph glyph-name="M.sc" unicode="&#xe01e;" horiz-adv-x="778" 
d="M374 -12h-18l-190 410h-2v-318q0 -35 16.5 -45t69.5 -10v-28q-111 3 -112 3q-15 0 -32.5 -0.5t-38.5 -1.5t-33 -1v28q54 0 72 11t18 54v312q0 35 -19.5 46t-70.5 11v28q11 0 31.5 -1t37.5 -1.5t32 -0.5q1 0 91 3q14 -37 38 -91t68.5 -148.5t58.5 -125.5q161 350 167 365
q72 -3 76 -3q8 0 104 3v-28q-49 0 -65.5 -10.5t-16.5 -54.5v-312q0 -35 16.5 -46t65.5 -11v-28q-114 3 -124 3q-29 0 -75 -1.5t-55 -1.5v28q51 0 66.5 10t15.5 41v338h-2z" />
    <glyph glyph-name="N.sc" unicode="&#xe01f;" horiz-adv-x="667" 
d="M116 86v331q0 24 -18.5 32.5t-69.5 9.5v28q78 -3 82 -3q3 0 84 3q55 -72 163 -203t153 -188h2v312q0 32 -20 41.5t-72 9.5v28q10 0 51.5 -1.5t60.5 -1.5q17 0 35.5 0.5t41 1.5t35.5 1v-28q-59 0 -75.5 -13t-16.5 -64v-290q0 -7 6 -106l-80 10l-320 388h-2v-304
q0 -37 14 -46t72 -9v-28q-111 3 -113 3q-3 0 -105 -3v28q57 0 74.5 11.5t17.5 49.5z" />
    <glyph glyph-name="Ntilde.sc" unicode="&#xe020;" horiz-adv-x="667" 
d="M116 86v331q0 24 -18.5 32.5t-69.5 9.5v28q78 -3 82 -3q3 0 84 3q55 -72 163 -203t153 -188h2v312q0 32 -20 41.5t-72 9.5v28q10 0 51.5 -1.5t60.5 -1.5q17 0 35.5 0.5t41 1.5t35.5 1v-28q-59 0 -75.5 -13t-16.5 -64v-290q0 -7 6 -106l-80 10l-320 388h-2v-304
q0 -37 14 -46t72 -9v-28q-111 3 -113 3q-3 0 -105 -3v28q57 0 74.5 11.5t17.5 49.5zM458 677h29q0 -31 -26 -64q-32 -41 -80 -41q-15 0 -27.5 3t-20 6t-22.5 10t-23 11q-33 15 -49 15q-36 0 -53 -45h-29q8 45 36.5 72.5t72.5 27.5q24 0 76 -25q46 -22 60 -20q24 3 35 14
t21 36z" />
    <glyph glyph-name="O.sc" unicode="&#xe021;" horiz-adv-x="611" 
d="M313 498q122 0 189.5 -70t67.5 -169q0 -108 -75 -190.5t-197 -82.5q-98 0 -178 68.5t-80 181.5q0 123 79 192.5t194 69.5zM294 464q-67 0 -110.5 -53t-43.5 -145q0 -44 9 -84t29 -76.5t57 -58t87 -21.5q42 0 72.5 18.5t46 51t22.5 67t7 73.5q0 100 -44 164t-132 64z" />
    <glyph glyph-name="OE.sc" unicode="&#xe022;" horiz-adv-x="833" 
d="M442 181v175q0 24 -4 74q-64 32 -113 32q-75 0 -129 -53.5t-54 -157.5q0 -41 10.5 -78.5t33.5 -71.5t64.5 -54.5t97.5 -20.5q55 0 88 18q6 56 6 137zM532 228v-186q52 -4 84 -4q66 0 128 12l22 88h28l-10 -138q-92 4 -172 4q-131 0 -212 -9q-17 -2 -37 -4t-32.5 -3.5
t-22.5 -1.5q-118 0 -192 81t-74 187q0 103 72 173.5t203 70.5q37 0 89 -9q67 -9 88 -9q22 0 74 4t84 4q49 0 134 -8l-10 -120h-24q-10 63 -14 78q-53 10 -130 10q-15 0 -41.5 -2t-34.5 -2v-172q30 -2 105 -2q37 0 46 11t9 53h30q-4 -64 -4 -84q0 -24 4 -88h-30
q0 46 -14.5 58t-69.5 12q-6 0 -76 -4z" />
    <glyph glyph-name="Oacute.sc" unicode="&#xe023;" horiz-adv-x="611" 
d="M313 498q122 0 189.5 -70t67.5 -169q0 -108 -75 -190.5t-197 -82.5q-98 0 -178 68.5t-80 181.5q0 123 79 192.5t194 69.5zM294 464q-67 0 -110.5 -53t-43.5 -145q0 -44 9 -84t29 -76.5t57 -58t87 -21.5q42 0 72.5 18.5t46 51t22.5 67t7 73.5q0 100 -44 164t-132 64z
M217 551l138 138q33 33 53 33q15 0 24 -10t9 -25q0 -11 -7.5 -20.5t-14 -14t-18.5 -11.5l-144 -90h-40z" />
    <glyph glyph-name="Ocircumflex.sc" unicode="&#xe024;" horiz-adv-x="611" 
d="M313 498q122 0 189.5 -70t67.5 -169q0 -108 -75 -190.5t-197 -82.5q-98 0 -178 68.5t-80 181.5q0 123 79 192.5t194 69.5zM294 464q-67 0 -110.5 -53t-43.5 -145q0 -44 9 -84t29 -76.5t57 -58t87 -21.5q42 0 72.5 18.5t46 51t22.5 67t7 73.5q0 100 -44 164t-132 64z
M275 718h62l125 -167h-35l-121 103l-121 -103h-35z" />
    <glyph glyph-name="Odieresis.sc" unicode="&#xe025;" horiz-adv-x="611" 
d="M313 498q122 0 189.5 -70t67.5 -169q0 -108 -75 -190.5t-197 -82.5q-98 0 -178 68.5t-80 181.5q0 123 79 192.5t194 69.5zM294 464q-67 0 -110.5 -53t-43.5 -145q0 -44 9 -84t29 -76.5t57 -58t87 -21.5q42 0 72.5 18.5t46 51t22.5 67t7 73.5q0 100 -44 164t-132 64z
M206 682q22 0 36 -14t14 -36t-14 -36t-36 -14t-36 14t-14 36t14 36t36 14zM405 682q23 0 36.5 -14t13.5 -36t-13.5 -36t-36.5 -14t-36.5 14t-13.5 36t13.5 36t36.5 14z" />
    <glyph glyph-name="Ograve.sc" unicode="&#xe026;" horiz-adv-x="611" 
d="M313 498q122 0 189.5 -70t67.5 -169q0 -108 -75 -190.5t-197 -82.5q-98 0 -178 68.5t-80 181.5q0 123 79 192.5t194 69.5zM294 464q-67 0 -110.5 -53t-43.5 -145q0 -44 9 -84t29 -76.5t57 -58t87 -21.5q42 0 72.5 18.5t46 51t22.5 67t7 73.5q0 100 -44 164t-132 64z
M342 551l-144 90q-12 7 -18.5 11.5t-14 14t-7.5 20.5q0 15 9 25t24 10q20 0 53 -33l138 -138h-40z" />
    <glyph glyph-name="Oslash.sc" unicode="&#xe027;" horiz-adv-x="611" 
d="M164 135l265 260q-47 69 -135 69q-67 0 -110.5 -53t-43.5 -145q0 -73 24 -131zM448 360l-265 -261q46 -73 139 -73q42 0 72.5 18.5t46 51t22.5 67t7 73.5q0 73 -22 124zM570 480l-60 -59q60 -66 60 -162q0 -108 -75 -190.5t-197 -82.5q-93 0 -168 61l-70 -69l-28 28
l69 68q-61 68 -61 162q0 123 79 192.5t194 69.5q103 0 168 -52l61 60z" />
    <glyph glyph-name="Otilde.sc" unicode="&#xe028;" horiz-adv-x="611" 
d="M313 498q122 0 189.5 -70t67.5 -169q0 -108 -75 -190.5t-197 -82.5q-98 0 -178 68.5t-80 181.5q0 123 79 192.5t194 69.5zM294 464q-67 0 -110.5 -53t-43.5 -145q0 -44 9 -84t29 -76.5t57 -58t87 -21.5q42 0 72.5 18.5t46 51t22.5 67t7 73.5q0 100 -44 164t-132 64z
M442 677h29q0 -31 -26 -64q-32 -41 -80 -41q-15 0 -27.5 3t-20 6t-22.5 10t-23 11q-32 15 -49 15q-36 0 -53 -45h-29q8 45 36.5 72.5t72.5 27.5q24 0 76 -25q46 -22 60 -20q24 3 35 14t21 36z" />
    <glyph glyph-name="P.sc" unicode="&#xe029;" 
d="M114 86v314q0 39 -14.5 49t-75.5 10v28q84 -3 123 -3q25 0 75 4t77 4q94 0 131.5 -31.5t37.5 -88.5q0 -56 -46 -101t-130 -45q-26 0 -44 8l-6 30q13 -8 32 -8q100 0 100 104q0 44 -31 71t-77 27q-21 0 -62 -12v-360q0 -35 16 -46.5t72 -14.5v-28q-72 3 -132 3
q-20 0 -42.5 -0.5t-50 -1.5t-43.5 -1v28q53 0 71.5 13t18.5 48z" />
    <glyph glyph-name="Q.sc" unicode="&#xe02a;" horiz-adv-x="611" 
d="M216 -97v24q64 53 96 57v3q-5 -1 -14 -1q-98 0 -178 68.5t-80 181.5q0 123 79 192.5t194 69.5q122 0 189.5 -70t67.5 -169q0 -101 -66.5 -181t-175.5 -90v-2q8 0 20.5 -4t37.5 -15t35 -15q6 -2 22 -9t23 -9.5t21 -5t29 -2.5q37 0 44 8v-22q-14 -9 -68 -50q-65 8 -122 33
q-60 27 -92 27q-24 0 -62 -19zM294 464q-67 0 -110.5 -53t-43.5 -145q0 -44 9 -84t29 -76.5t57 -58t87 -21.5q42 0 72.5 18.5t46 51t22.5 67t7 73.5q0 100 -44 164t-132 64z" />
    <glyph glyph-name="R.sc" unicode="&#xe02b;" horiz-adv-x="556" 
d="M24 -3v28q58 0 74 9.5t16 51.5v314q0 39 -14.5 49t-75.5 10v28q21 0 64 -1.5t68 -1.5q26 0 81 1.5t82 1.5q155 0 155 -108q0 -14 -3 -26t-6.5 -22t-11 -19t-12.5 -15.5t-16 -13.5l-16.5 -10.5t-18.5 -9t-17.5 -7.5t-17.5 -6.5t-15 -5.5l153 -187q16 -20 26.5 -26t32.5 -6
v-25h-124l-200 242l4 16q22 -2 36 -2q45 0 75.5 29.5t30.5 74.5q0 49 -26 71.5t-80 22.5q-42 0 -64 -10v-370q0 -34 14.5 -41.5t73.5 -7.5v-28q-72 3 -132 3q-20 0 -42.5 -0.5t-50 -1.5t-43.5 -1z" />
    <glyph glyph-name="S.sc" unicode="&#xe02c;" horiz-adv-x="444" 
d="M362 364h-28q-1 60 -20 74q-32 24 -83 24q-48 0 -77.5 -26t-29.5 -67q0 -43 28.5 -61.5t69 -21t81 -7.5t69 -32.5t28.5 -84.5q0 -75 -61.5 -125.5t-157.5 -50.5q-77 0 -135 28q6 42 6 114h28q0 -56 26.5 -81t85.5 -25q52 0 88 28t36 84q0 42 -28 59t-68 18.5t-80 6
t-68 33t-28 86.5q0 74 54 117.5t137 43.5q73 0 135 -34q-8 -41 -8 -100z" />
    <glyph glyph-name="Scaron.sc" unicode="&#xe02d;" horiz-adv-x="444" 
d="M362 364h-28q-1 60 -20 74q-32 24 -83 24q-48 0 -77.5 -26t-29.5 -67q0 -43 28.5 -61.5t69 -21t81 -7.5t69 -32.5t28.5 -84.5q0 -75 -61.5 -125.5t-157.5 -50.5q-77 0 -135 28q6 42 6 114h28q0 -56 26.5 -81t85.5 -25q52 0 88 28t36 84q0 42 -28 59t-68 18.5t-80 6
t-68 33t-28 86.5q0 74 54 117.5t137 43.5q73 0 135 -34q-8 -41 -8 -100zM223 603l122 103h34l-125 -167h-62l-125 167h35z" />
    <glyph glyph-name="T.sc" unicode="&#xe02e;" 
d="M116 -3v28q54 0 70 10t16 45v366h-52q-43 0 -64 -5t-27 -14.5t-7 -30.5l-2 -40h-28l-4 131q48 -3 228 -3t228 3l-4 -131h-28l-2 40q-1 21 -7 30.5t-27 14.5t-64 5h-50v-366q0 -33 16 -44t68 -11v-28q-123 3 -124 3t-136 -3z" />
    <glyph glyph-name="Thorn.sc" unicode="&#xe02f;" 
d="M114 92v312q0 38 -17.5 46.5t-72.5 8.5v28q54 -3 132 -3q27 0 73.5 1.5t64.5 1.5v-28q-59 0 -74.5 -8t-15.5 -47v-44q47 10 95 10q96 0 132.5 -29.5t36.5 -90.5q0 -57 -46.5 -101.5t-133.5 -44.5q-26 0 -40 8l-6 30q13 -8 32 -8q50 0 75 28t25 76q0 46 -29.5 72t-80.5 26
q-24 0 -60 -12v-232q0 -45 14.5 -56t75.5 -11v-28q-132 3 -133 3q-20 0 -43 -0.5t-51 -1.5t-43 -1v28q57 0 73.5 11.5t16.5 55.5z" />
    <glyph glyph-name="U.sc" unicode="&#xe030;" horiz-adv-x="611" 
d="M194 419v-242q0 -69 30.5 -104t104.5 -35q67 0 101.5 33.5t34.5 107.5v216q0 42 -14 53t-71 11v28q12 0 34 -1t39.5 -1.5t33.5 -0.5q25 0 103 3v-28q-55 0 -70 -10.5t-15 -49.5v-215q0 -43 -7.5 -75t-27.5 -62t-61 -45.5t-101 -15.5q-118 0 -161 45.5t-43 143.5v234
q0 32 -18 41t-66 9v28q14 0 40.5 -1t47.5 -1.5t40 -0.5q17 0 55.5 1.5t66.5 1.5v-26q-46 -1 -61 -10t-15 -32z" />
    <glyph glyph-name="Uacute.sc" unicode="&#xe031;" horiz-adv-x="611" 
d="M194 419v-242q0 -69 30.5 -104t104.5 -35q67 0 101.5 33.5t34.5 107.5v216q0 42 -14 53t-71 11v28q12 0 34 -1t39.5 -1.5t33.5 -0.5q25 0 103 3v-28q-55 0 -70 -10.5t-15 -49.5v-215q0 -43 -7.5 -75t-27.5 -62t-61 -45.5t-101 -15.5q-118 0 -161 45.5t-43 143.5v234
q0 32 -18 41t-66 9v28q14 0 40.5 -1t47.5 -1.5t40 -0.5q17 0 55.5 1.5t66.5 1.5v-26q-46 -1 -61 -10t-15 -32zM241 551l138 138q33 33 53 33q15 0 24 -10t9 -25q0 -11 -7.5 -20.5t-14 -14t-18.5 -11.5l-144 -90h-40z" />
    <glyph glyph-name="Ucircumflex.sc" unicode="&#xe032;" horiz-adv-x="611" 
d="M194 419v-242q0 -69 30.5 -104t104.5 -35q67 0 101.5 33.5t34.5 107.5v216q0 42 -14 53t-71 11v28q12 0 34 -1t39.5 -1.5t33.5 -0.5q25 0 103 3v-28q-55 0 -70 -10.5t-15 -49.5v-215q0 -43 -7.5 -75t-27.5 -62t-61 -45.5t-101 -15.5q-118 0 -161 45.5t-43 143.5v234
q0 32 -18 41t-66 9v28q14 0 40.5 -1t47.5 -1.5t40 -0.5q17 0 55.5 1.5t66.5 1.5v-26q-46 -1 -61 -10t-15 -32zM275 718h62l125 -167h-35l-121 103l-121 -103h-35z" />
    <glyph glyph-name="Udieresis.sc" unicode="&#xe033;" horiz-adv-x="611" 
d="M194 419v-242q0 -69 30.5 -104t104.5 -35q67 0 101.5 33.5t34.5 107.5v216q0 42 -14 53t-71 11v28q12 0 34 -1t39.5 -1.5t33.5 -0.5q25 0 103 3v-28q-55 0 -70 -10.5t-15 -49.5v-215q0 -43 -7.5 -75t-27.5 -62t-61 -45.5t-101 -15.5q-118 0 -161 45.5t-43 143.5v234
q0 32 -18 41t-66 9v28q14 0 40.5 -1t47.5 -1.5t40 -0.5q17 0 55.5 1.5t66.5 1.5v-26q-46 -1 -61 -10t-15 -32zM206 682q22 0 36 -14t14 -36t-14 -36t-36 -14t-36 14t-14 36t14 36t36 14zM405 682q23 0 36.5 -14t13.5 -36t-13.5 -36t-36.5 -14t-36.5 14t-13.5 36t13.5 36
t36.5 14z" />
    <glyph glyph-name="Ugrave.sc" unicode="&#xe034;" horiz-adv-x="611" 
d="M194 419v-242q0 -69 30.5 -104t104.5 -35q67 0 101.5 33.5t34.5 107.5v216q0 42 -14 53t-71 11v28q12 0 34 -1t39.5 -1.5t33.5 -0.5q25 0 103 3v-28q-55 0 -70 -10.5t-15 -49.5v-215q0 -43 -7.5 -75t-27.5 -62t-61 -45.5t-101 -15.5q-118 0 -161 45.5t-43 143.5v234
q0 32 -18 41t-66 9v28q14 0 40.5 -1t47.5 -1.5t40 -0.5q17 0 55.5 1.5t66.5 1.5v-26q-46 -1 -61 -10t-15 -32zM330 551l-144 90q-12 7 -18.5 11.5t-14 14t-7.5 20.5q0 15 9 25t24 10q20 0 53 -33l138 -138h-40z" />
    <glyph glyph-name="V.sc" unicode="&#xe035;" horiz-adv-x="556" 
d="M306 -8h-50l-169 422q-11 29 -25.5 37t-49.5 8v28q23 0 58 -1.5t50 -1.5q21 0 70 1.5t64 1.5v-28q-47 0 -61.5 -4t-14.5 -20q0 -6 26 -69l104 -261l109 282q11 27 11 42q0 17 -16.5 23.5t-55.5 6.5v28q102 -3 103 -3q13 0 41.5 1.5t41.5 1.5v-28q-35 0 -47.5 -13
t-31.5 -61z" />
    <glyph glyph-name="W.sc" unicode="&#xe036;" horiz-adv-x="778" 
d="M388 488h38l139 -375h2l72 248q13 48 13 65q0 33 -74 33v28q10 0 44.5 -1.5t51.5 -1.5q19 0 88 3v-28q-36 -2 -46 -12t-21 -47l-121 -408h-58l-130 359h-2l-124 -359h-56l-108 384q-14 51 -30.5 67t-53.5 16v28q84 -3 115 -3q18 0 61 1.5t60 1.5v-28q-47 0 -61.5 -4
t-14.5 -22q0 -10 7 -33l78 -287h2z" />
    <glyph glyph-name="X.sc" unicode="&#xe037;" 
d="M28 442v32q94 8 138 19q16 -21 43 -68l61 -107l110 166h94v-28q-30 0 -42.5 -8t-32.5 -34l-105 -138l118 -206q14 -25 27 -32.5t45 -11.5v-28q-58 2 -65 2q-17 0 -73 -2l-108 202q-53 -77 -126 -202q-28 2 -45 2q-19 0 -51 -2v28q33 1 47 10.5t34 37.5l117 166l-79 137
q-26 45 -41.5 57t-38.5 12q-9 0 -27 -4z" />
    <glyph glyph-name="Y.sc" unicode="&#xe038;" 
d="M124 -3v28q53 0 70.5 11t17.5 37v131q-65 117 -109 179q-31 43 -46 54t-43 11v28q100 16 103 17q40 -14 75 -79l90 -166q91 162 130 236h68v-14q-68 -77 -178 -272v-103q0 -47 17.5 -58.5t68.5 -11.5v-28l-132 3z" />
    <glyph glyph-name="Yacute.sc" unicode="&#xe039;" 
d="M124 -3v28q53 0 70.5 11t17.5 37v131q-65 117 -109 179q-31 43 -46 54t-43 11v28q100 16 103 17q40 -14 75 -79l90 -166q91 162 130 236h68v-14q-68 -77 -178 -272v-103q0 -47 17.5 -58.5t68.5 -11.5v-28l-132 3zM194 551l138 138q33 33 53 33q15 0 24 -10t9 -25
q0 -11 -7.5 -20.5t-14 -14t-18.5 -11.5l-144 -90h-40z" />
    <glyph glyph-name="Ydieresis.sc" unicode="&#xe03a;" 
d="M124 -3v28q53 0 70.5 11t17.5 37v131q-65 117 -109 179q-31 43 -46 54t-43 11v28q100 16 103 17q40 -14 75 -79l90 -166q91 162 130 236h68v-14q-68 -77 -178 -272v-103q0 -47 17.5 -58.5t68.5 -11.5v-28l-132 3zM151 682q23 0 36.5 -14t13.5 -36t-13.5 -36t-36.5 -14
t-36.5 14t-13.5 36t13.5 36t36.5 14zM350 682q22 0 36 -14t14 -36t-14 -36t-36 -14t-36 14t-14 36t14 36t36 14z" />
    <glyph glyph-name="Z.sc" unicode="&#xe03b;" 
d="M20 0v24l330 422q-62 2 -120 2q-100 0 -119.5 -7.5t-22.5 -50.5l-2 -22l-28 -4q2 40 2 63q0 41 -2 60q105 -3 256 -3q67 0 160 3v-29l-335 -422q36 -2 71 -2q75 0 166 4q45 2 55.5 18.5t14.5 75.5h31q-3 -20 -4.5 -42t-2.5 -48.5t-2 -41.5q-55 -3 -184 -3q-223 0 -264 3z
" />
    <glyph glyph-name="Zcaron.sc" unicode="&#xe03c;" 
d="M20 0v24l330 422q-62 2 -120 2q-100 0 -119.5 -7.5t-22.5 -50.5l-2 -22l-28 -4q2 40 2 63q0 41 -2 60q105 -3 256 -3q67 0 160 3v-29l-335 -422q36 -2 71 -2q75 0 166 4q45 2 55.5 18.5t14.5 75.5h31q-3 -20 -4.5 -42t-2.5 -48.5t-2 -41.5q-55 -3 -184 -3q-223 0 -264 3z
M251 603l122 103h34l-125 -167h-62l-125 167h35z" />
    <glyph glyph-name="germandbls.sc" unicode="&#xe03f;" horiz-adv-x="888" 
d="M362 364h-28q-1 60 -20 74q-32 24 -83 24q-48 0 -77.5 -26t-29.5 -67q0 -43 28.5 -61.5t69 -21t81 -7.5t69 -32.5t28.5 -84.5q0 -75 -61.5 -125.5t-157.5 -50.5q-77 0 -135 28q6 42 6 114h28q0 -56 26.5 -81t85.5 -25q52 0 88 28t36 84q0 42 -28 59t-68 18.5t-80 6
t-68 33t-28 86.5q0 74 54 117.5t137 43.5q73 0 135 -34q-8 -41 -8 -100zM806 364h-28q-1 60 -20 74q-32 24 -83 24q-48 0 -77.5 -26t-29.5 -67q0 -43 28.5 -61.5t69 -21t81 -7.5t69 -32.5t28.5 -84.5q0 -75 -61.5 -125.5t-157.5 -50.5q-77 0 -135 28q6 42 6 114h28
q0 -56 26.5 -81t85.5 -25q52 0 88 28t36 84q0 42 -28 59t-68 18.5t-80 6t-68 33t-28 86.5q0 74 54 117.5t137 43.5q73 0 135 -34q-8 -41 -8 -100z" />
    <glyph glyph-name="zero.taboldstyle" unicode="&#xf643;" 
d="M22 208q0 119 67 194.5t173 75.5q57 0 100.5 -20t68 -54.5t36 -73.5t11.5 -82q0 -121 -70 -194.5t-169 -73.5q-106 0 -161.5 69t-55.5 159zM252 14q142 0 142 221q0 105 -34 157t-110 52q-67 0 -105.5 -50t-38.5 -148q0 -232 146 -232z" />
    <glyph glyph-name="one.taboldstyle" unicode="&#xf644;" 
d="M430 25v-28q-162 3 -164 3q-25 0 -53 -0.5t-63 -1.5t-54 -1v28l74 5q35 2 44.5 13.5t9.5 55.5v274q0 32 -11 32q-6 0 -55 -18.5t-68 -21.5l-16 4l-2 42q109 16 289 73v-32q-32 -6 -42.5 -17.5t-10.5 -50.5v-279q0 -49 9 -62t46 -15z" />
    <glyph glyph-name="two.taboldstyle" unicode="&#xf645;" 
d="M152 76h201q55 0 115 11q-2 -34 -2 -49t2 -47q-40 4 -101 6q-59 3 -120 3q-107 0 -215 -3l-9 12q18 22 33 57q53 29 90 51t85.5 57.5t74.5 72t26 72.5q0 50 -34 72t-80 22q-71 0 -142 -68l-20 16l62 83q54 34 124 34q79 0 126.5 -37t47.5 -97q0 -25 -7 -47t-23 -42.5
t-32 -37t-43.5 -36t-47.5 -33t-55.5 -35.5t-55.5 -35v-2z" />
    <glyph glyph-name="three.taboldstyle" unicode="&#xf646;" 
d="M150 142v36q69 10 113.5 44.5t44.5 93.5q0 43 -28.5 70.5t-72.5 27.5q-26 0 -49.5 -10t-37 -20.5t-46.5 -37.5l-12 18l58 80q19 12 51.5 23t61.5 11q69 0 114 -32.5t45 -89.5q0 -28 -17.5 -56t-35 -44.5t-45.5 -37.5v-2q69 0 106.5 -41t37.5 -101q0 -48 -29 -102.5
t-76.5 -100.5t-116.5 -76.5t-141 -30.5q-31 40 -61 62l6 16q65 -24 102 -24q100 0 166 66.5t66 150.5q0 127 -120 127q-34 0 -84 -20z" />
    <glyph glyph-name="four.taboldstyle" unicode="&#xf647;" 
d="M468 66v-70l-24 3q-8 1 -25 1h-61v-118q0 -20 2 -50t2 -42q-14 -3 -78 -26l-14 2q0 8 4 50t4 76v108q-24 2 -50 2h-152q-28 0 -62 -2l-10 16q143 240 304 434l44 28l12 -8q-6 -190 -6 -212v-198q50 0 110 6zM278 60v300h-2q-122 -167 -198 -298q70 -4 106 -4q32 0 94 2z
" />
    <glyph glyph-name="five.taboldstyle" unicode="&#xf648;" 
d="M426 392h-274q-8 -51 -8 -168q56 22 104 22q86 0 132 -45t46 -116q0 -65 -50.5 -140t-134.5 -128t-169 -53q-20 25 -58 54l6 16q41 -12 83 -12q102 0 170.5 65.5t68.5 155.5q0 70 -37 104.5t-91 34.5q-15 0 -28.5 -2t-22 -5t-22.5 -7.5t-23 -7.5l-12 6q2 70 2 105
q0 111 -8 191l8 8q32 -2 60 -3q10 0 29.5 -0.5t30.5 -0.5h98q61 0 106 6l12 -4q-12 -36 -18 -76z" />
    <glyph glyph-name="six.taboldstyle" unicode="&#xf649;" 
d="M388 700l34 -16v-6q-46 -15 -82 -32t-73.5 -45t-64 -62.5t-46 -85.5t-26.5 -113l2 -2q77 80 163 80q85 0 129 -55t44 -137q0 -95 -60 -167.5t-164 -72.5q-99 0 -155 74.5t-57 181.5q-1 70 14.5 130.5t39.5 104t58.5 80.5t66.5 60t69 41.5t61 27t47 14.5zM249 356
q-34 0 -66 -18t-46 -41q-15 -22 -15 -64q0 -102 34.5 -157.5t95.5 -55.5q124 0 128 178q1 75 -34.5 116.5t-96.5 41.5z" />
    <glyph glyph-name="seven.taboldstyle" unicode="&#xf64a;" 
d="M494 470v-24q-257 -450 -340 -680q-64 0 -100 -2l-8 6q49 74 101 159t113 188.5t98 163.5q50 82 50 92q0 9 -30.5 11t-124.5 2q-117 0 -142.5 -6.5t-29.5 -38.5l-11 -73h-28q4 48 4 108q0 36 -2 88l6 6q118 -6 176 -6q92 0 268 6z" />
    <glyph glyph-name="eight.taboldstyle" unicode="&#xf64b;" 
d="M464 207q0 -83 -66 -152t-170 -69q-89 0 -143.5 49t-54.5 124q0 71 36.5 114.5t101.5 74.5q-62 35 -90 73.5t-28 89.5q0 72 56 127.5t157 55.5q75 0 125 -40.5t50 -107.5q0 -28 -11.5 -53.5t-34.5 -47t-39 -33.5t-41 -28q38 -19 53.5 -27.5t39.5 -26t33.5 -32t17.5 -38
t8 -53.5zM384 164q0 53 -34.5 89.5t-145.5 80.5q-35 -20 -69.5 -64t-34.5 -104q0 -70 38 -108t100 -38q66 0 106 42.5t40 101.5zM368 537q0 65 -32.5 94t-81.5 29q-55 0 -89.5 -30t-34.5 -81q0 -48 33.5 -80.5t114.5 -68.5q24 15 39.5 27t33 42.5t17.5 67.5z" />
    <glyph glyph-name="nine.taboldstyle" unicode="&#xf64c;" 
d="M104 -238l-36 16v8q277 65 304 338q-3 -3 -20 -18t-20 -17.5t-17 -13.5t-19 -13.5t-17.5 -9.5t-21 -8.5t-21 -3.5t-25.5 -2q-81 0 -131 54.5t-50 149.5q0 112 66 174t150 62q95 0 157.5 -69.5t62.5 -210.5q0 -78 -22.5 -146.5t-59 -114t-78.5 -81t-83.5 -55t-72 -29.5
t-46.5 -10zM246 100q65 0 97.5 40.5t32.5 108.5q0 94 -35.5 144.5t-94.5 50.5q-57 0 -94.5 -49.5t-37.5 -130.5q0 -64 31.5 -114t100.5 -50z" />
    <glyph glyph-name="dollar.taboldstyle" unicode="&#xf653;" 
d="M223 18v279q-37 4 -62.5 9t-52 16t-42.5 27.5t-26 44t-10 64.5q0 87 52.5 142t140.5 66q-1 15 -2.5 37t-1.5 28h45q-2 -24 -4 -62q108 -8 166 -43q-13 -47 -13 -126h-32v42q0 24 -3 36q-6 24 -43.5 38.5t-74.5 16.5v-260q39 -4 65 -8.5t56.5 -15.5t48 -27.5t29.5 -45.5
t12 -68q0 -95 -61 -153t-150 -71q1 -19 2.5 -53.5t1.5 -46.5h-45q2 24 4 98q-92 0 -193 42q8 44 12 148h32v-64q0 -20 3 -26q13 -25 57.5 -43.5t88.5 -20.5zM260 292v-274q54 6 93 50t39 103q0 61 -33.5 87t-98.5 34zM223 379v251q-58 -4 -88 -41.5t-30 -95.5q0 -56 30 -82
t88 -32z" />
    <glyph glyph-name="cent.taboldstyle" unicode="&#xf654;" 
d="M347 411l-106 -353q38 -22 84 -22q49 0 114 28l9 -11l-20 -33q-65 -34 -138 -34q-40 0 -69 5l-28 -92h-41l32 104q-61 28 -92 84t-31 126q0 152 102 203l80 40q29 14 82 14l27 92h40l-27 -92q39 0 80 -26q-12 -71 -11 -130h-28l-9 66q-16 18 -50 31zM208 84l101 335
q-71 17 -115 -25t-44 -141q0 -118 58 -169z" />
    <glyph glyph-name="breve.sc" unicode="&#xf6f4;" horiz-adv-x="333" 
d="M26 689h30q0 -43 34.5 -70.5t76.5 -27.5t76.5 27.5t34.5 70.5h30q0 -67 -37.5 -112.5t-103.5 -45.5t-103.5 45.5t-37.5 112.5z" />
    <glyph glyph-name="caron.sc" unicode="&#xf6f5;" horiz-adv-x="333" 
d="M167 595l122 103h34l-125 -167h-62l-125 167h35z" />
    <glyph glyph-name="circumflex.sc" unicode="&#xf6f6;" horiz-adv-x="333" 
d="M136 698h62l125 -167h-35l-121 103l-121 -103h-35z" />
    <glyph glyph-name="dotaccent.sc" unicode="&#xf6f7;" horiz-adv-x="250" 
d="M125 662q23 0 36.5 -14t13.5 -36t-13.5 -36t-36.5 -14t-36.5 14t-13.5 36t13.5 36t36.5 14z" />
    <glyph glyph-name="hungarumlaut.sc" unicode="&#xf6f8;" horiz-adv-x="380" 
d="M3 531l128 148q29 33 53 33q15 0 24 -10t9 -25q0 -19 -39 -48l-135 -98h-40zM163 531l128 148q29 33 53 33q15 0 24 -10t9 -25q0 -19 -39 -48l-135 -98h-40z" />
    <glyph glyph-name="lslash.sc" unicode="&#xf6f9;" 
d="M48 154v44l62 38v176q0 33 -15.5 40t-74.5 7v28q9 0 55 -1.5t73 -1.5q19 0 68 1.5t70 1.5v-28q-53 0 -69.5 -9.5t-16.5 -52.5v-106l114 69v-44l-114 -69v-115q0 -50 4 -93q40 -2 68 -2q107 0 146 14l20 81h30q-12 -59 -17 -132q-49 -3 -123 -3q-54 0 -104.5 1.5
t-67.5 1.5q-19 0 -36 -0.5t-36.5 -1.5t-31.5 -1v28q36 6 47 19t11 60v88z" />
    <glyph glyph-name="oe.sc" unicode="&#xf6fa;" horiz-adv-x="833" 
d="M442 181v175q0 24 -4 74q-64 32 -113 32q-75 0 -129 -53.5t-54 -157.5q0 -41 10.5 -78.5t33.5 -71.5t64.5 -54.5t97.5 -20.5q55 0 88 18q6 56 6 137zM532 228v-186q52 -4 84 -4q66 0 128 12l22 88h28l-10 -138q-92 4 -172 4q-131 0 -212 -9q-17 -2 -37 -4t-32.5 -3.5
t-22.5 -1.5q-118 0 -192 81t-74 187q0 103 72 173.5t203 70.5q37 0 89 -9q67 -9 88 -9q22 0 74 4t84 4q49 0 134 -8l-10 -120h-24q-10 63 -14 78q-53 10 -130 10q-15 0 -41.5 -2t-34.5 -2v-172q30 -2 105 -2q37 0 46 11t9 53h30q-4 -64 -4 -84q0 -24 4 -88h-30
q0 46 -14.5 58t-69.5 12q-6 0 -76 -4z" />
    <glyph glyph-name="ogonek.sc" unicode="&#xf6fb;" horiz-adv-x="313" 
d="M269 -116l19 -30q-73 -79 -133 -79q-53 0 -79 25t-26 67q0 32 27 65.5t62 47.5h43q-57 -54 -57 -89q0 -28 11.5 -43t46.5 -15q43 0 86 51z" />
    <glyph glyph-name="ring.sc" unicode="&#xf6fc;" horiz-adv-x="333" 
d="M167 721q41 0 71 -29.5t29 -70.5q1 -41 -29 -70.5t-71 -29.5t-71 29.5t-29 70.5q-1 41 29 70.5t71 29.5zM167 685q-28 0 -45 -17.5t-17 -46.5t17 -46.5t45 -17.5t45 17.5t17 46.5t-17 46.5t-45 17.5z" />
    <glyph glyph-name="scaron.sc" unicode="&#xf6fd;" horiz-adv-x="444" 
d="M362 364h-28q-1 60 -20 74q-32 24 -83 24q-48 0 -77.5 -26t-29.5 -67q0 -43 28.5 -61.5t69 -21t81 -7.5t69 -32.5t28.5 -84.5q0 -75 -61.5 -125.5t-157.5 -50.5q-77 0 -135 28q6 42 6 114h28q0 -56 26.5 -81t85.5 -25q52 0 88 28t36 84q0 42 -28 59t-68 18.5t-80 6
t-68 33t-28 86.5q0 74 54 117.5t137 43.5q73 0 135 -34q-8 -41 -8 -100zM223 603l122 103h34l-125 -167h-62l-125 167h35z" />
    <glyph glyph-name="tilde.sc" unicode="&#xf6fe;" horiz-adv-x="333" 
d="M303 665h29q0 -31 -26 -64q-32 -41 -80 -41q-15 0 -27.5 3t-20 6t-22.5 10t-23 11q-33 15 -49 15q-36 0 -53 -45h-29q8 45 36.5 72.5t72.5 27.5q24 0 76 -25q46 -22 60 -20q24 3 35 14t21 36z" />
    <glyph glyph-name="zcaron.sc" unicode="&#xf6ff;" 
d="M20 0v24l330 422q-62 2 -120 2q-100 0 -119.5 -7.5t-22.5 -50.5l-2 -22l-28 -4q2 40 2 63q0 41 -2 60q105 -3 256 -3q67 0 160 3v-29l-335 -422q36 -2 71 -2q75 0 166 4q45 2 55.5 18.5t14.5 75.5h31q-3 -20 -4.5 -42t-2.5 -48.5t-2 -41.5q-55 -3 -184 -3q-223 0 -264 3z
M251 603l122 103h34l-125 -167h-62l-125 167h35z" />
    <glyph glyph-name="exclam.sc" unicode="&#xf721;" horiz-adv-x="278" 
d="M138 -5q-23 0 -40 17.5t-17 40.5t17.5 40.5t39.5 17.5q23 0 41 -17.5t18 -40.5t-17.5 -40.5t-41.5 -17.5zM160 694h34v-25q0 -21 -2 -45t-5.5 -53t-4.5 -45l-24 -278v-25l-28 -23l-10 5q0 27 -2 40l-26 305q-3 33 -7 106z" />
    <glyph glyph-name="ampersand.sc" unicode="&#xf726;" horiz-adv-x="778" 
d="M548 387l194 7q-12 -39 -12 -72q-44 8 -140 12q5 -16 5 -46q0 -83 -81 -170q109 -63 169 -63q24 0 64 19l6 -25l-87 -63q-8 -6 -40 -6q-31 0 -88.5 25.5t-86.5 51.5q-94 -77 -199 -77q-94 0 -151.5 55t-57.5 138q0 130 155 214q-30 72 -30 130q0 68 24 89l68 60
q25 23 69 23t69.5 -24t25.5 -68q0 -101 -144 -200q78 -128 204 -256q48 61 48 108q0 30 -6.5 55t-16.5 29q-14 5 -91 11l33 45q81 -3 97 -2zM213 352q-41 -31 -62 -64.5t-21 -80.5q0 -68 49.5 -119.5t117.5 -51.5q60 0 123 46q-51 57 -78 88.5t-65 83t-64 98.5zM303 636
q-40 0 -52.5 -23.5t-12.5 -64.5q0 -44 26 -117q33 21 63 61.5t30 73.5q0 26 -14.5 48t-39.5 22z" />
    <glyph glyph-name="question.sc" unicode="&#xf73f;" horiz-adv-x="444" 
d="M43 546l38 113q68 35 125 35q78 0 133.5 -41t55.5 -115q0 -45 -26.5 -82.5t-75.5 -81.5q-5 -5 -18.5 -17t-19 -17t-16.5 -15.5t-16 -16.5t-12.5 -15.5t-11 -16.5t-6 -15.5t-2.5 -16.5q0 -23 22 -49l-21 -14q-44 25 -44 73q0 21 13.5 46t25 38.5t38.5 43.5
q25 28 38.5 44.5t26 42.5t12.5 49q0 47 -34 78.5t-85 31.5q-73 0 -91 -42l-20 -48zM198 -5q-23 0 -40 17.5t-17 40.5t17.5 40.5t39.5 17.5q23 0 41 -17.5t18 -40.5t-17.5 -40.5t-41.5 -17.5z" />
    <glyph glyph-name="grave.sc" unicode="&#xf760;" horiz-adv-x="333" 
d="M215 531l-144 90q-12 7 -18.5 11.5t-14 14t-7.5 20.5q0 15 9 25t24 10q20 0 53 -33l138 -138h-40z" />
    <glyph glyph-name="a.sc" unicode="&#xf761;" horiz-adv-x="611" 
d="M290 498h38l174 -395q22 -51 40 -64.5t50 -13.5v-28q-48 3 -119 3q-25 0 -70 -1.5t-53 -1.5v28q43 0 58.5 6t15.5 21q0 8 -5 22t-10 25t-14 29.5t-11 23.5q-68 2 -103 2q-33 0 -101 -2q-2 -4 -12 -22.5t-16 -35t-6 -33.5q0 -20 17 -28t57 -8v-28q-99 3 -104 3
q-16 0 -47 -1.5t-51 -1.5v28q36 0 55 17.5t51 90.5zM285 390l-88 -196q52 -2 81 -2q25 0 91 2z" />
    <glyph glyph-name="b.sc" unicode="&#xf762;" 
d="M198 250v-212q28 -4 45 -4q65 0 94 34.5t29 79.5q0 106 -132 106q-14 0 -36 -4zM198 450v-164q27 0 40.5 0.5t37.5 5t36.5 12.5t23 25t10.5 42q0 83 -101 83q-13 0 -47 -4zM108 107v306q0 28 -16 36.5t-64 8.5v28q34 -2 118 -2q25 0 75.5 1t78.5 1q140 0 140 -97
q0 -43 -32 -75t-86 -36v-2q64 -1 104 -33.5t40 -79.5q0 -80 -54.5 -122.5t-141.5 -42.5q-21 0 -64.5 1t-63.5 1q-58 0 -84 -2v20q33 12 41.5 27.5t8.5 61.5z" />
    <glyph glyph-name="c.sc" unicode="&#xf763;" horiz-adv-x="556" 
d="M510 332h-28l-4 68q-52 62 -151 62q-80 0 -131.5 -59t-51.5 -158q0 -92 55 -153.5t157 -61.5q95 0 160 51l12 -7l-14 -38q-25 -20 -77.5 -35t-118.5 -15q-119 0 -196.5 71t-77.5 180q0 123 82.5 192t212.5 69q41 0 95 -10.5t88 -25.5q-12 -59 -12 -130z" />
    <glyph glyph-name="d.sc" unicode="&#xf764;" horiz-adv-x="611" 
d="M206 377v-335q56 -4 66 -4q100 0 147 59.5t47 153.5q0 99 -51.5 149t-132.5 50q-44 0 -74 -6q-2 -50 -2 -67zM116 113v287q0 32 -16.5 45t-63.5 13v28q42 -2 124 -2q23 0 69 1t72 1q129 0 197 -57.5t68 -158.5q0 -43 -14 -87t-44 -87t-87 -70.5t-133 -27.5q-21 0 -64 1
t-63 1q-35 0 -93 -2v20q28 11 38 29.5t10 65.5z" />
    <glyph glyph-name="e.sc" unicode="&#xf765;" 
d="M116 108v282q0 48 -17 59t-76 11v27q93 -3 94 -3q37 0 109 4t109 4q70 0 121 -8q-9 -52 -12 -120h-28q-5 62 -10 80q-56 10 -135 10q-27 0 -63 -6q-2 -35 -2 -175q46 -2 96 -2q36 0 46 12.5t10 54.5h30q-2 -54 -2 -85q0 -37 2 -93h-30q0 49 -15.5 62t-79.5 13
q-25 0 -57 -2q0 -130 4 -193q54 -4 88 -4q71 0 112 12q14 38 22 90h26q-1 -72 -8 -136q-50 -5 -136 -5q-30 0 -81 1.5t-74 1.5q-26 0 -70.5 -1.5t-58.5 -1.5v28q59 0 72.5 14t13.5 69z" />
    <glyph glyph-name="f.sc" unicode="&#xf766;" horiz-adv-x="444" 
d="M108 94v300q0 44 -14.5 54.5t-73.5 10.5v28q93 -3 114 -3q32 0 92 4q62 4 91 4q61 0 103 -8q-9 -54 -12 -118h-28q-4 47 -10 78q-53 8 -170 8q-2 -45 -2 -189q28 -2 72 -2q41 0 51.5 10.5t16.5 56.5h28q-2 -40 -2 -89q0 -31 2 -87h-28q-4 51 -16 62t-53 11q-27 0 -71 -2
v-139q0 -36 15.5 -47.5t70.5 -11.5v-28q-84 3 -136 3q-30 0 -72.5 -1.5t-57.5 -1.5v28q57 0 73.5 13t16.5 56z" />
    <glyph glyph-name="g.sc" unicode="&#xf767;" horiz-adv-x="556" 
d="M487 350h-27l-3 48q-2 30 -45 44.5t-98 15.5q-89 1 -135.5 -58t-46.5 -154q0 -67 21 -114.5t53.5 -69t59.5 -30t52 -8.5q66 0 96 20q2 25 2 86q0 24 -15 31t-63 9v24q30 0 72 -1t56 -1q36 0 62 2v-24l-27 -14q0 -92 3 -132q-102 -38 -205 -38q-115 0 -193 74t-78 176
q0 105 80.5 183t209.5 78q70 0 187 -33z" />
    <glyph glyph-name="h.sc" unicode="&#xf768;" horiz-adv-x="667" 
d="M118 92v306q0 43 -15.5 52t-78.5 9v28q123 -3 133 -3q27 0 74.5 1.5t62.5 1.5v-28q-58 0 -72 -9t-14 -52v-121q80 -2 129 -2t129 2v121q0 43 -14 52t-72 9v28q15 0 62.5 -1.5t74.5 -1.5q10 0 133 3v-28q-63 0 -78.5 -9t-15.5 -52v-306q0 -42 16 -54.5t74 -12.5v-28
l-126 3q-5 0 -140 -3v28q56 0 71 11t15 56v149q-80 2 -129 2t-129 -2v-149q0 -45 15 -56t71 -11v-28q-135 3 -140 3l-126 -3v28q58 0 74 12.5t16 54.5z" />
    <glyph glyph-name="i.sc" unicode="&#xf769;" horiz-adv-x="333" 
d="M120 92v312q0 37 -18 46t-72 9v28q108 -3 132 -3q27 0 73.5 1.5t64.5 1.5v-28q-59 0 -74.5 -8t-15.5 -47v-312q0 -45 14.5 -56t75.5 -11v-28q-132 3 -133 3q-20 0 -43 -0.5t-51 -1.5t-43 -1v28q57 0 73.5 11.5t16.5 55.5z" />
    <glyph glyph-name="j.sc" unicode="&#xf76a;" horiz-adv-x="333" 
d="M124 -24v415q0 46 -16 57t-76 11v28q63 -3 132 -3q1 0 136 3v-28q-60 0 -73 -13.5t-13 -79.5v-299q0 -108 -52.5 -161t-135.5 -53h-14q2 20 2 33q0 19 -2 33l9 3q24 -25 53 -25q50 0 50 79z" />
    <glyph glyph-name="k.sc" unicode="&#xf76b;" horiz-adv-x="556" 
d="M292 487v-28q-60 0 -73 -8t-13 -49v-143l6 -1q19 20 64.5 64.5t73.5 74.5t52 61v29q15 0 38 -0.5t34 -0.5q8 0 28 0.5t32 0.5v-27q-31 0 -47 -5.5t-37 -24.5l-158 -146l209 -225q26 -28 38 -32q6 -2 13 -2v-28q-9 0 -27 0.5t-27 0.5q-11 0 -33 -0.5t-33 -0.5l-216 243
l-10 -4v-154q0 -38 15 -47.5t73 -9.5v-28q-129 3 -132 3q-20 0 -42 -0.5t-49.5 -1.5t-42.5 -1v28q56 0 72 11t16 56v300q0 46 -15 56.5t-73 10.5v28q22 0 64 -1.5t64 -1.5q23 0 45.5 0.5t48 1.5t42.5 1z" />
    <glyph glyph-name="l.sc" unicode="&#xf76c;" 
d="M110 104v308q0 33 -15.5 40t-74.5 7v28q9 0 55 -1.5t73 -1.5q19 0 68 1.5t70 1.5v-28q-53 0 -69.5 -9.5t-16.5 -52.5v-265q0 -50 4 -93q40 -2 68 -2q107 0 146 14l20 81h30q-12 -59 -17 -132q-49 -3 -123 -3q-54 0 -104.5 1.5t-67.5 1.5q-19 0 -36 -0.5t-36.5 -1.5
t-31.5 -1v28q36 6 47 19t11 60z" />
    <glyph glyph-name="m.sc" unicode="&#xf76d;" horiz-adv-x="778" 
d="M374 -12h-18l-190 410h-2v-318q0 -35 16.5 -45t69.5 -10v-28q-111 3 -112 3q-15 0 -32.5 -0.5t-38.5 -1.5t-33 -1v28q54 0 72 11t18 54v312q0 35 -19.5 46t-70.5 11v28q11 0 31.5 -1t37.5 -1.5t32 -0.5q1 0 91 3q14 -37 38 -91t68.5 -148.5t58.5 -125.5q161 350 167 365
q72 -3 76 -3q8 0 104 3v-28q-49 0 -65.5 -10.5t-16.5 -54.5v-312q0 -35 16.5 -46t65.5 -11v-28q-114 3 -124 3q-29 0 -75 -1.5t-55 -1.5v28q51 0 66.5 10t15.5 41v338h-2z" />
    <glyph glyph-name="n.sc" unicode="&#xf76e;" horiz-adv-x="667" 
d="M116 86v331q0 24 -18.5 32.5t-69.5 9.5v28q78 -3 82 -3q3 0 84 3q55 -72 163 -203t153 -188h2v312q0 32 -20 41.5t-72 9.5v28q10 0 51.5 -1.5t60.5 -1.5q17 0 35.5 0.5t41 1.5t35.5 1v-28q-59 0 -75.5 -13t-16.5 -64v-290q0 -7 6 -106l-80 10l-320 388h-2v-304
q0 -37 14 -46t72 -9v-28q-111 3 -113 3q-3 0 -105 -3v28q57 0 74.5 11.5t17.5 49.5z" />
    <glyph glyph-name="o.sc" unicode="&#xf76f;" horiz-adv-x="611" 
d="M313 498q122 0 189.5 -70t67.5 -169q0 -108 -75 -190.5t-197 -82.5q-98 0 -178 68.5t-80 181.5q0 123 79 192.5t194 69.5zM294 464q-67 0 -110.5 -53t-43.5 -145q0 -44 9 -84t29 -76.5t57 -58t87 -21.5q42 0 72.5 18.5t46 51t22.5 67t7 73.5q0 100 -44 164t-132 64z" />
    <glyph glyph-name="p.sc" unicode="&#xf770;" 
d="M114 86v314q0 39 -14.5 49t-75.5 10v28q84 -3 123 -3q25 0 75 4t77 4q94 0 131.5 -31.5t37.5 -88.5q0 -56 -46 -101t-130 -45q-26 0 -44 8l-6 30q13 -8 32 -8q100 0 100 104q0 44 -31 71t-77 27q-21 0 -62 -12v-360q0 -35 16 -46.5t72 -14.5v-28q-72 3 -132 3
q-20 0 -42.5 -0.5t-50 -1.5t-43.5 -1v28q53 0 71.5 13t18.5 48z" />
    <glyph glyph-name="q.sc" unicode="&#xf771;" horiz-adv-x="611" 
d="M216 -97v24q64 53 96 57v3q-5 -1 -14 -1q-98 0 -178 68.5t-80 181.5q0 123 79 192.5t194 69.5q122 0 189.5 -70t67.5 -169q0 -101 -66.5 -181t-175.5 -90v-2q8 0 20.5 -4t37.5 -15t35 -15q6 -2 22 -9t23 -9.5t21 -5t29 -2.5q37 0 44 8v-22q-14 -9 -68 -50q-65 8 -122 33
q-60 27 -92 27q-24 0 -62 -19zM294 464q-67 0 -110.5 -53t-43.5 -145q0 -44 9 -84t29 -76.5t57 -58t87 -21.5q42 0 72.5 18.5t46 51t22.5 67t7 73.5q0 100 -44 164t-132 64z" />
    <glyph glyph-name="r.sc" unicode="&#xf772;" horiz-adv-x="556" 
d="M24 -3v28q58 0 74 9.5t16 51.5v314q0 39 -14.5 49t-75.5 10v28q21 0 64 -1.5t68 -1.5q26 0 81 1.5t82 1.5q155 0 155 -108q0 -14 -3 -26t-6.5 -22t-11 -19t-12.5 -15.5t-16 -13.5l-16.5 -10.5t-18.5 -9t-17.5 -7.5t-17.5 -6.5t-15 -5.5l153 -187q16 -20 26.5 -26t32.5 -6
v-25h-124l-200 242l4 16q22 -2 36 -2q45 0 75.5 29.5t30.5 74.5q0 49 -26 71.5t-80 22.5q-42 0 -64 -10v-370q0 -34 14.5 -41.5t73.5 -7.5v-28q-72 3 -132 3q-20 0 -42.5 -0.5t-50 -1.5t-43.5 -1z" />
    <glyph glyph-name="s.sc" unicode="&#xf773;" horiz-adv-x="444" 
d="M362 364h-28q-1 60 -20 74q-32 24 -83 24q-48 0 -77.5 -26t-29.5 -67q0 -43 28.5 -61.5t69 -21t81 -7.5t69 -32.5t28.5 -84.5q0 -75 -61.5 -125.5t-157.5 -50.5q-77 0 -135 28q6 42 6 114h28q0 -56 26.5 -81t85.5 -25q52 0 88 28t36 84q0 42 -28 59t-68 18.5t-80 6
t-68 33t-28 86.5q0 74 54 117.5t137 43.5q73 0 135 -34q-8 -41 -8 -100z" />
    <glyph glyph-name="t.sc" unicode="&#xf774;" 
d="M116 -3v28q54 0 70 10t16 45v366h-52q-43 0 -64 -5t-27 -14.5t-7 -30.5l-2 -40h-28l-4 131q48 -3 228 -3t228 3l-4 -131h-28l-2 40q-1 21 -7 30.5t-27 14.5t-64 5h-50v-366q0 -33 16 -44t68 -11v-28q-123 3 -124 3t-136 -3z" />
    <glyph glyph-name="u.sc" unicode="&#xf775;" horiz-adv-x="611" 
d="M194 419v-242q0 -69 30.5 -104t104.5 -35q67 0 101.5 33.5t34.5 107.5v216q0 42 -14 53t-71 11v28q12 0 34 -1t39.5 -1.5t33.5 -0.5q25 0 103 3v-28q-55 0 -70 -10.5t-15 -49.5v-215q0 -43 -7.5 -75t-27.5 -62t-61 -45.5t-101 -15.5q-118 0 -161 45.5t-43 143.5v234
q0 32 -18 41t-66 9v28q14 0 40.5 -1t47.5 -1.5t40 -0.5q17 0 55.5 1.5t66.5 1.5v-26q-46 -1 -61 -10t-15 -32z" />
    <glyph glyph-name="v.sc" unicode="&#xf776;" horiz-adv-x="556" 
d="M306 -8h-50l-169 422q-11 29 -25.5 37t-49.5 8v28q23 0 58 -1.5t50 -1.5q21 0 70 1.5t64 1.5v-28q-47 0 -61.5 -4t-14.5 -20q0 -6 26 -69l104 -261l109 282q11 27 11 42q0 17 -16.5 23.5t-55.5 6.5v28q102 -3 103 -3q13 0 41.5 1.5t41.5 1.5v-28q-35 0 -47.5 -13
t-31.5 -61z" />
    <glyph glyph-name="w.sc" unicode="&#xf777;" horiz-adv-x="778" 
d="M388 488h38l139 -375h2l72 248q13 48 13 65q0 33 -74 33v28q10 0 44.5 -1.5t51.5 -1.5q19 0 88 3v-28q-36 -2 -46 -12t-21 -47l-121 -408h-58l-130 359h-2l-124 -359h-56l-108 384q-14 51 -30.5 67t-53.5 16v28q84 -3 115 -3q18 0 61 1.5t60 1.5v-28q-47 0 -61.5 -4
t-14.5 -22q0 -10 7 -33l78 -287h2z" />
    <glyph glyph-name="x.sc" unicode="&#xf778;" 
d="M28 442v32q94 8 138 19q16 -21 43 -68l61 -107l110 166h94v-28q-30 0 -42.5 -8t-32.5 -34l-105 -138l118 -206q14 -25 27 -32.5t45 -11.5v-28q-58 2 -65 2q-17 0 -73 -2l-108 202q-53 -77 -126 -202q-28 2 -45 2q-19 0 -51 -2v28q33 1 47 10.5t34 37.5l117 166l-79 137
q-26 45 -41.5 57t-38.5 12q-9 0 -27 -4z" />
    <glyph glyph-name="y.sc" unicode="&#xf779;" 
d="M124 -3v28q53 0 70.5 11t17.5 37v131q-65 117 -109 179q-31 43 -46 54t-43 11v28q100 16 103 17q40 -14 75 -79l90 -166q91 162 130 236h68v-14q-68 -77 -178 -272v-103q0 -47 17.5 -58.5t68.5 -11.5v-28l-132 3z" />
    <glyph glyph-name="z.sc" unicode="&#xf77a;" 
d="M20 0v24l330 422q-62 2 -120 2q-100 0 -119.5 -7.5t-22.5 -50.5l-2 -22l-28 -4q2 40 2 63q0 41 -2 60q105 -3 256 -3q67 0 160 3v-29l-335 -422q36 -2 71 -2q75 0 166 4q45 2 55.5 18.5t14.5 75.5h31q-3 -20 -4.5 -42t-2.5 -48.5t-2 -41.5q-55 -3 -184 -3q-223 0 -264 3z
" />
    <glyph glyph-name="exclamdown.sc" unicode="&#xf7a1;" horiz-adv-x="278" 
d="M115 -225h-34v25q0 21 2 45t5.5 53t4.5 45l24 278v25l28 23l10 -5q0 -27 2 -40l26 -305q3 -33 7 -106zM138 353q-23 0 -40 17.5t-17 40.5t17.5 40.5t39.5 17.5q23 0 41 -17.5t18 -40.5t-17.5 -40.5t-41.5 -17.5z" />
    <glyph glyph-name="dieresis.sc" unicode="&#xf7a8;" horiz-adv-x="333" 
d="M67 662q23 0 36.5 -14t13.5 -36t-13.5 -36t-36.5 -14t-36.5 14t-13.5 36t13.5 36t36.5 14zM266 662q22 0 36 -14t14 -36t-14 -36t-36 -14t-36 14t-14 36t14 36t36 14z" />
    <glyph glyph-name="macron.sc" unicode="&#xf7af;" horiz-adv-x="333" 
d="M323 563h-312v53h312v-53z" />
    <glyph glyph-name="acute.sc" unicode="&#xf7b4;" horiz-adv-x="333" 
d="M78 531l138 138q33 33 53 33q15 0 24 -10t9 -25q0 -11 -7.5 -20.5t-14 -14t-18.5 -11.5l-144 -90h-40z" />
    <glyph glyph-name="cedilla.sc" unicode="&#xf7b8;" horiz-adv-x="333" 
d="M141 -108l42 98h34l-25 -65q12 4 29 4q35 0 59 -18t24 -52q0 -44 -37 -64t-85 -20q-34 0 -86 16l14 31q40 -11 61 -11q28 0 43 9.5t15 36.5q0 16 -12.5 26t-27.5 10q-17 0 -41 -7z" />
    <glyph glyph-name="questiondown.sc" unicode="&#xf7bf;" horiz-adv-x="444" 
d="M395 -83l-38 -113q-68 -35 -125 -35q-78 0 -133.5 41t-55.5 115q0 45 26.5 82.5t75.5 81.5q5 5 18.5 17t19 17t16.5 15.5t16 16.5t12.5 15.5t11 16.5t6 15.5t2.5 16.5q0 23 -22 49l21 14q44 -25 44 -73q0 -21 -13.5 -46t-25 -38.5t-38.5 -43.5q-25 -28 -38.5 -44.5
t-26 -42.5t-12.5 -49q0 -47 34 -78.5t85 -31.5q73 0 91 42l20 48zM241 353q-23 0 -40 17.5t-17 40.5t17.5 40.5t39.5 17.5q23 0 41 -17.5t18 -40.5t-17.5 -40.5t-41.5 -17.5z" />
    <glyph glyph-name="agrave.sc" unicode="&#xf7e0;" horiz-adv-x="611" 
d="M290 498h38l174 -395q22 -51 40 -64.5t50 -13.5v-28q-48 3 -119 3q-25 0 -70 -1.5t-53 -1.5v28q43 0 58.5 6t15.5 21q0 8 -5 22t-10 25t-14 29.5t-11 23.5q-68 2 -103 2q-33 0 -101 -2q-2 -4 -12 -22.5t-16 -35t-6 -33.5q0 -20 17 -28t57 -8v-28q-99 3 -104 3
q-16 0 -47 -1.5t-51 -1.5v28q36 0 55 17.5t51 90.5zM285 390l-88 -196q52 -2 81 -2q25 0 91 2zM330 551l-144 90q-12 7 -18.5 11.5t-14 14t-7.5 20.5q0 15 9 25t24 10q20 0 53 -33l138 -138h-40z" />
    <glyph glyph-name="aacute.sc" unicode="&#xf7e1;" horiz-adv-x="611" 
d="M290 498h38l174 -395q22 -51 40 -64.5t50 -13.5v-28q-48 3 -119 3q-25 0 -70 -1.5t-53 -1.5v28q43 0 58.5 6t15.5 21q0 8 -5 22t-10 25t-14 29.5t-11 23.5q-68 2 -103 2q-33 0 -101 -2q-2 -4 -12 -22.5t-16 -35t-6 -33.5q0 -20 17 -28t57 -8v-28q-99 3 -104 3
q-16 0 -47 -1.5t-51 -1.5v28q36 0 55 17.5t51 90.5zM285 390l-88 -196q52 -2 81 -2q25 0 91 2zM217 551l138 138q33 33 53 33q15 0 24 -10t9 -25q0 -11 -7.5 -20.5t-14 -14t-18.5 -11.5l-144 -90h-40z" />
    <glyph glyph-name="acircumflex.sc" unicode="&#xf7e2;" horiz-adv-x="611" 
d="M290 498h38l174 -395q22 -51 40 -64.5t50 -13.5v-28q-48 3 -119 3q-25 0 -70 -1.5t-53 -1.5v28q43 0 58.5 6t15.5 21q0 8 -5 22t-10 25t-14 29.5t-11 23.5q-68 2 -103 2q-33 0 -101 -2q-2 -4 -12 -22.5t-16 -35t-6 -33.5q0 -20 17 -28t57 -8v-28q-99 3 -104 3
q-16 0 -47 -1.5t-51 -1.5v28q36 0 55 17.5t51 90.5zM285 390l-88 -196q52 -2 81 -2q25 0 91 2zM263 718h62l125 -167h-35l-121 103l-121 -103h-35z" />
    <glyph glyph-name="atilde.sc" unicode="&#xf7e3;" horiz-adv-x="611" 
d="M290 498h38l174 -395q22 -51 40 -64.5t50 -13.5v-28q-48 3 -119 3q-25 0 -70 -1.5t-53 -1.5v28q43 0 58.5 6t15.5 21q0 8 -5 22t-10 25t-14 29.5t-11 23.5q-68 2 -103 2q-33 0 -101 -2q-2 -4 -12 -22.5t-16 -35t-6 -33.5q0 -20 17 -28t57 -8v-28q-99 3 -104 3
q-16 0 -47 -1.5t-51 -1.5v28q36 0 55 17.5t51 90.5zM285 390l-88 -196q52 -2 81 -2q25 0 91 2zM430 677h29q0 -31 -26 -64q-32 -41 -80 -41q-15 0 -27.5 3t-20 6t-22.5 10t-23 11q-32 15 -49 15q-36 0 -53 -45h-29q8 45 36.5 72.5t72.5 27.5q24 0 76 -25q46 -22 60 -20
q24 3 35 14t21 36z" />
    <glyph glyph-name="adieresis.sc" unicode="&#xf7e4;" horiz-adv-x="611" 
d="M290 498h38l174 -395q22 -51 40 -64.5t50 -13.5v-28q-48 3 -119 3q-25 0 -70 -1.5t-53 -1.5v28q43 0 58.5 6t15.5 21q0 8 -5 22t-10 25t-14 29.5t-11 23.5q-68 2 -103 2q-33 0 -101 -2q-2 -4 -12 -22.5t-16 -35t-6 -33.5q0 -20 17 -28t57 -8v-28q-99 3 -104 3
q-16 0 -47 -1.5t-51 -1.5v28q36 0 55 17.5t51 90.5zM285 390l-88 -196q52 -2 81 -2q25 0 91 2zM194 682q22 0 36 -14t14 -36t-14 -36t-36 -14t-36 14t-14 36t14 36t36 14zM393 682q23 0 36.5 -14t13.5 -36t-13.5 -36t-36.5 -14t-36.5 14t-13.5 36t13.5 36t36.5 14z" />
    <glyph glyph-name="aring.sc" unicode="&#xf7e5;" horiz-adv-x="611" 
d="M290 498h38l174 -395q22 -51 40 -64.5t50 -13.5v-28q-48 3 -119 3q-25 0 -70 -1.5t-53 -1.5v28q43 0 58.5 6t15.5 21q0 8 -5 22t-10 25t-14 29.5t-11 23.5q-68 2 -103 2q-33 0 -101 -2q-2 -4 -12 -22.5t-16 -35t-6 -33.5q0 -20 17 -28t57 -8v-28q-99 3 -104 3
q-16 0 -47 -1.5t-51 -1.5v28q36 0 55 17.5t51 90.5zM285 390l-88 -196q52 -2 81 -2q25 0 91 2zM294 741q41 0 71 -29.5t29 -70.5q1 -41 -29 -70.5t-71 -29.5t-71 29.5t-29 70.5q-1 41 29 70.5t71 29.5zM294 705q-28 0 -45 -17.5t-17 -46.5t17 -46.5t45 -17.5t45 17.5
t17 46.5t-17 46.5t-45 17.5z" />
    <glyph glyph-name="ae.sc" unicode="&#xf7e6;" horiz-adv-x="778" 
d="M200 456v28q20 0 79.5 -2t90.5 -2q41 0 115 4q72 4 114 4q78 0 128 -8l-9 -118h-26l-12 76q-77 10 -137 10q-36 0 -63 -6q-1 -29 -1.5 -85.5t-0.5 -85.5q14 0 49.5 -0.5t56.5 -0.5q29 0 39.5 14.5t11.5 53.5h30q-5 -70 -5 -75q0 -16 5 -101h-30q-1 51 -18 61.5t-78 10.5
q-23 0 -61 -2q1 -33 2.5 -95.5t1.5 -92.5q36 -6 75 -6q84 0 129 14l20 88h30l-12 -136q-56 -4 -135 -4q-52 0 -101.5 2t-54.5 2q-19 0 -89 -4v22l42 18q4 34 4 130q-52 2 -99 2q-50 0 -90 -2q-3 -6 -20 -36.5t-25 -48.5t-8 -29q0 -28 76 -28v-28q-78 4 -118 4q-12 0 -98 -4
v28q44 0 67.5 22.5t63.5 95.5l124 226q29 50 29 62q0 14 -19.5 18t-72.5 4zM221 210h171q2 28 2 61q0 59 -1 94.5t-3.5 55.5t-6 26.5t-9.5 6.5q-4 0 -11 -7t-16.5 -21t-18.5 -28t-21 -35t-20.5 -36t-20.5 -36.5t-17 -30.5z" />
    <glyph glyph-name="ccedilla.sc" unicode="&#xf7e7;" horiz-adv-x="556" 
d="M253 -108l42 96q-110 7 -180.5 76.5t-70.5 172.5q0 123 82.5 192t212.5 69q41 0 95 -10.5t88 -25.5q-12 -59 -12 -130h-28l-4 68q-52 62 -151 62q-80 0 -131.5 -59t-51.5 -158q0 -92 55 -153.5t157 -61.5q95 0 160 51l12 -7l-14 -38q-24 -20 -74 -34t-111 -15l-25 -62
q12 4 29 4q35 0 59 -18t24 -52q0 -44 -37 -64t-85 -20q-34 0 -86 16l14 31q40 -11 61 -11q28 0 43 9.5t15 36.5q0 16 -12.5 26t-27.5 10q-17 0 -41 -7z" />
    <glyph glyph-name="egrave.sc" unicode="&#xf7e8;" 
d="M116 108v282q0 48 -17 59t-76 11v27q93 -3 94 -3q37 0 109 4t109 4q70 0 121 -8q-9 -52 -12 -120h-28q-5 62 -10 80q-56 10 -135 10q-27 0 -63 -6q-2 -35 -2 -175q46 -2 96 -2q36 0 46 12.5t10 54.5h30q-2 -54 -2 -85q0 -37 2 -93h-30q0 49 -15.5 62t-79.5 13
q-25 0 -57 -2q0 -130 4 -193q54 -4 88 -4q71 0 112 12q14 38 22 90h26q-1 -72 -8 -136q-50 -5 -136 -5q-30 0 -81 1.5t-74 1.5q-26 0 -70.5 -1.5t-58.5 -1.5v28q59 0 72.5 14t13.5 69zM299 551l-144 90q-12 7 -18.5 11.5t-14 14t-7.5 20.5q0 15 9 25t24 10q20 0 53 -33
l138 -138h-40z" />
    <glyph glyph-name="eacute.sc" unicode="&#xf7e9;" 
d="M116 108v282q0 48 -17 59t-76 11v27q93 -3 94 -3q37 0 109 4t109 4q70 0 121 -8q-9 -52 -12 -120h-28q-5 62 -10 80q-56 10 -135 10q-27 0 -63 -6q-2 -35 -2 -175q46 -2 96 -2q36 0 46 12.5t10 54.5h30q-2 -54 -2 -85q0 -37 2 -93h-30q0 49 -15.5 62t-79.5 13
q-25 0 -57 -2q0 -130 4 -193q54 -4 88 -4q71 0 112 12q14 38 22 90h26q-1 -72 -8 -136q-50 -5 -136 -5q-30 0 -81 1.5t-74 1.5q-26 0 -70.5 -1.5t-58.5 -1.5v28q59 0 72.5 14t13.5 69zM186 551l138 138q33 33 53 33q15 0 24 -10t9 -25q0 -11 -7.5 -20.5t-14 -14t-18.5 -11.5
l-144 -90h-40z" />
    <glyph glyph-name="ecircumflex.sc" unicode="&#xf7ea;" 
d="M116 108v282q0 48 -17 59t-76 11v27q93 -3 94 -3q37 0 109 4t109 4q70 0 121 -8q-9 -52 -12 -120h-28q-5 62 -10 80q-56 10 -135 10q-27 0 -63 -6q-2 -35 -2 -175q46 -2 96 -2q36 0 46 12.5t10 54.5h30q-2 -54 -2 -85q0 -37 2 -93h-30q0 49 -15.5 62t-79.5 13
q-25 0 -57 -2q0 -130 4 -193q54 -4 88 -4q71 0 112 12q14 38 22 90h26q-1 -72 -8 -136q-50 -5 -136 -5q-30 0 -81 1.5t-74 1.5q-26 0 -70.5 -1.5t-58.5 -1.5v28q59 0 72.5 14t13.5 69zM232 718h62l125 -167h-35l-121 103l-121 -103h-35z" />
    <glyph glyph-name="edieresis.sc" unicode="&#xf7eb;" 
d="M116 108v282q0 48 -17 59t-76 11v27q93 -3 94 -3q37 0 109 4t109 4q70 0 121 -8q-9 -52 -12 -120h-28q-5 62 -10 80q-56 10 -135 10q-27 0 -63 -6q-2 -35 -2 -175q46 -2 96 -2q36 0 46 12.5t10 54.5h30q-2 -54 -2 -85q0 -37 2 -93h-30q0 49 -15.5 62t-79.5 13
q-25 0 -57 -2q0 -130 4 -193q54 -4 88 -4q71 0 112 12q14 38 22 90h26q-1 -72 -8 -136q-50 -5 -136 -5q-30 0 -81 1.5t-74 1.5q-26 0 -70.5 -1.5t-58.5 -1.5v28q59 0 72.5 14t13.5 69zM151 682q23 0 36.5 -14t13.5 -36t-13.5 -36t-36.5 -14t-36.5 14t-13.5 36t13.5 36
t36.5 14zM350 682q22 0 36 -14t14 -36t-14 -36t-36 -14t-36 14t-14 36t14 36t36 14z" />
    <glyph glyph-name="igrave.sc" unicode="&#xf7ec;" horiz-adv-x="333" 
d="M120 92v312q0 37 -18 46t-72 9v28q108 -3 132 -3q27 0 73.5 1.5t64.5 1.5v-28q-59 0 -74.5 -8t-15.5 -47v-312q0 -45 14.5 -56t75.5 -11v-28q-132 3 -133 3q-20 0 -43 -0.5t-51 -1.5t-43 -1v28q57 0 73.5 11.5t16.5 55.5zM227 551l-144 90q-12 7 -18.5 11.5t-14 14
t-7.5 20.5q0 15 9 25t24 10q20 0 53 -33l138 -138h-40z" />
    <glyph glyph-name="iacute.sc" unicode="&#xf7ed;" horiz-adv-x="333" 
d="M120 92v312q0 37 -18 46t-72 9v28q108 -3 132 -3q27 0 73.5 1.5t64.5 1.5v-28q-59 0 -74.5 -8t-15.5 -47v-312q0 -45 14.5 -56t75.5 -11v-28q-132 3 -133 3q-20 0 -43 -0.5t-51 -1.5t-43 -1v28q57 0 73.5 11.5t16.5 55.5zM90 551l138 138q33 33 53 33q15 0 24 -10t9 -25
q0 -11 -7.5 -20.5t-14 -14t-18.5 -11.5l-144 -90h-40z" />
    <glyph glyph-name="icircumflex.sc" unicode="&#xf7ee;" horiz-adv-x="333" 
d="M120 92v312q0 37 -18 46t-72 9v28q108 -3 132 -3q27 0 73.5 1.5t64.5 1.5v-28q-59 0 -74.5 -8t-15.5 -47v-312q0 -45 14.5 -56t75.5 -11v-28q-132 3 -133 3q-20 0 -43 -0.5t-51 -1.5t-43 -1v28q57 0 73.5 11.5t16.5 55.5zM148 718h62l125 -167h-35l-121 103l-121 -103
h-35z" />
    <glyph glyph-name="idieresis.sc" unicode="&#xf7ef;" horiz-adv-x="333" 
d="M120 92v312q0 37 -18 46t-72 9v28q108 -3 132 -3q27 0 73.5 1.5t64.5 1.5v-28q-59 0 -74.5 -8t-15.5 -47v-312q0 -45 14.5 -56t75.5 -11v-28q-132 3 -133 3q-20 0 -43 -0.5t-51 -1.5t-43 -1v28q57 0 73.5 11.5t16.5 55.5zM79 682q23 0 36.5 -14t13.5 -36t-13.5 -36
t-36.5 -14t-36.5 14t-13.5 36t13.5 36t36.5 14zM278 682q22 0 36 -14t14 -36t-14 -36t-36 -14t-36 14t-14 36t14 36t36 14z" />
    <glyph glyph-name="eth.sc" unicode="&#xf7f0;" horiz-adv-x="611" 
d="M206 236v-194q56 -4 66 -4q100 0 147 59.5t47 153.5q0 99 -51.5 149t-132.5 50q-44 0 -74 -6q-2 -50 -2 -67v-101h130v-40h-130zM116 113v123h-80v40h80v124q0 32 -16.5 45t-63.5 13v28q42 -2 124 -2q23 0 69 1t72 1q129 0 197 -57.5t68 -158.5q0 -43 -14 -87t-44 -87
t-87 -70.5t-133 -27.5q-21 0 -64 1t-63 1q-35 0 -93 -2v20q28 11 38 29.5t10 65.5z" />
    <glyph glyph-name="ntilde.sc" unicode="&#xf7f1;" horiz-adv-x="667" 
d="M116 86v331q0 24 -18.5 32.5t-69.5 9.5v28q78 -3 82 -3q3 0 84 3q55 -72 163 -203t153 -188h2v312q0 32 -20 41.5t-72 9.5v28q10 0 51.5 -1.5t60.5 -1.5q17 0 35.5 0.5t41 1.5t35.5 1v-28q-59 0 -75.5 -13t-16.5 -64v-290q0 -7 6 -106l-80 10l-320 388h-2v-304
q0 -37 14 -46t72 -9v-28q-111 3 -113 3q-3 0 -105 -3v28q57 0 74.5 11.5t17.5 49.5zM458 677h29q0 -31 -26 -64q-32 -41 -80 -41q-15 0 -27.5 3t-20 6t-22.5 10t-23 11q-33 15 -49 15q-36 0 -53 -45h-29q8 45 36.5 72.5t72.5 27.5q24 0 76 -25q46 -22 60 -20q24 3 35 14
t21 36z" />
    <glyph glyph-name="ograve.sc" unicode="&#xf7f2;" horiz-adv-x="611" 
d="M313 498q122 0 189.5 -70t67.5 -169q0 -108 -75 -190.5t-197 -82.5q-98 0 -178 68.5t-80 181.5q0 123 79 192.5t194 69.5zM294 464q-67 0 -110.5 -53t-43.5 -145q0 -44 9 -84t29 -76.5t57 -58t87 -21.5q42 0 72.5 18.5t46 51t22.5 67t7 73.5q0 100 -44 164t-132 64z
M342 551l-144 90q-12 7 -18.5 11.5t-14 14t-7.5 20.5q0 15 9 25t24 10q20 0 53 -33l138 -138h-40z" />
    <glyph glyph-name="oacute.sc" unicode="&#xf7f3;" horiz-adv-x="611" 
d="M313 498q122 0 189.5 -70t67.5 -169q0 -108 -75 -190.5t-197 -82.5q-98 0 -178 68.5t-80 181.5q0 123 79 192.5t194 69.5zM294 464q-67 0 -110.5 -53t-43.5 -145q0 -44 9 -84t29 -76.5t57 -58t87 -21.5q42 0 72.5 18.5t46 51t22.5 67t7 73.5q0 100 -44 164t-132 64z
M217 551l138 138q33 33 53 33q15 0 24 -10t9 -25q0 -11 -7.5 -20.5t-14 -14t-18.5 -11.5l-144 -90h-40z" />
    <glyph glyph-name="ocircumflex.sc" unicode="&#xf7f4;" horiz-adv-x="611" 
d="M313 498q122 0 189.5 -70t67.5 -169q0 -108 -75 -190.5t-197 -82.5q-98 0 -178 68.5t-80 181.5q0 123 79 192.5t194 69.5zM294 464q-67 0 -110.5 -53t-43.5 -145q0 -44 9 -84t29 -76.5t57 -58t87 -21.5q42 0 72.5 18.5t46 51t22.5 67t7 73.5q0 100 -44 164t-132 64z
M275 718h62l125 -167h-35l-121 103l-121 -103h-35z" />
    <glyph glyph-name="otilde.sc" unicode="&#xf7f5;" horiz-adv-x="611" 
d="M313 498q122 0 189.5 -70t67.5 -169q0 -108 -75 -190.5t-197 -82.5q-98 0 -178 68.5t-80 181.5q0 123 79 192.5t194 69.5zM294 464q-67 0 -110.5 -53t-43.5 -145q0 -44 9 -84t29 -76.5t57 -58t87 -21.5q42 0 72.5 18.5t46 51t22.5 67t7 73.5q0 100 -44 164t-132 64z
M442 677h29q0 -31 -26 -64q-32 -41 -80 -41q-15 0 -27.5 3t-20 6t-22.5 10t-23 11q-32 15 -49 15q-36 0 -53 -45h-29q8 45 36.5 72.5t72.5 27.5q24 0 76 -25q46 -22 60 -20q24 3 35 14t21 36z" />
    <glyph glyph-name="odieresis.sc" unicode="&#xf7f6;" horiz-adv-x="611" 
d="M313 498q122 0 189.5 -70t67.5 -169q0 -108 -75 -190.5t-197 -82.5q-98 0 -178 68.5t-80 181.5q0 123 79 192.5t194 69.5zM294 464q-67 0 -110.5 -53t-43.5 -145q0 -44 9 -84t29 -76.5t57 -58t87 -21.5q42 0 72.5 18.5t46 51t22.5 67t7 73.5q0 100 -44 164t-132 64z
M206 682q22 0 36 -14t14 -36t-14 -36t-36 -14t-36 14t-14 36t14 36t36 14zM405 682q23 0 36.5 -14t13.5 -36t-13.5 -36t-36.5 -14t-36.5 14t-13.5 36t13.5 36t36.5 14z" />
    <glyph glyph-name="oslash.sc" unicode="&#xf7f8;" horiz-adv-x="611" 
d="M164 135l265 260q-47 69 -135 69q-67 0 -110.5 -53t-43.5 -145q0 -73 24 -131zM448 360l-265 -261q46 -73 139 -73q42 0 72.5 18.5t46 51t22.5 67t7 73.5q0 73 -22 124zM570 480l-60 -59q60 -66 60 -162q0 -108 -75 -190.5t-197 -82.5q-93 0 -168 61l-70 -69l-28 28
l69 68q-61 68 -61 162q0 123 79 192.5t194 69.5q103 0 168 -52l61 60z" />
    <glyph glyph-name="ugrave.sc" unicode="&#xf7f9;" horiz-adv-x="611" 
d="M194 419v-242q0 -69 30.5 -104t104.5 -35q67 0 101.5 33.5t34.5 107.5v216q0 42 -14 53t-71 11v28q12 0 34 -1t39.5 -1.5t33.5 -0.5q25 0 103 3v-28q-55 0 -70 -10.5t-15 -49.5v-215q0 -43 -7.5 -75t-27.5 -62t-61 -45.5t-101 -15.5q-118 0 -161 45.5t-43 143.5v234
q0 32 -18 41t-66 9v28q14 0 40.5 -1t47.5 -1.5t40 -0.5q17 0 55.5 1.5t66.5 1.5v-26q-46 -1 -61 -10t-15 -32zM330 551l-144 90q-12 7 -18.5 11.5t-14 14t-7.5 20.5q0 15 9 25t24 10q20 0 53 -33l138 -138h-40z" />
    <glyph glyph-name="uacute.sc" unicode="&#xf7fa;" horiz-adv-x="611" 
d="M194 419v-242q0 -69 30.5 -104t104.5 -35q67 0 101.5 33.5t34.5 107.5v216q0 42 -14 53t-71 11v28q12 0 34 -1t39.5 -1.5t33.5 -0.5q25 0 103 3v-28q-55 0 -70 -10.5t-15 -49.5v-215q0 -43 -7.5 -75t-27.5 -62t-61 -45.5t-101 -15.5q-118 0 -161 45.5t-43 143.5v234
q0 32 -18 41t-66 9v28q14 0 40.5 -1t47.5 -1.5t40 -0.5q17 0 55.5 1.5t66.5 1.5v-26q-46 -1 -61 -10t-15 -32zM241 551l138 138q33 33 53 33q15 0 24 -10t9 -25q0 -11 -7.5 -20.5t-14 -14t-18.5 -11.5l-144 -90h-40z" />
    <glyph glyph-name="ucircumflex.sc" unicode="&#xf7fb;" horiz-adv-x="611" 
d="M194 419v-242q0 -69 30.5 -104t104.5 -35q67 0 101.5 33.5t34.5 107.5v216q0 42 -14 53t-71 11v28q12 0 34 -1t39.5 -1.5t33.5 -0.5q25 0 103 3v-28q-55 0 -70 -10.5t-15 -49.5v-215q0 -43 -7.5 -75t-27.5 -62t-61 -45.5t-101 -15.5q-118 0 -161 45.5t-43 143.5v234
q0 32 -18 41t-66 9v28q14 0 40.5 -1t47.5 -1.5t40 -0.5q17 0 55.5 1.5t66.5 1.5v-26q-46 -1 -61 -10t-15 -32zM275 718h62l125 -167h-35l-121 103l-121 -103h-35z" />
    <glyph glyph-name="udieresis.sc" unicode="&#xf7fc;" horiz-adv-x="611" 
d="M194 419v-242q0 -69 30.5 -104t104.5 -35q67 0 101.5 33.5t34.5 107.5v216q0 42 -14 53t-71 11v28q12 0 34 -1t39.5 -1.5t33.5 -0.5q25 0 103 3v-28q-55 0 -70 -10.5t-15 -49.5v-215q0 -43 -7.5 -75t-27.5 -62t-61 -45.5t-101 -15.5q-118 0 -161 45.5t-43 143.5v234
q0 32 -18 41t-66 9v28q14 0 40.5 -1t47.5 -1.5t40 -0.5q17 0 55.5 1.5t66.5 1.5v-26q-46 -1 -61 -10t-15 -32zM206 682q22 0 36 -14t14 -36t-14 -36t-36 -14t-36 14t-14 36t14 36t36 14zM405 682q23 0 36.5 -14t13.5 -36t-13.5 -36t-36.5 -14t-36.5 14t-13.5 36t13.5 36
t36.5 14z" />
    <glyph glyph-name="yacute.sc" unicode="&#xf7fd;" 
d="M124 -3v28q53 0 70.5 11t17.5 37v131q-65 117 -109 179q-31 43 -46 54t-43 11v28q100 16 103 17q40 -14 75 -79l90 -166q91 162 130 236h68v-14q-68 -77 -178 -272v-103q0 -47 17.5 -58.5t68.5 -11.5v-28l-132 3zM194 551l138 138q33 33 53 33q15 0 24 -10t9 -25
q0 -11 -7.5 -20.5t-14 -14t-18.5 -11.5l-144 -90h-40z" />
    <glyph glyph-name="thorn.sc" unicode="&#xf7fe;" 
d="M114 92v312q0 38 -17.5 46.5t-72.5 8.5v28q54 -3 132 -3q27 0 73.5 1.5t64.5 1.5v-28q-59 0 -74.5 -8t-15.5 -47v-44q47 10 95 10q96 0 132.5 -29.5t36.5 -90.5q0 -57 -46.5 -101.5t-133.5 -44.5q-26 0 -40 8l-6 30q13 -8 32 -8q50 0 75 28t25 76q0 46 -29.5 72t-80.5 26
q-24 0 -60 -12v-232q0 -45 14.5 -56t75.5 -11v-28q-132 3 -133 3q-20 0 -43 -0.5t-51 -1.5t-43 -1v28q57 0 73.5 11.5t16.5 55.5z" />
    <glyph glyph-name="ydieresis.sc" unicode="&#xf7ff;" 
d="M124 -3v28q53 0 70.5 11t17.5 37v131q-65 117 -109 179q-31 43 -46 54t-43 11v28q100 16 103 17q40 -14 75 -79l90 -166q91 162 130 236h68v-14q-68 -77 -178 -272v-103q0 -47 17.5 -58.5t68.5 -11.5v-28l-132 3zM151 682q23 0 36.5 -14t13.5 -36t-13.5 -36t-36.5 -14
t-36.5 14t-13.5 36t13.5 36t36.5 14zM350 682q22 0 36 -14t14 -36t-14 -36t-36 -14t-36 14t-14 36t14 36t36 14z" />
    <glyph glyph-name="fi" unicode="&#xfb01;" horiz-adv-x="605" 
d="M341 717v-77l-12 -6q-30 28 -66 28q-46 0 -59.5 -28t-13.5 -115v-85l121 4l-7 -53h-114v-283q0 -44 5 -58q6 -12 32 -14l52 -3v-30q-126 3 -131 3q-17 0 -125 -3v30l46 3q26 2 32 14q5 14 5 58v283l-69 -4v22l69 31v42q0 96 42 144l58 66q36 42 90 42q19 0 45 -11z
M504 462v-360q0 -44 5 -58q6 -12 32 -14l46 -3v-30q-108 3 -125 3t-125 -3v30l46 3q26 2 32 14q5 14 5 58v223q0 51 -7 62q-8 11 -37 11h-37v28q90 9 156 43zM466 687q22 0 39 -17t17 -39t-17 -38.5t-39 -16.5t-38.5 16.5t-16.5 38.5t16.5 39t38.5 17z" />
    <glyph glyph-name="fl" unicode="&#xfb02;" horiz-adv-x="608" 
d="M423 102v504q0 55 -25 55h-42v-21l-22 -6q-38 28 -71 28q-46 0 -59.5 -28t-13.5 -115v-85l131 4l-7 -53h-124v-283q0 -44 5 -58q6 -12 32 -14l52 -3v-30q-126 3 -131 3q-17 0 -125 -3v30l46 3q26 2 32 14q5 14 5 58v283l-69 -4v22l69 31v42q0 96 42 144l58 66
q36 42 90 42q7 0 60 -11v-28q91 19 142 37l9 -10v-614q0 -44 5 -58q6 -12 32 -14l46 -3v-30q-108 3 -125 3t-125 -3v30l46 3q26 2 32 14q5 14 5 58z" />
    <glyph glyph-name="one.superior" horiz-adv-x="300" 
d="M130 379v238q0 19 -5 19h-2l-81 -34h-7l-4 32q23 8 76.5 27.5t84.5 30.5l10 -3q-8 -112 -8 -204v-106q0 -51 7.5 -65.5t34.5 -14.5h33v-26q-29 1 -64 2t-48 1q-14 0 -47.5 -1.5t-58.5 -1.5v26h36q27 0 35 14.5t8 65.5z" />
    <glyph glyph-name="two.superior" horiz-adv-x="300" 
d="M200 438l-115 -109h122q52 0 94 5q-1 -12 -1 -33q0 -19 1 -28q-14 0 -70 1.5t-85 1.5q-22 0 -46 -0.5t-54 -1.5t-46 -1v20l108 104q61 59 80.5 93t19.5 68q0 38 -21.5 60t-61.5 22q-56 0 -73 -47l-13 -35h-24q3 18 6.5 47t5.5 42q39 42 110 42q68 0 103.5 -32t35.5 -80
q0 -66 -76 -139z" />
    <glyph glyph-name="three.superior" horiz-adv-x="300" 
d="M27 578l19 71q39 40 105 40q55 0 87.5 -24.5t32.5 -66.5q0 -49 -72 -97q100 -13 100 -92q0 -61 -55 -102t-129 -41q-35 0 -88 16q-1 13 -26 94l31 8q14 -47 41 -66.5t70 -19.5q39 0 64.5 26.5t25.5 65.5t-21 60t-60 21q-35 0 -53 -13l-10 4l10 43q7 0 17 -0.5t15 -0.5
q34 0 57 23.5t23 52.5q0 26 -21 44.5t-51 18.5q-34 0 -58 -18.5t-29 -46.5h-25z" />
    <glyph glyph-name="dotlessi.sc" horiz-adv-x="333" 
d="M120 92v312q0 37 -18 46t-72 9v28q108 -3 132 -3q27 0 73.5 1.5t64.5 1.5v-28q-59 0 -74.5 -8t-15.5 -47v-312q0 -45 14.5 -56t75.5 -11v-28q-132 3 -133 3q-20 0 -43 -0.5t-51 -1.5t-43 -1v28q57 0 73.5 11.5t16.5 55.5z" />
    <glyph glyph-name="a.superior" horiz-adv-x="333" 
d="M150 590l64 10v3q0 74 -82 74q-35 0 -45 -12q-3 -3 -11 -20l-9 -19l-17 4v39l35 20q35 20 75 20q108 0 108 -95q0 -6 -2 -24v-102q0 -29 3 -35q4 -7 21 -9l20 -1v-17q-9 0 -25 1t-24 1q-9 0 -25 -1t-25 -1l3 51l-81 -52q-5 -3 -30 -3q-35 0 -57 18t-22 53q0 25 10.5 42.5
t31 28t39 16t45.5 10.5zM214 502v79q-56 -7 -95 -21q-17 -6 -28 -22.5t-11 -33.5q0 -22 15 -35t36 -13t62 26q11 7 21 20z" />
    <glyph glyph-name="o.superior" horiz-adv-x="333" 
d="M176 709q62 0 104.5 -39.5t42.5 -97.5q0 -69 -48 -112.5t-122 -43.5q-62 0 -102.5 39t-40.5 101q0 69 44.5 111t121.5 42zM161 689q-48 0 -69.5 -30t-21.5 -77q0 -57 25 -101.5t79 -44.5q41 0 65 32.5t24 77.5q0 60 -28.5 101.5t-73.5 41.5z" />
    <glyph glyph-name="fi.sc" horiz-adv-x="777" 
d="M108 94v300q0 44 -14.5 54.5t-73.5 10.5v28q93 -3 114 -3q32 0 92 4q62 4 91 4q61 0 103 -8q-9 -54 -12 -118h-28q-4 47 -10 78q-53 8 -170 8q-2 -45 -2 -189q28 -2 72 -2q41 0 51.5 10.5t16.5 56.5h28q-2 -40 -2 -89q0 -31 2 -87h-28q-4 51 -16 62t-53 11q-27 0 -71 -2
v-139q0 -36 15.5 -47.5t70.5 -11.5v-28q-84 3 -136 3q-30 0 -72.5 -1.5t-57.5 -1.5v28q57 0 73.5 13t16.5 56zM564 92v312q0 37 -18 46t-72 9v28q108 -3 132 -3q27 0 73.5 1.5t64.5 1.5v-28q-59 0 -74.5 -8t-15.5 -47v-312q0 -45 14.5 -56t75.5 -11v-28q-132 3 -133 3
q-20 0 -43 -0.5t-51 -1.5t-43 -1v28q57 0 73.5 11.5t16.5 55.5z" />
    <glyph glyph-name="fl.sc" horiz-adv-x="944" 
d="M108 94v300q0 44 -14.5 54.5t-73.5 10.5v28q93 -3 114 -3q32 0 92 4q62 4 91 4q61 0 103 -8q-9 -54 -12 -118h-28q-4 47 -10 78q-53 8 -170 8q-2 -45 -2 -189q28 -2 72 -2q41 0 51.5 10.5t16.5 56.5h28q-2 -40 -2 -89q0 -31 2 -87h-28q-4 51 -16 62t-53 11q-27 0 -71 -2
v-139q0 -36 15.5 -47.5t70.5 -11.5v-28q-84 3 -136 3q-30 0 -72.5 -1.5t-57.5 -1.5v28q57 0 73.5 13t16.5 56zM554 104v308q0 33 -15.5 40t-74.5 7v28q9 0 55 -1.5t73 -1.5q19 0 68 1.5t70 1.5v-28q-53 0 -69.5 -9.5t-16.5 -52.5v-265q0 -50 4 -93q40 -2 68 -2q107 0 146 14
l20 81h30q-12 -59 -17 -132q-49 -3 -123 -3q-54 0 -104.5 1.5t-67.5 1.5q-19 0 -36 -0.5t-36.5 -1.5t-31.5 -1v28q36 6 47 19t11 60z" />
    </font>
</defs>
</svg>
